<svg width="24" height="24" viewBox="0 0 24 24" fill="none" xmlns="http://www.w3.org/2000/svg">
<path fill-rule="evenodd" clip-rule="evenodd" d="M13.5027 22H10.0927C9.86265 22 9.66265 21.84 9.61265 21.62L9.09265 19.55C8.28265 19.24 7.53265 18.81 6.86265 18.26L4.62265 18.94C4.40265 19 4.16265 18.91 4.04265 18.72L2.07265 15.46C1.95265 15.26 1.98265 15.01 2.15265 14.85L3.94265 13.07C3.88265 12.69 3.86265 12.34 3.86265 12C3.86265 11.66 3.88265 11.3 3.94265 10.92L2.15265 9.14C1.99265 8.98 1.96265 8.72 2.07265 8.53L4.04265 5.27C4.16265 5.07 4.40265 4.98 4.61265 5.05L6.85265 5.73C7.52265 5.18 8.27265 4.75 9.09265 4.44L9.60265 2.38C9.66265 2.16 9.86265 2 10.0927 2H13.9127C14.1427 2 14.3427 2.16 14.4027 2.38L14.9227 4.44C15.7327 4.75 16.4827 5.18 17.1627 5.73L19.4027 5.05C19.6327 4.98 19.8627 5.07 19.9727 5.27L21.4627 7.73C21.6027 7.97 21.5327 8.27 21.2927 8.42C21.0627 8.56 20.7527 8.49 20.6027 8.25L19.3227 6.13L17.2027 6.77C17.0427 6.82 16.8627 6.78 16.7327 6.67C16.0327 6.06 15.2327 5.6 14.3627 5.3C14.2027 5.25 14.0827 5.11 14.0427 4.95L13.5227 3H10.4827L9.99265 4.94C9.95265 5.1 9.83265 5.24 9.67265 5.29C8.79265 5.6 7.99265 6.06 7.29265 6.67C7.16265 6.78 6.98265 6.82 6.82265 6.77L4.70265 6.12L3.13265 8.71L4.82265 10.39C4.93265 10.5 4.99265 10.67 4.96265 10.83C4.89265 11.25 4.86265 11.63 4.86265 12C4.86265 12.36 4.89265 12.74 4.96265 13.17C4.99265 13.33 4.93265 13.49 4.82265 13.61L3.13265 15.29L4.69265 17.88L6.81265 17.24C6.97265 17.19 7.15265 17.23 7.28265 17.34C7.98265 17.95 8.78265 18.41 9.65265 18.71C9.81265 18.76 9.93265 18.9 9.97265 19.06L10.4827 21H13.5027C13.7827 21 14.0027 21.22 14.0027 21.5C14.0027 21.78 13.7827 22 13.5027 22ZM12.5027 12H14.5027C14.7827 12 15.0027 11.78 15.0027 11.5C15.0027 11.22 14.7827 11 14.5027 11H12.5027C12.2227 11 12.0027 11.22 12.0027 11.5C12.0027 11.78 12.2227 12 12.5027 12ZM12.5027 15H14.5027C14.7827 15 15.0027 14.78 15.0027 14.5C15.0027 14.22 14.7827 14 14.5027 14H12.5027C12.2227 14 12.0027 14.22 12.0027 14.5C12.0027 14.78 12.2227 15 12.5027 15ZM14.5027 18H12.5027C12.2227 18 12.0027 17.78 12.0027 17.5C12.0027 17.22 12.2227 17 12.5027 17H14.5027C14.7827 17 15.0027 17.22 15.0027 17.5C15.0027 17.78 14.7827 18 14.5027 18ZM16.5027 12H21.5027C21.7727 12 22.0027 11.78 22.0027 11.5C22.0027 11.22 21.7727 11 21.5027 11H16.5027C16.2227 11 16.0027 11.22 16.0027 11.5C16.0027 11.78 16.2227 12 16.5027 12ZM21.5027 15H16.5027C16.2227 15 16.0027 14.78 16.0027 14.5C16.0027 14.22 16.2227 14 16.5027 14H21.5027C21.7827 14 22.0027 14.22 22.0027 14.5C22.0027 14.78 21.7727 15 21.5027 15ZM16.5027 18H21.5027C21.7727 18 22.0027 17.78 22.0027 17.5C22.0027 17.22 21.7827 17 21.5027 17H16.5027C16.2227 17 16.0027 17.22 16.0027 17.5C16.0027 17.78 16.2227 18 16.5027 18ZM9.77266 16.44C9.84266 16.48 9.92266 16.5 10.0027 16.5C10.1827 16.5 10.3627 16.4 10.4427 16.23C10.5727 15.99 10.4827 15.69 10.2327 15.56C8.88265 14.86 8.00266 13.46 8.00266 12C8.00266 9.79 9.79265 8 12.0027 8C12.4627 8 12.9127 8.08 13.3327 8.23C13.5927 8.33 13.8827 8.19 13.9727 7.93C14.0727 7.67 13.9327 7.38 13.6727 7.29C13.1427 7.1 12.5727 7 12.0027 7C9.24265 7 7.00266 9.24 7.00266 12C7.00266 13.83 8.09266 15.58 9.77266 16.44Z" fill="#555555"/>
</svg>
