<svg width="24" height="24" viewBox="0 0 24 24" fill="none" xmlns="http://www.w3.org/2000/svg">
<path fill-rule="evenodd" clip-rule="evenodd" d="M17 10.0002H21.5C21.78 10.0002 22 10.2202 22 10.5002V21.5002C22 21.7802 21.78 22.0002 21.5 22.0002H2.5C2.22 22.0002 2 21.7802 2 21.5002V6.50024C2 6.22023 2.22 6.00024 2.5 6.00024H6V2.50023C6 2.33023 6.09 2.17023 6.24 2.07023C6.38 1.98023 6.57 1.98023 6.72 2.05023L16.72 7.05024C16.89 7.14024 17 7.31024 17 7.50024V10.0002ZM19 13.0002H17V14.0002H19V13.0002ZM16 7.81024L7 3.31023V14.0002H16V7.81024ZM4.5 18.0002H3V21.0002H6V7.00024H3V8.00024H4.5C4.78 8.00024 5 8.22023 5 8.50024C5 8.78024 4.78 9.00024 4.5 9.00024H3V11.0002H4.5C4.78 11.0002 5 11.2202 5 11.5002C5 11.7802 4.78 12.0002 4.5 12.0002H3V14.0002H4.5C4.78 14.0002 5 14.2202 5 14.5002C5 14.7802 4.78 15.0002 4.5 15.0002H3V17.0002H4.5C4.78 17.0002 5 17.2202 5 17.5002C5 17.7802 4.78 18.0002 4.5 18.0002ZM9 21.0002V18.0002H8.5C8.22 18.0002 8 17.7802 8 17.5002C8 17.2202 8.22 17.0002 8.5 17.0002H14.5C14.78 17.0002 15 17.2202 15 17.5002C15 17.7802 14.78 18.0002 14.5 18.0002H14V21.0002H16V15.0002H7V21.0002H9ZM10 18.0002V21.0002H13V18.0002H10ZM17 18.0002V21.0002H19V18.0002H17ZM20 21.0002H21V11.0002H17V12.0002H19.5C19.78 12.0002 20 12.2202 20 12.5002V14.5002C20 14.7802 19.78 15.0002 19.5 15.0002H17V17.0002H19.5C19.78 17.0002 20 17.2202 20 17.5002V21.0002ZM10 12.5002C10 12.7802 9.78 13.0002 9.5 13.0002C9.22 13.0002 9 12.7802 9 12.5002V6.50024C9 6.22024 9.22 6.00024 9.5 6.00024C9.78 6.00024 10 6.22024 10 6.50024V12.5002ZM11.5 13.0002C11.78 13.0002 12 12.7802 12 12.5002V7.50024C12 7.22024 11.78 7.00024 11.5 7.00024C11.22 7.00024 11 7.22024 11 7.50024V12.5002C11 12.7802 11.22 13.0002 11.5 13.0002ZM14 12.5002C14 12.7802 13.78 13.0002 13.5 13.0002C13.22 13.0002 13 12.7802 13 12.5002V8.50024C13 8.22024 13.22 8.00024 13.5 8.00024C13.78 8.00024 14 8.22024 14 8.50024V12.5002Z" fill="#555555"/>
</svg>
