<svg width="24" height="24" viewBox="0 0 24 24" fill="none" xmlns="http://www.w3.org/2000/svg">
<path fill-rule="evenodd" clip-rule="evenodd" d="M21.9855 9.15501C21.9878 9.26659 21.99 9.37159 21.99 9.47001C22.01 10.73 22.02 11.36 21.23 12.14L12.5 21.49C12.16 21.83 11.71 22 11.27 22C10.84 22 10.4 21.83 10.07 21.49L4.5 15.93C3.83 15.27 3.83 14.18 4.5 13.51L4.56 13.46L2.42 11.33C1.86 10.77 1.86 9.87001 2.42 9.31001L9.58 2.60001C10.2 1.99001 10.89 1.99001 11.85 2.00001H14.55C15.34 2.00001 15.98 2.64 15.98 3.43V4.01H16.72H20.27C21.21 4.01 21.98 4.77 21.98 5.72001V8.75001C21.98 8.89348 21.9828 9.02848 21.9855 9.15501ZM11.84 3.00001C10.93 2.99001 10.59 3.01001 10.28 3.32001L4.42 8.80001L6.9 11.27L8.27 9.99001L6.64 8.36001C6.44 8.16001 6.44 7.85001 6.64 7.65001C6.84 7.45001 7.15 7.45001 7.35 7.65001L9 9.30001L9.82 8.54001L8.14 6.86001C7.94 6.66001 7.94 6.35001 8.14 6.15001C8.34 5.95001 8.65 5.95001 8.85 6.15001L10.55 7.85001L11.71 6.77001C11.28 6.50001 11 6.04001 11 5.50001C11 4.67001 11.67 4.00001 12.5 4.00001C13.07 4.00001 13.56 4.32 13.82 4.8L13.87 4.75001C14.21 4.40001 14.58 4.22 14.99 4.12V3.43C14.99 3.19 14.8 3.00001 14.56 3.00001H11.84ZM12.5 5.00001C12.22 5.00001 12 5.22001 12 5.50001C12 5.79 12.25 6.02001 12.53 6.00001L13 5.56V5.50001C13 5.22001 12.78 5.00001 12.5 5.00001ZM3.11 10.03C2.96 10.18 2.96 10.46 3.12 10.62L5.28 12.79L6.2 11.92L3.73 9.45001L3.11 10.03ZM5.2 15.23L10.77 20.79C11.05 21.07 11.5 21.07 11.78 20.79L12.06 20.49L5.5 13.94L5.19 14.23C4.92 14.5 4.92 14.95 5.2 15.23ZM12.75 19.77L20.52 11.45C21 10.96 21.01 10.69 20.99 9.47001C20.98 9.25001 20.98 9.01 20.98 8.74001V5.71001C20.98 5.32001 20.66 5.00001 20.27 5.00001H16.72H16.34C15.41 5.00001 14.97 5.06 14.57 5.47001L6.24 13.26L12.75 19.77ZM9.63999 11.65C9.83999 11.45 10.15 11.45 10.35 11.65L14.34 15.65C14.54 15.85 14.54 16.16 14.34 16.36C14.25 16.46 14.11 16.51 13.99 16.51C13.87 16.51 13.74 16.46 13.64 16.36L9.63999 12.36C9.43999 12.16 9.43999 11.85 9.63999 11.65ZM12.35 9.65C12.15 9.45 11.84 9.45 11.64 9.65C11.44 9.85 11.44 10.16 11.64 10.36L15.64 14.36C15.74 14.46 15.87 14.51 15.99 14.51C16.11 14.51 16.25 14.46 16.34 14.36C16.54 14.16 16.54 13.85 16.34 13.65L12.35 9.65ZM16.5 7.75C16.5 6.79 17.29 6 18.25 6C19.21 6 20 6.78 20 7.75C20 8.72 19.21 9.5 18.25 9.5C17.29 9.5 16.5 8.71 16.5 7.75ZM17.5 7.75C17.5 8.16 17.84 8.5 18.25 8.5C18.66 8.5 19 8.16 19 7.75C19 7.34 18.66 7 18.25 7C17.84 7 17.5 7.34 17.5 7.75Z" fill="#555555"/>
</svg>
