<svg width="24" height="24" viewBox="0 0 24 24" fill="none" xmlns="http://www.w3.org/2000/svg">
<path fill-rule="evenodd" clip-rule="evenodd" d="M8.50096 5.5C8.50096 7.43 10.0705 9 12 9C13.9295 9 15.4991 7.43 15.4991 5.5C15.4991 3.57 13.9295 2 12 2C10.0705 2 8.50096 3.57 8.50096 5.5ZM9.5007 5.5C9.5007 4.12 10.6204 3 12 3C13.3797 3 14.4994 4.12 14.4994 5.5C14.4994 6.88 13.3797 8 12 8C10.6204 8 9.5007 6.88 9.5007 5.5ZM6.00162 12C6.00162 15.31 8.69091 18 12 18C15.3092 18 17.9984 15.31 17.9984 12C17.9984 11.72 17.7785 11.5 17.4986 11.5C17.2186 11.5 16.9987 11.72 16.9987 12C16.9987 14.76 14.7593 17 12 17C9.24076 17 7.00136 14.76 7.00136 12C7.00136 11.72 6.78142 11.5 6.50149 11.5C6.22157 11.5 6.00162 11.72 6.00162 12ZM15.4991 12C15.4091 12 15.3091 11.97 15.2291 11.92C13.4296 10.74 10.5804 10.74 8.78083 11.92C8.5409 12.07 8.23098 12 8.08102 11.77C7.93106 11.54 7.99104 11.23 8.23098 11.08C10.3604 9.68 13.6495 9.68 15.779 11.08C16.0089 11.23 16.0689 11.54 15.9189 11.77C15.819 11.92 15.659 12 15.4991 12ZM10.2605 22H13.7395C13.9695 22 14.1694 21.85 14.2294 21.63L14.7593 19.57C15.589 19.26 16.3588 18.82 17.0487 18.27L19.3481 18.95C19.568 19.01 19.7979 18.92 19.9179 18.73L21.9274 15.47C22.0473 15.27 22.0173 15.01 21.8474 14.85L20.0179 13.07C20.0679 12.69 20.0979 12.34 20.0979 12C20.0979 11.66 20.0779 11.31 20.0079 10.94L21.8374 9.16001C22.0073 9.00001 22.0373 8.74001 21.9174 8.54001L19.9079 5.28001C19.7979 5.09001 19.568 5.00001 19.3481 5.06001L16.7987 5.82001C16.5288 5.90001 16.3788 6.18001 16.4588 6.44001C16.5388 6.71001 16.8087 6.86001 17.0787 6.78001L19.2581 6.13001L20.8577 8.72001L19.1381 10.4C19.0281 10.51 18.9682 10.68 18.9981 10.84C19.0681 11.26 19.1081 11.64 19.1081 12C19.1081 12.36 19.0681 12.74 18.9981 13.16C18.9682 13.32 19.0181 13.48 19.1381 13.6L20.8577 15.28L19.2581 17.87L17.0787 17.22C16.9087 17.17 16.7387 17.21 16.6088 17.32C15.899 17.93 15.0792 18.4 14.1794 18.7C14.0095 18.75 13.8895 18.89 13.8495 19.05L13.3496 21H10.6404L10.1505 19.04C10.1105 18.88 9.99053 18.74 9.83058 18.69C8.93081 18.39 8.11103 17.93 7.40122 17.32C7.27125 17.21 7.0913 17.17 6.93134 17.22L4.74193 17.87L3.14235 15.28L4.86189 13.6C4.97186 13.49 5.03185 13.32 5.00186 13.16C4.93188 12.74 4.90188 12.37 4.90188 12C4.90188 11.63 4.93188 11.25 5.00186 10.83C5.03185 10.67 4.98186 10.5 4.86189 10.39L3.14235 8.71001L4.74193 6.12001L6.92135 6.77001C7.19128 6.85001 7.4612 6.69001 7.54118 6.43001C7.62116 6.17001 7.4612 5.89001 7.20127 5.81001L4.65195 5.05001C4.44201 4.99001 4.20207 5.08001 4.0821 5.27001L2.07263 8.53001C1.95267 8.73001 1.98266 8.99001 2.15261 9.15001L3.98213 10.93C3.92214 11.3 3.90215 11.66 3.90215 12C3.90215 12.34 3.92214 12.69 3.99212 13.06L2.16261 14.84C1.99266 15 1.96266 15.26 2.08263 15.46L4.0921 18.72C4.20207 18.91 4.44201 19 4.66195 18.94L6.96134 18.26C7.65115 18.81 8.42095 19.24 9.25073 19.55L9.78059 21.62C9.83058 21.85 10.0305 22 10.2605 22Z" fill="#555555"/>
</svg>
