<svg width="24" height="24" viewBox="0 0 24 24" fill="none" xmlns="http://www.w3.org/2000/svg">
<path fill-rule="evenodd" clip-rule="evenodd" d="M3.14943 4.85857C3.23938 4.95852 3.36932 5.0085 3.49925 5.0085C3.62919 5.0085 3.75912 4.95852 3.85907 4.85857L5.85807 2.85957C6.05797 2.65967 6.05797 2.34983 5.85807 2.14993C5.65817 1.95002 5.34833 1.95002 5.14843 2.14993L3.49925 3.7991L2.85957 3.14943C2.65967 2.94953 2.34983 2.94953 2.14993 3.14943C1.95002 3.34933 1.95002 3.65917 2.14993 3.85907L3.14943 4.85857ZM19.4913 4.00951H7.49725C7.21739 4.00951 6.9975 3.78951 6.9975 3.50951C6.9975 3.22951 7.21739 3.00951 7.49725 3.00951H19.4913C19.7711 3.00951 19.991 3.22951 19.991 3.50951C19.991 3.78951 19.7711 4.00951 19.4913 4.00951ZM19.4913 9.00701H7.49725C7.21739 9.00701 6.9975 8.78701 6.9975 8.50701C6.9975 8.22701 7.21739 8.00701 7.49725 8.00701H19.4913C19.7711 8.00701 19.991 8.22701 19.991 8.50701C19.991 8.78701 19.7711 9.00701 19.4913 9.00701ZM7.49725 14.0045H14.4438C14.7136 14.0045 14.9435 13.7845 14.9435 13.5045C14.9435 13.2245 14.7236 13.0045 14.4438 13.0045H7.49725C7.21739 13.0045 6.9975 13.2245 6.9975 13.5045C6.9975 13.7845 7.21739 14.0045 7.49725 14.0045ZM3.49925 15.0035C2.66967 15.0035 2 14.3338 2 13.5043C2 12.6747 2.66967 12.005 3.49925 12.005C4.32884 12.005 4.9985 12.6747 4.9985 13.5043C4.9985 14.3338 4.32884 15.0035 3.49925 15.0035ZM3.49925 13.0045C3.21939 13.0045 2.9995 13.2244 2.9995 13.5043C2.9995 13.7841 3.21939 14.004 3.49925 14.004C3.77911 14.004 3.999 13.7841 3.999 13.5043C3.999 13.2244 3.77911 13.0045 3.49925 13.0045ZM7.49725 19.002H9.44627C9.71614 19.002 9.94602 18.782 9.94602 18.502C9.94602 18.222 9.72613 18.002 9.44627 18.002H7.49725C7.21739 18.002 6.9975 18.222 6.9975 18.502C6.9975 18.782 7.21739 19.002 7.49725 19.002ZM3.49925 20.001C2.66967 20.001 2 19.3313 2 18.5018C2 17.6722 2.66967 17.0025 3.49925 17.0025C4.32884 17.0025 4.9985 17.6722 4.9985 18.5018C4.9985 19.3313 4.32884 20.001 3.49925 20.001ZM3.49925 18.002C3.21939 18.002 2.9995 18.2219 2.9995 18.5018C2.9995 18.7816 3.21939 19.0015 3.49925 19.0015C3.77911 19.0015 3.999 18.7816 3.999 18.5018C3.999 18.2219 3.77911 18.002 3.49925 18.002ZM11.4952 22C11.3653 22 11.2354 21.95 11.1454 21.8501C10.9955 21.7101 10.9555 21.5002 11.0355 21.3103L12.075 18.7516C12.1049 18.6917 12.1349 18.6317 12.1849 18.5817L19.6212 11.1454C19.8211 10.9455 20.1309 10.9455 20.3308 11.1454L21.8501 12.6647C22.05 12.8646 22.05 13.1744 21.8501 13.3743L14.4138 20.8106C14.3638 20.8606 14.3138 20.8906 14.2439 20.9205L11.6852 21.96C11.6252 21.99 11.5552 22 11.4952 22ZM12.9545 19.2214L12.3948 20.5907L13.7641 20.041L20.7806 13.0245L19.971 12.2149L12.9545 19.2214ZM3.14943 9.85607C3.23938 9.95602 3.36932 10.006 3.49925 10.006C3.62919 10.006 3.75912 9.95602 3.85907 9.85607L5.85807 7.85707C6.05797 7.65717 6.05797 7.34733 5.85807 7.14743C5.65817 6.94753 5.34833 6.94753 5.14843 7.14743L3.49925 8.7966L2.85957 8.14693C2.65967 7.94703 2.34983 7.94703 2.14993 8.14693C1.95002 8.34683 1.95002 8.65667 2.14993 8.85657L3.14943 9.85607Z" fill="#555555"/>
</svg>
