<svg width="24" height="24" viewBox="0 0 24 24" fill="none" xmlns="http://www.w3.org/2000/svg">
<path fill-rule="evenodd" clip-rule="evenodd" d="M3.5 2C2.67 2 2 2.67 2 3.5C2 4.33 2.67 5 3.5 5C4.33 5 5 4.33 5 3.5C5 2.67 4.33 2 3.5 2ZM3.5 4C3.22 4 3 3.78 3 3.5C3 3.22 3.22 3 3.5 3C3.78 3 4 3.22 4 3.5C4 3.78 3.78 4 3.5 4ZM7.5 4H19.5C19.78 4 20 3.78 20 3.5C20 3.22 19.78 3 19.5 3H7.5C7.22 3 7 3.22 7 3.5C7 3.78 7.22 4 7.5 4ZM21.85 21.15L17.74 17.04C18.8 15.82 19.45 14.22 19.45 12.48C19.45 11.21 19.11 10.03 18.52 9.01H19.5C19.78 9 20 8.78 20 8.5C20 8.22 19.78 8 19.5 8H17.82C16.54 6.47 14.62 5.5 12.47 5.5C8.62 5.5 5.5 8.62 5.5 12.47C5.5 14.72 6.57 16.72 8.23 18H7.5C7.22 18 7 18.22 7 18.5C7 18.78 7.22 19 7.5 19H9.93C9.94 19 9.95 18.9975 9.96 18.995L9.96002 18.995C9.97002 18.9925 9.98001 18.99 9.99 18.99C10.76 19.28 11.59 19.45 12.47 19.45C14.22 19.45 15.81 18.8 17.03 17.74L21.14 21.85C21.24 21.95 21.37 22 21.49 22C21.61 22 21.75 21.95 21.84 21.85C22.05 21.66 22.05 21.34 21.85 21.15ZM12.47 18.45C9.18 18.45 6.5 15.77 6.5 12.48C6.5 9.19 9.18 6.51 12.47 6.51C15.76 6.51 18.44 9.19 18.44 12.48C18.45 15.77 15.77 18.45 12.47 18.45ZM2 13.5C2 12.67 2.67 12 3.5 12C4.33 12 5 12.67 5 13.5C5 14.33 4.33 15 3.5 15C2.67 15 2 14.33 2 13.5ZM3 13.5C3 13.78 3.22 14 3.5 14C3.78 14 4 13.78 4 13.5C4 13.22 3.78 13 3.5 13C3.22 13 3 13.22 3 13.5ZM3.5 17C2.67 17 2 17.67 2 18.5C2 19.33 2.67 20 3.5 20C4.33 20 5 19.33 5 18.5C5 17.67 4.33 17 3.5 17ZM3.5 19C3.22 19 3 18.78 3 18.5C3 18.22 3.22 18 3.5 18C3.78 18 4 18.22 4 18.5C4 18.78 3.78 19 3.5 19ZM2 8.5C2 7.67 2.67 7 3.5 7C4.33 7 5 7.67 5 8.5C5 9.33 4.33 10 3.5 10C2.67 10 2 9.33 2 8.5ZM3 8.5C3 8.78 3.22 9 3.5 9C3.78 9 4 8.78 4 8.5C4 8.22 3.78 8 3.5 8C3.22 8 3 8.22 3 8.5ZM11.46 13.75L15.11 9.19001C15.28 8.97001 15.6 8.94001 15.81 9.11001C16.03 9.28001 16.06 9.59001 15.89 9.81001L11.89 14.81C11.8 14.92 11.67 14.99 11.53 15H11.5C11.37 15 11.24 14.95 11.15 14.86L9.15 12.86C8.95 12.66 8.95 12.35 9.15 12.15C9.35 11.95 9.66 11.95 9.86 12.15L11.46 13.75Z" fill="#555555"/>
</svg>
