<svg width="24" height="24" viewBox="0 0 24 24" fill="none" xmlns="http://www.w3.org/2000/svg">
<path fill-rule="evenodd" clip-rule="evenodd" d="M22 12C22 13.88 21.47 15.63 20.57 17.13L21.98 21.34C22.06 21.6 21.92 21.88 21.66 21.97C21.61 21.99 21.55 22 21.5 22C21.29 22 21.1 21.87 21.03 21.66L19.86 18.16C18.03 20.49 15.19 22 12 22C8.81 22 5.97 20.49 4.14 18.16L2.97 21.66C2.9 21.87 2.71 22 2.5 22C2.45 22 2.39 21.99 2.35 21.97C2.08 21.88 1.94 21.6 2.03 21.34L3.43 17.13C2.53 15.63 2 13.88 2 12C2 6.49 6.49 2 12 2C13.47 2 14.89 2.31 16.21 2.93C16.46 3.04 16.57 3.34 16.45 3.59C16.34 3.84 16.04 3.94 15.79 3.83C14.6 3.28 13.32 3 12 3C7.04 3 3 7.04 3 12C3 16.96 7.04 21 12 21C16.96 21 21 16.96 21 12C21 10.67 20.72 9.4 20.17 8.2C20.05 7.95 20.16 7.66 20.41 7.54C20.66 7.42 20.95 7.53 21.07 7.78C21.69 9.11 22 10.53 22 12ZM12.86 9.12C12.58 9.04 12.29 9 12 9C10.35 9 9 10.35 9 12C9 13.65 10.35 15 12 15C13.65 15 15 13.65 15 12C15 11.71 14.96 11.42 14.87 11.14C14.79 10.88 14.95 10.6 15.21 10.52C15.47 10.44 15.75 10.6 15.83 10.86C15.94 11.23 16 11.61 16 12C16 14.21 14.21 16 12 16C9.79 16 8 14.21 8 12C8 9.79 9.79 8 12 8C12.39 8 12.77 8.06 13.14 8.16C13.41 8.24 13.56 8.51 13.48 8.78C13.4 9.05 13.13 9.2 12.86 9.12ZM12.178 11.0328L12.1779 11.0327C12.1215 11.0162 12.0662 11 12 11C11.45 11 11 11.45 11 12C11 12.55 11.45 13 12 13C12.55 13 13 12.55 13 12C13 11.9339 12.9838 11.8785 12.9673 11.8221L12.9672 11.822C12.9613 11.8017 12.9553 11.7812 12.95 11.76L17.71 7.00001H19.5C19.63 7.00001 19.76 6.95001 19.85 6.85001L21.85 4.85001C22 4.71001 22.04 4.50001 21.96 4.31001C21.88 4.12001 21.7 4.00001 21.5 4.00001H20.71L21.36 3.35001C21.56 3.15001 21.56 2.84001 21.36 2.64001C21.16 2.44001 20.85 2.44001 20.65 2.64001L20 3.29001V2.50001C20 2.30001 19.88 2.12001 19.69 2.04001C19.5 1.96001 19.29 2.01001 19.15 2.15001L17.15 4.15001C17.05 4.24001 17 4.37001 17 4.50001V6.29001L12.24 11.05C12.2188 11.0447 12.1983 11.0387 12.178 11.0328ZM18 4.71001L19 3.71001V4.50001C19 4.78001 19.22 5.00001 19.5 5.00001H20.29L19.29 6.00001H18V4.71001ZM15.23 5.79C15.47 5.91 15.57 6.22 15.44 6.46C15.32 6.71 15.01 6.8 14.77 6.68C13.92 6.23 12.96 6 12 6C8.69 6 6 8.69 6 12C6 15.31 8.69 18 12 18C15.31 18 18 15.31 18 12C18 11.02 17.77 10.09 17.33 9.23C17.2 8.99 17.3 8.69 17.54 8.56C17.78 8.43 18.08 8.52 18.21 8.77C18.73 9.76 19 10.88 19 12C19 15.86 15.86 19 12 19C8.14 19 5 15.86 5 12C5 8.14 8.14 5 12 5C13.12 5 14.24 5.27 15.23 5.79Z" fill="#555555"/>
</svg>
