<svg width="24" height="24" viewBox="0 0 24 24" fill="none" xmlns="http://www.w3.org/2000/svg">
<path fill-rule="evenodd" clip-rule="evenodd" d="M17.5 2C17.64 2 17.76 2.05 17.85 2.15L21.85 6.15C21.95 6.24 22 6.37 22 6.5V19.5C22 19.78 21.78 20 21.5 20H17.5C17.22 20 17 19.78 17 19.5C17 19.22 17.22 19 17.5 19H21V7H17.5C17.23 7 17 6.77 17 6.5V3H8.5C8.22 3 8 2.78 8 2.5C8 2.22 8.22 2 8.5 2H17.5ZM20.29 6L18 3.71V6H20.29ZM20 15.5C20 15.78 19.78 16 19.5 16H16V21.5C16 21.78 15.78 22 15.5 22H2.5C2.22 22 2 21.78 2 21.5V4.5C2 4.22 2.22 4 2.5 4H11.5C11.64 4 11.76 4.05 11.86 4.15L13.71 6H15.5C15.78 6 16 6.22 16 6.5C16 6.78 15.78 7 15.5 7H14.71L15.85 8.15C15.95 8.24 16 8.37 16 8.5V9H19.5C19.78 9 20 9.22 20 9.5C20 9.78 19.78 10 19.5 10H16V12H19.5C19.78 12 20 12.22 20 12.5C20 12.78 19.78 13 19.5 13H16V15H19.5C19.78 15 20 15.22 20 15.5ZM14.29 8L12 5.71V8H14.29ZM3 5V21H15V9H11.5C11.23 9 11 8.77 11 8.5V5H3ZM4.5 9H9.5C9.78 9 10 8.78 10 8.5C10 8.22 9.78 8 9.5 8H4.5C4.22 8 4 8.22 4 8.5C4 8.78 4.22 9 4.5 9ZM4.5 11H13.5C13.78 11 14 11.22 14 11.5C14 11.78 13.78 12 13.5 12H4.5C4.22 12 4 11.78 4 11.5C4 11.22 4.22 11 4.5 11ZM13.5 14H4.5C4.22 14 4 14.22 4 14.5C4 14.78 4.22 15 4.5 15H13.5C13.78 15 14 14.78 14 14.5C14 14.22 13.78 14 13.5 14ZM4.5 17H13.5C13.78 17 14 17.22 14 17.5C14 17.78 13.78 18 13.5 18H4.5C4.22 18 4 17.78 4 17.5C4 17.22 4.22 17 4.5 17Z" fill="#555555"/>
</svg>
