<svg width="24" height="24" viewBox="0 0 24 24" fill="none" xmlns="http://www.w3.org/2000/svg">
<path fill-rule="evenodd" clip-rule="evenodd" d="M3.15 4.85857C3.24 4.95852 3.37 5.00849 3.5 5.00849C3.63 5.00849 3.76 4.95852 3.86 4.85857L5.86 2.85957C6.06 2.65967 6.06 2.34982 5.86 2.14992C5.66 1.95002 5.35 1.95002 5.15 2.14992L3.5 3.7991L2.86 3.14942C2.66 2.94952 2.35 2.94952 2.15 3.14942C1.95 3.34932 1.95 3.65917 2.15 3.85907L3.15 4.85857ZM19.5 4.0095H7.5C7.22 4.0095 7 3.7895 7 3.5095C7 3.2295 7.22 3.0095 7.5 3.0095H19.5C19.78 3.0095 20 3.2295 20 3.5095C20 3.7895 19.78 4.0095 19.5 4.0095ZM19.5 9.007H7.5C7.22 9.007 7 8.787 7 8.507C7 8.227 7.22 8.007 7.5 8.007H19.5C19.78 8.007 20 8.227 20 8.507C20 8.787 19.78 9.007 19.5 9.007ZM7.5 14.0045H11.45C11.72 14.0045 11.95 13.7845 11.95 13.5045C11.95 13.2245 11.73 13.0045 11.45 13.0045H7.5C7.22 13.0045 7 13.2245 7 13.5045C7 13.7845 7.22 14.0045 7.5 14.0045ZM3.5 15.0035C2.67 15.0035 2 14.3338 2 13.5042C2 12.6747 2.67 12.005 3.5 12.005C4.33 12.005 5 12.6747 5 13.5042C5 14.3338 4.33 15.0035 3.5 15.0035ZM3.5 13.0045C3.22 13.0045 3 13.2244 3 13.5042C3 13.7841 3.22 14.004 3.5 14.004C3.78 14.004 4 13.7841 4 13.5042C4 13.2244 3.78 13.0045 3.5 13.0045ZM7.5 19.002H8.5C8.78 19.002 9 18.782 9 18.502C9 18.222 8.78 18.002 8.5 18.002H7.5C7.22 18.002 7 18.222 7 18.502C7 18.782 7.22 19.002 7.5 19.002ZM3.5 20.001C2.67 20.001 2 19.3313 2 18.5017C2 17.6722 2.67 17.0025 3.5 17.0025C4.33 17.0025 5 17.6722 5 18.5017C5 19.3313 4.33 20.001 3.5 20.001ZM3.5 18.002C3.22 18.002 3 18.2219 3 18.5017C3 18.7816 3.22 19.0015 3.5 19.0015C3.78 19.0015 4 18.7816 4 18.5017C4 18.2219 3.78 18.002 3.5 18.002ZM3.5 10.006C3.37 10.006 3.24 9.95601 3.15 9.85606L2.15 8.85656C1.95 8.65666 1.95 8.34682 2.15 8.14692C2.35 7.94702 2.66 7.94702 2.86 8.14692L3.5 8.79659L5.15 7.14742C5.35 6.94752 5.66 6.94752 5.86 7.14742C6.06 7.34732 6.06 7.65716 5.86 7.85706L3.86 9.85606C3.76 9.95601 3.63 10.006 3.5 10.006ZM16.5 19.0015C16.5 19.5535 16.0523 20.001 15.5 20.001C14.9477 20.001 14.5 19.5535 14.5 19.0015C14.5 18.4495 14.9477 18.002 15.5 18.002C16.0523 18.002 16.5 18.4495 16.5 19.0015ZM15.5 17.5022C15.22 17.5022 15 17.2823 15 17.0025V14.004C15 13.7241 15.22 13.5042 15.5 13.5042C15.78 13.5042 16 13.7241 16 14.004V17.0025C16 17.2823 15.78 17.5022 15.5 17.5022ZM9.5 22H21.5C21.68 22 21.84 21.91 21.93 21.7501C22.02 21.6002 22.02 21.4103 21.94 21.2604L15.94 10.2659C15.76 9.94604 15.23 9.94604 15.06 10.2659L9.06 21.2604C8.98 21.4103 8.98 21.6002 9.07 21.7501C9.16 21.91 9.32 22 9.5 22ZM20.66 21.0005H10.34L15.5 11.5452L20.66 21.0005Z" fill="#555555"/>
</svg>
