<svg width="24" height="24" viewBox="0 0 24 24" fill="none" xmlns="http://www.w3.org/2000/svg">
<path d="M21.76 8.07003L11.76 2.07003C11.6 1.98003 11.41 1.98003 11.26 2.06003L2.26 7.07003C2.1 7.16003 2 7.33003 2 7.50003C2 7.68003 2.09 7.85003 2.24 7.94003L4 9.00003V18.48C3.67 18.8 3 19.56 3 20.5C3 21.24 3.56 22 4.5 22C5.44 22 6 21.24 6 20.5C6 19.56 5.33 18.8 5 18.48V9.60003L6 10.2V15C6 17.24 8.64 19 12 19C15.36 19 18 17.24 18 15V11.02L21.74 8.93003C21.9 8.85003 22 8.69003 22 8.51003C22 8.33003 21.91 8.16003 21.76 8.07003ZM4.5 21C4.14 21 4 20.69 4 20.5C4 20.09 4.26 19.68 4.5 19.4C4.74 19.68 5 20.09 5 20.5C5 20.69 4.86 21 4.5 21ZM17 15C17 16.63 14.71 18 12 18C9.29 18 7 16.63 7 15V10.8L12.24 13.95C12.32 14 12.41 14.02 12.5 14.02C12.58 14.02 12.67 14 12.74 13.96L17 11.58V15ZM12.51 12.94L5.95 9.00003H12C12.28 9.00003 12.5 8.78003 12.5 8.50003C12.5 8.22003 12.28 8.00003 12 8.00003H4.5C4.44 8.00003 4.39 8.01003 4.34 8.03003L3.5 7.53003L11.49 3.08003L20.5 8.49003L12.51 12.94Z" fill="#555555"/>
</svg>
