<svg width="24" height="24" viewBox="0 0 24 24" fill="none" xmlns="http://www.w3.org/2000/svg">
<path fill-rule="evenodd" clip-rule="evenodd" d="M2 12C2 6.49 6.49 2 12 2C17.51 2 22 6.49 22 12C22 17.51 17.51 22 12 22C6.49 22 2 17.51 2 12ZM13.42 4.95C12.96 3.64 12.38 3 12 3C11.62 3 11.04 3.64 10.58 4.95C11.05 4.98 11.52 5 12 5C12.48 5 12.95 4.98 13.42 4.95ZM7.15 4.42C7.91 4.61 8.71 4.76 9.55 4.85C9.77 4.18 10.03 3.61 10.31 3.16C9.17 3.37 8.1 3.81 7.15 4.42ZM16.84 4.42C15.9 3.81 14.83 3.38 13.68 3.16C13.97 3.61 14.23 4.18 14.45 4.85C15.29 4.75 16.09 4.61 16.84 4.42ZM10.58 19.05C11.04 20.36 11.62 21 12 21C12.38 21 12.96 20.36 13.42 19.05C12.95 19.02 12.48 19 12 19C11.52 19 11.05 19.02 10.58 19.05ZM16.85 19.58C16.09 19.39 15.29 19.24 14.45 19.15C14.23 19.82 13.97 20.39 13.69 20.84C14.84 20.62 15.9 20.19 16.85 19.58ZM7.16 19.58C8.11 20.19 9.17 20.62 10.32 20.84C10.03 20.39 9.77 19.82 9.56 19.15C8.72 19.25 7.91 19.39 7.16 19.58ZM14.72 18.17C15.84 18.31 16.9 18.52 17.86 18.82C18.47 18.3 19.01 17.7 19.46 17.05C18.92 16.88 18.4 16.73 17.87 16.61C17.6 16.55 17.43 16.28 17.49 16.01C17.55 15.74 17.82 15.57 18.09 15.63C18.71 15.77 19.33 15.95 19.97 16.16C20.55 15.06 20.9 13.82 20.97 12.51H20C19.72 12.51 19.5 12.29 19.5 12.01C19.5 11.73 19.72 11.51 20 11.51H20.97C20.89 10.2 20.55 8.96 19.97 7.86C19.33 8.07 18.72 8.25 18.1 8.39C18.06 8.4 18.03 8.4 17.99 8.4C17.76 8.4 17.55 8.24 17.5 8.01C17.44 7.74 17.61 7.47 17.88 7.41C18.4 7.29 18.92 7.14 19.45 6.97C19 6.3 18.46 5.7 17.85 5.18C16.89 5.48 15.83 5.7 14.71 5.83C14.82 6.33 14.92 6.86 14.99 7.44C15.03 7.72 14.83 7.97 14.56 8H14.5C14.25 8 14.04 7.81 14 7.56C13.92 6.95 13.82 6.42 13.7 5.94C13.15 5.98 12.58 6 12 6C11.42 6 10.85 5.98 10.3 5.94C10.18 6.42 10.08 6.95 10 7.56C9.96 7.84 9.72 8.04 9.44 8C9.16 7.96 8.97 7.71 9 7.44C9.08 6.86 9.17 6.33 9.28 5.83C8.16 5.69 7.1 5.48 6.14 5.18C5.54 5.7 4.99 6.3 4.54 6.97C5.07 7.14 5.59 7.29 6.11 7.4C6.38 7.46 6.55 7.73 6.49 8C6.43 8.23 6.23 8.39 6 8.39H5.99999C5.96 8.39 5.93 8.39 5.9 8.38C5.28 8.24 4.66 8.06 4.03 7.85C3.45 8.95 3.1 10.19 3.03 11.5H4C4.28 11.5 4.5 11.71 4.5 11.99C4.5 12.27 4.28 12.49 4 12.49H3.03C3.11 13.8 3.45 15.04 4.03 16.14C4.66 15.93 5.29 15.75 5.91 15.61C6.18 15.55 6.45 15.72 6.51 15.99C6.57 16.26 6.4 16.53 6.13 16.59C5.6 16.71 5.07 16.86 4.54 17.03C4.99 17.7 5.53 18.3 6.14 18.82C7.1 18.52 8.16 18.3 9.28 18.17C9.17 17.67 9.07 17.13 9 16.56C8.97 16.29 9.16 16.04 9.44 16C9.71 15.96 9.96 16.17 10 16.44C10.08 17.05 10.18 17.58 10.3 18.06C10.85 18.02 11.42 18 12 18C12.58 18 13.15 18.02 13.71 18.05C13.83 17.57 13.93 17.04 14.01 16.43C14.05 16.16 14.3 15.96 14.57 16C14.84 16.04 15.03 16.29 15 16.56C14.93 17.14 14.84 17.67 14.72 18.17ZM5.7 9.04004H7.13V14.98H5.7V9.04004ZM10.48 10.04C10.73 10.04 10.93 10.11 11.08 10.24C11.23 10.37 11.3 10.56 11.3 10.8H12.73C12.73 10.44 12.64 10.12 12.45 9.83996C12.26 9.55996 12 9.33996 11.66 9.18996C11.32 9.03996 10.94 8.95996 10.51 8.95996C10.07 8.95996 9.68 9.02996 9.33 9.16996C8.98 9.30996 8.71 9.49996 8.51 9.75996C8.32 10.01 8.23 10.3 8.23 10.63C8.23 11.29 8.61 11.81 9.38 12.19C9.62 12.31 9.92 12.43 10.29 12.55C10.66 12.67 10.92 12.8 11.07 12.91C11.22 13.03 11.29 13.19 11.29 13.4C11.29 13.59 11.22 13.73 11.08 13.83C10.94 13.93 10.76 13.98 10.52 13.98C10.15 13.98 9.88 13.9 9.72 13.75C9.56 13.6 9.47 13.36 9.47 13.05H8.05C8.05 13.44 8.15 13.79 8.35 14.09C8.55 14.39 8.84 14.63 9.23 14.8C9.62 14.97 10.06 15.06 10.54 15.06C11.22 15.06 11.76 14.91 12.15 14.62C12.54 14.32 12.74 13.92 12.74 13.4C12.74 12.75 12.42 12.24 11.78 11.87C11.5 11.71 11.17 11.57 10.76 11.44C10.35 11.31 10.06 11.18 9.9 11.05C9.73 10.93 9.65 10.79 9.65 10.64C9.65 10.47 9.72 10.32 9.87 10.21C10.02 10.1 10.22 10.04 10.48 10.04ZM18.6 12.13C18.6 12.71 18.49 13.22 18.28 13.67C18.06 14.12 17.76 14.46 17.36 14.7C16.97 14.94 16.52 15.06 16.01 15.06C15.5 15.06 15.06 14.95 14.66 14.71C14.26 14.47 13.95 14.14 13.74 13.71C13.53 13.28 13.41 12.78 13.4 12.22V11.89C13.4 11.31 13.51 10.8 13.72 10.35C13.94 9.90996 14.24 9.55996 14.64 9.31996C15.04 9.07996 15.49 8.95996 16 8.95996C16.5 8.95996 16.95 9.07996 17.35 9.31996C17.74 9.55996 18.05 9.89996 18.27 10.34C18.49 10.78 18.6 11.29 18.6 11.86V12.13ZM16.84 13.49C17.04 13.18 17.14 12.74 17.14 12.16V11.88C17.14 11.29 17.05 10.85 16.85 10.54C16.65 10.23 16.37 10.08 16 10.08C15.28 10.08 14.9 10.62 14.85 11.7V12.14C14.85 12.72 14.95 13.17 15.14 13.48C15.33 13.79 15.62 13.95 16 13.95C16.37 13.95 16.64 13.8 16.84 13.49Z" fill="#555555"/>
</svg>
