<svg width="24" height="24" viewBox="0 0 24 24" fill="none" xmlns="http://www.w3.org/2000/svg">
<path fill-rule="evenodd" clip-rule="evenodd" d="M16.5 10H20.5C20.78 10 21 10.22 21 10.5V20.5C21 20.78 20.78 21 20.5 21H3.5C3.22 21 3 20.78 3 20.5V3.5C3 3.22 3.22 3 3.5 3H12.5C12.64 3 12.76 3.05 12.85 3.15L16.85 7.15C16.95 7.24 17 7.37 17 7.5V8.5C17 8.78 16.78 9 16.5 9C16.22 9 16 8.78 16 8.5V8H12.5C12.23 8 12 7.77 12 7.5V4H4V20H10V13.5C10 13.22 10.22 13 10.5 13H14.5C14.78 13 15 13.22 15 13.5V20H16V10.5C16 10.22 16.22 10 16.5 10ZM15.29 7L13 4.71V7H15.29ZM14 20V14H11V20H14ZM17 20H20V11H17V20ZM5.5 7H10.5C10.78 7 11 7.22 11 7.5C11 7.78 10.78 8 10.5 8H5.5C5.22 8 5 7.78 5 7.5C5 7.22 5.22 7 5.5 7ZM11 10.5C11 10.22 10.78 10 10.5 10H5.5C5.22 10 5 10.22 5 10.5C5 10.78 5.22 11 5.5 11H10.5C10.78 11 11 10.78 11 10.5ZM5 13.5C5 13.22 5.22 13 5.5 13H8.5C8.78 13 9 13.22 9 13.5C9 13.78 8.78 14 8.5 14H5.5C5.22 14 5 13.78 5 13.5Z" fill="#555555"/>
</svg>
