<svg width="24" height="24" viewBox="0 0 24 24" fill="none" xmlns="http://www.w3.org/2000/svg">
<path fill-rule="evenodd" clip-rule="evenodd" d="M7 3H19.5C19.78 3 20 3.22 20 3.5V15.5C20 15.78 19.78 16 19.5 16H7C5.79 16 5 16.79 5 18C5 19.21 5.79 20 7 20H19.5C19.78 20 20 20.22 20 20.5C20 20.78 19.78 21 19.5 21H7C5.23 21 4 19.77 4 18V6C4 4.23 5.23 3 7 3ZM8 15H19V4H18V9.5C18 9.7 17.88 9.88 17.69 9.96C17.63 9.99 17.56 10 17.5 10C17.37 10 17.24 9.95 17.15 9.85L15.5 8.2L13.85 9.85C13.71 10 13.49 10.04 13.31 9.96C13.12 9.88 13 9.7 13 9.5V4H8V15ZM7 8C5.79 8 5 8.79 5 10V11.71C5.52 11.26 6.2 11 7 11V8ZM17 8.29V4H14V8.29L15.15 7.15C15.24 7.05 15.37 7 15.5 7C15.63 7 15.76 7.05 15.85 7.14L17 8.29ZM7 7V4C5.79 4 5 4.79 5 6V7.71C5.52 7.26 6.2 7 7 7ZM5 14V15.71C5.52 15.26 6.2 15 7 15V12C5.79 12 5 12.79 5 14ZM7.5 17.5H19.5C19.78 17.5 20 17.72 20 18C20 18.28 19.78 18.5 19.5 18.5H7.5C7.22 18.5 7 18.28 7 18C7 17.72 7.22 17.5 7.5 17.5Z" fill="#555555"/>
</svg>
