<svg width="24" height="24" viewBox="0 0 24 24" fill="none" xmlns="http://www.w3.org/2000/svg">
<path fill-rule="evenodd" clip-rule="evenodd" d="M7 5C7 6.65 8.35 8 10 8C11.65 8 13 6.65 13 5C13 3.35 11.65 2 10 2C8.35 2 7 3.35 7 5ZM8 5C8 3.9 8.9 3 10 3C11.1 3 12 3.9 12 5C12 6.1 11.1 7 10 7C8.9 7 8 6.1 8 5ZM13 9C13 10.65 14.35 12 16 12C17.65 12 19 10.65 19 9C19 7.35 17.65 6 16 6C14.35 6 13 7.35 13 9ZM14 9C14 7.9 14.9 7 16 7C17.1 7 18 7.9 18 9C18 10.1 17.1 11 16 11C14.9 11 14 10.1 14 9ZM8 15C6.35 15 5 13.65 5 12C5 10.35 6.35 9 8 9C9.65 9 11 10.35 11 12C11 13.65 9.65 15 8 15ZM8 10C6.9 10 6 10.9 6 12C6 13.1 6.9 14 8 14C9.1 14 10 13.1 10 12C10 10.9 9.1 10 8 10ZM13.5 22C13.22 22 13 21.78 13 21.5C13 19.02 10.76 17 8 17C5.24 17 3 19.02 3 21.5C3 21.78 2.78 22 2.5 22C2.22 22 2 21.78 2 21.5C2 18.47 4.69 16 8 16C11.31 16 14 18.47 14 21.5C14 21.78 13.78 22 13.5 22ZM21.5 19C21.22 19 21 18.78 21 18.5C21 16.02 18.84 14 16.18 14C14.69 14 13.31 14.63 12.38 15.73C12.2 15.94 11.89 15.97 11.68 15.79C11.47 15.61 11.44 15.3 11.62 15.09C12.73 13.77 14.4 13.01 16.18 13.01C19.39 13.01 22 15.48 22 18.51C22 18.78 21.78 19 21.5 19Z" fill="#555555"/>
</svg>
