<svg width="24" height="24" viewBox="0 0 24 24" fill="none" xmlns="http://www.w3.org/2000/svg">
<path d="M21.5 5.0025H20.06L20.85 4.2125C21.05 4.0125 21.05 3.7025 20.85 3.5025L19.5 2.1425C19.31 1.9525 18.98 1.9525 18.79 2.1425L15.94 5.0025H4C2.86 5.0025 2 5.8625 2 7.0025V20.0025C2 21.2025 2.8 22.0025 4 22.0025H4.5C4.78 22.0025 5 21.7825 5 21.5025V20.0025H21.5C21.78 20.0025 22 19.7825 22 19.5025V5.5025C22 5.2225 21.78 5.0025 21.5 5.0025ZM19.15 3.2025L19.8 3.8525L14.5 9.1525L13.41 9.5925L13.77 8.6925L13.85 8.5025L16.5 5.8525L19.15 3.2025ZM4 21.0025C3.36 21.0025 3 20.6425 3 20.0025V8.7725C3.29 8.9225 3.62 9.0025 4 9.0025V21.0025ZM21 19.0025H5V8.5025C5 8.2225 4.78 8.0025 4.5 8.0025H4C3.36 8.0025 3 7.6325 3 7.0025C3 6.5025 3.31 6.0025 4 6.0025H14.94L13.07 7.8725C13.03 7.9025 13.01 7.9525 12.98 8.0025H11.5C11.22 8.0025 11 8.2225 11 8.5025C11 8.7825 11.22 9.0025 11.5 9.0025H12.57L12.04 10.3125C11.96 10.4925 12 10.7125 12.15 10.8525C12.24 10.9525 12.37 11.0025 12.5 11.0025C12.56 11.0025 12.63 10.9925 12.69 10.9625L14.97 10.0425C15.03 10.0225 15.09 9.9825 15.14 9.9325L16.06 9.0025H18V11.0025H15.5C15.22 11.0025 15 11.2225 15 11.5025C15 11.7825 15.22 12.0025 15.5 12.0025H18V16.0025H16.95C16.7 14.3125 15.26 13.0025 13.5 13.0025C13.22 13.0025 13 13.2225 13 13.5025V16.0025H8V13.0025H10V13.5025C10 13.7725 10.22 14.0025 10.5 14.0025C10.78 14.0025 11 13.7725 11 13.5025V13.0025H11.5C11.78 13.0025 12 12.7825 12 12.5025C12 12.2225 11.78 12.0025 11.5 12.0025H11V11.5025C11 11.2225 10.78 11.0025 10.5 11.0025C10.22 11.0025 10 11.2225 10 11.5025V12.0025H8V9.0025H8.5C8.78 9.0025 9 8.7725 9 8.5025C9 8.2325 8.78 8.0025 8.5 8.0025H7.5C7.22 8.0025 7 8.2225 7 8.5025V16.5025C7 16.7725 7.22 17.0025 7.5 17.0025H13.5C13.78 17.0025 14 16.7825 14 16.5025V14.0525C15.14 14.2825 16 15.2925 16 16.5025C16 16.7825 16.22 17.0025 16.5 17.0025H18.5C18.78 17.0025 19 16.7825 19 16.5025V8.5025C19 8.2225 18.78 8.0025 18.5 8.0025H17.06L19.06 6.0025H21V19.0025Z" fill="#555555"/>
</svg>
