<svg width="24" height="24" viewBox="0 0 24 24" fill="none" xmlns="http://www.w3.org/2000/svg">
<path fill-rule="evenodd" clip-rule="evenodd" d="M20.33 8.15L21.85 9.67C22.05 9.86 22.05 10.18 21.85 10.38L17 15.23V21.5C17 21.78 16.78 22 16.5 22H2.5C2.22 22 2 21.78 2 21.5V5.5C2 5.22 2.22 5 2.5 5H5V4.5C5 4.22 5.22 4 5.5 4H7.05C7.28 2.86 8.29 2 9.5 2C10.71 2 11.72 2.86 11.95 4H13.5C13.78 4 14 4.22 14 4.5V5H16.5C16.78 5 17 5.22 17 5.5V10.77L19.63 8.15C19.72 8.05 19.85 8 19.98 8C20.11 8 20.24 8.05 20.33 8.15ZM7.5 5H6V7H13V5H11.5C11.22 5 11 4.78 11 4.5C11 3.67 10.33 3 9.5 3C8.67 3 8 3.67 8 4.5C8 4.78 7.78 5 7.5 5ZM3 6V21H16V16.23L14.42 17.81C14.37 17.86 14.31 17.89 14.25 17.92L11.69 18.96C11.63 18.99 11.56 19 11.5 19C11.37 19 11.24 18.95 11.15 18.85C11 18.71 10.96 18.5 11.03 18.32L12.07 15.76C12.1 15.69 12.13 15.64 12.18 15.59L16 11.77V6H14V7.5C14 7.78 13.78 8 13.5 8H5.5C5.22 8 5 7.78 5 7.5V6H3ZM12.41 17.6L13.78 17.04L20.8 10.02L19.99 9.21L12.97 16.23L12.41 17.6ZM13.5 11H5.5C5.22 11 5 10.78 5 10.5C5 10.22 5.22 10 5.5 10H13.5C13.78 10 14 10.22 14 10.5C14 10.78 13.78 11 13.5 11ZM5 14.5C5 14.22 5.22 14 5.5 14H10.5C10.78 14 11 14.22 11 14.5C11 14.78 10.78 15 10.5 15H5.5C5.22 15 5 14.78 5 14.5ZM8.5 18H5.5C5.22 18 5 18.22 5 18.5C5 18.78 5.22 19 5.5 19H8.5C8.78 19 9 18.78 9 18.5C9 18.22 8.78 18 8.5 18Z" fill="#555555"/>
</svg>
