<svg width="24" height="24" viewBox="0 0 24 24" fill="none" xmlns="http://www.w3.org/2000/svg">
<path fill-rule="evenodd" clip-rule="evenodd" d="M8 7C9.38 7 10.5 5.88 10.5 4.5C10.5 3.12 9.38 2 8 2C6.62 2 5.5 3.12 5.5 4.5C5.5 5.88 6.62 7 8 7ZM8 3C8.83 3 9.5 3.67 9.5 4.5C9.5 5.33 8.83 6 8 6C7.17 6 6.5 5.33 6.5 4.5C6.5 3.67 7.17 3 8 3ZM4.24999 10.93C4.48999 11.07 4.79999 10.99 4.92999 10.75C5.54999 9.67 6.71999 9 7.99999 9C9.27999 9 10.45 9.67 11.07 10.75C11.16 10.91 11.33 11 11.5 11C11.58 11 11.67 10.98 11.75 10.93C11.99 10.79 12.07 10.49 11.94 10.25C11.14 8.86 9.63999 8 7.99999 8C6.35999 8 4.85999 8.86 4.06999 10.25C3.92999 10.49 4.00999 10.8 4.24999 10.93ZM19.81 12H21.5C21.78 12 22 12.22 22 12.5V15.5C22 15.78 21.78 16 21.5 16H20V21H20.5C20.78 21 21 21.22 21 21.5C21 21.78 20.78 22 20.5 22H18.5C18.22 22 18 21.78 18 21.5C18 21.22 18.22 21 18.5 21H19V19H5V21H5.5C5.78 21 6 21.22 6 21.5C6 21.78 5.78 22 5.5 22H3.5C3.22 22 3 21.78 3 21.5C3 21.22 3.22 21 3.5 21H4V16H2.5C2.22 16 2 15.78 2 15.5V12.5C2 12.22 2.22 12 2.5 12H13.19L14.05 10.28C14.14 10.11 14.31 10 14.5 10H15V9H12.5C12.22 9 12 8.78 12 8.5V3.5C12 3.22 12.22 3 12.5 3H20.5C20.78 3 21 3.22 21 3.5V8.5C21 8.78 20.78 9 20.5 9H18V10H18.5C18.69 10 18.86 10.11 18.95 10.28L19.81 12ZM20 4H13V8H15V5.5C15 5.22 15.22 5 15.5 5H17.5C17.78 5 18 5.22 18 5.5V8H20V4ZM17 6H16V10H17V6ZM18.19 11H14.81L14.31 12H18.69L18.19 11ZM5 16V18H19V16H5ZM3 13V15H21V13H3Z" fill="#555555"/>
</svg>
