<svg width="24" height="24" viewBox="0 0 24 24" fill="none" xmlns="http://www.w3.org/2000/svg">
<path fill-rule="evenodd" clip-rule="evenodd" d="M17.5 15.5004H18.5C18.7764 15.5004 19 15.724 19 16.0004C19 16.2768 18.7764 16.5004 18.5 16.5004H17.0001C16.7237 16.5004 16.5001 16.2768 16.5001 16.0004V11.707L14.6466 9.85348C14.5528 9.75973 14.5001 9.63278 14.5001 9.49997V7.84696C14.2064 7.6727 13.9998 7.36625 13.9998 7.0001C13.9998 6.4478 14.4476 6.00011 14.9998 6.00011C15.5521 6.00011 15.9998 6.4478 15.9998 7.0001C15.9998 7.36606 15.7935 7.67233 15.5001 7.84665V9.29293L17.3536 11.1464C17.4473 11.2402 17.5 11.3671 17.5 11.4999V12.968C19.4546 12.8021 21 11.1671 21 9.15816C21 7.03952 19.2871 5.3159 17.1817 5.3159C17.0552 5.3159 16.9302 5.32273 16.8072 5.33494C16.627 5.3491 16.4522 5.27244 16.3492 5.12449C15.4161 3.79442 13.898 2.99999 12.2877 2.99999C9.7633 2.99999 7.64222 4.90184 7.35365 7.42332C7.33607 7.57908 7.24623 7.71726 7.11195 7.79685C6.97816 7.87741 6.81361 7.88962 6.66762 7.82956C6.34731 7.69822 6.0104 7.63181 5.66665 7.63181C4.19645 7.63181 3.00017 8.83591 3.00017 10.3159C3.00017 11.7963 4.19645 13.0004 5.66665 13.0004H7.50013V10.8469C7.20649 10.6727 6.99989 10.3662 6.99989 10.0001C6.99989 9.44778 7.44764 9.00009 7.99988 9.00009C8.55218 9.00009 8.99987 9.44778 8.99987 10.0001C8.99987 10.366 8.79351 10.6723 8.50012 10.8466V13.5004C8.50012 13.5672 8.48651 13.6325 8.4613 13.6929C8.4359 13.7538 8.39904 13.8086 8.35302 13.8545L7.00013 15.2074V17.0004C7.00013 17.2768 6.77649 17.5004 6.50013 17.5004H5.50014C5.22377 17.5004 5.00014 17.2768 5.00014 17.0004C5.00014 16.724 5.22378 16.5004 5.50014 16.5004H6.00014V15.0004C6.00014 14.8676 6.05287 14.7407 6.14662 14.6469L6.7931 14.0004H5.66665C3.64518 14.0004 2.00018 12.3471 2.00018 10.3159C2.00018 8.28463 3.64519 6.63181 5.66665 6.63181C5.93423 6.63181 6.19839 6.6611 6.45766 6.71872C7.04603 3.99071 9.45519 2 12.2877 2C14.1285 2 15.8682 2.86181 16.9976 4.31981C19.6924 4.20799 22 6.42673 22 9.15816C22 11.7185 20.0066 13.7999 17.5 13.9681V15.5004ZM10.9999 5.00009C10.4476 5.00009 9.99986 5.44778 9.99986 6.00008C9.99986 6.36623 10.2065 6.67268 10.5001 6.84694V14.3334L9.10021 16.2006C9.03527 16.2865 9.00011 16.392 9.00011 16.5004V19.5004H7.50012C7.22376 19.5004 7.00012 19.724 7.00012 20.0004C7.00012 20.2767 7.22375 20.5004 7.50012 20.5004H9.5001C9.77646 20.5004 10.0001 20.2767 10.0001 20.0004V16.6674L11.4 14.8002C11.4649 14.7143 11.5001 14.6088 11.5001 14.5004V6.84664C11.7935 6.67232 11.9998 6.36605 11.9998 6.00009C11.9998 5.44779 11.5522 5.0001 10.9999 5.0001V5.00009ZM4.99999 21C5.55227 21 5.99998 20.5523 5.99998 20C5.99998 19.4477 5.55227 19 4.99999 19C4.44771 19 4 19.4477 4 20C4 20.5523 4.44771 21 4.99999 21ZM3.99998 17C3.99998 17.5523 3.55227 18 2.99999 18C2.44771 18 2 17.5523 2 17C2 16.4477 2.44771 16 2.99999 16C3.55227 16 3.99998 16.4477 3.99998 17ZM20.9997 17C21.552 17 21.9997 16.5523 21.9997 16.0001C21.9997 15.4478 21.552 15.0001 20.9997 15.0001C20.4475 15.0001 19.9998 15.4478 19.9998 16.0001C19.9998 16.5523 20.4475 17 20.9997 17ZM19.9997 22C20.552 22 20.9997 21.5523 20.9997 21C20.9997 20.4477 20.552 20 19.9997 20C19.4475 20 18.9998 20.4477 18.9998 21C18.9998 21.5523 19.4475 22 19.9997 22ZM16 20.5004H17.5C17.7764 20.5004 18 20.724 18 21.0004C18 21.2768 17.7764 21.5004 17.5 21.5004H15.5C15.2237 21.5004 15 21.2768 15 21.0004V17.6674L13.6002 15.8002C13.5352 15.7143 13.5001 15.6088 13.5001 15.5004V12.8469C13.2064 12.6727 12.9998 12.3662 12.9998 12.0001C12.9998 11.4478 13.4476 11.0001 13.9998 11.0001C14.5521 11.0001 14.9998 11.4478 14.9998 12.0001C14.9998 12.366 14.7934 12.6723 14.5 12.8466V15.3334L15.8999 17.2006C15.9649 17.2865 16 17.392 16 17.5004V20.5004Z" fill="#555555"/>
</svg>
