<svg width="24" height="24" viewBox="0 0 24 24" fill="none" xmlns="http://www.w3.org/2000/svg">
<path fill-rule="evenodd" clip-rule="evenodd" d="M19.2227 21.9158C19.3067 21.9715 19.4034 21.9998 19.5 21.9998C19.5811 21.9998 19.6622 21.9803 19.7364 21.9402C19.8985 21.8533 20 21.6844 20 21.4998V2.50024C20 2.31567 19.8985 2.14624 19.7364 2.05933C19.5743 1.97242 19.377 1.98218 19.2227 2.08422L18 2.89915L16.7774 2.08422C16.6094 1.97192 16.3907 1.97192 16.2227 2.08422L15 2.89915L13.7774 2.08422C13.6094 1.97192 13.3907 1.97192 13.2227 2.08422L12 2.89915L10.7774 2.08422C10.6094 1.97192 10.3907 1.97192 10.2227 2.08422L9.00005 2.89915L7.77739 2.08422C7.60942 1.97192 7.39067 1.97192 7.2227 2.08422L6.00004 2.89915L4.77738 2.08422C4.62455 1.98218 4.42631 1.9729 4.2642 2.05932C4.1016 2.14624 4.00004 2.31567 4 2.50023V21.4998C4 21.6844 4.10156 21.8533 4.26416 21.9402C4.42627 22.0281 4.62451 22.0183 4.77734 21.9158L6 21.1004L7.22266 21.9158C7.39063 22.0271 7.60938 22.0271 7.77735 21.9158L9.00001 21.1004L10.2227 21.9158C10.3906 22.0271 10.6094 22.0271 10.7774 21.9158L12 21.1004L13.2227 21.9158C13.3906 22.0271 13.6094 22.0271 13.7774 21.9158L15 21.1004L16.2227 21.9158C16.3907 22.0271 16.6094 22.0271 16.7774 21.9158L18 21.1004L19.2227 21.9158ZM15.2774 20.0838C15.1934 20.0282 15.0967 19.9998 15 19.9998C14.9034 19.9998 14.8067 20.0282 14.7227 20.0838L13.5 20.8992L12.2774 20.0838C12.1094 19.9725 11.8907 19.9725 11.7227 20.0838L10.5 20.8992L9.27736 20.0838C9.10939 19.9725 8.89064 19.9725 8.72267 20.0838L7.50001 20.8992L6.27735 20.0838C6.10938 19.9725 5.89063 19.9725 5.72266 20.0838L5 20.5652V3.43477L5.72266 3.91621C5.89063 4.02753 6.10938 4.02753 6.27735 3.91621L7.50001 3.1008L8.72267 3.91621C8.89064 4.02753 9.10939 4.02753 9.27736 3.91621L10.5 3.1008L11.7227 3.91621C11.8907 4.02753 12.1094 4.02753 12.2774 3.91621L13.5 3.1008L14.7227 3.91621C14.8907 4.02753 15.1094 4.02753 15.2774 3.91621L16.5 3.1008L17.7227 3.91621C17.8907 4.02753 18.1094 4.02753 18.2774 3.91621L19 3.43477V20.5652L18.2774 20.0838C18.1094 19.9725 17.8907 19.9725 17.7227 20.0838L16.5 20.8992L15.2774 20.0838ZM6.5 9.0001H17.5C17.7764 9.0001 18 8.77647 18 8.50011C18 8.22375 17.7764 8.00012 17.5 8.00012H6.5C6.22363 8.00012 6 8.22375 6 8.50011C6 8.77647 6.22363 9.0001 6.5 9.0001ZM12.5 13H7.5C7.22363 13 7 12.7764 7 12.5C7 12.2237 7.22363 12 7.5 12H12.5C12.7764 12 13 12.2237 13 12.5C13 12.7764 12.7764 13 12.5 13ZM8.5 7.00013H15.5C15.7764 7.00013 16 6.7765 16 6.50014C16 6.22378 15.7764 6.00015 15.5 6.00015H8.5C8.22363 6.00015 8 6.22378 8 6.50014C8 6.7765 8.22363 7.00013 8.5 7.00013ZM16.5 13H15.5C15.2236 13 15 12.7764 15 12.5C15 12.2237 15.2236 12 15.5 12H16.5C16.7764 12 17 12.2237 17 12.5C17 12.7764 16.7764 13 16.5 13ZM7.5 14.9999H12.5C12.7764 14.9999 13 14.7763 13 14.5C13 14.2236 12.7764 14 12.5 14H7.5C7.22363 14 7 14.2236 7 14.5C7 14.7763 7.22363 14.9999 7.5 14.9999ZM16.5 14.9999H15.5C15.2236 14.9999 15 14.7763 15 14.5C15 14.2236 15.2236 14 15.5 14H16.5C16.7764 14 17 14.2236 17 14.5C17 14.7763 16.7764 14.9999 16.5 14.9999ZM7.5 16.9999H12.5C12.7764 16.9999 13 16.7763 13 16.4999C13 16.2235 12.7764 15.9999 12.5 15.9999H7.5C7.22363 15.9999 7 16.2235 7 16.4999C7 16.7763 7.22363 16.9999 7.5 16.9999ZM16.5 16.9999H15.5C15.2236 16.9999 15 16.7763 15 16.4999C15 16.2235 15.2236 15.9999 15.5 15.9999H16.5C16.7764 15.9999 17 16.2235 17 16.4999C17 16.7763 16.7764 16.9999 16.5 16.9999ZM7.5 18.9999H10.5C10.7764 18.9999 11 18.7762 11 18.4999C11 18.2235 10.7764 17.9999 10.5 17.9999H7.5C7.22363 17.9999 7 18.2235 7 18.4999C7 18.7762 7.22363 18.9999 7.5 18.9999Z" fill="#555555"/>
</svg>
