<svg width="24" height="24" viewBox="0 0 24 24" fill="none" xmlns="http://www.w3.org/2000/svg">
<path d="M21.5 4.99958H21.4492L21.8535 4.59527C21.9473 4.50152 22 4.37456 22 4.24175C22 4.10894 21.9473 3.98198 21.8535 3.88823L20.1113 2.14649C19.916 1.95117 19.5996 1.95117 19.4043 2.14649L16.551 4.99959H4C2.85986 4.99958 2 5.85898 2 6.99963V20C2 21.1963 2.80371 22 4 22H4.5C4.77637 22 5 21.7764 5 21.5V20H8V21.5C8 21.7764 8.22363 22 8.5 22H19.5C19.7022 22 19.8848 21.8779 19.9619 21.6914C20.0391 21.5049 19.9961 21.289 19.8535 21.1465L18.707 20H21.5C21.7764 20 22 19.7763 22 19.4999V5.4996C22 5.22323 21.7764 4.99959 21.5 4.99959V4.99958ZM14.108 9.17015L14.8295 9.89173L13.5068 10.4929L14.108 9.17015H14.108ZM15.6934 9.34148L14.6582 8.3063L18.0158 4.94898L19.0508 5.98398L15.6933 9.34148H15.6934ZM19.7578 3.20706L20.793 4.24175L19.7578 5.27693L18.7228 4.24193L19.7578 3.20705V3.20706ZM4 21C3.36426 21 3 20.6357 3 20V8.77409C3.28613 8.9196 3.62354 8.99968 4 8.99968V21V21ZM9 21V11.7068L18.293 21H9ZM21 18.9999H17.707L8.85352 10.1462C8.71094 10.0026 8.49707 9.96259 8.3086 10.0378C8.12159 10.1149 8.00001 10.2976 8.00001 10.4997V18.9999H5V8.49967C5 8.2233 4.77637 7.99966 4.5 7.99966H4C3.36426 7.99966 3 7.63539 3 6.99964C3 6.50158 3.30908 5.99962 4 5.99962H15.551L13.5976 7.95279C13.5557 7.99478 13.5205 8.04459 13.4961 8.09928L12.0449 11.2927C11.959 11.4822 11.999 11.7058 12.1465 11.8533C12.2422 11.949 12.3701 11.9998 12.5 11.9998C12.5703 11.9998 12.6406 11.9851 12.707 11.9549L15.9004 10.5036C15.9551 10.4792 16.0049 10.4441 16.0469 10.4021L20.4492 5.99963H21V19L21 18.9999Z" fill="#555555"/>
<path d="M10.8535 15.1463C10.7109 15.0037 10.4951 14.9627 10.3086 15.0379C10.1221 15.1151 10 15.2977 10 15.4999V19.5C10 19.7763 10.2236 20 10.5 20H14.5C14.7022 20 14.8848 19.8779 14.9619 19.6914C15.0391 19.5048 14.9961 19.289 14.8535 19.1464L10.8535 15.1463ZM11 18.9999V16.7069L13.293 18.9999H11Z" fill="#555555"/>
</svg>
