<svg width="24" height="24" viewBox="0 0 24 24" fill="none" xmlns="http://www.w3.org/2000/svg">
<path fill-rule="evenodd" clip-rule="evenodd" d="M6.00001 11.5C6.00001 12.3284 5.32844 13 4.50001 13L4.5 13C3.67157 13 3 12.3284 3 11.5C3 10.6716 3.67157 10 4.5 10C4.73114 10 4.94745 10.0566 5.14301 10.15L8.14997 7.14302C8.05659 6.94746 8.00001 6.73115 8.00001 6.50001C8.00001 5.67158 8.67158 5.00001 9.50001 5.00001C10.3284 5.00001 11 5.67158 11 6.50001C11 6.51101 10.9985 6.52158 10.997 6.53215C10.9957 6.54112 10.9944 6.5501 10.994 6.55934L13.3787 7.51283C13.6536 7.20082 14.0515 7.00001 14.5 7.00001C14.7311 7.00001 14.9475 7.05659 15.143 7.14997L18.15 4.14301C18.0566 3.94745 18 3.73114 18 3.5C18 2.67157 18.6716 2 19.5 2C20.3284 2 21 2.67157 21 3.5C21 4.32843 20.3284 5 19.5 5C19.2689 5 19.0526 4.94342 18.857 4.85004L15.85 7.857C15.9434 8.05256 16 8.26887 16 8.50001C16 9.32844 15.3284 10 14.5 10C13.6716 10 13 9.32844 13 8.50001C13 8.48901 13.0015 8.47843 13.003 8.46784C13.0043 8.45885 13.0056 8.44986 13.006 8.44062L10.6214 7.48713C10.3465 7.7992 9.94856 8.00001 9.50001 8.00001C9.26899 8.00001 9.05275 7.94349 8.85725 7.85017L5.85011 10.8571C5.94349 11.0526 6.00001 11.2689 6.00001 11.5ZM18 7.50002C18 7.22365 18.2236 7.00002 18.5 7.00002H20.5C20.7764 7.00002 21 7.22365 21 7.50002V18.5C21 18.7764 20.7764 19 20.5 19H18.5C18.2236 19 18 18.7764 18 18.5V7.50002ZM19 18H20V8.00002H19V18ZM2.5 21H21.5C21.7764 21 22 21.2236 22 21.5C22 21.7764 21.7764 22 21.5 22H2.5C2.22363 22 2 21.7764 2 21.5C2 21.2236 2.22363 21 2.5 21ZM13.5 12C13.2236 12 13 12.2236 13 12.5V18.5C13 18.7764 13.2236 19 13.5 19H15.5C15.7764 19 16 18.7764 16 18.5V12.5C16 12.2236 15.7764 12 15.5 12H13.5ZM15 18H14V13H15V18ZM8 10.5C8 10.2236 8.22363 10 8.5 10H10.5C10.7764 10 11 10.2236 11 10.5V18.5C11 18.7764 10.7764 19 10.5 19H8.5C8.22363 19 8 18.7764 8 18.5V10.5ZM9 18H10V11H9V18ZM3 18.5C3 18.7764 3.22363 19 3.5 19H5.5C5.77637 19 6 18.7764 6 18.5V15.5C6 15.2236 5.77637 15 5.5 15H3.5C3.22363 15 3 15.2236 3 15.5V18.5ZM4 18V16H5V18H4Z" fill="#555555"/>
</svg>
