<svg width="24" height="24" viewBox="0 0 24 24" fill="none" xmlns="http://www.w3.org/2000/svg">
<path fill-rule="evenodd" clip-rule="evenodd" d="M10.5 17.5C10.5 17.2236 10.2764 17 10 17C6.14014 17 3 13.8594 3 10C3 6.14062 6.14014 3 10 3C12.7861 3 15.3057 4.65039 16.4199 7.2041C16.5312 7.45801 16.8272 7.57129 17.0781 7.46191C17.331 7.35156 17.4463 7.05664 17.3359 6.80371C16.0635 3.88574 13.1836 2 10 2C5.58887 2 2 5.58887 2 10C2 14.4111 5.58887 18 10 18C10.2764 18 10.5 17.7764 10.5 17.5ZM21.5 21H16.5C16.2236 21 16 21.2236 16 21.5C16 21.7764 16.2236 22 16.5 22H21.5C21.7764 22 22 21.7764 22 21.5C22 21.2236 21.7764 21 21.5 21ZM5.00001 10C5.00001 12.7568 7.24317 15 10 15H10C10.2764 15 10.5 15.2236 10.5 15.5C10.5 15.7764 10.2764 16 10 16C6.69141 16 4 13.3086 4 10C4 6.69141 6.69141 4 10 4C11.168 4 12.2998 4.33593 13.2734 4.9707C13.5049 5.12206 13.5693 5.43163 13.4189 5.66308C13.2686 5.89355 12.96 5.95996 12.7266 5.80859C11.916 5.2793 10.9732 5 10 5C7.24317 5 5.00001 7.24316 5.00001 10ZM10 7C11.6543 7 13 8.3457 13 10C13 10.2764 13.2236 10.5 13.5 10.5C13.7764 10.5 14 10.2764 14 10C14 7.79395 12.206 6 10 6C7.79443 6 6 7.79395 6 10C6 12.206 7.79443 14 10 14C10.2764 14 10.5 13.7764 10.5 13.5C10.5 13.2236 10.2764 13 10 13C8.3457 13 7 11.6543 7 10C7 8.3457 8.3457 7 10 7ZM21.8535 12.2754C22.0489 12.4707 22.0489 12.7871 21.8535 12.9824L14.7569 20.0791C14.729 20.107 14.6961 20.1251 14.6633 20.1432C14.6572 20.1466 14.6512 20.1499 14.6452 20.1533C14.6392 20.1567 14.6342 20.1615 14.6293 20.1662C14.6236 20.1718 14.6178 20.1773 14.6104 20.1807L10.7071 21.9551C10.6407 21.9853 10.5699 22 10.5 22C10.3701 22 10.2422 21.9492 10.1465 21.8535C9.99905 21.7061 9.95852 21.4824 10.045 21.293L11.8194 17.3896C11.8227 17.3822 11.8283 17.3765 11.8338 17.3707C11.8386 17.3658 11.8433 17.3608 11.8468 17.3548C11.8502 17.3488 11.8535 17.3428 11.8568 17.3367C11.8749 17.3039 11.8931 17.271 11.9209 17.2432L19.0176 10.1465C19.2129 9.95117 19.5293 9.95117 19.7246 10.1465L21.8535 12.2754ZM20.793 12.6289L19.3711 11.207L17.9492 12.6289L19.3711 14.0508L20.793 12.6289ZM18.6641 14.7578L17.2422 13.3359L12.9815 17.5967L14.4034 19.0186L18.6641 14.7578ZM12.4307 18.46L11.5069 20.4932L11.5069 20.4932L13.5401 19.5694L12.4307 18.46Z" fill="#555555"/>
</svg>
