<svg width="24" height="24" viewBox="0 0 24 24" fill="none" xmlns="http://www.w3.org/2000/svg">
<path fill-rule="evenodd" clip-rule="evenodd" d="M16.5 12H19.5C19.78 12 20 11.78 20 11.5V2.5C20 2.22 19.78 2 19.5 2H16.5C16.22 2 16 2.22 16 2.5V11.5C16 11.78 16.22 12 16.5 12ZM19 11H17V3H19V11ZM21.5 15H2.5C2.22 15 2 14.78 2 14.5C2 14.22 2.22 14 2.5 14H21.5C21.78 14 22 14.22 22 14.5C22 14.78 21.78 15 21.5 15ZM13.5 22H10.5C10.22 22 10 21.78 10 21.5V17.5C10 17.22 10.22 17 10.5 17H13.5C13.78 17 14 17.22 14 17.5V21.5C14 21.78 13.78 22 13.5 22ZM11 21H13V18H11V21ZM13.5 12H10.5C10.22 12 10 11.78 10 11.5V5.5C10 5.22 10.22 5 10.5 5H13.5C13.78 5 14 5.22 14 5.5V11.5C14 11.78 13.78 12 13.5 12ZM11 11H13V6H11V11ZM4.5 12H7.5C7.78 12 8 11.78 8 11.5V8.5C8 8.22 7.78 8 7.5 8H4.5C4.22 8 4 8.22 4 8.5V11.5C4 11.78 4.22 12 4.5 12ZM7 11H5V9H7V11Z" fill="#555555"/>
</svg>
