<svg width="24" height="24" viewBox="0 0 24 24" fill="none" xmlns="http://www.w3.org/2000/svg">
<path fill-rule="evenodd" clip-rule="evenodd" d="M4 12H4.5C4.78 12 5 12.22 5 12.5C5 12.78 4.78 13 4.5 13H2.5C2.22 13 2 12.78 2 12.5C2 12.22 2.22 12 2.5 12H3V5.5H2.5C2.22 5.5 2 5.28 2 5V2.5C2 2.22 2.22 2 2.5 2H17.5C17.78 2 18 2.22 18 2.5V5C18 5.28 17.78 5.5 17.5 5.5H17V9.5C17 9.78 16.78 10 16.5 10C16.22 10 16 9.78 16 9.5V8.5H10V9.5C10 9.78 9.78 10 9.5 10C9.22 10 9 9.78 9 9.5V5.5H4V12ZM10 7.5H16V5.5H10V7.5ZM17 3H3V4.5H17V3ZM21.5 14.5H21V21H21.5C21.78 21 22 21.22 22 21.5C22 21.78 21.78 22 21.5 22H19.5C19.22 22 19 21.78 19 21.5C19 21.22 19.22 21 19.5 21H20V20.5H13.5C13.22 20.5 13 20.28 13 20V14.5H8V21H8.5C8.78 21 9 21.22 9 21.5C9 21.78 8.78 22 8.5 22H6.5C6.22 22 6 21.78 6 21.5C6 21.22 6.22 21 6.5 21H7V14.5H6.5C6.22 14.5 6 14.28 6 14V11.5C6 11.22 6.22 11 6.5 11H21.5C21.78 11 22 11.22 22 11.5V14C22 14.28 21.78 14.5 21.5 14.5ZM21 12H7V13.5H21V12ZM20 16.5V14.5H14V16.5H20ZM14 17.5V19.5H20V17.5H14ZM13 7C13.2761 7 13.5 6.77614 13.5 6.5C13.5 6.22386 13.2761 6 13 6C12.7239 6 12.5 6.22386 12.5 6.5C12.5 6.77614 12.7239 7 13 7ZM13.5 9.5C13.5 9.77614 13.2761 10 13 10C12.7239 10 12.5 9.77614 12.5 9.5C12.5 9.22386 12.7239 9 13 9C13.2761 9 13.5 9.22386 13.5 9.5ZM17 15.98C17.2761 15.98 17.5 15.7561 17.5 15.48C17.5 15.2038 17.2761 14.98 17 14.98C16.7239 14.98 16.5 15.2038 16.5 15.48C16.5 15.7561 16.7239 15.98 17 15.98ZM17.5 18.5C17.5 18.7761 17.2761 19 17 19C16.7239 19 16.5 18.7761 16.5 18.5C16.5 18.2239 16.7239 18 17 18C17.2761 18 17.5 18.2239 17.5 18.5Z" fill="#555555"/>
</svg>
