<svg width="24" height="24" viewBox="0 0 24 24" fill="none" xmlns="http://www.w3.org/2000/svg">
<path fill-rule="evenodd" clip-rule="evenodd" d="M7.5 13.994C7.78 13.994 8 13.7741 8 13.4943V10.9955H11V12.4948C11 12.7746 11.22 12.9945 11.5 12.9945C11.78 12.9945 12 12.7746 12 12.4948V8.49675C12 8.21689 11.78 7.997 11.5 7.997C11.22 7.997 11 8.21689 11 8.49675V9.996H3V2.9995H6.5C6.78 2.9995 7 2.77961 7 2.49975C7 2.21989 6.78 2 6.5 2H2.5C2.22 2 2 2.21989 2 2.49975V17.4923C2 17.7721 2.22 17.992 2.5 17.992H7.5C7.78 17.992 8 17.7721 8 17.4923C8 17.2124 7.78 16.9925 7.5 16.9925H3V10.9955H7V13.4943C7 13.7741 7.22 13.994 7.5 13.994ZM11.5 4.9985C11.78 4.9985 12 4.77861 12 4.49875V2.9995H21V6.04798C18.76 6.29785 17 8.18691 17 10.4958C17 10.7756 17.22 10.9955 17.5 10.9955H21V13.4943C21 13.7741 21.22 13.994 21.5 13.994C21.78 13.994 22 13.7741 22 13.4943V10.4958C22 10.2159 21.78 9.996 21.5 9.996H18.05C18.3 8.30685 19.74 6.9975 21.5 6.9975C21.78 6.9975 22 6.77761 22 6.49775V2.49975C22 2.21989 21.78 2 21.5 2H11.5C11.22 2 11 2.21989 11 2.49975V4.49875C11 4.77861 11.22 4.9985 11.5 4.9985ZM15.5 12.9945C18.26 12.9945 20.8 14.6837 21.96 17.2924C22.01 17.4223 22.01 17.5622 21.96 17.7021C20.79 20.3108 18.26 22 15.5 22C12.74 22 10.2 20.3108 9.04 17.7021C8.98 17.5722 8.98 17.4223 9.04 17.2924C10.21 14.6837 12.74 12.9945 15.5 12.9945ZM10.05 17.4923C11.09 19.6212 13.21 20.9905 15.5 20.9905C17.79 20.9905 19.91 19.6212 20.95 17.4923C19.91 15.3633 17.79 13.994 15.5 13.994C13.21 13.994 11.09 15.3633 10.05 17.4923ZM15.5 14.9935C15.22 14.9935 15 15.2134 15 15.4933C15 15.7731 15.22 15.993 15.5 15.993C16.33 15.993 17 16.6627 17 17.4923C17 18.3218 16.33 18.9915 15.5 18.9915C14.67 18.9915 14 18.3218 14 17.4923C14 17.2124 13.78 16.9925 13.5 16.9925C13.22 16.9925 13 17.2124 13 17.4923C13 18.8716 14.12 19.991 15.5 19.991C16.88 19.991 18 18.8716 18 17.4923C18 16.1129 16.88 14.9935 15.5 14.9935ZM16 17.4925C16 17.7686 15.7761 17.9925 15.5 17.9925C15.2239 17.9925 15 17.7686 15 17.4925C15 17.2164 15.2239 16.9925 15.5 16.9925C15.7761 16.9925 16 17.2164 16 17.4925Z" fill="#555555"/>
</svg>
