<svg width="24" height="24" viewBox="0 0 24 24" fill="none" xmlns="http://www.w3.org/2000/svg">
<path fill-rule="evenodd" clip-rule="evenodd" d="M18 3.5V11.21C20.3 11.87 22 13.99 22 16.5C22 19.53 19.53 22 16.5 22C13.47 22 11 19.53 11 16.5C11 16.33 11.01 16.16 11.03 16H2.5C2.22 16 2 15.78 2 15.5V3.5C2 3.22 2.22 3 2.5 3H5.5V2.5C5.5 2.22 5.72 2 6 2C6.28 2 6.5 2.22 6.5 2.5V3H9.5V2.5C9.5 2.22 9.72 2 10 2C10.28 2 10.5 2.22 10.5 2.5V3H13.5V2.5C13.5 2.22 13.72 2 14 2C14.28 2 14.5 2.22 14.5 2.5V3H17.5C17.78 3 18 3.22 18 3.5ZM3 4V15H11.21C11.87 12.7 13.99 11 16.5 11C16.67 11 16.84 11.01 17 11.03V4H14.5V4.5C14.5 4.78 14.28 5 14 5C13.72 5 13.5 4.78 13.5 4.5V4H10.5V4.5C10.5 4.78 10.28 5 10 5C9.72 5 9.5 4.78 9.5 4.5V4H6.5V4.5C6.5 4.78 6.28 5 6 5C5.72 5 5.5 4.78 5.5 4.5V4H3ZM12 16.5C12 18.98 14.02 21 16.5 21C18.98 21 21 18.98 21 16.5C21 14.02 18.98 12 16.5 12C14.02 12 12 14.02 12 16.5ZM5 6.5C5 6.22 5.22 6 5.5 6H6.5C6.78 6 7 6.22 7 6.5C7 6.78 6.78 7 6.5 7H5.5C5.22 7 5 6.78 5 6.5ZM5 9.5C5 9.22 5.22 9 5.5 9H6.5C6.78 9 7 9.22 7 9.5C7 9.78 6.78 10 6.5 10H5.5C5.22 10 5 9.78 5 9.5ZM7 12.5C7 12.22 6.78 12 6.5 12H5.5C5.22 12 5 12.22 5 12.5C5 12.78 5.22 13 5.5 13H6.5C6.78 13 7 12.78 7 12.5ZM9 9.5C9 9.22 9.22 9 9.5 9H10.5C10.78 9 11 9.22 11 9.5C11 9.78 10.78 10 10.5 10H9.5C9.22 10 9 9.78 9 9.5ZM13.5 10H14.5C14.78 10 15 9.78 15 9.5C15 9.22 14.78 9 14.5 9H13.5C13.22 9 13 9.22 13 9.5C13 9.78 13.22 10 13.5 10ZM9 12.5C9 12.22 9.22 12 9.5 12H10.5C10.78 12 11 12.22 11 12.5C11 12.78 10.78 13 10.5 13H9.5C9.22 13 9 12.78 9 12.5ZM10.5 6H9.5C9.22 6 9 6.22 9 6.5C9 6.78 9.22 7 9.5 7H10.5C10.78 7 11 6.78 11 6.5C11 6.22 10.78 6 10.5 6ZM14.5 7H13.5C13.22 7 13 6.78 13 6.5C13 6.22 13.22 6 13.5 6H14.5C14.78 6 15 6.22 15 6.5C15 6.78 14.78 7 14.5 7ZM16.5 15.5C16.4339 15.5 16.3785 15.5162 16.3221 15.5327C16.3017 15.5387 16.2812 15.5447 16.26 15.55L15.36 14.65C15.16 14.45 14.85 14.45 14.65 14.65C14.45 14.85 14.45 15.16 14.65 15.36L15.56 16.27C15.555 16.29 15.5494 16.31 15.5437 16.33C15.5269 16.39 15.51 16.45 15.51 16.51C15.51 16.88 15.72 17.18 16.01 17.36V19.51C16.01 19.79 16.23 20.01 16.51 20.01C16.79 20.01 17.01 19.79 17.01 19.51V17.36C17.3 17.19 17.51 16.88 17.51 16.51C17.5 15.95 17.05 15.5 16.5 15.5Z" fill="#555555"/>
</svg>
