<svg width="24" height="24" viewBox="0 0 24 24" fill="none" xmlns="http://www.w3.org/2000/svg">
<path fill-rule="evenodd" clip-rule="evenodd" d="M20.5 3.99907H12.5V2.49977C12.5 2.2199 12.28 2 12 2C11.72 2 11.5 2.2199 11.5 2.49977V3.99907H3.5C2.67 3.99907 2 4.66876 2 5.49838V16.4933C2 17.3229 2.67 17.9926 3.5 17.9926H10L4.27 21.0512C4.03 21.1811 3.93 21.481 4.06 21.7309C4.19 21.9807 4.49 22.0707 4.74 21.9408L12 18.0626L19.26 21.9308C19.34 21.9707 19.42 21.9907 19.5 21.9907C19.68 21.9907 19.85 21.8908 19.94 21.7309C20.07 21.491 19.98 21.1811 19.73 21.0512L14 17.9926H20.5C21.33 17.9926 22 17.3229 22 16.4933V5.49838C22 4.66876 21.33 3.99907 20.5 3.99907ZM21 16.4933C21 16.7732 20.78 16.9931 20.5 16.9931H3.5C3.23 16.9931 3 16.7732 3 16.4933V5.49838C3 5.21851 3.22 4.99861 3.5 4.99861H20.5C20.78 4.99861 21 5.21851 21 5.49838V16.4933ZM18 5.99815C17.61 5.99815 17.28 6.22804 17.12 6.55789C16.66 6.62786 16.11 6.77779 15.69 7.10763C14.78 7.8273 14.43 8.94678 14.09 10.0363C13.72 11.2357 13.43 12.0354 12.75 12.3452C12.56 12.1353 12.3 11.9954 12 11.9954C11.73 11.9954 11.49 12.1053 11.31 12.2752C10.91 12.0254 10.61 11.5656 10.24 10.9259C10.14 10.7459 10.03 10.566 9.92003 10.3861C9.97003 10.2662 10 10.1362 10 9.9963C10 9.44655 9.55003 8.99676 9.00003 8.99676C8.83003 8.99676 8.68003 9.04674 8.54003 9.1167C8.34003 9.04674 8.12003 8.99676 7.86003 8.99676C6.12003 8.99676 5.09003 11.1957 5.05003 11.2857C4.93003 11.5356 5.04003 11.8354 5.29003 11.9454C5.54003 12.0653 5.84003 11.9554 5.95003 11.7055C6.17003 11.2257 6.95003 9.9963 7.86003 9.9963C7.892 9.9963 7.91988 10.0045 7.94891 10.013C7.96527 10.0178 7.982 10.0227 8.00003 10.0263C8.02003 10.566 8.46003 10.9958 9.00003 10.9958C9.02147 10.9958 9.04003 10.9901 9.05727 10.9848C9.07219 10.9801 9.08611 10.9758 9.10003 10.9758C9.19003 11.1158 9.27003 11.2557 9.36003 11.4156C9.76003 12.1153 10.23 12.9349 11.06 13.3048C11.19 13.7046 11.56 13.9944 12 13.9944C12.43 13.9944 12.79 13.7146 12.93 13.3347C14.23 12.895 14.66 11.5556 15.04 10.3261C15.33 9.38658 15.64 8.40703 16.3 7.87728C16.52 7.69736 16.86 7.6074 17.18 7.54743C17.37 7.81731 17.66 7.99722 18 7.99722C18.55 7.99722 19 7.54743 19 6.99768C19 6.44794 18.55 5.99815 18 5.99815ZM5 15.494C5 15.214 5.22 14.994 5.5 14.994H18.5C18.78 14.994 19 15.214 19 15.494C19 15.774 18.78 15.994 18.5 15.994H5.5C5.22 15.994 5 15.774 5 15.494Z" fill="#555555"/>
</svg>
