<svg width="24" height="24" viewBox="0 0 24 24" fill="none" xmlns="http://www.w3.org/2000/svg">
<path fill-rule="evenodd" clip-rule="evenodd" d="M21.73 5.06L21.26 4.82C18.34 3.3 15.82 2 12 2C8.18 2 5.66 3.3 2.74 4.81L2.27 5.06C2.1 5.14 2 5.31 2 5.5C2 15.78 5.13 18.52 11.77 21.94C11.84 21.98 11.92 22 12 22C12.08 22 12.16 21.98 12.23 21.94C18.87 18.52 22 15.78 22 5.5C22 5.31 21.9 5.14 21.73 5.06ZM12 20.94C5.81 17.72 3.06 15.21 3 5.8L3.2 5.7L3.20291 5.69849C6.12153 4.18921 8.42119 3 12 3C15.5788 3 17.8785 4.18921 20.7971 5.69849L20.8 5.7L21 5.8C20.94 15.21 18.19 17.72 12 20.94ZM15.5 9H15V7.72C15 6.22 13.65 5 12 5C10.35 5 9 6.22 9 7.72V9H8.5C8.22 9 8 9.22 8 9.5V14.5C8 15.33 8.71 16 9.58 16H14.41C15.28 16 15.99 15.33 15.99 14.5V9.5C16 9.22 15.78 9 15.5 9ZM10 7.72C10 6.77 10.9 6 12 6C13.1 6 14 6.77 14 7.72V9H10V7.72ZM15 14.5C15 14.77 14.73 15 14.42 15H9.58C9.27 15 9 14.77 9 14.5V10H15V14.5ZM11 12C11 11.45 11.45 11 12 11C12.55 11 13 11.45 13 12C13 12.37 12.79 12.67 12.5 12.85V13.5C12.5 13.78 12.28 14 12 14C11.72 14 11.5 13.78 11.5 13.5V12.85C11.21 12.67 11 12.37 11 12Z" fill="#555555"/>
</svg>
