<svg width="24" height="24" viewBox="0 0 24 24" fill="none" xmlns="http://www.w3.org/2000/svg">
<path d="M19.06 11.5L20.95 7.72C21.03 7.56 21.02 7.38 20.93 7.23C20.83 7.09 20.67 7 20.5 7H16V5.5C16 5.22 15.78 5 15.5 5H6V4H6.5C6.78 4 7 3.78 7 3.5C7 3.22 6.78 3 6.5 3H4.5C4.22 3 4 3.22 4 3.5C4 3.78 4.22 4 4.5 4H5V19H4.5C4.22 19 4 19.22 4 19.5C4 19.78 4.22 20 4.5 20H3.5C3.22 20 3 20.22 3 20.5C3 20.78 3.22 21 3.5 21H7.5C7.78 21 8 20.78 8 20.5C8 20.22 7.78 20 7.5 20H6.5C6.78 20 7 19.78 7 19.5C7 19.22 6.78 19 6.5 19H6V14H12V15.5C12 15.78 12.22 16 12.5 16H20.5C20.67 16 20.83 15.91 20.93 15.76C21.02 15.61 21.03 15.43 20.95 15.27L19.06 11.5ZM6 6H15V13H6V6ZM13.85 14L13 14.57V14H13.85ZM14.15 15L15.78 13.92C15.92 13.82 16 13.67 16 13.5V8H19.69L18.05 11.28C17.98 11.42 17.98 11.59 18.05 11.73L19.69 15H14.15Z" fill="#555555"/>
</svg>
