<svg width="24" height="24" viewBox="0 0 24 24" fill="none" xmlns="http://www.w3.org/2000/svg">
<path fill-rule="evenodd" clip-rule="evenodd" d="M21.5 5H17V4.5C17 4.22 16.78 4 16.5 4H14.83C14.41 2.82 13.28 2 12 2C10.72 2 9.59 2.82 9.17 4H7.5C7.22 4 7 4.22 7 4.5V5H2.5C2.22 5 2 5.22 2 5.5V21.5C2 21.78 2.22 22 2.5 22H21.5C21.78 22 22 21.78 22 21.5V5.5C22 5.22 21.78 5 21.5 5ZM8 5H9.55C9.79 5 9.99 4.83 10.04 4.6C10.23 3.67 11.05 3 12 3C12.95 3 13.77 3.67 13.96 4.6C14.01 4.83 14.21 5 14.45 5H16V6H8V5ZM16.5 7C16.78 7 17 6.78 17 6.5V6H18V21H6V6H7V6.5C7 6.78 7.22 7 7.5 7H16.5ZM3 6H5V21H3V6ZM21 21H19V6H21V21ZM11.5 10H16.5C16.78 10 17 9.78 17 9.5C17 9.22 16.78 9 16.5 9H11.5C11.22 9 11 9.22 11 9.5C11 9.78 11.22 10 11.5 10ZM10 9.5C10 10.33 9.33 11 8.5 11C7.67 11 7 10.33 7 9.5C7 8.67 7.67 8 8.5 8C9.33 8 10 8.67 10 9.5ZM9 9.5C9 9.22 8.78 9 8.5 9C8.22 9 8 9.22 8 9.5C8 9.78 8.22 10 8.5 10C8.78 10 9 9.78 9 9.5ZM11.5 14H16.5C16.78 14 17 13.78 17 13.5C17 13.22 16.78 13 16.5 13H11.5C11.22 13 11 13.22 11 13.5C11 13.78 11.22 14 11.5 14ZM7 13.5C7 12.67 7.67 12 8.5 12C9.33 12 10 12.67 10 13.5C10 14.33 9.33 15 8.5 15C7.67 15 7 14.33 7 13.5ZM8 13.5C8 13.78 8.22 14 8.5 14C8.78 14 9 13.78 9 13.5C9 13.22 8.78 13 8.5 13C8.22 13 8 13.22 8 13.5ZM11.5 18H16.45C16.73 18 16.95 17.78 16.95 17.5C16.95 17.22 16.73 17 16.45 17H11.5C11.22 17 11 17.22 11 17.5C11 17.78 11.22 18 11.5 18ZM7 17.5C7 16.67 7.67 16 8.5 16C9.33 16 10 16.67 10 17.5C10 18.33 9.33 19 8.5 19C7.67 19 7 18.33 7 17.5ZM8 17.5C8 17.78 8.22 18 8.5 18C8.78 18 9 17.78 9 17.5C9 17.22 8.78 17 8.5 17C8.22 17 8 17.22 8 17.5Z" fill="#555555"/>
</svg>
