<svg width="24" height="24" viewBox="0 0 24 24" fill="none" xmlns="http://www.w3.org/2000/svg">
<path fill-rule="evenodd" clip-rule="evenodd" d="M12 2.5C12 2.22363 12.2236 2 12.5 2C12.7764 2 13 2.22363 13 2.5V21.5C13 21.7764 12.7764 22 12.5 22C12.2236 22 12 21.7764 12 21.5V20.7341L6.31915 16H4.5C3.67285 16 3 15.3272 3 14.5V9.5C3 8.67285 3.67285 8 4.5 8H6.31915L12 3.26593V2.5ZM4 9.5V14.5C4 14.7754 4.22412 15 4.5 15H6V9H4.5C4.22412 9 4 9.22461 4 9.5ZM7 8.73438V15.2656L12 19.4326V4.56738L7 8.73438ZM15.0283 4.76857C15.1211 4.50783 15.4072 4.37404 15.667 4.46388C18.8564 5.59376 21 8.62306 21 12C21 15.377 18.8564 18.4063 15.667 19.5361C15.6113 19.5557 15.5557 19.5645 15.5 19.5645C15.2939 19.5645 15.1016 19.4365 15.0283 19.2315C14.9365 18.9707 15.0723 18.6856 15.333 18.5928C18.124 17.6045 20 14.9551 20 12C20 9.04494 18.124 6.39552 15.333 5.40724C15.0723 5.31447 14.9365 5.02931 15.0283 4.76857ZM18 12C18 13.8838 16.9551 15.5889 15.2725 16.4492C15.0264 16.5752 14.9292 16.876 15.0547 17.1221C15.1436 17.2949 15.3184 17.3945 15.5 17.3945C15.5772 17.3945 15.6553 17.377 15.7275 17.3398C17.7461 16.3076 19 14.2607 19 12C19 9.73926 17.7461 7.69238 15.7275 6.66016C15.4844 6.53614 15.1807 6.63184 15.0547 6.87793C14.9292 7.12402 15.0264 7.42481 15.2725 7.55078C16.9551 8.41113 18 10.1162 18 12ZM15.5 14.9443C15.374 14.9443 15.248 14.8965 15.1504 14.8018C14.9531 14.6084 14.9497 14.292 15.1426 14.0947C15.6953 13.5293 16 12.7852 16 12C16 11.2148 15.6953 10.4707 15.1426 9.90527C14.9497 9.70801 14.9531 9.3916 15.1504 9.19824C15.3496 9.00585 15.666 9.00781 15.8574 9.20605C16.5938 9.95898 17 10.9512 17 12C17 13.0488 16.5938 14.041 15.8574 14.7939C15.7598 14.8945 15.6299 14.9443 15.5 14.9443Z" fill="#555555"/>
</svg>
