<svg width="24" height="24" viewBox="0 0 24 24" fill="none" xmlns="http://www.w3.org/2000/svg">
<path fill-rule="evenodd" clip-rule="evenodd" d="M4 12C4 7.59 7.59 4 12 4C16.41 4 20 7.59 20 12C20 16.41 16.41 20 12 20C7.59 20 4 16.41 4 12ZM5 12C5 15.86 8.14 19 12 19C15.86 19 19 15.86 19 12C19 8.14 15.86 5 12 5C8.14 5 5 8.14 5 12ZM12.5 11.5H16.5C16.78 11.5 17 11.72 17 12C17 12.28 16.78 12.5 16.5 12.5H12.5V16.5C12.5 16.78 12.28 17 12 17C11.72 17 11.5 16.78 11.5 16.5V12.5H7.5C7.22 12.5 7 12.28 7 12C7 11.72 7.22 11.5 7.5 11.5H11.5V7.5C11.5 7.22 11.72 7 12 7C12.28 7 12.5 7.22 12.5 7.5V11.5Z" fill="#555555"/>
</svg>
