<svg width="24" height="24" viewBox="0 0 24 24" fill="none" xmlns="http://www.w3.org/2000/svg">
<path fill-rule="evenodd" clip-rule="evenodd" d="M5.32001 14.73C5.32001 15.49 5.65001 16.22 6.28001 16.83C6.92001 17.46 7.65001 17.77 8.41001 17.77C9.31001 17.77 10.26 17.33 11.16 16.46L17.17 10.39C17.36 10.19 17.36 9.88002 17.17 9.68002C16.98 9.49002 16.66 9.49002 16.46 9.68002L10.45 15.74C9.21001 16.95 7.97001 17.08 6.97001 16.11C6.53001 15.68 6.31001 15.22 6.31001 14.72C6.31001 14.1 6.67001 13.42 7.35001 12.76L15.71 4.64002C16.2 4.16002 18.21 3.31002 19.95 5.01002C20.64 5.68002 21 6.46002 21 7.29002C21 8.09002 20.66 8.79002 20.34 9.10002L18.65 10.74C18.45 10.93 18.45 11.25 18.64 11.45C18.83 11.65 19.15 11.65 19.35 11.46L21.04 9.82002C21.48 9.38002 22 8.46002 22 7.29002C22 6.52002 21.77 5.38002 20.66 4.30002C18.53 2.23002 15.94 3.04002 15.03 3.93002L6.67001 12.05C5.79001 12.91 5.32001 13.83 5.32001 14.73ZM11.65 17.55L10.08 19.07C8.81 20.3 6.08 20.41 4.32 18.7C3.48 17.88 3 16.75 3 15.59C3 14.62 3.34 13.73 3.95 13.14L11.93 5.38004C12.13 5.19004 12.13 4.87004 11.94 4.67004C11.75 4.47004 11.43 4.47004 11.23 4.66004L3.25 12.42C2.46 13.2 2 14.35 2 15.59C2 17.02 2.59 18.41 3.63 19.42C4.71 20.47 6.17 21 7.57 21C8.78 21 9.95 20.6 10.78 19.79L12.35 18.27C12.55 18.08 12.55 17.76 12.36 17.56C12.17 17.36 11.85 17.36 11.65 17.55ZM18 15.99H21.5C21.78 15.99 22 16.22 22 16.5C22 16.78 21.78 17 21.5 17H18V20.5C18 20.78 17.78 21 17.5 21C17.22 21 17 20.78 17 20.5V17H13.5C13.22 17 13 16.78 13 16.5C13 16.22 13.22 16 13.5 16H17V12.5C17 12.22 17.22 12 17.5 12C17.78 12 18 12.22 18 12.5V15.99Z" fill="#555555"/>
</svg>
