<svg width="24" height="24" viewBox="0 0 24 24" fill="none" xmlns="http://www.w3.org/2000/svg">
<path fill-rule="evenodd" clip-rule="evenodd" d="M5.87 5.83C5.77 5.94 5.64 6 5.5 6C5.38 6 5.26 5.96 5.17 5.87C4.96 5.69 4.94 5.37 5.13 5.17C6.36 3.79 8.14 3 10 3C11.86 3 13.64 3.79 14.88 5.16C15.06 5.37 15.05 5.69 14.84 5.87C14.63 6.05 14.31 6.04 14.13 5.83C13.08 4.67 11.58 4 10 4C8.42 4 6.92 4.67 5.87 5.83ZM4 18H12.5C12.78 18 13 18.22 13 18.5C13 18.78 12.78 19 12.5 19H3.5C3.22 19 3 18.78 3 18.5V13.5C3 12.67 3.67 12 4.5 12H8.07C8.29 11.14 9.07 10.5 10 10.5C10.93 10.5 11.71 11.14 11.93 12H14.5C14.78 12 15 12.22 15 12.5C15 12.78 14.78 13 14.5 13H11.93C11.71 13.86 10.93 14.5 10 14.5C9.07 14.5 8.29 13.86 8.07 13H4.5C4.22 13 4 13.22 4 13.5V18ZM11 12.5C11 11.95 10.55 11.5 10 11.5C9.45 11.5 9 11.95 9 12.5C9 13.05 9.45 13.5 10 13.5C10.55 13.5 11 13.05 11 12.5ZM13 7.49C13.12 7.49 13.23 7.45 13.33 7.37C13.54 7.19 13.56 6.87 13.38 6.66C12.54 5.68 11.3 5.12 10 5.12C8.7 5.12 7.46 5.68 6.62 6.67C6.44 6.88 6.47 7.19 6.67 7.37C6.88 7.54999 7.2 7.53 7.38 7.32C8.03 6.56 8.99 6.12 10 6.12C11.01 6.12 11.97 6.56 12.62 7.32C12.72 7.43 12.86 7.49 13 7.49ZM8.09 8.20998C8.5 7.59998 9.22 7.22998 10 7.22998C10.78 7.22998 11.5 7.59998 11.9 8.21998C12.06 8.43998 12 8.75998 11.77 8.90998C11.54 9.06998 11.23 9.00998 11.08 8.77998C10.62 8.09998 9.37 8.09998 8.91 8.77998C8.82 8.91998 8.66 8.99998 8.5 8.99998C8.4 8.99998 8.31 8.96998 8.22 8.89998C7.99 8.74998 7.94 8.43998 8.09 8.20998ZM6.5 16C6.22 16 6 16.22 6 16.5C6 16.78 6.22 17 6.5 17H8.5C8.78 17 9 16.78 9 16.5C9 16.22 8.78 16 8.5 16H6.5ZM17 16H20.5C20.78 16 21 16.22 21 16.5C21 16.78 20.78 17 20.5 17H17V20.5C17 20.78 16.78 21 16.5 21C16.22 21 16 20.78 16 20.5V17H12.5C12.22 17 12 16.78 12 16.5C12 16.22 12.22 16 12.5 16H16V12.5C16 12.22 16.22 12 16.5 12C16.78 12 17 12.22 17 12.5V16Z" fill="#555555"/>
</svg>
