<svg width="24" height="24" viewBox="0 0 24 24" fill="none" xmlns="http://www.w3.org/2000/svg">
<path fill-rule="evenodd" clip-rule="evenodd" d="M10 17H9.5C9.22 17 9 17.22 9 17.5C9 17.78 9.22 18 9.5 18H10C10.28 18 10.5 18.22 10.5 18.5C10.5 18.78 10.28 19 10 19H9.5C8.85 19 8.3 18.58 8.09 18H6.91C6.7 18.58 6.15 19 5.5 19H4.5C3.67 19 3 18.33 3 17.5C3 16.67 3.67 16 4.5 16H5.5C6.15 16 6.7 16.42 6.91 17H8.09C8.3 16.42 8.85 16 9.5 16V15H5C3.73 15 3 14.27 3 13V5C3 3.73 3.73 3 5 3H7.5C8.68 3 8.82 3.12 10.71 5H15C16.27 5 17 5.73 17 7V9.5C17 9.78 16.78 10 16.5 10C16.22 10 16 9.78 16 9.5V8H4V13C4 13.72 4.28 14 5 14H13.5C13.78 14 14 14.22 14 14.5C14 14.78 13.78 15 13.5 15H10.5V16.5C10.5 16.78 10.28 17 10 17ZM7.51 4H5C4.28 4 4 4.28 4 5V7H16C16 6.28 15.72 6 15 6H10.5C10.37 6 10.24 5.95 10.15 5.85C10.1045 5.80477 10.0602 5.76064 10.0169 5.71758C8.29001 3.99952 8.28068 3.99024 7.51 4ZM4 17.5C4 17.78 4.22 18 4.5 18H5.5C5.78 18 6 17.78 6 17.5C6 17.22 5.78 17 5.5 17H4.5C4.22 17 4 17.22 4 17.5ZM14.5 9C14.78 9 15 9.22 15 9.5C15 9.78 14.78 10 14.5 10H10C9.72 10 9.5 9.78 9.5 9.5C9.5 9.22 9.72 9 10 9H14.5ZM9.5 11.5C9.5 11.22 9.72 11 10 11H13.5C13.78 11 14 11.22 14 11.5C14 11.78 13.78 12 13.5 12H10C9.72 12 9.5 11.78 9.5 11.5ZM20.5 16H17V12.5C17 12.22 16.78 12 16.5 12C16.22 12 16 12.22 16 12.5V16H12.5C12.22 16 12 16.22 12 16.5C12 16.78 12.22 17 12.5 17H16V20.5C16 20.78 16.22 21 16.5 21C16.78 21 17 20.78 17 20.5V17H20.5C20.78 17 21 16.78 21 16.5C21 16.22 20.78 16 20.5 16Z" fill="#555555"/>
</svg>
