<svg width="24" height="24" viewBox="0 0 24 24" fill="none" xmlns="http://www.w3.org/2000/svg">
<path fill-rule="evenodd" clip-rule="evenodd" d="M4 18H13.5C13.78 18 14 18.22 14 18.5C14 18.78 13.78 19 13.5 19H3.5C3.22 19 3 18.78 3 18.5V5.5C3 5.22 3.22 5 3.5 5H6V3.5C6 3.22 6.22 3 6.5 3H12.5C12.63 3 12.76 3.05 12.85 3.15L16.85 7.15C16.95 7.24 17 7.37 17 7.5V9.5C17 9.78 16.78 10 16.5 10C16.22 10 16 9.78 16 9.5V8H12.5C12.22 8 12 7.78 12 7.5V4H7V16H9.5C9.78 16 10 16.22 10 16.5C10 16.78 9.78 17 9.5 17H6.5C6.22 17 6 16.78 6 16.5V6H4V18ZM15.29 7L13 4.71V7H15.29ZM17 16H20.5C20.78 16 21 16.22 21 16.5C21 16.78 20.78 17 20.5 17H17V20.5C17 20.78 16.78 21 16.5 21C16.22 21 16 20.78 16 20.5V17H12.5C12.22 17 12 16.78 12 16.5C12 16.22 12.22 16 12.5 16H16V12.5C16 12.22 16.22 12 16.5 12C16.78 12 17 12.22 17 12.5V16ZM14.5 11H8.5C8.22 11 8 11.22 8 11.5C8 11.78 8.22 12 8.5 12H14.5C14.78 12 15 11.78 15 11.5C15 11.22 14.78 11 14.5 11ZM10.5 10H8.5C8.22 10 8 9.78 8 9.5C8 9.22 8.22 9 8.5 9H10.5C10.78 9 11 9.22 11 9.5C11 9.78 10.78 10 10.5 10ZM8.5 8H10.5C10.78 8 11 7.78 11 7.5C11 7.22 10.78 7 10.5 7H8.5C8.22 7 8 7.22 8 7.5C8 7.78 8.22 8 8.5 8ZM8.5 13H14.5C14.78 13 15 13.22 15 13.5C15 13.78 14.78 14 14.5 14H8.5C8.22 14 8 13.78 8 13.5C8 13.22 8.22 13 8.5 13Z" fill="#555555"/>
</svg>
