<svg width="24" height="24" viewBox="0 0 24 24" fill="none" xmlns="http://www.w3.org/2000/svg">
<path fill-rule="evenodd" clip-rule="evenodd" d="M12 17.5C12 17.22 12.22 17 12.5 17C12.78 17 13 17.22 13 17.5V20.5C13 20.7 12.88 20.88 12.69 20.96C12.63 20.99 12.56 21 12.5 21C12.37 21 12.24 20.95 12.15 20.85L9.15 17.85C9.05 17.76 9 17.63 9 17.5V11.69L4.13 6.34C4.05 6.24 4 6.12 4 6V3.5C4 3.22 4.22 3 4.5 3H17.5C17.78 3 18 3.22 18 3.5V6C18 6.12 17.95 6.24 17.87 6.33L13 11.69V13.5C13 13.78 12.78 14 12.5 14C12.22 14 12 13.78 12 13.5V12H10V17.29L12 19.29V17.5ZM5 4V5.81L9.72 11H12.28L17 5.81V4H5ZM16.5 15H19.5C19.78 15 20 15.22 20 15.5C20 15.78 19.78 16 19.5 16H16.5V19C16.5 19.28 16.28 19.5 16 19.5C15.72 19.5 15.5 19.28 15.5 19V16H12.5C12.22 16 12 15.78 12 15.5C12 15.22 12.22 15 12.5 15H15.5V12C15.5 11.72 15.72 11.5 16 11.5C16.28 11.5 16.5 11.72 16.5 12V15Z" fill="#555555"/>
</svg>
