<svg width="24" height="24" viewBox="0 0 24 24" fill="none" xmlns="http://www.w3.org/2000/svg">
<path fill-rule="evenodd" clip-rule="evenodd" d="M11.85 3.14999L16.85 8.14999C16.97 8.25999 17.02 8.41999 16.99 8.57999C16.96 8.73999 16.86 8.87999 16.72 8.94999L8.72 12.95C8.65 12.98 8.58 13 8.5 13C8.37 13 8.24 12.95 8.15 12.85L5.4 10.11L4.34 10.64L8.6 14.89L14.27 12.06C14.51 11.93 14.82 12.03 14.94 12.28C15.07 12.53 14.97 12.83 14.72 12.95L8.72 15.95C8.65 15.98 8.58 16 8.5 16C8.37 16 8.24 15.95 8.16 15.86L5.41 13.11L4.35 13.64L8.6 17.89L10.27 17.06C10.52 16.93 10.82 17.03 10.94 17.28C11.07 17.53 10.97 17.83 10.72 17.95L8.72 18.95C8.65 18.98 8.58 19 8.5 19C8.37 19 8.24 18.95 8.15 18.85L3.15 13.85C3.04 13.74 2.98 13.58 3.01 13.42C3.04 13.26 3.14 13.12 3.28 13.05L4.66 12.36L3.15 10.85C3.04 10.74 2.99 10.58 3.01 10.42C3.03 10.26 3.13 10.12 3.28 10.05L4.66 9.35999L3.15 7.84999C3.04 7.73999 2.98 7.57999 3.01 7.41999C3.03 7.25999 3.13 7.11999 3.28 7.04999L11.28 3.04999C11.47 2.95999 11.7 2.98999 11.85 3.14999ZM4.34 7.63999L8.6 11.89L15.65 8.35999L11.4 4.10999L4.34 7.63999ZM17 16H20.5C20.78 16 21 16.22 21 16.5C21 16.78 20.78 17 20.5 17H17V20.5C17 20.78 16.78 21 16.5 21C16.22 21 16 20.78 16 20.5V17H12.5C12.22 17 12 16.78 12 16.5C12 16.22 12.22 16 12.5 16H16V12.5C16 12.22 16.22 12 16.5 12C16.78 12 17 12.22 17 12.5V16Z" fill="#555555"/>
</svg>
