<svg width="24" height="24" viewBox="0 0 24 24" fill="none" xmlns="http://www.w3.org/2000/svg">
<path fill-rule="evenodd" clip-rule="evenodd" d="M20.5 7C20.67 7 20.83 7.09 20.93 7.24C21.02 7.38 21.02 7.57 20.95 7.72L19.06 11.5L20.44 14.28C20.57 14.53 20.47 14.83 20.22 14.95C20.15 14.98 20.08 15 20 15C19.82 15 19.64 14.9 19.55 14.73L18.05 11.73C17.98 11.59 17.98 11.42 18.05 11.28L19.69 8H16V9.5C16 9.78 15.78 10 15.5 10C15.22 10 15 9.78 15 9.5V6H6V13H12.5C12.78 13 13 13.22 13 13.5C13 13.78 12.78 14 12.5 14H6V19H6.5C6.78 19 7 19.22 7 19.5C7 19.78 6.78 20 6.5 20H7.5C7.78 20 8 20.22 8 20.5C8 20.78 7.78 21 7.5 21H3.5C3.22 21 3 20.78 3 20.5C3 20.22 3.22 20 3.5 20H4.5C4.22 20 4 19.78 4 19.5C4 19.22 4.22 19 4.5 19H5V4H4.5C4.22 4 4 3.78 4 3.5C4 3.22 4.22 3 4.5 3H6.5C6.78 3 7 3.22 7 3.5C7 3.78 6.78 4 6.5 4H6V5H15.5C15.78 5 16 5.22 16 5.5V7H20.5ZM16 16H19.5C19.78 16 20 16.22 20 16.5C20 16.78 19.78 17 19.5 17H16V20.5C16 20.78 15.78 21 15.5 21C15.22 21 15 20.78 15 20.5V17H11.5C11.22 17 11 16.78 11 16.5C11 16.22 11.22 16 11.5 16H15V12.5C15 12.22 15.22 12 15.5 12C15.78 12 16 12.22 16 12.5V16Z" fill="#555555"/>
</svg>
