<svg width="24" height="24" viewBox="0 0 24 24" fill="none" xmlns="http://www.w3.org/2000/svg">
<path fill-rule="evenodd" clip-rule="evenodd" d="M11.35 6.90001L13.06 5.19001C14.64 3.61001 17.22 3.61001 18.81 5.19001C20.39 6.77001 20.39 9.35001 18.81 10.94L17.65 12.1C17.45 12.3 17.45 12.61 17.65 12.81C17.75 12.91 17.88 12.96 18 12.96C18.12 12.96 18.26 12.91 18.35 12.81L19.51 11.65C21.48 9.68001 21.48 6.46001 19.51 4.49001C17.54 2.52001 14.32 2.52001 12.35 4.49001L10.65 6.19001C10.45 6.39001 10.45 6.70001 10.65 6.90001C10.85 7.10001 11.16 7.09001 11.35 6.90001ZM15.23 13.1C15.43 12.9 15.43 12.59 15.23 12.39C15.03 12.19 14.72 12.19 14.52 12.39C13.74 13.17 12.38 13.17 11.6 12.39C11.4 12.19 11.09 12.19 10.89 12.39C10.69 12.58 10.69 12.9 10.89 13.1C11.47 13.68 12.24 14 13.06 14C13.88 14 14.65 13.68 15.23 13.1ZM16.27 11.35C16.07 11.15 16.07 10.84 16.27 10.64L17.39 9.53C18.2 8.73 18.2 7.42 17.39 6.61C16.61 5.83 15.25 5.83 14.47 6.61L13.72 7.36C13.52 7.56 13.21 7.56 13.01 7.36C12.81 7.16 12.81 6.85 13.01 6.65L13.76 5.9C14.91 4.74 16.93 4.74 18.09 5.9C19.29 7.09 19.29 9.03 18.09 10.23L16.97 11.35C16.88 11.45 16.74 11.5 16.62 11.5C16.5 11.5 16.37 11.45 16.27 11.35ZM11.65 18.1L10.94 18.81C9.36 20.39 6.78 20.39 5.19 18.81C4.42 18.04 4 17.02 4 15.93C4 14.84 4.42 13.82 5.19 13.06L8.06 10.19C9.64 8.61 12.22 8.61 13.81 10.19C14.01 10.39 14.32 10.39 14.52 10.19C14.72 9.99 14.72 9.68 14.52 9.48C12.55 7.51 9.33 7.51 7.36 9.48L4.48 12.35C3.53 13.31 3 14.58 3 15.93C3 17.28 3.53 18.55 4.48 19.51C5.47 20.5 6.76 20.99 8.06 20.99C9.36 20.99 10.65 20.5 11.64 19.51L12.35 18.8C12.55 18.6 12.55 18.29 12.35 18.09C12.15 17.89 11.84 17.9 11.65 18.1ZM12.39 11.6C11.61 10.82 10.25 10.82 9.47001 11.6L6.61001 14.47C5.81001 15.27 5.81001 16.59 6.61001 17.39C7.39001 18.17 8.75001 18.17 9.53001 17.39L10.28 16.64C10.48 16.44 10.79 16.44 10.99 16.64C11.19 16.84 11.19 17.15 10.99 17.35L10.24 18.1C9.66001 18.68 8.89001 19 8.07001 19C7.25001 19 6.48001 18.68 5.90001 18.09C4.71001 16.9 4.71001 14.96 5.90001 13.76L8.76001 10.89C9.92001 9.72999 11.94 9.72999 13.1 10.89C13.3 11.09 13.3 11.4 13.1 11.6C12.9 11.8 12.59 11.8 12.39 11.6ZM20.5 16H17V12.5C17 12.22 16.78 12 16.5 12C16.22 12 16 12.22 16 12.5V16H12.5C12.22 16 12 16.22 12 16.5C12 16.78 12.22 17 12.5 17H16V20.5C16 20.78 16.22 21 16.5 21C16.78 21 17 20.78 17 20.5V17H20.5C20.78 17 21 16.78 21 16.5C21 16.22 20.78 16 20.5 16ZM11.23 14.56C11.48 14.68 11.57 14.98 11.45 15.23C11.36 15.4 11.18 15.5 11 15.5C10.92 15.5 10.85 15.49 10.77 15.46C10.3 15.22 9.86002 14.9 9.48002 14.52C9.29002 14.32 9.29002 14.01 9.48002 13.81C9.68002 13.62 9.99002 13.62 10.19 13.81C10.5 14.12 10.85 14.37 11.23 14.56Z" fill="#555555"/>
</svg>
