<svg width="24" height="24" viewBox="0 0 24 24" fill="none" xmlns="http://www.w3.org/2000/svg">
<path fill-rule="evenodd" clip-rule="evenodd" d="M20.5 2H3.5C3.22 2 3 2.22 3 2.5V8.5C3 8.78 3.22 9 3.5 9H20.5C20.78 9 21 8.78 21 8.5V2.5C21 2.22 20.78 2 20.5 2ZM20 8H4V3H20V8ZM20.5 17H17V13.5C17 13.22 16.78 13 16.5 13C16.22 13 16 13.22 16 13.5V17H12.5C12.22 17 12 17.22 12 17.5C12 17.78 12.22 18 12.5 18H16V21.5C16 21.78 16.22 22 16.5 22C16.78 22 17 21.78 17 21.5V18H20.5C20.78 18 21 17.78 21 17.5C21 17.22 20.78 17 20.5 17ZM3.5 11H20.5C20.78 11 21 11.22 21 11.5V13C21 13.28 20.78 13.5 20.5 13.5C20.22 13.5 20 13.28 20 13V12H4V17H9.42C9.7 17 9.92 17.22 9.92 17.5C9.92 17.78 9.7 18 9.42 18H3.5C3.22 18 3 17.78 3 17.5V11.5C3 11.22 3.22 11 3.5 11Z" fill="#555555"/>
</svg>
