<svg width="24" height="24" viewBox="0 0 24 24" fill="none" xmlns="http://www.w3.org/2000/svg">
<path fill-rule="evenodd" clip-rule="evenodd" d="M12.14 18.246L12.13 18.236L6.12 12.226L13.42 5.38597C13.8 5.00597 14.2 4.98597 15.28 4.99597H18.42C18.73 4.99597 18.99 5.25597 18.99 5.56597L19 8.89597C19.01 9.95597 19 10.176 18.59 10.586L17.63 11.606C17.44 11.806 17.45 12.126 17.65 12.316C17.85 12.506 18.17 12.496 18.36 12.296L19.3 11.286C20.0056 10.5804 20.0001 9.98343 19.9902 8.90623L19.99 8.88597L19.98 5.57597C19.98 4.70597 19.28 4.00597 18.41 4.00597H15.28C14.2 3.98597 13.41 3.97597 12.72 4.67597L4.46 12.406C4.16 12.706 4 13.096 4 13.516C4 13.936 4.16 14.336 4.46 14.626L9.37 19.536C9.67 19.836 10.06 19.996 10.48 19.996C10.9 19.996 11.3 19.836 11.6 19.526L12.15 18.946C12.33 18.756 12.32 18.466 12.15 18.276C12.145 18.266 12.145 18.261 12.145 18.2572C12.145 18.2535 12.145 18.251 12.14 18.246ZM10.48 18.996C10.33 18.996 10.18 18.936 10.08 18.826L5.17 13.926C5.06 13.816 5 13.676 5 13.516C5 13.356 5.06 13.216 5.15 13.126L5.38 12.906L11.08 18.606L10.87 18.826C10.78 18.936 10.63 18.996 10.48 18.996ZM9.00001 10.756C8.80001 10.956 8.80001 11.266 9.00001 11.466L10.88 13.346C10.98 13.446 11.11 13.496 11.23 13.496C11.36 13.496 11.49 13.446 11.58 13.346C11.78 13.146 11.78 12.836 11.58 12.636L9.71001 10.756C9.51001 10.566 9.19001 10.566 9.00001 10.756ZM14.11 12.3459C14.02 12.4459 13.89 12.4959 13.76 12.4959C13.64 12.4959 13.51 12.4459 13.41 12.3559L10.76 9.70595C10.56 9.50595 10.56 9.19595 10.76 8.99595C10.96 8.79595 11.27 8.79595 11.47 8.99595L14.11 11.6359C14.31 11.8359 14.31 12.1459 14.11 12.3459ZM18.24 7.36599C18.24 6.48599 17.52 5.76599 16.64 5.76599C15.76 5.76599 15.04 6.48599 15.04 7.36599C15.04 8.24599 15.76 8.96599 16.64 8.96599C17.52 8.96599 18.24 8.24599 18.24 7.36599ZM16.63 7.96599C16.3 7.96599 16.03 7.69599 16.03 7.36599C16.03 7.03599 16.3 6.76599 16.63 6.76599C16.96 6.76599 17.23 7.03599 17.23 7.36599C17.23 7.69599 16.96 7.96599 16.63 7.96599ZM16.5 14.996H19.5C19.78 14.996 20 15.216 20 15.496C20 15.776 19.78 15.996 19.5 15.996H16.5V18.996C16.5 19.276 16.28 19.496 16 19.496C15.72 19.496 15.5 19.276 15.5 18.996V15.996H12.5C12.22 15.996 12 15.776 12 15.496C12 15.216 12.22 14.996 12.5 14.996H15.5V11.996C15.5 11.716 15.72 11.496 16 11.496C16.28 11.496 16.5 11.716 16.5 11.996V14.996Z" fill="#555555"/>
</svg>
