<svg width="24" height="24" viewBox="0 0 24 24" fill="none" xmlns="http://www.w3.org/2000/svg">
<path fill-rule="evenodd" clip-rule="evenodd" d="M3.5 14C3.78 14 4 13.78 4 13.5V11H16.5C16.78 11 17 10.78 17 10.5V3.5C17 3.22 16.78 3 16.5 3H6.5C6.22 3 6 3.22 6 3.5V10H3.5C3.22 10 3 10.22 3 10.5V13.5C3 13.78 3.22 14 3.5 14ZM11.84 4L10.12 10H8.16L9.87 4H11.84ZM14.84 4L13.13 10H11.16L12.87 4H14.84ZM16 10H14.16L15.87 4H16V10ZM7 4H8.84L7.12 10H7V4ZM10.5 14C10.22 14 10 14.22 10 14.5V18H4V16.5C4 16.22 3.78 16 3.5 16C3.22 16 3 16.22 3 16.5V18.5C3 18.78 3.22 19 3.5 19H10.5C10.78 19 11 18.78 11 18.5V14.5C11 14.22 10.78 14 10.5 14ZM17 16H20.5C20.78 16 21 16.22 21 16.5C21 16.78 20.78 17 20.5 17H17V20.5C17 20.78 16.78 21 16.5 21C16.22 21 16 20.78 16 20.5V17H12.5C12.22 17 12 16.78 12 16.5C12 16.22 12.22 16 12.5 16H16V12.5C16 12.22 16.22 12 16.5 12C16.78 12 17 12.22 17 12.5V16Z" fill="#555555"/>
</svg>
