<svg width="24" height="24" viewBox="0 0 24 24" fill="none" xmlns="http://www.w3.org/2000/svg">
<path fill-rule="evenodd" clip-rule="evenodd" d="M10.0002 12H18.4999C19.8789 12 21 13.1211 21 14.5C21 15.8789 19.8789 17 18.4999 17C18.2236 17 17.9999 16.7764 17.9999 16.5C17.9999 16.2236 18.2236 16 18.4999 16C19.3271 16 20 15.3272 20 14.5C20 13.6728 19.3271 13 18.4999 13H10.0002V17H14.4998C15.8788 17 16.9999 18.1211 16.9999 19.5C16.9999 20.8789 15.8787 22 14.4998 22C14.2234 22 13.9998 21.7764 13.9998 21.5C13.9998 21.2236 14.2234 21 14.4998 21C15.327 21 15.9999 20.3272 15.9999 19.5C15.9999 18.6728 15.327 18 14.4998 18H10.0002V20.5C10.0002 20.6728 9.91033 20.834 9.76287 20.9258C9.68279 20.9746 9.59148 21 9.50017 21C9.42351 21 9.34733 20.9824 9.27653 20.9473L3.27637 17.9473C3.10694 17.8623 3 17.6895 3 17.5V6.5C3 6.31054 3.10693 6.13769 3.27637 6.05273L9.27654 3.05274C9.43084 2.9751 9.61444 2.98389 9.76288 3.07422C9.91034 3.16602 10.0002 3.32715 10.0002 3.5V6H16.4999C17.3271 6 17.9999 5.32715 17.9999 4.5C17.9999 3.67285 17.3271 3 16.4999 3C16.2235 3 15.9999 2.77637 15.9999 2.5C15.9999 2.22363 16.2235 2 16.4999 2C17.8788 2 19 3.12109 19 4.5C19 5.87891 17.8788 7 16.4999 7H10.0002V9H15.4999C15.7762 9 15.9999 9.22363 15.9999 9.5C15.9999 9.77637 15.7762 10 15.4999 10H10.0002V12ZM4.00003 17.1914L9.00016 19.6914V4.30859L4.00003 6.80859V17.1914ZM17.9999 9.5C17.9999 9.77637 18.2235 10 18.4999 10H20.5C20.7763 10 21 9.77637 21 9.5C21 9.22363 20.7763 9 20.5 9H18.4999C18.2235 9 17.9999 9.22363 17.9999 9.5ZM7.00012 10.5C7.00012 10.2236 7.22376 10 7.50013 10C7.7765 10 8.00014 10.2236 8.00014 10.5V13.5C8.00014 13.7764 7.7765 14 7.50013 14C7.22376 14 7.00012 13.7764 7.00012 13.5V10.5ZM11.0002 15.5C11.0002 15.2236 11.2239 15 11.5002 15H14.4998C14.7762 15 14.9998 15.2236 14.9998 15.5C14.9998 15.7764 14.7762 16 14.4998 16H11.5002C11.2239 16 11.0002 15.7764 11.0002 15.5Z" fill="#555555"/>
</svg>
