<svg width="24" height="24" viewBox="0 0 24 24" fill="none" xmlns="http://www.w3.org/2000/svg">
<path fill-rule="evenodd" clip-rule="evenodd" d="M11.1892 15.11C11.3992 14.94 11.7192 14.97 11.8892 15.19C12.0592 15.4 12.0292 15.72 11.8092 15.89L9.30915 17.89C9.21916 17.96 9.10915 18 8.99916 18C8.88915 18 8.77916 17.96 8.68916 17.89L6.18916 15.89C5.96916 15.72 5.93916 15.41 6.10916 15.19C6.27916 14.97 6.59916 14.94 6.80916 15.11L8.49916 16.46V6.5C8.49916 6.22 8.71916 6 8.99916 6C9.27916 6 9.49916 6.22 9.49916 6.5V16.46L11.1892 15.11ZM11.4991 7H13.4991C13.7791 7 13.9991 6.78 13.9991 6.5C13.9991 6.22 13.7791 6 13.4991 6H11.4991C11.2191 6 10.9991 6.22 10.9991 6.5C10.9991 6.78 11.2191 7 11.4991 7ZM15.4991 10H11.4991C11.2191 10 10.9991 9.78 10.9991 9.5C10.9991 9.22 11.2191 9 11.4991 9H15.4991C15.7791 9 15.9991 9.22 15.9991 9.5C15.9991 9.78 15.7791 10 15.4991 10ZM11.4991 13H17.4991C17.7791 13 17.9991 12.78 17.9991 12.5C17.9991 12.22 17.7791 12 17.4991 12H11.4991C11.2191 12 10.9991 12.22 10.9991 12.5C10.9991 12.78 11.2191 13 11.4991 13Z" fill="#555555"/>
</svg>
