<svg width="24" height="24" viewBox="0 0 24 24" fill="none" xmlns="http://www.w3.org/2000/svg">
<path d="M7.57 21C6.17 21 4.71 20.4694 3.63 19.4183C2.59 18.4073 2 17.0158 2 15.5843C2 14.343 2.46 13.1918 3.25 12.4209L11.23 4.66275C11.43 4.47255 11.74 4.47255 11.94 4.67276C12.13 4.87297 12.13 5.1833 11.93 5.38351L3.95 13.1417C3.35 13.7223 3 14.6133 3 15.5843C3 16.7455 3.48 17.8767 4.33 18.6976C6.09 20.4094 8.82 20.2993 10.09 19.068L20.34 9.08742C20.66 8.77709 21 8.07635 21 7.27551C21 6.45464 20.64 5.66381 19.96 5.00311C18.35 3.43145 16.37 4.00205 15.72 4.63272L7.36 12.7613C6.68 13.422 6.32 14.1027 6.32 14.7234C6.32 15.2139 6.54 15.6844 6.98 16.1148C7.98 17.0859 9.22 16.9557 10.46 15.7445L16.47 9.67805C16.66 9.47783 16.98 9.47783 17.18 9.67805C17.38 9.86825 17.38 10.1886 17.18 10.3888L11.17 16.4652C9.52 18.0769 7.7 18.2171 6.29 16.8456C5.66 16.235 5.33 15.5042 5.33 14.7434C5.33 13.8424 5.79 12.9215 6.67 12.0606L15.02 3.93198C15.94 3.04104 18.53 2.23018 20.65 4.30237C21.77 5.36349 22 6.5047 22 7.27551C22 8.44675 21.48 9.36772 21.04 9.80818L10.78 19.7887C9.95 20.5996 8.78 21 7.57 21Z" fill="#555555"/>
</svg>
