<svg width="24" height="24" viewBox="0 0 24 24" fill="none" xmlns="http://www.w3.org/2000/svg">
<path fill-rule="evenodd" clip-rule="evenodd" d="M3 8.49998C3 8.77998 2.78 8.99998 2.5 8.99998C2.22 8.99998 2 8.77998 2 8.49998C2 6.01998 4.02 3.99998 6.5 3.99998H18V2.49998C18 2.31998 18.1 2.14998 18.27 2.05998C18.43 1.96998 18.63 1.97998 18.78 2.07998L21.78 4.07998C21.7933 4.08665 21.7978 4.09332 21.8022 4.09998C21.8044 4.10332 21.8067 4.10665 21.81 4.10998C21.86 4.13998 21.89 4.17998 21.92 4.22998C21.925 4.23998 21.93 4.24748 21.935 4.25498C21.94 4.26248 21.945 4.26998 21.95 4.27998C21.98 4.34998 22 4.41998 22 4.49998C22 4.57998 21.98 4.64998 21.95 4.71998C21.95 4.7321 21.9427 4.74054 21.9347 4.74976C21.9294 4.75576 21.9239 4.7621 21.92 4.76998C21.89 4.81998 21.85 4.85998 21.81 4.88998L21.78 4.91998L18.78 6.91998C18.69 6.96998 18.6 6.99998 18.5 6.99998C18.42 6.99998 18.34 6.97998 18.26 6.93998C18.1 6.84998 18 6.67998 18 6.49998V4.99998H6.5C4.57 4.99998 3 6.56998 3 8.49998ZM21 15.5C21 15.22 21.22 15 21.5 15C21.78 15 22 15.22 22 15.5C22 17.98 19.98 20 17.5 20H6V21.5C6 21.68 5.9 21.85 5.74 21.94C5.66 21.98 5.58 22 5.5 22C5.4 22 5.31 21.97 5.23 21.92L2.23 19.92C2.21667 19.9133 2.21222 19.9067 2.20778 19.9C2.20556 19.8967 2.20333 19.8933 2.2 19.89C2.15 19.85 2.12 19.82 2.09 19.77C2.07 19.75 2.06 19.74 2.05 19.72C2.02 19.65 2 19.58 2 19.5C2 19.42 2.02 19.35 2.05 19.28C2.055 19.27 2.0625 19.2625 2.07 19.255C2.0775 19.2475 2.085 19.24 2.09 19.23C2.12 19.18 2.16 19.14 2.2 19.11L2.23 19.08L5.23 17.08C5.38 16.98 5.58 16.97 5.74 17.06C5.9 17.15 6 17.32 6 17.5V19H17.5C19.43 19 21 17.43 21 15.5ZM3.96 9L2 14.35H3.38L3.69 13.35H5.46L5.77 14.35H7.16L5.17 9H3.96ZM4 12.36L4.57 10.5L5.15 12.36H4ZM7.51001 12.53V9H8.80001V12.55C8.82001 13.14 9.09001 13.43 9.62001 13.43C9.89001 13.43 10.09 13.36 10.23 13.21C10.37 13.06 10.44 12.82 10.44 12.49V9H11.72V12.51C11.72 12.91 11.64 13.25 11.47 13.54C11.3 13.83 11.06 14.05 10.74 14.2C10.43 14.35 10.05 14.43 9.62001 14.43C8.97001 14.43 8.45001 14.26 8.08001 13.92C7.71001 13.58 7.52001 13.12 7.51001 12.53ZM15.26 14.35V10H16.87V9H12.4V10H13.97V14.35H15.26ZM19.66 8.93005C20.11 8.93005 20.51 9.03005 20.87 9.25005C21.23 9.47005 21.5 9.77005 21.7 10.1701C21.9 10.5701 22 11.0301 22 11.5401V11.7901C22 12.3101 21.9 12.7701 21.71 13.1701C21.51 13.5701 21.24 13.8801 20.88 14.1001C20.52 14.3201 20.11 14.4301 19.66 14.4301C19.21 14.4301 18.8 14.3301 18.45 14.1201C18.09 13.9101 17.82 13.6101 17.62 13.2201C17.42 12.8301 17.32 12.3801 17.31 11.8801V11.5801C17.31 11.0501 17.41 10.5901 17.6 10.1901C17.8 9.79005 18.07 9.48005 18.43 9.26005C18.79 9.04005 19.2 8.93005 19.66 8.93005ZM20.42 13.0001C20.6 12.7301 20.69 12.3301 20.69 11.8101H20.68V11.5601C20.68 11.0301 20.59 10.6301 20.41 10.3501C20.24 10.0801 19.98 9.94005 19.65 9.94005C19.01 9.94005 18.67 10.4301 18.63 11.4001V11.7901C18.63 12.3101 18.72 12.7201 18.89 13.0001C19.07 13.2801 19.33 13.4201 19.67 13.4201C19.99 13.4201 20.24 13.2801 20.42 13.0001Z" fill="#555555"/>
</svg>
