<svg width="24" height="24" viewBox="0 0 24 24" fill="none" xmlns="http://www.w3.org/2000/svg">
<path d="M21.495 11.5034H3.645L9.865 4.84612C10.055 4.64621 10.045 4.32633 9.845 4.13641C9.645 3.94649 9.325 3.95648 9.135 4.1564L2.135 11.6534C1.955 11.8433 1.955 12.1432 2.135 12.3331L9.135 19.8301C9.225 19.95 9.365 20 9.495 20C9.615 20 9.735 19.96 9.835 19.8701C10.035 19.6801 10.045 19.3703 9.855 19.1603L3.645 12.503H21.495C21.775 12.503 21.995 12.2831 21.995 12.0032C21.995 11.7233 21.775 11.5034 21.495 11.5034Z" fill="#555555"/>
</svg>
