<svg width="24" height="24" viewBox="0 0 24 24" fill="none" xmlns="http://www.w3.org/2000/svg">
<path d="M21.92 9.22001L19.92 6.22001C19.86 6.12001 19.76 6.05001 19.65 6.02001L9.65001 3.02001C9.47001 2.97001 9.28001 3.02001 9.15001 3.15001L4.15001 8.15001C4.11001 8.18001 4.08001 8.23001 4.05001 8.28001L2.05001 12.28C1.99001 12.41 1.98001 12.56 2.04001 12.7C2.10001 12.83 2.21001 12.94 2.36001 12.98L4.00001 13.47V17.5C4.00001 17.72 4.15001 17.92 4.36001 17.98L14.36 20.98C14.4 20.99 14.45 21 14.5 21C14.63 21 14.76 20.95 14.85 20.85L19.85 15.85C19.95 15.76 20 15.63 20 15.5V11.71L21.85 9.86001C22.02 9.68001 22.05 9.42001 21.92 9.22001ZM14.36 10.94L10 9.63001V4.17001L18.55 6.74001L14.36 10.94ZM9.00001 9.33001L5.45001 8.26001L9.00001 4.71001V9.33001ZM4.76001 9.10001L13.79 11.81L12.24 14.9L3.21001 12.19L4.76001 9.10001ZM5.00001 13.77L12.36 15.98C12.4 15.99 12.45 16 12.5 16C12.69 16 12.86 15.9 12.95 15.72L14 13.62V19.83L5.00001 17.13V13.77ZM19 15.29L15 19.29V13.15L16.08 14.78C16.16 14.91 16.3 14.99 16.45 15C16.6 15.01 16.75 14.96 16.85 14.86L19 12.71V15.29ZM16.58 13.72L15.15 11.57L19.43 7.29001L20.86 9.44001L16.58 13.72Z" fill="#555555"/>
</svg>
