<svg width="24" height="24" viewBox="0 0 24 24" fill="none" xmlns="http://www.w3.org/2000/svg">
<path fill-rule="evenodd" clip-rule="evenodd" d="M20.5 6H16V4.5C16 4.22 15.78 4 15.5 4C15.22 4 15 4.22 15 4.5V6H9V4.5C9 4.22 8.78 4 8.5 4C8.22 4 8 4.22 8 4.5V6H3.5C3.22 6 3 6.22 3 6.5C3 6.78 3.22 7 3.5 7H8V19.5C8 19.78 8.22 20 8.5 20C8.78 20 9 19.78 9 19.5V7H15V19.5C15 19.78 15.22 20 15.5 20C15.78 20 16 19.78 16 19.5V7H20.5C20.78 7 21 6.78 21 6.5C21 6.22 20.78 6 20.5 6ZM17.5 5H20.5C20.78 5 21 4.78 21 4.5C21 4.22 20.78 4 20.5 4H17.5C17.22 4 17 4.22 17 4.5C17 4.78 17.22 5 17.5 5ZM13.5 5H10.5C10.22 5 10 4.78 10 4.5C10 4.22 10.22 4 10.5 4H13.5C13.78 4 14 4.22 14 4.5C14 4.78 13.78 5 13.5 5ZM3.5 5H6.5C6.78 5 7 4.78 7 4.5C7 4.22 6.78 4 6.5 4H3.5C3.22 4 3 4.22 3 4.5C3 4.78 3.22 5 3.5 5ZM3.5 8H6.5C6.78 8 7 8.22 7 8.5V10.5C7 10.78 6.78 11 6.5 11H3.5C3.22 11 3 10.78 3 10.5V8.5C3 8.22 3.22 8 3.5 8ZM4 10H6V9H4V10ZM6.5 12H3.5C3.22 12 3 12.22 3 12.5V14.5C3 14.78 3.22 15 3.5 15H6.5C6.78 15 7 14.78 7 14.5V12.5C7 12.22 6.78 12 6.5 12ZM6 14H4V13H6V14ZM10.5 8H13.5C13.78 8 14 8.22 14 8.5V10.5C14 10.78 13.78 11 13.5 11H10.5C10.22 11 10 10.78 10 10.5V8.5C10 8.22 10.22 8 10.5 8ZM11 10H13V9H11V10ZM13.5 12H10.5C10.22 12 10 12.22 10 12.5V14.5C10 14.78 10.22 15 10.5 15H13.5C13.78 15 14 14.78 14 14.5V12.5C14 12.22 13.78 12 13.5 12ZM13 14H11V13H13V14ZM17.5 8H20.5C20.78 8 21 8.22 21 8.5V10.5C21 10.78 20.78 11 20.5 11H17.5C17.22 11 17 10.78 17 10.5V8.5C17 8.22 17.22 8 17.5 8ZM18 10H20V9H18V10ZM20.5 12H17.5C17.22 12 17 12.22 17 12.5V14.5C17 14.78 17.22 15 17.5 15H20.5C20.78 15 21 14.78 21 14.5V12.5C21 12.22 20.78 12 20.5 12ZM20 14H18V13H20V14ZM10.5 16H13.5C13.78 16 14 16.22 14 16.5V18.5C14 18.78 13.78 19 13.5 19H10.5C10.22 19 10 18.78 10 18.5V16.5C10 16.22 10.22 16 10.5 16ZM11 18H13V17H11V18Z" fill="#555555"/>
</svg>
