<svg width="24" height="24" viewBox="0 0 24 24" fill="none" xmlns="http://www.w3.org/2000/svg">
<path fill-rule="evenodd" clip-rule="evenodd" d="M5 17H5.5C5.78 17 6 17.22 6 17.5C6 17.78 5.78 18 5.5 18H3.5C3.22 18 3 17.78 3 17.5C3 17.22 3.22 17 3.5 17H4V10H2.5C2.22 10 2 9.78 2 9.5C2 9.22 2.22 9 2.5 9H7V7H4.5C4.22 7 4 6.78 4 6.5V2.5C4 2.22 4.22 2 4.5 2H10.5C10.78 2 11 2.22 11 2.5V6.5C11 6.78 10.78 7 10.5 7H8V9H19.5C19.78 9 20 9.22 20 9.5C20 9.78 19.78 10 19.5 10H18V12.5C18 12.78 17.78 13 17.5 13C17.22 13 17 12.78 17 12.5V10H11V12.5C11 12.78 10.78 13 10.5 13H5V17ZM5 3V6H7V4.5C7 4.22 7.22 4 7.5 4C7.78 4 8 4.22 8 4.5V6H10V3H5ZM10 12V10H5V12H10ZM21.12 11.17C21.31 10.96 21.62 10.95 21.83 11.13C22.04 11.31 22.06 11.63 21.87 11.83L12.87 21.83C12.78 21.94 12.65 22 12.51 22H12.5C12.37 22 12.24 21.95 12.13 21.86L8.13 17.86C7.93 17.66 7.93 17.35 8.13 17.15C8.33 16.95 8.64 16.95 8.84 17.15L12.47 20.78L21.12 11.17Z" fill="#555555"/>
</svg>
