<svg width="24" height="24" viewBox="0 0 24 24" fill="none" xmlns="http://www.w3.org/2000/svg">
<path fill-rule="evenodd" clip-rule="evenodd" d="M17 19H18.5C18.78 19 19 19.22 19 19.5C19 19.78 18.78 20 18.5 20H5.5C5.22 20 5 19.78 5 19.5C5 19.22 5.22 19 5.5 19H7V6.5C7 6.22 7.22 6 7.5 6H9V4.5C9 4.22 9.22 4 9.5 4H14.5C14.78 4 15 4.22 15 4.5V6H16.5C16.78 6 17 6.22 17 6.5V19ZM14 5H10V6H14V5ZM11 17V19H13V17H11ZM14 17V19H16V7H8V19H10V17H9.5C9.22 17 9 16.78 9 16.5C9 16.22 9.22 16 9.5 16H14.5C14.78 16 15 16.22 15 16.5C15 16.78 14.78 17 14.5 17H14ZM14.5 8H9.5C9.22 8 9 8.22 9 8.5V10.5C9 10.78 9.22 11 9.5 11H14.5C14.78 11 15 10.78 15 10.5V8.5C15 8.22 14.78 8 14.5 8ZM14 10H10V9H14V10ZM14.5 12H9.5C9.22 12 9 12.22 9 12.5V14.5C9 14.78 9.22 15 9.5 15H14.5C14.78 15 15 14.78 15 14.5V12.5C15 12.22 14.78 12 14.5 12ZM14 14H10V13H14V14Z" fill="#555555"/>
</svg>
