<svg width="24" height="24" viewBox="0 0 24 24" fill="none" xmlns="http://www.w3.org/2000/svg">
<path fill-rule="evenodd" clip-rule="evenodd" d="M18 4.5V8.5C20.35 9.48 22 11.8 22 14.5C22 18.08 19.08 21 15.5 21C13.2 21 11.19 19.8 10.03 18H2.5C2.22 18 2 17.78 2 17.5V4.5C2 4.22 2.22 4 2.5 4H5.5V3.5C5.5 3.22 5.72 3 6 3C6.28 3 6.5 3.22 6.5 3.5V4H9.5V3.5C9.5 3.22 9.72 3 10 3C10.28 3 10.5 3.22 10.5 3.5V4H13.5V3.5C13.5 3.22 13.72 3 14 3C14.28 3 14.5 3.22 14.5 3.5V4H17.5C17.78 4 18 4.22 18 4.5ZM3 5V17H9.5C9.18 16.23 9 15.39 9 14.5C9 13.61 9.18 12.77 9.5 12C9.22 12 9 11.78 9 11.5C9 11.22 9.22 11 9.5 11H10.03C10.74 9.89 11.77 9.01 13 8.5C13 8.22 13.22 8 13.5 8H14.5C14.58 8 14.65 8.02 14.71 8.05C14.97 8.02 15.23 8 15.5 8C16.02 8 16.52 8.07 17 8.18V5H14.5V5.5C14.5 5.78 14.28 6 14 6C13.72 6 13.5 5.78 13.5 5.5V5H10.5V5.5C10.5 5.78 10.28 6 10 6C9.72 6 9.5 5.78 9.5 5.5V5H6.5V5.5C6.5 5.78 6.28 6 6 6C5.72 6 5.5 5.78 5.5 5.5V5H3ZM16 19.5V19.97C18.63 19.74 20.74 17.63 20.97 15H20.5C20.22 15 20 14.78 20 14.5C20 14.22 20.22 14 20.5 14H20.97C20.74 11.37 18.63 9.27 16 9.03V9.5C16 9.78 15.78 10 15.5 10C15.22 10 15 9.78 15 9.5V9.03C12.37 9.26 10.26 11.37 10.03 14H10.5C10.78 14 11 14.22 11 14.5C11 14.78 10.78 15 10.5 15H10.03C10.26 17.63 12.37 19.73 15 19.97V19.5C15 19.22 15.22 19 15.5 19C15.78 19 16 19.22 16 19.5ZM5 8.5C5 8.22 5.22 8 5.5 8H6.5C6.78 8 7 8.22 7 8.5C7 8.78 6.78 9 6.5 9H5.5C5.22 9 5 8.78 5 8.5ZM5 11.5C5 11.22 5.22 11 5.5 11H6.5C6.78 11 7 11.22 7 11.5C7 11.78 6.78 12 6.5 12H5.5C5.22 12 5 11.78 5 11.5ZM7 14.5C7 14.22 6.78 14 6.5 14H5.5C5.22 14 5 14.22 5 14.5C5 14.78 5.22 15 5.5 15H6.5C6.78 15 7 14.78 7 14.5ZM11 8.5C11 8.78 10.78 9 10.5 9H9.5C9.22 9 9 8.78 9 8.5C9 8.22 9.22 8 9.5 8H10.5C10.78 8 11 8.22 11 8.5ZM16 13.65V11.5C16 11.22 15.78 11 15.5 11C15.22 11 15 11.22 15 11.5V13.65C14.86 13.74 14.74 13.85 14.65 14H13.5C13.22 14 13 14.22 13 14.5C13 14.78 13.22 15 13.5 15H14.65C14.82 15.29 15.13 15.5 15.5 15.5C16.05 15.5 16.5 15.05 16.5 14.5C16.5 14.13 16.29 13.83 16 13.65Z" fill="#555555"/>
</svg>
