<svg width="24" height="24" viewBox="0 0 24 24" fill="none" xmlns="http://www.w3.org/2000/svg">
<path fill-rule="evenodd" clip-rule="evenodd" d="M16.5 6H19.5C19.78 6 20 6.22 20 6.5V19.5C20 19.78 19.78 20 19.5 20H4.5C4.22 20 4 19.78 4 19.5V6.5C4 6.22 4.22 6 4.5 6H7.5V4.5C7.5 4.22 7.72 4 8 4C8.28 4 8.5 4.22 8.5 4.5V6H11.5V4.5C11.5 4.22 11.72 4 12 4C12.28 4 12.5 4.22 12.5 4.5V6H15.5V4.5C15.5 4.22 15.72 4 16 4C16.28 4 16.5 4.22 16.5 4.5V6ZM5 7V19H19V7H16.5V7.5C16.5 7.78 16.28 8 16 8C15.72 8 15.5 7.78 15.5 7.5V7H12.5V7.5C12.5 7.78 12.28 8 12 8C11.72 8 11.5 7.78 11.5 7.5V7H8.5V7.5C8.5 7.78 8.28 8 8 8C7.72 8 7.5 7.78 7.5 7.5V7H5ZM7 10.5C7 10.22 7.22 10 7.5 10H8.5C8.78 10 9 10.22 9 10.5C9 10.78 8.78 11 8.5 11H7.5C7.22 11 7 10.78 7 10.5ZM7.5 13C7.22 13 7 13.22 7 13.5C7 13.78 7.22 14 7.5 14H8.5C8.78 14 9 13.78 9 13.5C9 13.22 8.78 13 8.5 13H7.5ZM7 16.5C7 16.22 7.22 16 7.5 16H8.5C8.78 16 9 16.22 9 16.5C9 16.78 8.78 17 8.5 17H7.5C7.22 17 7 16.78 7 16.5ZM11.5 13C11.22 13 11 13.22 11 13.5C11 13.78 11.22 14 11.5 14H12.5C12.78 14 13 13.78 13 13.5C13 13.22 12.78 13 12.5 13H11.5ZM15 13.5C15 13.22 15.22 13 15.5 13H16.5C16.78 13 17 13.22 17 13.5C17 13.78 16.78 14 16.5 14H15.5C15.22 14 15 13.78 15 13.5ZM15.5 16C15.22 16 15 16.22 15 16.5C15 16.78 15.22 17 15.5 17H16.5C16.78 17 17 16.78 17 16.5C17 16.22 16.78 16 16.5 16H15.5ZM11 16.5C11 16.22 11.22 16 11.5 16H12.5C12.78 16 13 16.22 13 16.5C13 16.78 12.78 17 12.5 17H11.5C11.22 17 11 16.78 11 16.5ZM11.5 10C11.22 10 11 10.22 11 10.5C11 10.78 11.22 11 11.5 11H12.5C12.78 11 13 10.78 13 10.5C13 10.22 12.78 10 12.5 10H11.5ZM15.5 10H16.5C16.78 10 17 10.22 17 10.5C17 10.78 16.78 11 16.5 11H15.5C15.22 11 15 10.78 15 10.5C15 10.22 15.22 10 15.5 10Z" fill="#555555"/>
</svg>
