<svg width="24" height="24" viewBox="0 0 24 24" fill="none" xmlns="http://www.w3.org/2000/svg">
<path fill-rule="evenodd" clip-rule="evenodd" d="M12 5C15.86 5 19 8.14 19 12C19 15.86 15.86 19 12 19C8.14 19 5 15.86 5 12C5 8.14 8.14 5 12 5ZM12.5 17.49V17.97C15.41 17.73 17.73 15.41 17.97 12.5H17.5C17.22 12.5 17 12.28 17 12C17 11.73 17.22 11.5 17.49 11.51H17.97C17.73 8.6 15.41 6.27 12.5 6.03V6.5C12.5 6.78 12.28 7 12 7C11.73 7 11.5 6.78 11.5 6.51V6.03C8.59 6.27 6.27 8.59 6.03 11.5H6.5C6.78 11.5 7 11.72 7 12C7 12.28 6.78 12.5 6.51 12.5H6.03C6.27 15.41 8.59 17.73 11.5 17.97V17.5C11.5 17.22 11.72 17 12 17C12.27 17 12.5 17.22 12.5 17.49ZM12.5 8.5V11.15C12.8 11.33 13 11.63 13 12C13 12.55 12.55 13 12 13C11.64 13 11.33 12.79 11.16 12.5H9.5C9.22 12.5 9 12.28 9 12C9 11.72 9.22 11.5 9.5 11.5H11.16C11.24 11.36 11.36 11.24 11.5 11.16V8.5C11.5 8.22 11.72 8 12 8C12.28 8 12.5 8.22 12.5 8.5Z" fill="#555555"/>
</svg>
