<svg width="24" height="24" viewBox="0 0 24 24" fill="none" xmlns="http://www.w3.org/2000/svg">
<path d="M12.709 12L18.8502 5.85877C19.0499 5.65906 19.0499 5.3495 18.8502 5.14979C18.6505 4.95007 18.3409 4.95007 18.1412 5.14979L12 11.291L5.85877 5.15977C5.65906 4.96006 5.3495 4.96006 5.14979 5.15977C4.95007 5.35949 4.95007 5.66904 5.14979 5.86876L11.291 12L5.14979 18.1412C4.95007 18.3409 4.95007 18.6505 5.14979 18.8502C5.24964 18.9401 5.37946 18.99 5.50927 18.99C5.63909 18.99 5.7689 18.9401 5.85877 18.8402L12 12.709L18.1412 18.8502C18.2411 18.9501 18.3709 19 18.4907 19C18.6106 19 18.7504 18.9501 18.8402 18.8502C19.0399 18.6505 19.0399 18.3409 18.8402 18.1412L12.709 12Z" fill="#555555"/>
</svg>
