<svg width="24" height="24" viewBox="0 0 24 24" fill="none" xmlns="http://www.w3.org/2000/svg">
<path d="M12.7082 12.005L15.8504 8.85893C16.0499 8.65918 16.0499 8.34956 15.8504 8.14981C15.6509 7.95006 15.3416 7.95006 15.1421 8.14981L12 11.2959L8.85786 8.1598C8.65835 7.96005 8.34913 7.96005 8.14963 8.1598C7.95012 8.35955 7.95012 8.66916 8.14963 8.86891L11.2918 12.005L8.1596 15.1511C7.9601 15.3508 7.9601 15.6604 8.1596 15.8602C8.24938 15.9501 8.37905 16 8.50873 16C8.6384 16 8.76808 15.9501 8.85786 15.8502L12 12.7141L15.1421 15.8602C15.2319 15.9501 15.3616 16 15.4913 16C15.6209 16 15.7506 15.9501 15.8404 15.8502C16.0399 15.6504 16.0399 15.3408 15.8404 15.1411L12.7082 12.005Z" fill="#555555"/>
</svg>
