<svg width="24" height="24" viewBox="0 0 24 24" fill="none" xmlns="http://www.w3.org/2000/svg">
<path fill-rule="evenodd" clip-rule="evenodd" d="M18.9975 20.5C18.9975 20.78 19.2175 21 19.4975 21C19.7775 21 19.9975 20.78 19.9975 20.5V3.5C19.9975 3.22 19.7775 3 19.4975 3C19.2175 3 18.9975 3.22 18.9975 3.5V20.5ZM5.6075 11.5H16.4975C16.7775 11.5 16.9975 11.72 16.9975 12C16.9975 12.28 16.7775 12.5 16.4975 12.5H5.6075L8.8675 16.16C9.0575 16.37 9.0375 16.69 8.8275 16.87C8.7375 16.96 8.6175 17 8.4975 17C8.3575 17 8.2175 16.94 8.1275 16.83L4.1275 12.33C3.9575 12.14 3.9575 11.86 4.1275 11.67L8.1275 7.16999C8.3075 6.95999 8.6175 6.93999 8.8275 7.11999C9.0375 7.30999 9.0475 7.61999 8.8675 7.82999L5.6075 11.5Z" fill="#555555"/>
</svg>
