<svg width="24" height="24" viewBox="0 0 24 24" fill="none" xmlns="http://www.w3.org/2000/svg">
<path fill-rule="evenodd" clip-rule="evenodd" d="M15.88 3.17243C15.78 3.06243 15.64 3.00243 15.5 3.00243C15.38 3.00243 15.27 3.04243 15.17 3.12243L12 5.84243L8.82999 3.12243C8.61999 2.94243 8.29999 2.96243 8.11999 3.17243C7.93999 3.38243 7.96999 3.70243 8.17999 3.88243L11.68 6.88243C11.87 7.04243 12.14 7.04243 12.33 6.88243L15.83 3.88243C16.04 3.70243 16.06 3.38243 15.88 3.17243ZM12.33 17.1224C12.23 17.0424 12.12 17.0024 12 17.0024C11.88 17.0024 11.77 17.0424 11.67 17.1224L8.16999 20.1224C7.95999 20.3024 7.93999 20.6224 8.11999 20.8324C8.29999 21.0424 8.61999 21.0624 8.82999 20.8824L12 18.1624L15.18 20.8824C15.38 21.0624 15.7 21.0424 15.88 20.8324C16.06 20.6224 16.04 20.3024 15.83 20.1224L12.33 17.1224ZM19.5 10.0024H4.5C4.22 10.0024 4 9.78244 4 9.50244C4 9.22244 4.22 9.00244 4.5 9.00244H19.5C19.78 9.00244 20 9.22244 20 9.50244C20 9.78244 19.78 10.0024 19.5 10.0024ZM4.5 15.0024H19.5C19.78 15.0024 20 14.7824 20 14.5024C20 14.2224 19.78 14.0024 19.5 14.0024H4.5C4.22 14.0024 4 14.2224 4 14.5024C4 14.7824 4.22 15.0024 4.5 15.0024Z" fill="#555555"/>
</svg>
