<svg width="24" height="24" viewBox="0 0 24 24" fill="none" xmlns="http://www.w3.org/2000/svg">
<path fill-rule="evenodd" clip-rule="evenodd" d="M4.5 18H19.5C19.78 18 20 17.78 20 17.5C20 17.22 19.78 17 19.5 17H5V6.5C5 6.22 4.78 6 4.5 6C4.22 6 4 6.22 4 6.5V17.5C4 17.78 4.22 18 4.5 18ZM19 11.5C19 11.22 19.22 11 19.5 11C19.78 11 20 11.22 20 11.5V14.5C20 14.78 19.78 15 19.5 15H16.5C16.22 15 16 14.78 16 14.5C16 14.22 16.22 14 16.5 14H18.29L14.29 10H10.5C10.37 10 10.24 9.95 10.14 9.86L7.13999 6.86C6.93999 6.66 6.93999 6.35 7.13999 6.15C7.33999 5.95 7.64999 5.95 7.84999 6.15L10.71 9H14.5C14.63 9 14.76 9.05 14.85 9.14L19 13.29V11.5Z" fill="#555555"/>
</svg>
