<svg width="24" height="24" viewBox="0 0 24 24" fill="none" xmlns="http://www.w3.org/2000/svg">
<path fill-rule="evenodd" clip-rule="evenodd" d="M4.5 18H19.5C19.78 18 20 17.78 20 17.5C20 17.22 19.78 17 19.5 17H5V6.5C5 6.22 4.78 6 4.5 6C4.22 6 4 6.22 4 6.5V17.5C4 17.78 4.22 18 4.5 18ZM16.5 6H19.5C19.78 6 20 6.22 20 6.5V9.5C20 9.78 19.78 10 19.5 10C19.22 10 19 9.78 19 9.5V7.71L14.85 11.85C14.76 11.95 14.63 12 14.5 12H10.71L7.85 14.85C7.76 14.95 7.63 15 7.5 15C7.37 15 7.24 14.95 7.15 14.86C6.95 14.66 6.95 14.35 7.15 14.15L10.15 11.15C10.24 11.05 10.37 11 10.5 11H14.29L18.29 7H16.5C16.22 7 16 6.78 16 6.5C16 6.22 16.22 6 16.5 6Z" fill="#555555"/>
</svg>
