<svg width="24" height="24" viewBox="0 0 24 24" fill="none" xmlns="http://www.w3.org/2000/svg">
<path fill-rule="evenodd" clip-rule="evenodd" d="M12 3C8.14 3 5 6.14 5 10C5 11.71 5.63 13.36 6.78 14.65C6.96 14.85 7.28 14.87 7.49 14.69C7.7 14.51 7.71 14.19 7.53 13.98C6.54 12.88 6 11.47 6 10C6 6.69 8.69 4 12 4C15.31 4 18 6.69 18 10C18 11.47 17.46 12.88 16.48 13.98C16.3 14.19 16.31 14.5 16.52 14.69C16.62 14.77 16.73 14.82 16.85 14.82C16.99 14.82 17.12 14.76 17.22 14.65C18.37 13.36 19 11.71 19 10C19 6.14 15.86 3 12 3ZM13.22 11.57C13.69 11.21 14 10.64 14 10C14 8.9 13.1 8 12 8C10.9 8 10 8.9 10 10C10 10.64 10.31 11.21 10.78 11.58L7.04 20.3C6.95 20.5 7.01 20.74 7.18 20.88C7.35 21.02 7.59 21.04 7.77 20.92L12 18.2L16.23 20.92C16.31 20.97 16.41 21 16.5 21C16.62 21 16.73 20.96 16.82 20.88C16.99 20.74 17.04 20.5 16.96 20.3L13.22 11.57ZM12 12C12.0667 12 12.1333 11.9911 12.2 11.9822C12.2333 11.9778 12.2667 11.9733 12.3 11.97L13.16 13.98L10.83 14L11.7 11.97C11.7333 11.9733 11.7667 11.9778 11.8 11.9822C11.8667 11.9911 11.9333 12 12 12ZM8.6 19.2L9.67 16.71L11.07 17.61L8.6 19.2ZM10.07 15.77L10.4 15L13.59 14.98L13.93 15.78L12 17.01L10.07 15.77ZM12.92 17.61L14.32 16.71L15.39 19.2L12.92 17.61ZM15.49 12.29C15.41 12.29 15.33 12.27 15.25 12.23C15.01 12.09 14.92 11.79 15.05 11.55C15.35 11.01 15.5 10.44 15.5 9.87C15.5 7.94 13.93 6.37 12 6.37C10.07 6.37 8.5 7.94 8.5 9.87C8.5 10.44 8.65 11.01 8.95 11.55C9.08 11.79 8.99 12.1 8.75 12.23C8.51 12.36 8.2 12.27 8.07 12.03C7.69 11.34 7.5 10.61 7.5 9.87C7.5 7.39 9.52 5.37 12 5.37C14.48 5.37 16.5 7.39 16.5 9.87C16.5 10.61 16.31 11.34 15.93 12.03C15.84 12.2 15.67 12.29 15.49 12.29Z" fill="#555555"/>
</svg>
