<svg width="24" height="24" viewBox="0 0 24 24" fill="none" xmlns="http://www.w3.org/2000/svg">
<path fill-rule="evenodd" clip-rule="evenodd" d="M5.52 12.98C5.7 13.19 5.69 13.51 5.48 13.69C5.39 13.77 5.27 13.82 5.15 13.82C5.02 13.82 4.88 13.76 4.78 13.65C3.63 12.36 3 10.71 3 9C3 5.14 6.14 2 10 2C13.86 2 17 5.14 17 9C17 9.36 16.97 9.72 16.92 10.07C16.88 10.35 16.62 10.53 16.35 10.49C16.07 10.45 15.89 10.19 15.93 9.92C15.98 9.62 16 9.31 16 9C16 5.69 13.31 3 10 3C6.69 3 4 5.69 4 9C4 10.47 4.54 11.88 5.52 12.98ZM15.5 11C12.47 11 10 13.47 10 16.5C10 19.53 12.47 22 15.5 22C18.53 22 21 19.53 21 16.5C21 13.47 18.53 11 15.5 11ZM16 20.95V20.67C16 20.39 15.78 20.17 15.5 20.17C15.22 20.17 15 20.39 15 20.67V20.95C12.92 20.72 11.28 19.08 11.05 17H11.33C11.61 17 11.83 16.78 11.83 16.5C11.83 16.22 11.61 16 11.33 16H11.05C11.28 13.92 12.92 12.28 15 12.05V12.33C15 12.61 15.22 12.83 15.5 12.83C15.78 12.83 16 12.61 16 12.33V12.05C18.08 12.28 19.72 13.92 19.95 16H19.67C19.39 16 19.17 16.22 19.17 16.5C19.17 16.78 19.39 17 19.67 17H19.95C19.72 19.08 18.08 20.72 16 20.95ZM16 15.85V14C16 13.72 15.78 13.5 15.5 13.5C15.22 13.5 15 13.72 15 14V15.85C14.94 15.89 14.89 15.94 14.85 16H13.83C13.55 16 13.33 16.22 13.33 16.5C13.33 16.78 13.55 17 13.83 17H14.85C15 17.2 15.23 17.33 15.5 17.33C15.96 17.33 16.33 16.96 16.33 16.5C16.33 16.23 16.2 16 16 15.85ZM13.68 10.48C13.94 10.56 14.22 10.41 14.3 10.15C14.43 9.72999 14.5 9.29999 14.5 8.87C14.5 6.39 12.48 4.37 10 4.37C7.52 4.37 5.5 6.39 5.5 8.87C5.5 9.60999 5.69 10.34 6.07 11.03C6.16 11.2 6.33 11.29 6.51 11.29C6.59 11.29 6.67 11.27 6.75 11.23C6.99 11.1 7.08 10.79 6.95 10.55C6.65 10.01 6.5 9.44 6.5 8.87C6.5 6.94 8.07 5.37 10 5.37C11.93 5.37 13.5 6.94 13.5 8.87C13.5 9.2 13.45 9.52999 13.35 9.85C13.27 10.12 13.42 10.4 13.68 10.48ZM8.83 13H9.5C9.78 13 10 13.22 10 13.5C10 13.78 9.78 14 9.5 14H8.4L8.07 14.77L9.27 15.54C9.5 15.69 9.57 16 9.42 16.24C9.33 16.39 9.16 16.47 9 16.47C8.91 16.47 8.81 16.44 8.73 16.39L7.67 15.71L6.6 18.2L8.73 16.83C8.96 16.68 9.27 16.75 9.42 16.98C9.57 17.21 9.5 17.52 9.27 17.67L5.77 19.92C5.69 19.97 5.59 20 5.5 20C5.38 20 5.27 19.96 5.18 19.88C5.01 19.74 4.95 19.5 5.04 19.3L8.78 10.58C8.31 10.21 8 9.64 8 9C8 7.9 8.9 7 10 7C11.1 7 12 7.9 12 9C12 9.64 11.69 10.21 11.22 10.58L11.46 11.13C11.57 11.39 11.45 11.68 11.2 11.79C10.94 11.9 10.65 11.78 10.54 11.53L10.3 10.97C10.2667 10.9733 10.2333 10.9778 10.2 10.9822C10.1333 10.9911 10.0667 11 10 11C9.93333 11 9.86667 10.9911 9.8 10.9822C9.76667 10.9778 9.73333 10.9733 9.7 10.97L8.83 13Z" fill="#555555"/>
</svg>
