<svg width="24" height="24" viewBox="0 0 24 24" fill="none" xmlns="http://www.w3.org/2000/svg">
<path fill-rule="evenodd" clip-rule="evenodd" d="M15.85 2.15L19.85 6.15C19.95 6.24 20 6.37 20 6.5V21.5C20 21.78 19.78 22 19.5 22H4.5C4.22 22 4 21.78 4 21.5V2.5C4 2.22 4.22 2 4.5 2H15.5C15.63 2 15.76 2.05 15.85 2.15ZM18.29 6L16 3.71V6H18.29ZM5 3V21H19V7H15.5C15.22 7 15 6.78 15 6.5V3H5ZM9.56 15.99C9.71 15.76 9.79 15.5 9.8 15.2H8.77C8.76 15.44 8.69 15.62 8.57 15.73C8.45 15.84 8.27 15.9 8.03 15.9C7.75 15.9 7.55 15.81 7.44 15.61C7.33 15.41 7.27 15.09 7.27 14.63V14.33C7.28 13.91 7.34 13.6 7.46 13.41C7.58 13.22 7.76 13.12 8.02 13.12C8.27 13.12 8.45 13.18 8.58 13.29C8.71 13.4 8.77 13.59 8.78 13.85H9.82C9.77 13.37 9.59 12.99 9.28 12.72C8.96 12.45 8.55 12.31 8.03 12.31C7.67 12.31 7.36 12.4 7.08 12.57C6.8 12.74 6.6 12.99 6.45 13.3C6.3 13.62 6.23 13.98 6.23 14.4V14.61C6.23 15.28 6.39 15.79 6.71 16.16C7.03 16.53 7.47 16.71 8.03 16.71C8.37 16.71 8.67 16.65 8.94 16.52C9.21 16.39 9.41 16.22 9.56 15.99ZM12.66 15.51C12.66 15.36 12.61 15.24 12.5 15.16C12.39 15.08 12.21 14.99 11.94 14.9C11.67 14.81 11.45 14.72 11.28 14.64C10.73 14.37 10.46 14 10.46 13.52C10.46 13.28 10.53 13.08 10.67 12.89C10.8 12.72 11 12.58 11.25 12.47C11.5 12.37 11.78 12.32 12.1 12.32C12.41 12.32 12.68 12.37 12.93 12.48C13.18 12.59 13.36 12.75 13.5 12.95C13.63 13.15 13.7 13.38 13.7 13.64H12.67C12.67 13.47 12.62 13.33 12.51 13.24C12.4 13.15 12.26 13.1 12.08 13.1C11.9 13.1 11.75 13.14 11.65 13.22C11.55 13.3 11.49 13.4 11.49 13.53C11.49 13.64 11.55 13.74 11.67 13.83C11.79 13.92 11.99 14.01 12.29 14.11C12.58 14.21 12.83 14.31 13.02 14.42C13.48 14.69 13.71 15.05 13.71 15.52C13.71 15.89 13.57 16.19 13.29 16.4C13.01 16.61 12.62 16.72 12.13 16.72C11.78 16.72 11.47 16.66 11.19 16.53C10.91 16.4 10.7 16.24 10.56 16.02C10.42 15.8 10.35 15.56 10.35 15.27H11.38C11.38 15.5 11.44 15.67 11.56 15.78C11.68 15.89 11.87 15.94 12.14 15.94C12.31 15.94 12.44 15.9 12.54 15.83C12.62 15.75 12.66 15.65 12.66 15.51ZM16.84 12.38L15.99 15.49L15.14 12.38H14L15.43 16.65H16.55L17.99 12.38H16.84Z" fill="#555555"/>
</svg>
