<svg width="24" height="24" viewBox="0 0 24 24" fill="none" xmlns="http://www.w3.org/2000/svg">
<path fill-rule="evenodd" clip-rule="evenodd" d="M16.5 6H19.5C19.78 6 20 6.22 20 6.5V19.5C20 19.78 19.78 20 19.5 20H4.5C4.22 20 4 19.78 4 19.5V6.5C4 6.22 4.22 6 4.5 6H7.5V4.5C7.5 4.22 7.72 4 8 4C8.28 4 8.5 4.22 8.5 4.5V6H11.5V4.5C11.5 4.22 11.72 4 12 4C12.28 4 12.5 4.22 12.5 4.5V6H15.5V4.5C15.5 4.22 15.72 4 16 4C16.28 4 16.5 4.22 16.5 4.5V6ZM5 7V19H19V7H16.5V7.5C16.5 7.78 16.28 8 16 8C15.72 8 15.5 7.78 15.5 7.5V7H12.5V7.5C12.5 7.78 12.28 8 12 8C11.72 8 11.5 7.78 11.5 7.5V7H8.5V7.5C8.5 7.78 8.28 8 8 8C7.72 8 7.5 7.78 7.5 7.5V7H5ZM11 12C11 13.1046 10.1046 14 9 14C7.89543 14 7 13.1046 7 12C7 10.8954 7.89543 10 9 10C10.1046 10 11 10.8954 11 12Z" fill="#555555"/>
</svg>
