<svg width="24" height="24" viewBox="0 0 24 24" fill="none" xmlns="http://www.w3.org/2000/svg">
<path fill-rule="evenodd" clip-rule="evenodd" d="M3.13 11.16L2.07 9.45C1.95 9.25 1.98 8.99 2.15 8.83L3.03 7.98C3.01 7.82 3 7.66 3 7.5C3 7.34 3.01 7.18 3.03 7.02L2.15 6.17C1.98 6 1.95 5.75 2.07 5.55L3.13 3.83C3.25 3.64 3.49 3.56 3.7 3.62L4.79 3.94C5.12 3.7 5.47 3.5 5.85 3.34L6.1 2.38C6.16 2.15 6.35 2 6.58 2H8.42C8.65 2 8.84 2.15 8.9 2.38L9.15 3.35C9.53 3.5 9.88 3.7 10.21 3.95L11.3 3.62C11.51 3.56 11.75 3.65 11.87 3.84L12.93 5.56C13.05 5.76 13.02 6.02 12.85 6.18L11.97 7.03C11.99 7.18 12 7.34 12 7.5C12 7.66 11.99 7.82 11.97 7.98L12.85 8.83C13.02 8.99 13.05 9.25 12.93 9.45L11.87 11.16C11.75 11.36 11.51 11.44 11.3 11.38L10.21 11.06C9.88 11.3 9.53 11.5 9.14 11.65L8.89 12.62C8.84 12.85 8.64 13 8.41 13H6.58C6.35 13 6.16 12.85 6.1 12.62L5.85 11.65C5.47 11.5 5.12 11.3 4.79 11.06L3.7 11.38C3.49 11.44 3.25 11.35 3.13 11.16ZM4.05 6.93C4.02 7.11 4 7.3 4 7.5C4 7.69 4.02 7.88 4.05 8.07C4.08 8.23 4.03 8.4 3.91 8.51L3.14 9.26L3.78 10.31L4.76 10.02C4.93 9.97 5.1 10.01 5.23 10.12C5.58 10.42 5.99 10.65 6.43 10.8C6.59 10.85 6.71 10.99 6.75 11.15L6.97 12H8.03L8.25 11.15C8.29 10.99 8.41 10.86 8.57 10.8C9.01 10.65 9.42 10.42 9.77 10.12C9.9 10.01 10.08 9.98 10.24 10.03L11.22 10.32L11.86 9.27L11.09 8.52C10.97 8.4 10.92 8.24 10.95 8.08C10.98 7.89 11 7.69 11 7.5C11 7.31 10.98 7.12 10.95 6.93C10.92 6.77 10.97 6.6 11.09 6.49L11.87 5.74L11.22 4.69L10.24 4.98C10.08 5.03 9.9 4.99 9.77 4.88C9.42 4.58 9.01 4.35 8.57 4.2C8.41 4.15 8.29 4.01 8.25 3.85L8.03 3H6.97L6.77 3.84C6.72 4 6.6 4.14 6.44 4.19C6 4.34 5.59 4.57 5.24 4.87C5.11 4.98 4.93 5.02 4.77 4.97L3.79 4.68L3.14 5.73L3.91 6.48C4.03 6.6 4.08 6.76 4.05 6.93ZM12.5 12.5V13H11.5V12.5C11.5 12.22 11.28 12 11 12C10.72 12 10.5 12.22 10.5 12.5V13C10.22 13 10 13.22 10 13.5H9.5C9.22 13.5 9 13.72 9 14C9 14.28 9.22 14.5 9.5 14.5H10V15.5H9.5C9.22 15.5 9 15.72 9 16C9 16.28 9.22 16.5 9.5 16.5H10V17.5H9.5C9.22 17.5 9 17.72 9 18C9 18.28 9.22 18.5 9.5 18.5H10C10 18.78 10.22 19 10.5 19V19.5C10.5 19.78 10.72 20 11 20C11.28 20 11.5 19.78 11.5 19.5V19H12.5V19.5C12.5 19.78 12.72 20 13 20C13.28 20 13.5 19.78 13.5 19.5V19H14.5V19.5C14.5 19.78 14.72 20 15 20C15.28 20 15.5 19.78 15.5 19.5V19C15.78 19 16 18.78 16 18.5H16.5C16.78 18.5 17 18.28 17 18C17 17.72 16.78 17.5 16.5 17.5H16V16.5H16.5C16.78 16.5 17 16.28 17 16C17 15.72 16.78 15.5 16.5 15.5H16V14.5H16.5C16.78 14.5 17 14.28 17 14C17 13.72 16.78 13.5 16.5 13.5H16C16 13.22 15.78 13 15.5 13V12.5C15.5 12.22 15.28 12 15 12C14.72 12 14.5 12.22 14.5 12.5V13H13.5V12.5C13.5 12.22 13.28 12 13 12C12.72 12 12.5 12.22 12.5 12.5ZM7 16.5V14.5C7 14.22 6.78 14 6.5 14H4.5C4.22 14 4 14.22 4 14.5V16.5C4 16.78 4.22 17 4.5 17H6.5C6.78 17 7 16.78 7 16.5ZM6 16H5V15H6V16ZM7.5 10C8.88 10 10 8.88 10 7.5C10 6.12 8.88 5 7.5 5C6.12 5 5 6.12 5 7.5C5 8.88 6.12 10 7.5 10ZM7.5 6C8.33 6 9 6.67 9 7.5C9 8.33 8.33 9 7.5 9C6.67 9 6 8.33 6 7.5C6 6.67 6.67 6 7.5 6ZM20 7H21.5C21.78 7 22 7.22 22 7.5V21.5C22 21.78 21.78 22 21.5 22H2.5C2.22 22 2 21.78 2 21.5V13.5C2 13.22 2.22 13 2.5 13C2.78 13 3 13.22 3 13.5V21H21V8H20V9.5C20 9.78 19.78 10 19.5 10H15.5C15.22 10 15 9.78 15 9.5V8H14.5C14.22 8 14 7.78 14 7.5C14 7.22 14.22 7 14.5 7H15V2.5C15 2.22 15.22 2 15.5 2H19.5C19.78 2 20 2.22 20 2.5V7ZM16 3V9H19V3H16ZM18 19C18 19.55 18.45 20 19 20C19.55 20 20 19.55 20 19C20 18.45 19.55 18 19 18C18.45 18 18 18.45 18 19ZM20 16.5C20 16.7761 19.7761 17 19.5 17C19.2239 17 19 16.7761 19 16.5C19 16.2239 19.2239 16 19.5 16C19.7761 16 20 16.2239 20 16.5ZM19.5 15C19.7761 15 20 14.7761 20 14.5C20 14.2239 19.7761 14 19.5 14C19.2239 14 19 14.2239 19 14.5C19 14.7761 19.2239 15 19.5 15ZM20 12.5C20 12.7761 19.7761 13 19.5 13C19.2239 13 19 12.7761 19 12.5C19 12.2239 19.2239 12 19.5 12C19.7761 12 20 12.2239 20 12.5ZM4 19C4 19.55 4.45 20 5 20C5.55 20 6 19.55 6 19C6 18.45 5.55 18 5 18C4.45 18 4 18.45 4 19ZM17 4.47998C17 4.19998 17.22 3.97998 17.5 3.97998C17.78 3.97998 18 4.20998 18 4.47998V7.49998C18 7.77998 17.78 7.99998 17.5 7.99998C17.22 7.99998 17 7.77998 17 7.49998V4.47998ZM15 18H11V14H15V18Z" fill="#555555"/>
</svg>
