<svg width="24" height="24" viewBox="0 0 24 24" fill="none" xmlns="http://www.w3.org/2000/svg">
<path fill-rule="evenodd" clip-rule="evenodd" d="M14.45 7H18.5C18.78 7 19 7.22 19 7.5C19 7.78 18.78 8 18.5 8H17.46L16.5 18.54C16.47 18.8 16.26 19 16 19H8C7.74 19 7.53 18.8 7.5 18.54L6.54 8H5.5C5.22 8 5 7.78 5 7.5C5 7.22 5.22 7 5.5 7H9.55C9.78 5.86 10.79 5 12 5C13.21 5 14.22 5.86 14.45 7ZM13.41 7C13.2 6.42 12.65 6 12 6C11.35 6 10.8 6.42 10.59 7H13.41ZM7.55 8L8.46 18H15.54L16.45 8H7.55ZM9.00001 9.54C8.98001 9.26 9.19001 9.02 9.46001 9C9.75001 8.97 9.98001 9.19 10 9.47L10.5 16.47C10.52 16.74 10.32 16.98 10.04 17H10C9.74001 17 9.52001 16.8 9.50001 16.54L9.00001 9.54ZM13.96 17H14C14.26 17 14.48 16.8 14.5 16.54L15 9.54001C15.02 9.26001 14.81 9.02001 14.54 9.00001C14.29 8.98001 14.02 9.19001 14 9.46001L13.5 16.46C13.48 16.74 13.69 16.98 13.96 17ZM11.5 9.5C11.5 9.22 11.72 9 12 9C12.28 9 12.5 9.22 12.5 9.5V16.5C12.5 16.78 12.28 17 12 17C11.72 17 11.5 16.78 11.5 16.5V9.5Z" fill="#555555"/>
</svg>
