<svg width="24" height="24" viewBox="0 0 24 24" fill="none" xmlns="http://www.w3.org/2000/svg">
<path fill-rule="evenodd" clip-rule="evenodd" d="M11.1892 8.89C11.3992 9.06 11.7192 9.03 11.8892 8.81C12.0592 8.6 12.0292 8.28 11.8092 8.11L9.30915 6.11C9.21916 6.04 9.10915 6 8.99916 6C8.88915 6 8.77916 6.04 8.68916 6.11L6.18916 8.11C5.96916 8.28 5.93916 8.59 6.10916 8.81C6.27916 9.03 6.59916 9.06 6.80916 8.89L8.49916 7.54V17.5C8.49916 17.78 8.71916 18 8.99916 18C9.27916 18 9.49916 17.78 9.49916 17.5V7.54L11.1892 8.89ZM11.4991 17H13.4991C13.7791 17 13.9991 17.22 13.9991 17.5C13.9991 17.78 13.7791 18 13.4991 18H11.4991C11.2191 18 10.9991 17.78 10.9991 17.5C10.9991 17.22 11.2191 17 11.4991 17ZM15.4991 14H11.4991C11.2191 14 10.9991 14.22 10.9991 14.5C10.9991 14.78 11.2191 15 11.4991 15H15.4991C15.7791 15 15.9991 14.78 15.9991 14.5C15.9991 14.22 15.7791 14 15.4991 14ZM11.4991 11H17.4991C17.7791 11 17.9991 11.22 17.9991 11.5C17.9991 11.78 17.7791 12 17.4991 12H11.4991C11.2191 12 10.9991 11.78 10.9991 11.5C10.9991 11.22 11.2191 11 11.4991 11Z" fill="#555555"/>
</svg>
