<svg width="24" height="24" viewBox="0 0 24 24" fill="none" xmlns="http://www.w3.org/2000/svg">
<path fill-rule="evenodd" clip-rule="evenodd" d="M5.86999 4.83C5.76999 4.94 5.63999 5 5.49999 5C5.37999 5 5.25999 4.96 5.16999 4.87C4.95999 4.69 4.93999 4.37 5.12999 4.17C6.35999 2.79 8.13999 2 9.99999 2C11.86 2 13.64 2.79 14.88 4.16C15.06 4.37 15.05 4.69 14.84 4.87C14.63 5.05 14.31 5.04 14.13 4.83C13.08 3.67 11.58 3 9.99999 3C8.41999 3 6.91999 3.67 5.86999 4.83ZM13.33 6.37C13.23 6.45 13.12 6.49 13 6.49C12.86 6.49 12.72 6.43 12.62 6.32C11.97 5.56 11.01 5.12 9.99999 5.12C8.98999 5.12 8.02999 5.55 7.37999 6.32C7.19999 6.53 6.87999 6.54999 6.66999 6.37C6.46999 6.19 6.43999 5.88 6.61999 5.67C7.45999 4.68 8.69999 4.12 9.99999 4.12C11.3 4.12 12.54 4.68 13.38 5.66C13.56 5.87 13.54 6.19 13.33 6.37ZM9.99999 6.22998C9.21999 6.22998 8.49999 6.59998 8.08999 7.21998C7.92999 7.44998 7.98999 7.75998 8.21999 7.90998C8.44999 8.06998 8.75999 7.99998 8.90999 7.77998C9.36999 7.09998 10.62 7.09998 11.08 7.77998C11.18 7.91998 11.34 7.99998 11.5 7.99998C11.6 7.99998 11.69 7.96998 11.78 7.90998C12.01 7.75998 12.07 7.43998 11.91 7.21998C11.5 6.59998 10.78 6.22998 9.99999 6.22998ZM17 15H19.5C20.33 15 21 15.67 21 16.5V21.5C21 21.78 20.78 22 20.5 22H7.5C7.22 22 7 21.78 7 21.5V18H3.5C3.22 18 3 17.78 3 17.5V12.5C3 11.67 3.67 11 4.5 11H8.07C8.29 10.14 9.07 9.5 10 9.5C10.93 9.5 11.71 10.14 11.93 11H15.5C16.33 11 17 11.67 17 12.5V15ZM11 11.5C11 10.95 10.55 10.5 10 10.5C9.45 10.5 9 10.95 9 11.5C9 12.05 9.45 12.5 10 12.5C10.55 12.5 11 12.05 11 11.5ZM4 12.5V17H7V16.5C7 15.67 7.67 15 8.5 15H12.07C12.29 14.14 13.07 13.5 14 13.5C14.93 13.5 15.71 14.14 15.93 15H16V12.5C16 12.22 15.78 12 15.5 12H11.93C11.71 12.86 10.93 13.5 10 13.5C9.07 13.5 8.29 12.86 8.07 12H4.5C4.22 12 4 12.22 4 12.5ZM14 16.5C14.55 16.5 15 16.05 15 15.5C15 14.95 14.55 14.5 14 14.5C13.45 14.5 13 14.95 13 15.5C13 16.05 13.45 16.5 14 16.5ZM8 16.5V21H20V16.5C20 16.22 19.78 16 19.5 16H15.93C15.71 16.86 14.93 17.5 14 17.5C13.07 17.5 12.29 16.86 12.07 16H8.5C8.22 16 8 16.22 8 16.5ZM12.5 19H10.5C10.22 19 10 19.22 10 19.5C10 19.78 10.22 20 10.5 20H12.5C12.78 20 13 19.78 13 19.5C13 19.22 12.78 19 12.5 19ZM15.5 19H17.5C17.78 19 18 19.22 18 19.5C18 19.78 17.78 20 17.5 20H15.5C15.22 20 15 19.78 15 19.5C15 19.22 15.22 19 15.5 19Z" fill="#555555"/>
</svg>
