<svg width="24" height="24" viewBox="0 0 24 24" fill="none" xmlns="http://www.w3.org/2000/svg">
<path fill-rule="evenodd" clip-rule="evenodd" d="M4.5 6C4.62 6 4.74 5.96 4.84 5.87C6.91 3.99 9.38 3 12 3C14.62 3 17.09 3.99 19.16 5.87C19.37 6.06 19.68 6.04 19.87 5.84C20.06 5.64 20.04 5.32 19.84 5.13C17.58 3.08 14.87 2 12 2C9.13 2 6.42 3.08 4.16 5.13C3.96 5.32 3.94 5.63 4.13 5.84C4.23 5.94 4.36 6 4.5 6ZM17.57 7.12C17.78 7.29 17.81 7.61 17.63 7.82C17.45 8.04 17.14 8.06 16.92 7.88C14.02 5.42 9.97 5.42 7.07 7.88C6.98 7.96 6.86 8 6.75 8C6.61 8 6.47 7.94 6.37 7.82C6.19 7.61 6.22 7.3 6.43 7.12C8.06 5.73 9.99 5 12 5C14.01 5 15.94 5.73 17.57 7.12ZM14.45 13H19.5C20.33 13 21 13.67 21 14.5V21.5C21 21.78 20.78 22 20.5 22H3.5C3.22 22 3 21.78 3 21.5V14.5C3 13.67 3.67 13 4.5 13H9.55C9.78 11.86 10.79 11 12 11C13.21 11 14.22 11.86 14.45 13ZM13.5 13.5C13.5 12.67 12.83 12 12 12C11.17 12 10.5 12.67 10.5 13.5C10.5 14.33 11.17 15 12 15C12.83 15 13.5 14.33 13.5 13.5ZM4 14.5V21H20V14.5C20 14.22 19.78 14 19.5 14H14.45C14.22 15.14 13.21 16 12 16C10.79 16 9.78 15.14 9.55 14H4.5C4.22 14 4 14.22 4 14.5ZM6.5 18H10.5C10.78 18 11 18.22 11 18.5C11 18.78 10.78 19 10.5 19H6.5C6.22 19 6 18.78 6 18.5C6 18.22 6.22 18 6.5 18ZM17.5 18H13.5C13.22 18 13 18.22 13 18.5C13 18.78 13.22 19 13.5 19H17.5C17.78 19 18 18.78 18 18.5C18 18.22 17.78 18 17.5 18ZM8.6 9.79C8.44 9.56 8.49 9.25 8.71 9.09C10.7 7.66 13.3 7.66 15.3 9.09C15.52 9.25 15.57 9.57 15.41 9.79C15.31 9.93 15.16 10 15 10C14.9 10 14.8 9.97 14.72 9.9C13.07 8.71 10.95 8.71 9.3 9.9C9.07 10.07 8.76 10.01 8.6 9.79Z" fill="#555555"/>
</svg>
