<svg width="24" height="24" viewBox="0 0 24 24" fill="none" xmlns="http://www.w3.org/2000/svg">
<path fill-rule="evenodd" clip-rule="evenodd" d="M16.13 6.83C16.23 6.94 16.36 7 16.5 7C16.62 7 16.74 6.96 16.83 6.88C17.04 6.69 17.05 6.38 16.87 6.17C15.64 4.79 13.86 4 12 4C10.14 4 8.36002 4.79 7.12002 6.16C6.94002 6.37 6.95002 6.69 7.16002 6.87C7.37002 7.05 7.69002 7.04 7.87002 6.83C8.92002 5.67 10.42 5 12 5C13.58 5 15.08 5.67 16.13 6.83ZM14.62 8.32C14.72 8.43 14.86 8.49 15 8.49C15.12 8.49 15.23 8.45 15.33 8.38C15.54 8.2 15.56 7.88 15.38 7.67C14.54 6.68 13.3 6.12 12 6.12C10.7 6.12 9.45999 6.68 8.61999 7.66C8.43999 7.87 8.45999 8.19 8.66999 8.37C8.88999 8.54999 9.19999 8.53 9.37999 8.32C10.03 7.56 10.99 7.12 12 7.12C13.01 7.12 13.97 7.56 14.62 8.32ZM13.5 10C13.34 10 13.18 9.92 13.09 9.78C12.63 9.1 11.38 9.1 10.92 9.78C10.76 10.01 10.45 10.07 10.22 9.91C9.98999 9.76 9.92999 9.45 10.09 9.22C10.5 8.6 11.22 8.23 12 8.23C12.78 8.23 13.5 8.6 13.91 9.22C14.06 9.45 14 9.76 13.78 9.91C13.69 9.97 13.6 10 13.5 10ZM13.93 13H17.5C18.33 13 19 13.67 19 14.5V19.5C19 19.78 18.78 20 18.5 20H5.5C5.22 20 5 19.78 5 19.5V14.5C5 13.67 5.67 13 6.5 13H10.07C10.29 12.14 11.07 11.5 12 11.5C12.93 11.5 13.71 12.14 13.93 13ZM13 13.5C13 12.95 12.55 12.5 12 12.5C11.45 12.5 11 12.95 11 13.5C11 14.05 11.45 14.5 12 14.5C12.55 14.5 13 14.05 13 13.5ZM6 14.5V19H18V14.5C18 14.22 17.78 14 17.5 14H13.93C13.71 14.86 12.93 15.5 12 15.5C11.07 15.5 10.29 14.86 10.07 14H6.5C6.22 14 6 14.22 6 14.5ZM10.5 18H8.5C8.22 18 8 17.78 8 17.5C8 17.22 8.22 17 8.5 17H10.5C10.78 17 11 17.22 11 17.5C11 17.78 10.78 18 10.5 18ZM13.5 18H15.5C15.78 18 16 17.78 16 17.5C16 17.22 15.78 17 15.5 17H13.5C13.22 17 13 17.22 13 17.5C13 17.78 13.22 18 13.5 18Z" fill="#555555"/>
</svg>
