<svg width="24" height="24" viewBox="0 0 24 24" fill="none" xmlns="http://www.w3.org/2000/svg">
<path fill-rule="evenodd" clip-rule="evenodd" d="M15.85 2.15L19.85 6.15C19.95 6.24 20 6.37 20 6.5V21.5C20 21.78 19.78 22 19.5 22H4.5C4.22 22 4 21.78 4 21.5V2.5C4 2.22 4.22 2 4.5 2H15.5C15.63 2 15.76 2.05 15.85 2.15ZM18.29 6L16 3.71V6H18.29ZM5 3V21H19V7H15.5C15.22 7 15 6.78 15 6.5V3H5ZM7.54999 12.38C7.92999 12.38 8.26999 12.47 8.56999 12.64C8.86999 12.81 9.09999 13.04 9.26999 13.35C9.43999 13.66 9.52999 14.01 9.52999 14.4V14.6C9.52999 14.99 9.44999 15.34 9.27999 15.65C9.10999 15.96 8.87999 16.21 8.57999 16.38C8.27999 16.56 7.94999 16.65 7.57999 16.65H6.17999V12.38H7.54999ZM8.24999 15.55C8.40999 15.34 8.48999 15.02 8.48999 14.61V14.42C8.48999 14.01 8.40999 13.7 8.24999 13.49C8.08999 13.28 7.85999 13.18 7.55999 13.18H7.20999V15.86H7.56999C7.86999 15.86 8.08999 15.76 8.24999 15.55ZM12.93 12.5799C12.65 12.4099 12.32 12.3199 11.96 12.3199C11.59 12.3199 11.27 12.4099 10.98 12.5799C10.69 12.7499 10.47 12.9999 10.32 13.3199C10.17 13.6399 10.09 14.0099 10.09 14.4299V14.6699C10.1 15.0699 10.18 15.4299 10.34 15.7399C10.5 16.0499 10.72 16.2899 11 16.4599C11.28 16.6299 11.6 16.7099 11.97 16.7099C12.34 16.7099 12.66 16.6199 12.94 16.4499C13.22 16.2799 13.44 16.0299 13.6 15.7099C13.76 15.3899 13.83 15.0199 13.83 14.6099V14.4099C13.83 13.9999 13.75 13.6399 13.59 13.3199C13.43 12.9999 13.21 12.7499 12.93 12.5799ZM12.78 14.6199C12.78 15.0299 12.71 15.3499 12.57 15.5699C12.43 15.7899 12.23 15.8999 11.97 15.8999C11.7 15.8999 11.49 15.7899 11.35 15.5599C11.21 15.3299 11.14 15.0099 11.14 14.5999V14.2899C11.17 13.5199 11.44 13.1299 11.96 13.1299C12.22 13.1299 12.43 13.2399 12.57 13.4599C12.71 13.6799 12.78 13.9999 12.78 14.4299V14.6199ZM16.2 13.1201C15.95 13.1201 15.76 13.2201 15.64 13.4101C15.52 13.6101 15.46 13.9101 15.45 14.3301V14.6301C15.45 15.0901 15.51 15.4201 15.62 15.6101C15.73 15.8001 15.93 15.9001 16.21 15.9001C16.44 15.9001 16.62 15.8401 16.75 15.7301C16.88 15.6201 16.94 15.4401 16.95 15.2001H17.97C17.96 15.5001 17.88 15.7601 17.73 15.9901C17.58 16.2201 17.37 16.4001 17.11 16.5201C16.84 16.6501 16.54 16.7101 16.2 16.7101C15.64 16.7101 15.2 16.5301 14.88 16.1601C14.56 15.7901 14.4 15.2801 14.4 14.6101V14.4001C14.4 13.9801 14.47 13.6101 14.62 13.3001C14.77 12.9801 14.98 12.7401 15.25 12.5701C15.52 12.4001 15.84 12.3101 16.2 12.3101C16.72 12.3101 17.14 12.4501 17.45 12.7201C17.77 13.0001 17.95 13.3701 17.99 13.8501H16.96C16.95 13.5901 16.88 13.4001 16.76 13.2901C16.64 13.1801 16.45 13.1201 16.2 13.1201Z" fill="#555555"/>
</svg>
