<svg width="24" height="24" viewBox="0 0 24 24" fill="none" xmlns="http://www.w3.org/2000/svg">
<path fill-rule="evenodd" clip-rule="evenodd" d="M20.5 9H21.5C21.78 9 22 9.22 22 9.5V17.5C22 17.78 21.78 18 21.5 18H20.5V19C20.5 19.83 19.83 20.5 19 20.5H16.93C16.71 21.36 15.93 22 15 22C13.9 22 13 21.1 13 20C13 18.9 13.9 18 15 18C15.93 18 16.71 18.64 16.93 19.5H19C19.28 19.5 19.5 19.28 19.5 19V18H18.5C18.22 18 18 17.78 18 17.5V9.5C18 9.22 18.22 9 18.5 9H19.5V8.5C19.5 8.22 19.28 8 19 8H16.47C16.22 10.8 13.86 13 11 13C8.14 13 5.78 10.8 5.53 8H3.5C3.22 8 3 8.22 3 8.5V19C3 19.28 3.22 19.5 3.5 19.5H5.07C5.29 18.64 6.07 18 7 18C7.39 18 7.75 18.12 8.05 18.31L12.19 15.1C12.41 14.93 12.72 14.97 12.89 15.19C13.06 15.41 13.02 15.72 12.8 15.89L8.74 19.04C8.9 19.33 9 19.65 9 20C9 21.1 8.1 22 7 22C6.07 22 5.29 21.36 5.07 20.5H3.5C2.67 20.5 2 19.83 2 19V8.5C2 7.67 2.67 7 3.5 7H5.53C5.78 4.2 8.14 2 11 2C13.86 2 16.22 4.2 16.47 7H19C19.83 7 20.5 7.67 20.5 8.5V9ZM8 20C8 19.45 7.55 19 7 19C6.45 19 6 19.45 6 20C6 20.55 6.45 21 7 21C7.55 21 8 20.55 8 20ZM6.5 7.5C6.5 9.98 8.52 12 11 12C13.48 12 15.5 9.98 15.5 7.5C15.5 5.02 13.48 3 11 3C8.52 3 6.5 5.02 6.5 7.5ZM14 20C14 20.55 14.45 21 15 21C15.55 21 16 20.55 16 20C16 19.45 15.55 19 15 19C14.45 19 14 19.45 14 20ZM19 17H21V10H19V17ZM10.89 6.99996H12.04C12.23 6.99996 12.4 7.09996 12.48 7.26996C12.57 7.43996 12.56 7.63996 12.45 7.78996L10.37 10.79C10.27 10.92 10.12 11 9.96001 11C9.86001 11 9.76001 10.97 9.68001 10.91C9.45001 10.75 9.39001 10.44 9.55001 10.21L11.09 7.99996H9.96001C9.77001 7.99996 9.60001 7.89996 9.52001 7.72996C9.43001 7.56996 9.44001 7.36996 9.54001 7.21996L11.54 4.21996C11.7 3.98996 12 3.92996 12.23 4.08996C12.46 4.23996 12.52 4.54996 12.37 4.77996L10.89 6.99996Z" fill="#555555"/>
</svg>
