<svg width="24" height="24" viewBox="0 0 24 24" fill="none" xmlns="http://www.w3.org/2000/svg">
<path fill-rule="evenodd" clip-rule="evenodd" d="M18.8499 7.31C19.05 7.51 19.05 7.82 18.8499 8.02L9.7439 17.13C9.70387 17.17 9.65384 17.2 9.5938 17.23L5.69123 18.96C5.63119 18.99 5.56114 19 5.4911 19C5.36101 19 5.23093 18.95 5.14087 18.86C5.00077 18.71 4.96075 18.49 5.0408 18.3L6.77194 14.4C6.79195 14.34 6.83198 14.29 6.87201 14.25L15.978 5.15C16.0681 5.05 16.1881 5 16.3282 5C16.4683 5 16.5884 5.05 16.6785 5.14L18.8499 7.31ZM17.7892 7.67L16.3282 6.21L14.8673 7.67L16.3282 9.13L17.7892 7.67ZM8.5231 16.61L7.38234 15.47L6.47174 17.52L8.5231 16.61ZM7.93271 14.6L9.39367 16.06L15.6278 9.83L14.1668 8.37L7.93271 14.6ZM13.4964 18H18.4997C18.7798 18 19 18.22 19 18.5C19 18.78 18.7798 19 18.4997 19H13.4964C13.2162 19 12.996 18.78 12.996 18.5C12.996 18.22 13.2162 18 13.4964 18Z" fill="#555555"/>
</svg>
