<svg width="24" height="24" viewBox="0 0 24 24" fill="none" xmlns="http://www.w3.org/2000/svg">
<path fill-rule="evenodd" clip-rule="evenodd" d="M10.35 5.90402L12.06 4.19445C13.64 2.60485 16.22 2.60485 17.81 4.19445C18.78 5.16421 19.2 6.55386 18.91 7.90352C18.85 8.17345 19.03 8.44338 19.3 8.49337C19.33 8.50337 19.37 8.50337 19.4 8.50337C19.63 8.50337 19.84 8.34341 19.89 8.10347C20.24 6.42389 19.73 4.69432 18.51 3.48463C16.54 1.50512 13.32 1.50512 11.35 3.48463L9.65 5.1942C9.45 5.39415 9.45 5.70407 9.65 5.90402C9.85 6.10397 10.16 6.09397 10.35 5.90402ZM21.85 13.0223C21.95 12.9323 22 12.8023 22 12.6723C22 12.5424 21.95 12.4124 21.85 12.3224L19.68 10.153C19.49 9.96302 19.16 9.96302 18.97 10.153L11.87 17.2512C11.83 17.2912 11.79 17.3412 11.77 17.4012L10.04 21.3002C9.95998 21.4901 9.99998 21.7101 10.14 21.86C10.24 21.95 10.37 22 10.5 22C10.57 22 10.64 21.99 10.7 21.96L14.6 20.2304C14.66 20.2005 14.71 20.1705 14.75 20.1305L21.85 13.0223ZM14.4 19.0607L12.94 17.6011L17.17 13.3722L18.63 14.8318L14.4 19.0607ZM19.33 11.2127L20.79 12.6723L19.33 14.132L17.87 12.6723L19.33 11.2127ZM12.39 18.4709L13.53 19.6106L11.48 20.5204L12.39 18.4709ZM21.5 21.0002H17.5C17.22 21.0002 17 21.2202 17 21.5002C17 21.7802 17.22 22.0002 17.5 22.0002H21.5C21.78 22.0002 22 21.7802 22 21.5002C22 21.2202 21.78 21.0002 21.5 21.0002ZM13 14.4523C13.03 14.7323 12.82 14.9723 12.55 15.0023L12.5499 15.0023C12.39 15.0123 12.23 15.0223 12.07 15.0223C10.74 15.0223 9.45002 14.4923 8.48002 13.5223C8.28002 13.3223 8.28002 13.0123 8.48002 12.8123C8.68002 12.6123 8.99002 12.6123 9.19002 12.8123C10.06 13.6823 11.25 14.1223 12.45 14.0023C12.72 13.9823 12.97 14.1723 13 14.4523ZM17.1 4.8943C18.3 6.094 18.3 8.03351 17.1 9.23321L14.24 12.1025C13.66 12.6823 12.89 13.0023 12.07 13.0023C11.25 13.0023 10.48 12.6823 9.9 12.1025C9.7 11.9025 9.7 11.5926 9.9 11.3927C10.1 11.1927 10.41 11.1927 10.61 11.3927C11.39 12.1725 12.75 12.1725 13.53 11.3927L16.4 8.52339C17.21 7.72359 17.21 6.41392 16.4 5.60412C15.62 4.82432 14.26 4.82432 13.48 5.60412L12.73 6.35393C12.53 6.55388 12.22 6.55388 12.02 6.35393C11.82 6.15398 11.82 5.84406 12.02 5.64411L12.77 4.8943C13.92 3.73459 15.94 3.73459 17.1 4.8943ZM10.04 18.4309C9.89 18.2009 9.57 18.141 9.35 18.3009C9.17 18.4209 8.98 18.5309 8.79 18.6208C7.81 19.0807 6.67 19.1307 5.65 18.7508C5.1 18.5509 4.61 18.2309 4.19 17.811C3.42 17.0412 3 16.0215 3 14.9318C3 13.842 3.42 12.8223 4.19 12.0625L7.06 9.1932C8.65 7.6136 11.22 7.6136 12.81 9.1932C13.01 9.39315 13.32 9.39315 13.52 9.1932C13.72 8.99325 13.72 8.68333 13.52 8.48338C11.55 6.51388 8.33 6.51388 6.36 8.48338L3.48 11.3527C2.53 12.3124 2 13.5821 2 14.9318C2 16.2814 2.53 17.5611 3.48 18.5109C4 19.0407 4.61 19.4306 5.3 19.6806C5.87 19.8905 6.46 20.0005 7.06 20.0005C7.8 20.0005 8.54 19.8405 9.21 19.5206C9.45 19.4106 9.68 19.2807 9.91 19.1207C10.14 18.9708 10.2 18.6608 10.04 18.4309ZM11.39 10.6029C10.61 9.82306 9.25 9.82306 8.47 10.6029L5.61 13.4721C4.8 14.2719 4.8 15.5816 5.61 16.3914C6.39 17.1712 7.75 17.1712 8.53 16.3914L9.28 15.6416C9.48 15.4417 9.79 15.4417 9.99 15.6416C10.19 15.8416 10.19 16.1515 9.99 16.3514L9.24 17.1012C8.66 17.6811 7.89 18.001 7.07 18.001C6.25 18.001 5.48 17.6811 4.9 17.1112C3.7 15.9115 3.7 13.972 4.9 12.7723L7.76 9.89305C8.92 8.73334 10.94 8.73334 12.1 9.89305C12.3 10.093 12.3 10.4129 12.1 10.6029C11.9 10.8028 11.59 10.8028 11.39 10.6029Z" fill="#555555"/>
</svg>
