<svg width="24" height="24" viewBox="0 0 24 24" fill="none" xmlns="http://www.w3.org/2000/svg">
<path fill-rule="evenodd" clip-rule="evenodd" d="M6.28001 15.84C5.65001 15.23 5.32001 14.5 5.32001 13.74C5.32001 12.84 5.79001 11.91 6.67001 11.06L15.03 2.93002C15.94 2.04002 18.54 1.23002 20.66 3.30002C21.77 4.38002 22 5.52002 22 6.29002C22 7.46002 21.48 8.39002 21.04 8.82002C20.84 9.01002 20.52 9.01002 20.33 8.81002C20.14 8.61002 20.14 8.29002 20.34 8.10002C20.66 7.79002 21 7.09002 21 6.29002C21 5.47002 20.64 4.68002 19.94 4.01002C18.33 2.44002 16.35 3.00002 15.7 3.64002L7.35001 11.77C6.67001 12.43 6.31001 13.11 6.31001 13.73C6.31001 14.23 6.53001 14.69 6.97001 15.12C7.97001 16.09 9.21001 15.96 10.45 14.75L16.46 8.69002C16.66 8.50002 16.97 8.50002 17.17 8.69002C17.36 8.89002 17.36 9.20002 17.17 9.40002L11.16 15.47C10.26 16.34 9.31001 16.78 8.41001 16.78C7.65001 16.78 6.92001 16.47 6.28001 15.84ZM8.85 18.8C7.33 19.29 5.51 18.85 4.33 17.71C3.48 16.89 3 15.75 3 14.6C3 13.63 3.35 12.73 3.95 12.15L11.93 4.39002C12.13 4.20002 12.13 3.88002 11.94 3.68002C11.75 3.48002 11.43 3.48002 11.23 3.67002L3.25 11.43C2.46 12.2 2 13.35 2 14.59C2 16.02 2.59 17.41 3.63 18.42C4.67 19.44 6.13 20 7.56 20C8.1 20 8.64 19.92 9.15 19.75C9.41 19.67 9.56 19.38 9.47 19.12C9.39 18.86 9.11 18.72 8.85 18.8ZM18.98 10.15C19.17 9.96001 19.5 9.96001 19.69 10.15L21.85 12.32C22.05 12.52 22.05 12.83 21.85 13.03L14.75 20.13C14.71 20.17 14.66 20.2 14.6 20.23L10.7 21.96C10.64 21.99 10.57 22 10.5 22C10.37 22 10.24 21.95 10.15 21.86C10.01 21.71 9.96999 21.49 10.05 21.3L11.78 17.4C11.8 17.34 11.84 17.29 11.88 17.25L18.98 10.15ZM13.53 19.61L12.39 18.47L11.48 20.52L13.53 19.61ZM12.94 17.6L14.4 19.06L18.63 14.83L17.17 13.37L12.94 17.6ZM17.87 12.67L19.33 14.13L20.79 12.67L19.33 11.21L17.87 12.67ZM17.5 21H21.5C21.78 21 22 21.22 22 21.5C22 21.78 21.78 22 21.5 22H17.5C17.22 22 17 21.78 17 21.5C17 21.22 17.22 21 17.5 21Z" fill="#555555"/>
</svg>
