<svg width="24" height="24" viewBox="0 0 24 24" fill="none" xmlns="http://www.w3.org/2000/svg">
<path fill-rule="evenodd" clip-rule="evenodd" d="M3.5 2H20.5C21.33 2 22 2.67 22 3.5V14.5C22 15.33 21.33 16 20.5 16H20V18.5C20 18.78 19.78 19 19.5 19H19V21.5C19 21.78 18.78 22 18.5 22C18.22 22 18 21.78 18 21.5V19H17.5C17.22 19 17 18.78 17 18.5V15.5C17 15.22 17.22 15 17.5 15H20.5C20.78 15 21 14.78 21 14.5V3.5C21 3.22 20.78 3 20.5 3H3.5C3.22 3 3 3.22 3 3.5V14.5C3 14.78 3.22 15 3.5 15H6.5C6.78 15 7 15.22 7 15.5V18.5C7 18.78 6.78 19 6.5 19H6V21.5C6 21.78 5.78 22 5.5 22C5.22 22 5 21.78 5 21.5V19H4.5C4.22 19 4 18.78 4 18.5V16H3.5C2.67 16 2 15.33 2 14.5V3.5C2 2.67 2.67 2 3.5 2ZM6 18V16H5V18H6ZM18 18H19V16H18V18ZM19.5 4C19.78 4 20 4.22 20 4.5V7.5C20 7.78 19.78 8 19.5 8H4.5C4.22 8 4 7.78 4 7.5V4.5C4 4.22 4.22 4 4.5 4H19.5ZM7 5H5V7H7V5ZM10 5H8V7H10V5ZM13 5H11V7H13V5ZM16 5H14V7H16V5ZM17 7H19V5H17V7ZM15.5 14H13.11L13.99 9.60001C14.04 9.37001 13.91 9.14001 13.7 9.04001C13.49 8.95001 13.23 9.02001 13.09 9.21001L8.09001 16.21C7.98001 16.36 7.97001 16.56 8.05001 16.73C8.14001 16.9 8.31001 17 8.50001 17H10.89L10.01 21.4C9.96001 21.63 10.09 21.86 10.3 21.96C10.37 21.99 10.43 22 10.5 22C10.66 22 10.81 21.93 10.91 21.79L15.91 14.79C16.02 14.64 16.03 14.44 15.95 14.27C15.86 14.1 15.69 14 15.5 14ZM11.45 19.31L11.99 16.59C12.02 16.44 11.98 16.29 11.89 16.17C11.79 16.07 11.65 16 11.5 16H9.47001L12.55 11.69L12.01 14.41C11.98 14.56 12.02 14.71 12.11 14.83C12.21 14.93 12.35 15 12.5 15H14.53L11.45 19.31ZM4 12C4 10.9 4.9 10 6 10C7.1 10 8 10.9 8 12C8 13.1 7.1 14 6 14C4.9 14 4 13.1 4 12ZM5 12C5 12.55 5.45 13 6 13C6.55 13 7 12.55 7 12C7 11.45 6.55 11 6 11C5.45 11 5 11.45 5 12ZM19 12C18.45 12 18 12.45 18 13C18 13.55 18.45 14 19 14C19.55 14 20 13.55 20 13C20 12.45 19.55 12 19 12ZM17 9C17.55 9 18 9.45 18 10C18 10.55 17.55 11 17 11C16.45 11 16 10.55 16 10C16 9.45 16.45 9 17 9Z" fill="#555555"/>
</svg>
