<svg width="24" height="24" viewBox="0 0 24 24" fill="none" xmlns="http://www.w3.org/2000/svg">
<path fill-rule="evenodd" clip-rule="evenodd" d="M8.37586 15.14C9.5551 13.96 11.3439 13.68 12.9329 13.5C13.0928 13.49 13.2427 13.54 13.3426 13.65C13.4426 13.76 13.5025 13.91 13.4825 14.06C13.3027 15.65 13.0228 17.44 11.8436 18.62C11.194 19.27 10.5644 19.5 9.94484 19.5C9.47515 19.5 9.00545 19.37 8.51577 19.19L6.49708 21.21V21.5C6.49708 21.78 6.27722 22 5.99741 22C5.71759 22 5.49773 21.78 5.49773 21.5V14.82C3.49903 13.89 2 12.86 2 10C2 7.07 3.85879 4.44 5.59767 2.18C5.78754 1.94 6.19728 1.94 6.38715 2.18C8.13602 4.43 9.99481 7.06 9.99481 9.99C9.99481 12.86 8.49578 13.88 6.49708 14.81V19.79L7.80623 18.48C7.43647 17.51 7.15665 16.36 8.37586 15.14ZM3.34912 7.95L5.49773 9.75V3.99C4.60831 5.23 3.78884 6.56 3.34912 7.95ZM8.64569 7.94C8.20597 6.55 7.3865 5.22 6.49708 3.99V9.75L8.64569 7.94ZM6.49708 12.5V13.71C8.06606 12.94 8.99546 12.12 8.99546 10C8.99546 9.67 8.96548 9.35 8.91551 9.04L6.49708 11.06V12.5ZM3.0793 9.03C3.02933 9.35 2.99935 9.67 2.99935 10C2.99935 12.12 3.92875 12.94 5.49773 13.7V12.49V11.05L3.0793 9.03ZM8.7756 18.22C9.81493 18.61 10.3846 18.67 11.1441 17.91C11.9535 17.1 12.2533 15.81 12.4132 14.57C11.174 14.74 9.89488 15.04 9.0854 15.85C8.3259 16.61 8.38586 17.18 8.7756 18.22ZM11.9935 11.47C12.0135 11.2 12.2334 10.98 12.5232 11C13.4126 11.05 14.2621 11.43 14.9116 12.08C15.5612 12.73 15.941 13.58 15.9909 14.47C16.0109 14.75 15.8011 14.99 15.5212 15H15.4913C15.2314 15 15.0016 14.8 14.9916 14.53C14.9616 13.88 14.6818 13.26 14.2021 12.79C13.7224 12.32 13.1028 12.04 12.4632 12C12.1934 11.98 11.9735 11.75 11.9935 11.47ZM18.8391 8.15001C17.1002 6.41001 14.8617 5.29001 12.5532 5.01001C12.2833 4.97001 12.0335 5.16001 11.9935 5.44001C11.9635 5.71001 12.1534 5.96001 12.4332 6.00001C14.5219 6.26001 16.5506 7.27001 18.1395 8.86001C19.7285 10.45 20.7378 12.47 20.9977 14.57C21.0276 14.82 21.2475 15.01 21.4973 15.01H21.5573C21.8271 14.98 22.027 14.73 21.997 14.45C21.6972 12.12 20.5879 9.89001 18.8391 8.15001ZM11.9935 8.47C12.0135 8.19 12.2534 7.97 12.5232 8C14.1921 8.1 15.7711 8.82 16.9703 10.02C18.1695 11.22 18.889 12.8 18.989 14.47C19.009 14.75 18.7991 14.98 18.5193 15H18.4893C18.2295 15 18.0096 14.8 17.9896 14.53C17.8997 13.11 17.2901 11.76 16.2608 10.73C15.2314 9.7 13.8823 9.09 12.4632 9C12.1834 8.98 11.9735 8.75 11.9935 8.47Z" fill="#555555"/>
</svg>
