<svg width="24" height="24" viewBox="0 0 24 24" fill="none" xmlns="http://www.w3.org/2000/svg">
<path fill-rule="evenodd" clip-rule="evenodd" d="M5 12C5 15.86 8.14 19 12 19C15.86 19 19 15.86 19 12C19 8.14 15.86 5 12 5C8.14 5 5 8.14 5 12ZM6 12C6 8.69 8.69 6 12 6C15.31 6 18 8.69 18 12C18 15.31 15.31 18 12 18C8.69 18 6 15.31 6 12ZM12 13C11.72 13 11.5 12.78 11.5 12.5V8.5C11.5 8.22 11.72 8 12 8C12.28 8 12.5 8.22 12.5 8.5V12.5C12.5 12.78 12.28 13 12 13ZM12 16C12.5523 16 13 15.5523 13 15C13 14.4477 12.5523 14 12 14C11.4477 14 11 14.4477 11 15C11 15.5523 11.4477 16 12 16Z" fill="#555555"/>
</svg>
