<svg width="24" height="24" viewBox="0 0 24 24" fill="none" xmlns="http://www.w3.org/2000/svg">
<path fill-rule="evenodd" clip-rule="evenodd" d="M12 22C6.49 22 2 17.51 2 12C2 6.49 6.49 2 12 2C17.51 2 22 6.49 22 12C22 17.51 17.51 22 12 22ZM12 3C7.04 3 3 7.04 3 12C3 16.96 7.04 21 12 21C16.96 21 21 16.96 21 12C21 7.04 16.96 3 12 3ZM12 16C12.55 16 13 16.45 13 17C13 17.55 12.55 18 12 18C11.45 18 11 17.55 11 17C11 16.45 11.45 16 12 16ZM12 15C10.9 15 10 15.9 10 17C10 18.1 10.9 19 12 19C13.1 19 14 18.1 14 17C14 15.9 13.1 15 12 15ZM13 7C13 6.45 12.55 6 12 6C11.45 6 11 6.45 11 7V12C11 12.55 11.45 13 12 13C12.55 13 13 12.55 13 12V7ZM10 7C10 5.9 10.9 5 12 5C13.1 5 14 5.9 14 7V12C14 13.1 13.1 14 12 14C10.9 14 10 13.1 10 12V7Z" fill="#555555"/>
</svg>
