<svg width="24" height="24" viewBox="0 0 24 24" fill="none" xmlns="http://www.w3.org/2000/svg">
<path fill-rule="evenodd" clip-rule="evenodd" d="M4 20.5C4 20.78 4.22 21 4.5 21C4.78 21 5 20.78 5 20.5V3.5C5 3.22 4.78 3 4.5 3C4.22 3 4 3.22 4 3.5V20.5ZM15.87 7.16999L19.87 11.67C20.04 11.86 20.04 12.14 19.87 12.33L15.87 16.83C15.78 16.94 15.64 17 15.5 17C15.38 17 15.26 16.96 15.17 16.88C14.97 16.69 14.95 16.38 15.13 16.17L18.39 12.5H7.5C7.22 12.5 7 12.28 7 12C7 11.72 7.22 11.5 7.5 11.51H18.38L15.12 7.83999C14.93 7.62999 14.95 7.30999 15.16 7.12999C15.37 6.93999 15.69 6.95999 15.87 7.16999Z" fill="#555555"/>
</svg>
