<svg width="24" height="24" viewBox="0 0 24 24" fill="none" xmlns="http://www.w3.org/2000/svg">
<path fill-rule="evenodd" clip-rule="evenodd" d="M8.12 6.83C8.22 6.94 8.36 7 8.5 7C8.62 7 8.73 6.96 8.83 6.88L12 4.16L15.16 6.88C15.37 7.06 15.69 7.04 15.87 6.83C16.05 6.62 16.03 6.3 15.82 6.12L12.32 3.12C12.13 2.96 11.86 2.96 11.67 3.12L8.17 6.12C7.96 6.3 7.94 6.62 8.12 6.83ZM11.67 20.88C11.77 20.96 11.88 21 12 21C12.12 21 12.23 20.96 12.33 20.88L15.83 17.88C16.04 17.7 16.06 17.38 15.88 17.17C15.7 16.96 15.38 16.94 15.17 17.12L12 19.84L8.82 17.12C8.62 16.94 8.3 16.96 8.12 17.17C7.94 17.38 7.96 17.7 8.17 17.88L11.67 20.88ZM19.5 10H4.5C4.22 10 4 9.78 4 9.5C4 9.22 4.22 9 4.5 9H19.5C19.78 9 20 9.22 20 9.5C20 9.78 19.78 10 19.5 10ZM4.5 15H19.5C19.78 15 20 14.78 20 14.5C20 14.22 19.78 14 19.5 14H4.5C4.22 14 4 14.22 4 14.5C4 14.78 4.22 15 4.5 15Z" fill="#555555"/>
</svg>
