<svg width="24" height="24" viewBox="0 0 24 24" fill="none" xmlns="http://www.w3.org/2000/svg">
<path fill-rule="evenodd" clip-rule="evenodd" d="M15.17 14.12C15.38 13.94 15.7 13.96 15.88 14.17C16.06 14.38 16.04 14.7 15.83 14.88L12.33 17.88C12.23 17.96 12.12 18 12 18C11.88 18 11.77 17.96 11.68 17.88L8.18 14.88C7.97 14.7 7.95 14.38 8.13 14.17C8.31 13.97 8.62 13.94 8.83 14.12L11.5 16.41V4.5C11.5 4.22 11.72 4 12 4C12.28 4 12.5 4.22 12.5 4.5V16.41L15.17 14.12ZM4.5 20H19.5C19.78 20 20 19.78 20 19.5V11.5C20 11.22 19.78 11 19.5 11H15.5C15.22 11 15 11.22 15 11.5C15 11.78 15.22 12 15.5 12H19V19H5V12H8.5C8.78 12 9 11.78 9 11.5C9 11.22 8.78 11 8.5 11H4.5C4.22 11 4 11.22 4 11.5V19.5C4 19.78 4.22 20 4.5 20Z" fill="#555555"/>
</svg>
