<svg width="24" height="24" viewBox="0 0 24 24" fill="none" xmlns="http://www.w3.org/2000/svg">
<path fill-rule="evenodd" clip-rule="evenodd" d="M8.50088 21H15.4991C15.7791 21 15.999 20.78 15.999 20.5V3.5C15.999 3.22 15.7791 3 15.4991 3H8.50088C8.22095 3 8.001 3.22 8.001 3.5V20.5C8.001 20.78 8.22095 21 8.50088 21ZM14.9993 20H9.00075V4H14.9993V20ZM6.50137 11.5H3.54211L4.89178 9.81001C5.06173 9.59001 5.03174 9.28001 4.8118 9.11001C4.60185 8.94001 4.28193 8.97001 4.11197 9.19001L2.11247 11.69C1.96251 11.87 1.96251 12.13 2.11247 12.31L4.11197 14.81C4.21195 14.94 4.35191 15 4.50187 15C4.61185 15 4.72182 14.96 4.8118 14.89C5.03174 14.72 5.06173 14.4 4.89178 14.19L3.54211 12.5H6.50137C6.7813 12.5 7.00125 12.28 7.00125 12C7.00125 11.72 6.7813 11.5 6.50137 11.5ZM21.8875 11.69L19.888 9.19C19.7181 8.98 19.3982 8.94 19.1882 9.11C18.9683 9.28 18.9383 9.6 19.1082 9.81L20.4579 11.5H17.4986C17.2187 11.5 16.9988 11.72 16.9988 12C16.9988 12.28 17.2187 12.5 17.4986 12.5H20.4579L19.1082 14.19C18.9383 14.41 18.9683 14.72 19.1882 14.89C19.2782 14.96 19.3882 15 19.4981 15C19.6481 15 19.7881 14.94 19.888 14.81L21.8875 12.31C22.0375 12.13 22.0375 11.87 21.8875 11.69Z" fill="#555555"/>
</svg>
