<svg width="24" height="24" viewBox="0 0 24 24" fill="none" xmlns="http://www.w3.org/2000/svg">
<path fill-rule="evenodd" clip-rule="evenodd" d="M18.85 8.15L14.85 4.15C14.76 4.05 14.63 4 14.5 4H8.5C8.22 4 8 4.22 8 4.5V6H5.5C5.22 6 5 6.22 5 6.5V19.5C5 19.78 5.22 20 5.5 20H15.5C15.78 20 16 19.78 16 19.5V18H18.5C18.78 18 19 17.78 19 17.5V8.5C19 8.37 18.95 8.24 18.85 8.15ZM15 5.71L17.29 8H15V5.71ZM6 19V7H8V17.5C8 17.78 8.22 18 8.5 18H15V19H6ZM9 17V5H14V8.5C14 8.78 14.22 9 14.5 9H18V17H9ZM16.5 12H10.5C10.22 12 10 12.22 10 12.5C10 12.78 10.22 13 10.5 13H16.5C16.78 13 17 12.78 17 12.5C17 12.22 16.78 12 16.5 12ZM12.5 11H10.5C10.22 11 10 10.78 10 10.5C10 10.22 10.22 10 10.5 10H12.5C12.78 10 13 10.22 13 10.5C13 10.78 12.78 11 12.5 11ZM10.5 9H12.5C12.78 9 13 8.78 13 8.5C13 8.22 12.78 8 12.5 8H10.5C10.22 8 10 8.22 10 8.5C10 8.78 10.22 9 10.5 9ZM10.5 14H16.5C16.78 14 17 14.22 17 14.5C17 14.78 16.78 15 16.5 15H10.5C10.22 15 10 14.78 10 14.5C10 14.22 10.22 14 10.5 14Z" fill="#555555"/>
</svg>
