<svg width="80" height="81" viewBox="0 0 80 81" fill="none" xmlns="http://www.w3.org/2000/svg">
<path fill-rule="evenodd" clip-rule="evenodd" d="M79.85 14.93C79.9 14.97 79.93 15.03 79.96 15.09C79.99 15.15 80 15.22 79.99 15.28V69.51C79.99 69.79 79.77 70.01 79.49 70.01H57.99V79.51C57.99 79.79 57.77 80.01 57.49 80.01H0.5C0.22 80.01 0 79.79 0 79.51V10.5C0 10.22 0.22 10 0.5 10H22V0.5C22 0.22 22.23 0 22.5 0H64.69C64.76 0 64.82 0.01 64.89 0.04C64.95 0.06 65 0.1 65.05 0.15L79.85 14.93ZM78.29 14.79L65.19 1.71V11.29C65.19 13.22 66.76 14.79 68.69 14.79H78.29ZM1 11V79H57V25.78H46.69C44.21 25.78 42.19 23.76 42.19 21.28V11H1ZM56.28 24.79C56.27 24.77 56.26 24.76 56.25 24.75L43.19 11.71V21.29C43.19 23.22 44.76 24.79 46.69 24.79H56.28ZM47.94 15.04L50.79 17.88C50.92 17.61 51 17.32 50.99 17.02C50.99 15.93 50.1 15.04 49.01 15.04H47.94ZM67.02 55.04H58V59H67.02C68.11 59 69 58.11 69 57.02C69 55.93 68.11 55.04 67.02 55.04ZM67.02 45.04H58V49H67.02C68.11 49 69 48.11 69 47.02C69 45.93 68.11 45.04 67.02 45.04ZM67.02 35.04H58V39H67.02C68.11 39 69 38.11 69 37.02C69 35.93 68.11 35.04 67.02 35.04ZM57.96 25.1C57.99 25.16 58 25.22 58 25.29V29H59.02C60.11 29 60.99 28.12 60.99 27.03C60.99 25.94 60.1 25.05 59.01 25.05H57.92C57.94 25.06 57.95 25.08 57.96 25.1ZM58 60.01V69H79V15.78H68.69C66.21 15.78 64.19 13.76 64.19 11.28V1H23V10H42.69C42.76 10 42.82 10.01 42.88 10.04C42.94 10.07 42.99 10.1 43.04 10.15L46.94 14.04H49.02C50.66 14.04 52 15.38 52 17.02C52 17.59 51.83 18.14 51.53 18.62L56.96 24.04H59.02C60.66 24.04 62 25.38 62 27.02C62 28.66 60.66 30 59.02 30H58V34.04H67.02C68.66 34.04 70 35.38 70 37.02C70 38.66 68.66 40 67.02 40H58V44.04H67.02C68.66 44.04 70 45.38 70 47.02C70 48.66 68.66 50 67.02 50H58V54.05H67.02C68.66 54.05 70 55.39 70 57.03C70 58.67 68.66 60.01 67.02 60.01H58ZM12.98 30H27.01C28.65 30 29.99 28.66 29.99 27.02C29.99 25.38 28.65 24.04 27.01 24.04H12.98C11.34 24.04 10 25.38 10 27.02C10 28.66 11.34 30 12.98 30ZM12.98 25.04H27.01C28.1 25.04 28.99 25.93 28.99 27.02C28.99 28.11 28.11 29 27.01 29H12.98C11.89 29 11 28.11 11 27.02C11 25.93 11.89 25.04 12.98 25.04ZM37.01 40H12.98C11.34 40 10 38.67 10 37.02C10 35.38 11.34 34.04 12.98 34.04H37.01C38.65 34.04 39.99 35.38 39.99 37.02C39.99 38.66 38.65 40 37.01 40ZM37.01 35.04H12.98C11.89 35.04 11 35.92 11 37.02C11 38.12 11.89 39 12.98 39H37.01C38.11 39 38.99 38.11 38.99 37.02C38.99 35.93 38.1 35.04 37.01 35.04ZM45.02 44.04H12.98C11.34 44.04 10 45.38 10 47.02C10 48.66 11.34 50 12.98 50H45.01C46.65 50 47.99 48.66 47.99 47.02C48 45.38 46.66 44.04 45.02 44.04ZM45.02 49H12.98C11.89 49 11 48.12 11 47.02C11 45.92 11.89 45.04 12.98 45.04H45.01C46.1 45.04 46.99 45.93 46.99 47.02C46.99 48.11 46.11 49 45.02 49ZM12.98 54.04H45.02C46.66 54.04 48 55.38 47.99 57.02C47.99 58.66 46.65 60 45.01 60H12.98C11.34 60 10 58.66 10 57.02C10 55.38 11.34 54.04 12.98 54.04ZM12.98 59.01H45.02C46.11 59.01 46.99 58.12 46.99 57.03C46.99 55.94 46.1 55.05 45.01 55.05H12.98C11.89 55.05 11 55.94 11 57.03C11 58.12 11.89 59.01 12.98 59.01ZM12.98 64.04H45.02C46.66 64.04 48 65.38 47.99 67.02C47.99 68.66 46.65 70 45.01 70H12.98C11.34 70 10 68.66 10 67.02C10 65.38 11.34 64.04 12.98 64.04ZM12.98 69.01H45.02C46.11 69.01 46.99 68.12 46.99 67.03C46.99 65.94 46.1 65.05 45.01 65.05H12.98C11.89 65.05 11 65.94 11 67.03C11 68.12 11.89 69.01 12.98 69.01Z" fill="#555555"/>
</svg>
