<svg width="24" height="24" viewBox="0 0 24 24" fill="none" xmlns="http://www.w3.org/2000/svg">
<path d="M20.9824 12.5853C21.0124 12.4153 20.9524 12.2554 20.8225 12.1355L18.4733 9.96672L20.6925 8.95728C20.8425 8.88732 20.9524 8.7474 20.9824 8.57749C21.0124 8.40759 20.9524 8.24768 20.8225 8.12774L14.3247 2.13109C14.1747 1.99117 13.9548 1.96119 13.7749 2.05114L3.27841 7.04835C3.13846 7.1283 3.02849 7.25823 3.0085 7.41814C2.97851 7.57805 3.02849 7.73796 3.14845 7.85789L5.35771 10.0667L3.28841 11.0561C3.13846 11.1261 3.02849 11.256 3.0085 11.4159C2.97851 11.5758 3.02849 11.7357 3.14845 11.8557L5.35771 14.0644L3.28841 15.0539C3.13846 15.1238 3.03849 15.2638 3.0085 15.4237C2.97851 15.5836 3.02849 15.7435 3.14845 15.8634L9.14642 21.8601C9.23639 21.95 9.36635 22 9.4963 22C9.56628 22 9.63626 21.99 9.70623 21.96L20.7025 16.9628C20.8525 16.8929 20.9624 16.7529 20.9924 16.583C21.0224 16.4131 20.9624 16.2532 20.8325 16.1333L18.4833 13.9645L20.7025 12.955C20.8525 12.8951 20.9624 12.7452 20.9824 12.5853ZM13.9048 3.11055L19.6029 8.36761L9.60627 12.9151L4.34805 7.65801L13.9048 3.11055ZM19.6029 16.3631L9.60627 20.9106L4.35804 15.6635L6.10745 14.834L9.14642 17.8723C9.23639 17.9523 9.36635 18.0022 9.4963 18.0022C9.56628 18.0022 9.63626 17.9922 9.70623 17.9623L17.4936 14.4242L19.6029 16.3631ZM9.60627 16.9028L4.34805 11.6558L6.09746 10.8262L9.13643 13.8645C9.23639 13.9545 9.36635 14.0045 9.4963 14.0045C9.56628 14.0045 9.63626 13.9945 9.70623 13.9645L17.4936 10.4265L19.6029 12.3654L9.60627 16.9028Z" fill="#555555"/>
</svg>
