<svg width="24" height="24" viewBox="0 0 24 24" fill="none" xmlns="http://www.w3.org/2000/svg">
<path d="M18.99 12.58C19.02 12.42 18.96 12.26 18.85 12.15L17.34 10.64L18.72 9.94999C18.86 9.87999 18.96 9.73999 18.99 9.57999C19.02 9.41999 18.96 9.25999 18.85 9.14999L13.85 4.14999C13.7 3.98999 13.47 3.95999 13.28 4.04999L5.28 8.04999C5.13 8.11999 5.03 8.25999 5.01 8.41999C4.99 8.57999 5.04 8.73999 5.15 8.84999L6.66 10.36L5.28 11.05C5.13 11.12 5.03 11.26 5.01 11.42C4.98 11.58 5.04 11.74 5.15 11.85L6.66 13.36L5.28 14.05C5.14 14.12 5.04 14.26 5.01 14.42C4.98 14.58 5.04 14.74 5.15 14.85L10.15 19.85C10.24 19.95 10.37 20 10.5 20C10.58 20 10.65 19.98 10.72 19.95L18.72 15.95C18.86 15.88 18.96 15.74 18.99 15.58C19.02 15.42 18.96 15.26 18.85 15.15L17.34 13.64L18.72 12.95C18.87 12.88 18.97 12.74 18.99 12.58ZM13.4 5.10999L17.65 9.35999L10.6 12.89L6.34 8.63999L13.4 5.10999ZM17.66 15.36L10.6 18.89L6.35 14.64L7.41 14.11L10.16 16.86C10.24 16.95 10.37 17 10.5 17C10.58 17 10.65 16.98 10.72 16.95L16.4 14.11L17.66 15.36ZM10.6 15.89L6.34 11.64L7.4 11.11L10.15 13.86C10.24 13.95 10.37 14 10.5 14C10.58 14 10.65 13.98 10.72 13.95L16.4 11.11L17.65 12.36L10.6 15.89Z" fill="#555555"/>
</svg>
