<svg width="24" height="24" viewBox="0 0 24 24" fill="none" xmlns="http://www.w3.org/2000/svg">
<path fill-rule="evenodd" clip-rule="evenodd" d="M17 6H12.71C10.82 4.12 10.68 4 9.5 4H7C5.73 4 5 4.73 5 6V14C5 15.27 5.73 16 7 16H11.5V17C10.85 17 10.3 17.42 10.09 18H8.91C8.7 17.42 8.15 17 7.5 17H6.5C5.67 17 5 17.67 5 18.5C5 19.33 5.67 20 6.5 20H7.5C8.15 20 8.7 19.58 8.91 19H10.09C10.3 19.58 10.85 20 11.5 20H12.5C13.15 20 13.7 19.58 13.91 19H15.09C15.3 19.58 15.85 20 16.5 20H17.5C18.33 20 19 19.33 19 18.5C19 17.67 18.33 17 17.5 17H16.5C15.85 17 15.3 17.42 15.09 18H13.91C13.7 17.42 13.15 17 12.5 17V16H17C18.27 16 19 15.27 19 14V8C19 6.73 18.27 6 17 6ZM6.5 19C6.22 19 6 18.78 6 18.5C6 18.22 6.22 18 6.5 18H7.5C7.78 18 8 18.22 8 18.5C8 18.78 7.78 19 7.5 19H6.5ZM17.5 18C17.78 18 18 18.22 18 18.5C18 18.78 17.78 19 17.5 19H16.5C16.22 19 16 18.78 16 18.5C16 18.22 16.22 18 16.5 18H17.5ZM13 18.5C13 18.78 12.78 19 12.5 19H11.5C11.22 19 11 18.78 11 18.5C11 18.22 11.22 18 11.5 18H12.5C12.78 18 13 18.22 13 18.5ZM7 5H9.51H9.52C10.29 5 10.3 5 12.15 6.85C12.24 6.95 12.37 7 12.5 7H17C17.72 7 18 7.28 18 8H6V6C6 5.28 6.28 5 7 5ZM17 15H7C6.28 15 6 14.72 6 14V9H18V14C18 14.72 17.72 15 17 15ZM16.5 10H12C11.72 10 11.5 10.22 11.5 10.5C11.5 10.78 11.72 11 12 11H16.5C16.78 11 17 10.78 17 10.5C17 10.22 16.78 10 16.5 10ZM12 12H15.5C15.78 12 16 12.22 16 12.5C16 12.78 15.78 13 15.5 13H12C11.72 13 11.5 12.78 11.5 12.5C11.5 12.22 11.72 12 12 12Z" fill="#555555"/>
</svg>
