<svg width="80" height="80" viewBox="0 0 80 80" fill="none" xmlns="http://www.w3.org/2000/svg">
<path fill-rule="evenodd" clip-rule="evenodd" d="M11 21.45C11 21.73 10.78 21.95 10.5 21.95C10.22 21.95 10 21.73 10 21.45V0.5C10 0.22 10.22 0 10.5 0H54.69C54.75 0 54.82 0.01 54.88 0.04C54.94 0.07 54.99 0.1 55.04 0.15L69.85 14.93C69.9 14.97 69.93 15.03 69.96 15.09C69.99 15.15 70 15.21 70 15.28V21.45C70 21.73 69.78 21.95 69.5 21.95C69.22 21.95 69 21.73 69 21.45V15.78H58.69C56.21 15.78 54.19 13.76 54.19 11.28V1H11V21.45ZM55.19 1.71V11.28C55.19 13.21 56.76 14.78 58.69 14.79H68.29L55.19 1.71ZM77.02 41.49C78.66 41.49 80 40.15 80 38.51V27.98C80 26.34 78.66 25 77.02 25H33.47C31.83 25 30.49 26.34 30.49 27.98V27.99C30.49 34.25 26.32 39.65 20.5 41.06V27.99V27.98C20.5 26.34 19.16 25 17.52 25H2.98C1.34 25 0 26.34 0 27.98V66.99C0 68.63 1.34 69.97 2.98 69.97H17.51C18.98 69.97 20.19 68.9 20.44 67.5H32.98C33.23 68.9 34.44 69.97 35.91 69.97H77.02C78.66 69.97 80 68.63 80 66.99V54.47C80 52.83 78.66 51.49 77.02 51.49H76.98C70.72 51.49 65.32 47.32 63.91 41.5C63.9 41.49 77.01 41.49 77.02 41.49ZM31.48 27.98C31.48 26.89 32.37 26 33.46 26H77.01C78.1 26 78.99 26.89 78.99 27.98V38.51C78.99 39.6 78.1 40.49 77.01 40.49C75.92 40.49 75.03 39.6 75.03 38.51V30.46C75.03 30.18 74.81 29.96 74.53 29.96H35.95C35.67 29.96 35.45 30.18 35.45 30.46V31.5C35.45 32.59 34.56 33.48 33.47 33.48C32.38 33.48 31.49 32.59 31.49 31.5V27.98H31.48ZM17.51 68.98H2.98C1.89 68.98 1 68.09 1 66.99V27.98C1 26.89 1.89 26 2.98 26H17.51C18.6 26 19.49 26.89 19.49 27.98C19.48 29.07 18.6 29.95 17.51 29.95H5.46C5.18 29.95 4.96 30.17 4.96 30.45V46.51C4.96 46.79 5.18 47.01 5.46 47.01H33.43C33.71 47.01 33.93 46.79 33.93 46.51V43.47C33.93 42.38 34.82 41.49 35.91 41.49C37 41.49 37.89 42.38 37.89 43.47V54.52C37.89 55.61 37 56.5 35.91 56.5C34.82 56.5 33.93 55.61 33.93 54.52V51.48C33.93 51.2 33.71 50.98 33.43 50.98H19.99C19.71 50.98 19.49 51.2 19.49 51.48V54.52C19.49 55.61 18.6 56.5 17.51 56.5C16.42 56.5 15.53 55.61 15.53 54.52V51.48C15.53 51.2 15.31 50.98 15.03 50.98H5.46C5.18 50.98 4.96 51.2 4.96 51.48V64.51C4.96 64.79 5.18 65.01 5.46 65.01H17.5C18.59 65.01 19.48 65.9 19.48 66.99C19.48 68.08 18.6 68.98 17.51 68.98ZM79 54.47V66.99C79 68.08 78.11 68.97 77.02 68.97H35.91C34.82 68.97 33.93 68.08 33.93 66.99C33.93 65.9 34.82 65.01 35.91 65.01H74.53C74.81 65.01 75.03 64.79 75.03 64.51V54.47C75.03 53.38 75.92 52.49 77.01 52.49C78.1 52.49 79 53.38 79 54.47ZM74.94 52.34C74.38 52.88 74.03 53.64 74.03 54.47V64.01H35.91C34.43 64.01 33.21 65.09 32.98 66.51H20.44C20.21 65.1 18.99 64.01 17.51 64.01H5.96V51.98H14.52V54.52C14.52 56.16 15.86 57.5 17.5 57.5C19.14 57.5 20.48 56.16 20.48 54.52V51.98H32.92V54.52C32.92 56.16 34.26 57.5 35.9 57.5C37.54 57.5 38.88 56.16 38.88 54.52V43.48C38.88 41.84 37.54 40.5 35.9 40.5C34.26 40.5 32.92 41.84 32.92 43.48V46.02H5.96V30.96H17.5C18.26 30.96 18.95 30.66 19.48 30.19V41.68C19.48 41.83 19.55 41.97 19.66 42.07C19.75 42.14 19.86 42.18 19.98 42.18C20.01 42.18 20.04 42.18 20.07 42.17C25.12 41.2 29.11 37.47 30.71 32.67C31.16 33.74 32.22 34.49 33.46 34.49C35.1 34.49 36.44 33.15 36.44 31.51V30.97H74.03V38.52C74.03 39.28 74.33 39.97 74.8 40.5H63.28C63.13 40.5 62.99 40.57 62.89 40.68C62.79 40.79 62.76 40.95 62.78 41.09C63.94 47.04 68.89 51.5 74.94 52.34ZM69.49 73.03C69.21 73.03 68.99 73.25 68.99 73.53V79H11V73.53C11 73.25 10.78 73.03 10.5 73.03C10.22 73.03 10 73.25 10 73.53V79.5C10 79.78 10.22 80 10.5 80H69.49C69.77 80 69.99 79.78 69.99 79.5V73.53C69.99 73.25 69.77 73.03 69.49 73.03ZM58.21 46.39H55.67C55.07 45.14 54.06 44.13 52.81 43.53V41C52.81 40.72 52.59 40.5 52.31 40.5H48.1C47.82 40.5 47.6 40.72 47.6 41V43.54C46.35 44.14 45.34 45.15 44.74 46.4H42.2C41.92 46.4 41.7 46.62 41.7 46.9V51.11C41.7 51.39 41.92 51.61 42.2 51.61H44.74C45.34 52.86 46.35 53.87 47.6 54.47V57.01C47.6 57.29 47.82 57.51 48.1 57.51H52.31C52.59 57.51 52.81 57.29 52.81 57.01V54.47C54.06 53.87 55.07 52.86 55.67 51.61H58.21C58.49 51.61 58.71 51.39 58.71 51.11V46.9C58.71 46.62 58.49 46.39 58.21 46.39ZM48.6 43.15V41.5H51.81V43.16C51.795 43.155 51.7775 43.1525 51.76 43.15C51.7425 43.1475 51.725 43.145 51.71 43.14C51.52 43.09 51.33 43.05 51.14 43.02C51.11 43.015 51.0775 43.01 51.045 43.005L51.044 43.0049C51.0119 42.9999 50.9797 42.995 50.95 42.99C50.71 42.96 50.46 42.94 50.21 42.94C49.96 42.94 49.71 42.96 49.47 42.99C49.4403 42.9949 49.4082 42.9999 49.3761 43.0048L49.375 43.005L49.3739 43.0052C49.3418 43.0101 49.3097 43.0151 49.28 43.02C49.09 43.05 48.89 43.09 48.71 43.14C48.67 43.14 48.63 43.14 48.6 43.15ZM44.36 50.61H42.7V47.4H44.36C44.355 47.415 44.3525 47.4325 44.35 47.45C44.3475 47.4675 44.345 47.485 44.34 47.5C44.29 47.69 44.25 47.88 44.22 48.07C44.215 48.1 44.21 48.1325 44.205 48.165C44.2 48.1975 44.195 48.23 44.19 48.26C44.16 48.5 44.14 48.75 44.14 49C44.14 49.25 44.16 49.5 44.19 49.74C44.1935 49.7613 44.1971 49.7839 44.2006 49.8068C44.2021 49.8161 44.2035 49.8256 44.205 49.835C44.21 49.8675 44.215 49.9 44.22 49.93C44.25 50.12 44.29 50.32 44.34 50.5C44.3447 50.5188 44.3472 50.5375 44.3495 50.5552C44.3513 50.5683 44.3529 50.5808 44.3553 50.5924C44.3566 50.5986 44.3581 50.6045 44.36 50.61ZM51.82 54.85V56.51H48.6V54.85C48.615 54.855 48.6325 54.8575 48.65 54.86C48.6613 54.8616 48.6725 54.8632 48.6832 54.8655C48.689 54.8668 48.6947 54.8682 48.7 54.87C48.89 54.92 49.09 54.96 49.29 54.99C49.32 54.995 49.3475 55 49.375 55.005C49.4025 55.01 49.43 55.015 49.46 55.02C49.71 55.05 49.95 55.07 50.21 55.07C50.47 55.07 50.71 55.05 50.96 55.02C50.9817 55.0164 51.0021 55.0128 51.0221 55.0092C51.0443 55.0051 51.0661 55.0011 51.0887 54.9971C51.1021 54.9947 51.1158 54.9924 51.13 54.99C51.33 54.96 51.53 54.92 51.72 54.87C51.7362 54.8646 51.7525 54.8621 51.7703 54.8594C51.779 54.858 51.7882 54.8566 51.7978 54.8548C51.8049 54.8535 51.8123 54.8519 51.82 54.85ZM51.79 53.79L51.7382 53.8082C51.5569 53.8719 51.3818 53.9335 51.19 53.97C50.9993 54.0097 50.796 54.0242 50.5951 54.0385C50.5432 54.0422 50.4914 54.0459 50.44 54.05C50.28 54.06 50.12 54.06 49.96 54.05C49.71 54.04 49.45 54.02 49.21 53.97C49.01 53.93 48.81 53.86 48.61 53.79C47.08 53.28 45.89 52.08 45.39 50.54C45.3788 50.5063 45.3672 50.4726 45.3556 50.4389L45.3556 50.4388C45.3052 50.2922 45.2544 50.1444 45.23 49.99C45.17 49.67 45.13 49.34 45.13 49C45.13 48.66 45.17 48.33 45.23 48.01C45.2532 47.8999 45.2864 47.7965 45.32 47.692C45.3444 47.6162 45.369 47.5399 45.39 47.46C45.88 45.93 47.08 44.72 48.61 44.21L48.6618 44.1918C48.8431 44.1281 49.0182 44.0665 49.21 44.03C49.4007 43.9903 49.604 43.9758 49.8049 43.9615C49.8568 43.9578 49.9086 43.9541 49.96 43.95C50.12 43.94 50.28 43.94 50.44 43.95C50.69 43.96 50.95 43.98 51.19 44.03C51.39 44.07 51.59 44.14 51.79 44.21C53.32 44.72 54.51 45.92 55.01 47.46C55.0212 47.4937 55.0328 47.5274 55.0444 47.5611L55.0444 47.5612C55.0948 47.7078 55.1456 47.8556 55.17 48.01C55.23 48.33 55.27 48.66 55.27 49C55.27 49.34 55.23 49.67 55.17 49.99C55.1468 50.1001 55.1136 50.2035 55.08 50.308C55.0556 50.3838 55.031 50.4601 55.01 50.54C54.52 52.08 53.32 53.28 51.79 53.79ZM57.71 50.61H56.05C56.055 50.595 56.0575 50.5775 56.06 50.56C56.0618 50.5475 56.0636 50.5349 56.0663 50.5233C56.0674 50.5187 56.0686 50.5142 56.07 50.51C56.12 50.32 56.16 50.13 56.19 49.94C56.195 49.91 56.2 49.8775 56.205 49.845C56.21 49.8125 56.215 49.78 56.22 49.75C56.25 49.51 56.27 49.26 56.27 49.01C56.27 48.76 56.25 48.51 56.22 48.27C56.215 48.24 56.21 48.2075 56.205 48.175C56.2032 48.1633 56.2014 48.1515 56.1996 48.1399C56.1964 48.1193 56.1932 48.0992 56.19 48.08C56.16 47.89 56.12 47.69 56.07 47.51C56.065 47.495 56.0625 47.4775 56.06 47.46C56.0575 47.4425 56.055 47.425 56.05 47.41H57.71V50.61ZM29.67 56.61H31.31C31.59 56.61 31.81 56.83 31.81 57.11V61.16C31.81 61.44 31.59 61.66 31.31 61.66H22.11C21.83 61.66 21.61 61.44 21.61 61.16V57.11C21.61 56.83 21.83 56.61 22.11 56.61H23.75V54.06C23.75 53.78 23.97 53.56 24.25 53.56H29.17C29.45 53.56 29.67 53.78 29.67 54.06V56.61ZM28.67 54.55H24.75V56.6H28.67V54.55ZM22.61 60.66H30.81V57.61H29.17H24.25H22.61V60.66Z" fill="#555555"/>
</svg>
