<svg width="24" height="24" viewBox="0 0 24 24" fill="none" xmlns="http://www.w3.org/2000/svg">
<path fill-rule="evenodd" clip-rule="evenodd" d="M3 9.5C3 9.78 3.22 10 3.5 10C3.78 10 4 9.78 4 9.5V4H9.5C9.78 4 10 3.78 10 3.5C10 3.22 9.78 3 9.5 3H3.5C3.22 3 3 3.22 3 3.5V9.5ZM20 9.5C20 9.78 20.22 10 20.5 10C20.78 10 21 9.78 21 9.5V3.5C21 3.22 20.78 3 20.5 3H14.5C14.22 3 14 3.22 14 3.5C14 3.78 14.22 4 14.5 4H20V9.5ZM9.5 21H3.5C3.22 21 3 20.78 3 20.5V14.5C3 14.22 3.22 14 3.5 14C3.78 14 4 14.22 4 14.5V20H9.5C9.78 20 10 20.22 10 20.5C10 20.78 9.78 21 9.5 21ZM14.5 21H20.5C20.78 21 21 20.78 21 20.5V14.5C21 14.22 20.78 14 20.5 14C20.22 14 20 14.22 20 14.5V20H14.5C14.22 20 14 20.22 14 20.5C14 20.78 14.22 21 14.5 21Z" fill="#555555"/>
</svg>
