<svg width="24" height="24" viewBox="0 0 24 24" fill="none" xmlns="http://www.w3.org/2000/svg">
<path fill-rule="evenodd" clip-rule="evenodd" d="M5.86999 4.83C5.76999 4.94 5.63999 5 5.49999 5C5.37999 5 5.25999 4.96 5.16999 4.87C4.95999 4.69 4.93999 4.37 5.12999 4.17C6.35999 2.79 8.13999 2 9.99999 2C11.86 2 13.64 2.79 14.88 4.16C15.06 4.37 15.05 4.69 14.84 4.87C14.63 5.05 14.31 5.04 14.13 4.83C13.08 3.67 11.58 3 9.99999 3C8.41999 3 6.91999 3.67 5.86999 4.83ZM13.33 6.37C13.23 6.45 13.12 6.49 13 6.49C12.86 6.49 12.72 6.43 12.62 6.32C11.97 5.56 11.01 5.12 9.99999 5.12C8.98999 5.12 8.02999 5.55 7.37999 6.32C7.19999 6.53 6.87999 6.54999 6.66999 6.37C6.46999 6.19 6.43999 5.88 6.61999 5.67C7.45999 4.68 8.69999 4.12 9.99999 4.12C11.3 4.12 12.54 4.68 13.38 5.66C13.56 5.87 13.54 6.19 13.33 6.37ZM9.99999 6.22998C9.21999 6.22998 8.49999 6.59998 8.08999 7.21998C7.92999 7.44998 7.98999 7.75998 8.21999 7.90998C8.44999 8.06998 8.75999 7.99998 8.90999 7.77998C9.36999 7.09998 10.62 7.09998 11.08 7.77998C11.18 7.91998 11.34 7.99998 11.5 7.99998C11.6 7.99998 11.69 7.96998 11.78 7.90998C12.01 7.75998 12.07 7.43998 11.91 7.21998C11.5 6.59998 10.78 6.22998 9.99999 6.22998ZM17 13.6C18.71 14.31 20.14 15.6 20.95 17.28C21.02 17.42 21.02 17.58 20.95 17.72C19.69 20.32 16.96 22 14 22C11.15 22 8.53 20.43 7.21 18H3.5C3.22 18 3 17.78 3 17.5V12.5C3 11.67 3.67 11 4.5 11H8.07C8.29 10.14 9.07 9.5 10 9.5C10.93 9.5 11.71 10.14 11.93 11H15.5C16.33 11 17 11.67 17 12.5V13.6ZM11 11.5C11 10.95 10.55 10.5 10 10.5C9.45 10.5 9 10.95 9 11.5C9 12.05 9.45 12.5 10 12.5C10.55 12.5 11 12.05 11 11.5ZM4.5 12C4.22 12 4 12.22 4 12.5V17H7.22C7.41 16.65 7.63 16.31 7.87 16H6.5C6.22 16 6 15.78 6 15.5C6 15.22 6.22 15 6.5 15H8.79C10.19 13.75 12.04 13 14 13C14.69 13 15.36 13.1 16 13.27V12.5C16 12.22 15.78 12 15.5 12H11.93C11.71 12.86 10.93 13.5 10 13.5C9.07 13.5 8.29 12.86 8.07 12H4.5ZM8.06 17.5C9.2 19.63 11.5 21 14 21C16.5 21 18.8 19.63 19.94 17.5C18.8 15.37 16.5 14 14 14C11.5 14 9.2 15.37 8.06 17.5ZM14 18.25C14.4142 18.25 14.75 17.9142 14.75 17.5C14.75 17.0858 14.4142 16.75 14 16.75C13.5858 16.75 13.25 17.0858 13.25 17.5C13.25 17.9142 13.5858 18.25 14 18.25ZM13.5 15.5C13.5 15.22 13.72 15 14 15C15.38 15 16.5 16.12 16.5 17.5C16.5 18.88 15.38 20 14 20C12.62 20 11.5 18.88 11.5 17.5C11.5 17.22 11.72 17 12 17C12.28 17 12.5 17.22 12.5 17.5C12.5 18.33 13.17 19 14 19C14.83 19 15.5 18.33 15.5 17.5C15.5 16.67 14.83 16 14 16C13.72 16 13.5 15.78 13.5 15.5Z" fill="#555555"/>
</svg>
