<svg width="24" height="24" viewBox="0 0 24 24" fill="none" xmlns="http://www.w3.org/2000/svg">
<path fill-rule="evenodd" clip-rule="evenodd" d="M7 13H20.5C21.33 13 22 13.67 22 14.5V19.5C22 20.33 21.33 21 20.5 21H20V21.5C20 21.78 19.78 22 19.5 22H16.5C16.22 22 16 21.78 16 21.5V21H8V21.5C8 21.78 7.78 22 7.5 22H4.5C4.22 22 4 21.78 4 21.5V21H3.5C2.67 21 2 20.33 2 19.5V14.5C2 13.67 2.67 13 3.5 13H4V10.5C4 10.22 4.22 10 4.5 10H5V3.85C4.71 3.67 4.5 3.37 4.5 3C4.5 2.45 4.95 2 5.5 2C6.05 2 6.5 2.45 6.5 3C6.5 3.37 6.29 3.67 6 3.85V10H6.5C6.78 10 7 10.22 7 10.5V13ZM6 13V11H5V13H6ZM20.5 20C20.78 20 21 19.78 21 19.5V14.5C21 14.22 20.78 14 20.5 14H3.5C3.22 14 3 14.22 3 14.5V19.5C3 19.78 3.22 20 3.5 20H20.5ZM13.5 15H19.5C19.78 15 20 15.22 20 15.5V18.5C20 18.78 19.78 19 19.5 19H13.5C13.22 19 13 18.78 13 18.5V15.5C13 15.22 13.22 15 13.5 15ZM17 18H19V16H17V18ZM4 18C4 17.45 4.45 17 5 17C5.55 17 6 17.45 6 18C6 18.55 5.55 19 5 19C4.45 19 4 18.55 4 18ZM8 17C7.45 17 7 17.45 7 18C7 18.55 7.45 19 8 19C8.55 19 9 18.55 9 18C9 17.45 8.55 17 8 17ZM14 10.5C14 11.33 14.67 12 15.5 12C16.33 12 17 11.33 17 10.5C17 9.67 16.33 9 15.5 9C14.67 9 14 9.67 14 10.5ZM16 10.5C16 10.78 15.78 11 15.5 11C15.22 11 15 10.78 15 10.5C15 10.22 15.22 10 15.5 10C15.78 10 16 10.22 16 10.5ZM15.5 3C13.5 3 11.61 3.78 10.2 5.2C10 5.39 9.69 5.4 9.49 5.2C9.29 5 9.29 4.69 9.49 4.49C11.1 2.88 13.23 2 15.5 2C17.77 2 19.9 2.88 21.5 4.49C21.7 4.69 21.7 5 21.5 5.2C21.41 5.3 21.27 5.35 21.15 5.35C21.03 5.35 20.9 5.3 20.8 5.2C19.39 3.78 17.5 3 15.5 3ZM20.1 6.61C20.3 6.41 20.3 6.1 20.1 5.9C18.87 4.68 17.24 4 15.5 4C13.76 4 12.13 4.68 10.9 5.9C10.7 6.1 10.7 6.41 10.9 6.61C11 6.71 11.13 6.76 11.26 6.76C11.39 6.76 11.52 6.71 11.61 6.61C12.65 5.57 14.03 5 15.5 5C16.97 5 18.35 5.57 19.39 6.61C19.58 6.81 19.9 6.81 20.1 6.61ZM18.68 8.02C18.59 8.12 18.46 8.17 18.33 8.17C18.2 8.17 18.07 8.12 17.98 8.03C16.66 6.71 14.35 6.71 13.03 8.03C12.83 8.23 12.52 8.23 12.32 8.03C12.12 7.83 12.12 7.52 12.32 7.32C13.17 6.47 14.3 6 15.5 6C16.7 6 17.83 6.47 18.68 7.31C18.88 7.51 18.88 7.82 18.68 8.02ZM14 16V18H16V16H14Z" fill="#555555"/>
</svg>
