<svg width="24" height="24" viewBox="0 0 24 24" fill="none" xmlns="http://www.w3.org/2000/svg">
<path fill-rule="evenodd" clip-rule="evenodd" d="M5 12C5 15.8594 8.14014 19 12 19C15.8594 19 19 15.8594 19 12C19 8.14062 15.8594 5 12 5C8.14014 5 5 8.14062 5 12ZM6 12C6 8.69141 8.69141 6 12 6C15.3086 6 18 8.69141 18 12C18 15.3086 15.3086 18 12 18C8.69141 18 6 15.3086 6 12ZM13 14H12C12 12.8035 12.631 12.1737 13.1384 11.6672L13.1406 11.665C13.6211 11.1875 14 10.8096 14 10C14 8.87891 13.1211 8 12 8C11.2266 8 10 8.54297 10 10H9C9 8.12207 10.5254 7 12 7C13.6826 7 15 8.31738 15 10C15 11.2246 14.3603 11.8623 13.8467 12.374C13.373 12.8447 13 13.2168 13 14ZM13 15H12V17H13V15Z" fill="#555555"/>
</svg>
