<svg width="24" height="24" viewBox="0 0 24 24" fill="none" xmlns="http://www.w3.org/2000/svg">
<path fill-rule="evenodd" clip-rule="evenodd" d="M5.03887 11.33C5.38867 7.23 8.82676 4 13.0044 4C17.412 4 21 7.59 21 12C21 16.41 17.412 20 13.0044 20C10.0961 20 7.41755 18.42 5.99833 15.87C5.86841 15.63 5.95836 15.32 6.19822 15.19C6.43809 15.06 6.74792 15.15 6.87785 15.39C8.0372 17.47 10.156 18.8 12.5047 18.97V18.5C12.5047 18.22 12.7246 18 13.0044 18C13.2843 18 13.5042 18.22 13.5042 18.5V18.97C16.9622 18.73 19.7207 15.96 19.9706 12.5H19.5008C19.221 12.5 19.0011 12.28 19.0011 12C19.0011 11.72 19.221 11.5 19.5008 11.5H19.9706C19.7307 8.04 16.9622 5.28 13.5042 5.03V5.5C13.5042 5.78 13.2843 6 13.0044 6C12.7246 6 12.5047 5.78 12.5047 5.5V5.03C9.08662 5.27 6.33815 7.98 6.03831 11.38L7.47751 10.12C7.6874 9.94 8.00722 9.96 8.18712 10.17C8.36702 10.38 8.34703 10.7 8.13715 10.88L5.83842 12.88C5.73848 12.96 5.62854 13 5.50861 13C5.37868 13 5.24875 12.95 5.14881 12.86L3.14992 10.86C2.95003 10.66 2.95003 10.35 3.14992 10.15C3.34981 9.95 3.65963 9.95 3.85952 10.15L5.03887 11.33ZM12.5047 7C12.5047 6.72 12.7246 6.5 13.0045 6.5C13.2843 6.5 13.5042 6.72 13.5042 7V10.59C14.0839 10.8 14.5036 11.35 14.5036 12C14.5036 12.23 14.4437 12.45 14.3437 12.64L15.8429 14.14C16.0428 14.34 16.0428 14.65 15.8429 14.85C15.7529 14.95 15.613 15 15.4931 15C15.3731 15 15.2432 14.95 15.1433 14.85L13.6441 13.35C13.4542 13.44 13.2343 13.5 13.0045 13.5C12.1749 13.5 11.5053 12.83 11.5053 12C11.5053 11.35 11.9251 10.8 12.5047 10.59V7ZM13.0045 11.5C12.7246 11.5 12.5047 11.72 12.5047 12C12.5047 12.28 12.7246 12.5 13.0045 12.5C13.1444 12.5 13.2643 12.44 13.3543 12.35C13.4442 12.26 13.5042 12.14 13.5042 12C13.5042 11.72 13.2843 11.5 13.0045 11.5Z" fill="#555555"/>
</svg>
