<svg width="24" height="24" viewBox="0 0 24 24" fill="none" xmlns="http://www.w3.org/2000/svg">
<path fill-rule="evenodd" clip-rule="evenodd" d="M19.85 6.15L15.85 2.15C15.76 2.05 15.63 2 15.5 2H4.5C4.22 2 4 2.22 4 2.5V11.5C4 11.78 4.22 12 4.5 12C4.78 12 5 11.78 5 11.5V3H15V6.5C15 6.78 15.22 7 15.5 7H19V11.5C19 11.78 19.22 12 19.5 12C19.78 12 20 11.78 20 11.5V6.5C20 6.37 19.95 6.24 19.85 6.15ZM16 3.71L18.29 6H16V3.71ZM19.5 19C19.22 19 19 19.22 19 19.5V21H5V19.5C5 19.22 4.78 19 4.5 19C4.22 19 4 19.22 4 19.5V21.5C4 21.78 4.22 22 4.5 22H19.5C19.78 22 20 21.78 20 21.5V19.5C20 19.22 19.78 19 19.5 19ZM6.46 15.84H4.99V17.56H4V13.44H4.99V15.07H6.46V13.44H7.44V17.56H6.46V15.84ZM8 14.2H9.21V17.56H10.2V14.2H11.44V13.44H8V14.2ZM12.99 17.56H11.99V13.44H13.3L14.22 16.31L15.14 13.44H16.44V17.56H15.45V16.6L15.54 14.63L14.55 17.56H13.89L12.89 14.62L12.99 16.6V17.56ZM18.27 13.44H17.28V17.56H20V16.8H18.27V13.44ZM8.08 7.22002C8.24 6.99002 8.55 6.93002 8.78 7.08002C9.01 7.24002 9.07 7.55002 8.91 7.78002L8.1 9.00002L8.92 10.23C9.07 10.46 9.01 10.77 8.78 10.92C8.69 10.97 8.6 11 8.5 11C8.34 11 8.18 10.92 8.08 10.77L7.08 9.27002C6.97 9.11002 6.97 8.89002 7.08 8.72002L8.08 7.22002ZM13.22 10.92C13.31 10.97 13.4 11 13.5 11C13.66 11 13.82 10.92 13.92 10.78L14.92 9.28001C15.03 9.11001 15.03 8.89001 14.92 8.73001L13.92 7.23001C13.76 6.99001 13.45 6.93001 13.22 7.08001C12.99 7.24001 12.93 7.55001 13.08 7.78001L13.9 9.00001L13.08 10.22C12.93 10.45 12.99 10.76 13.22 10.92ZM10.99 11.6C10.94 11.84 10.73 12 10.5 12C10.47 12 10.44 12 10.4 11.99C10.13 11.94 9.95999 11.67 10.01 11.4L11.01 6.39997C11.06 6.12997 11.32 5.94997 11.6 6.00997C11.87 6.05997 12.04 6.32997 11.99 6.59997L10.99 11.6Z" fill="#555555"/>
</svg>
