<svg width="24" height="24" viewBox="0 0 24 24" fill="none" xmlns="http://www.w3.org/2000/svg">
<path fill-rule="evenodd" clip-rule="evenodd" d="M5 14.9979C5 19.0548 7.94385 22 12 22C16.0556 22 19 19.0548 19 14.9979C19 8.85943 12.625 2.41222 12.3535 2.14066C12.166 1.95311 11.834 1.95311 11.6465 2.14066C11.375 2.41222 5 8.85942 5 14.9979ZM6 14.9979C6 10.0707 10.6631 4.66776 12 3.22105C13.3369 4.66777 18 10.0707 18 14.9979C18 18.9386 14.9815 20.9997 12 20.9997C9.01855 20.9997 6 18.9386 6 14.9979ZM11.5 18.499C11.5 18.7754 11.7236 18.9991 12 18.9991V18.9991C13.9268 18.9991 16 17.7468 16 14.9979C16 12.168 14.042 8.97956 12.3989 6.80314C12.2329 6.58238 11.9189 6.54037 11.6987 6.70546C11.4785 6.8725 11.4346 7.18607 11.6011 7.40684C12.8706 9.088 15 12.3106 15 14.9979C15 17.2125 13.3838 17.9988 12 17.9988C11.7236 17.9988 11.5 18.2225 11.5 18.499Z" fill="#555555"/>
</svg>
