<svg width="24" height="24" viewBox="0 0 24 24" fill="none" xmlns="http://www.w3.org/2000/svg">
<path fill-rule="evenodd" clip-rule="evenodd" d="M12 5C8.14 5 5 8.14 5 12C5 15.86 8.14 19 12 19C15.86 19 19 15.86 19 12C19 8.14 15.86 5 12 5ZM12 18C8.69 18 6 15.31 6 12C6 8.69 8.69 6 12 6C15.31 6 18 8.69 18 12C18 15.31 15.31 18 12 18ZM12 10C12.5523 10 13 9.55228 13 9C13 8.44772 12.5523 8 12 8C11.4477 8 11 8.44772 11 9C11 9.55228 11.4477 10 12 10ZM12.5 12.5V15H13.5C13.78 15 14 15.22 14 15.5C14 15.78 13.78 16 13.5 16H10.5C10.22 16 10 15.78 10 15.5C10 15.22 10.22 15 10.5 15H11.5V13H10.5C10.22 13 10 12.78 10 12.5C10 12.22 10.22 12 10.5 12H12C12.28 12 12.5 12.22 12.5 12.5Z" fill="#555555"/>
</svg>
