<svg width="24" height="24" viewBox="0 0 24 24" fill="none" xmlns="http://www.w3.org/2000/svg">
<path fill-rule="evenodd" clip-rule="evenodd" d="M2 12C2 6.49 6.49 2 12 2C17.51 2 22 6.49 22 12C22 17.51 17.51 22 12 22C6.49 22 2 17.51 2 12ZM3 12C3 16.96 7.04 21 12 21C16.96 21 21 16.96 21 12C21 7.04 16.96 3 12 3C7.04 3 3 7.04 3 12ZM12 9C13.1 9 14 8.1 14 7C14 5.9 13.1 5 12 5C10.9 5 10 5.9 10 7C10 8.1 10.9 9 12 9ZM12 6C12.55 6 13 6.45 13 7C13 7.55 12.55 8 12 8C11.45 8 11 7.55 11 7C11 6.45 11.45 6 12 6ZM14.5 17H14V11.5C14 11.22 13.78 11 13.5 11H9.5C9.22 11 9 11.22 9 11.5C9 11.78 9.22 12 9.5 12H10V17H9.5C9.22 17 9 17.22 9 17.5C9 17.78 9.22 18 9.5 18H14.5C14.78 18 15 17.78 15 17.5C15 17.22 14.78 17 14.5 17ZM13 12V17H11V12H13Z" fill="#555555"/>
</svg>
