<svg width="24" height="24" viewBox="0 0 24 24" fill="none" xmlns="http://www.w3.org/2000/svg">
<path fill-rule="evenodd" clip-rule="evenodd" d="M19.7611 18.0984L21.7901 19.599C21.92 19.689 22 19.8391 22 19.9992C22 20.1592 21.93 20.3093 21.8001 20.3993L19.7711 21.9C19.6812 21.97 19.5712 22 19.4713 22C19.3213 22 19.1714 21.93 19.0715 21.7999C18.9015 21.5798 18.9515 21.2597 19.1714 21.0996L19.981 20.4994H2.49975C2.21989 20.4994 2 20.2793 2 19.9992C2 19.719 2.21989 19.499 2.49975 19.499H7.57721C4.90855 18.0684 3.08946 15.2372 3.08946 11.9958C3.08946 8.90451 4.76862 6.05331 7.45727 4.55269C7.69715 4.42263 7.997 4.50266 8.12694 4.75277C8.26687 4.99287 8.17691 5.293 7.94703 5.43305C5.57821 6.75361 4.09895 9.26466 4.09895 11.9958C4.09895 16.1375 7.43728 19.499 11.5552 19.499C15.6632 19.499 19.0115 16.1375 19.0115 11.9958C19.0115 8.04415 15.953 4.80279 12.085 4.52267L12.8446 5.09291C13.0645 5.26298 13.1044 5.57311 12.9445 5.79321C12.8446 5.92326 12.6947 5.99329 12.5447 5.99329C12.4348 5.99329 12.3348 5.96328 12.2449 5.89325L10.2559 4.39262C10.1259 4.30258 10.056 4.15252 10.056 3.99245C10.056 3.83238 10.1259 3.68232 10.2559 3.59228L12.2349 2.10166C12.4548 1.93159 12.7646 1.98161 12.9345 2.2017C13.0945 2.42179 13.0545 2.73192 12.8346 2.90199L12.005 3.52225C16.4428 3.77236 19.991 7.47391 19.991 12.0058C19.991 15.2472 18.1719 18.0784 15.5032 19.509H19.971L19.1614 18.9087C18.9415 18.7486 18.9015 18.4285 19.0615 18.2084C19.2314 17.9783 19.5412 17.9383 19.7611 18.0984ZM7.21738 12.8561C7.02747 12.656 7.02747 12.3459 7.21738 12.1458C7.40729 11.9457 7.72713 11.9457 7.91703 12.1358L9.55621 13.7865L15.1734 8.13414C15.3633 7.93405 15.6831 7.93405 15.8731 8.13414C16.063 8.33422 16.063 8.64435 15.8731 8.84444L9.90604 14.847C9.81608 14.947 9.68615 14.997 9.55621 14.997C9.42628 14.997 9.29634 14.947 9.20639 14.857L7.21738 12.8561Z" fill="#555555"/>
</svg>
