<svg width="24" height="24" viewBox="0 0 24 24" fill="none" xmlns="http://www.w3.org/2000/svg">
<path fill-rule="evenodd" clip-rule="evenodd" d="M9.5 18C9.22363 18 9 17.7764 9 17.5V16C9 14.8711 8.32227 14.248 7.46387 13.46C6.36621 12.4522 5 11.1973 5 8.5C5 5.78613 7.66309 2 12 2C16.3369 2 19 5.78613 19 8.5C19 11.1973 17.6338 12.4522 16.5361 13.46C15.6777 14.248 15 14.8711 15 16V17.5C15 17.7764 14.7764 18 14.5 18H9.5ZM10 17H14V16C14 14.432 14.9448 13.5639 15.8587 12.7243L15.8594 12.7236L15.8595 12.7235C16.9122 11.7568 18 10.7577 18 8.5C18 6.25781 15.6631 3 12 3C8.3374 3 6 6.25781 6 8.5C6 10.7573 7.0874 11.7564 8.13943 12.723L8.14014 12.7236C9.05469 13.5635 10 14.4316 10 16V17ZM14.5 20C14.7764 20 15 19.7764 15 19.5C15 19.2236 14.7764 19 14.5 19H9.5C9.22363 19 9 19.2236 9 19.5C9 19.7764 9.22363 20 9.5 20H14.5ZM13.5 22C13.7764 22 14 21.7764 14 21.5C14 21.2236 13.7764 21 13.5 21H10.5C10.2236 21 10 21.2236 10 21.5C10 21.7764 10.2236 22 10.5 22H13.5ZM15 8.5C15 8.77637 15.2236 9 15.5 9C15.7764 9 16 8.77637 16 8.5C16 7.3125 14.5884 5 12 5C11.7236 5 11.5 5.22363 11.5 5.5C11.5 5.77637 11.7236 6 12 6C14.0649 6 15 7.91797 15 8.5Z" fill="#555555"/>
</svg>
