<svg width="24" height="24" viewBox="0 0 24 24" fill="none" xmlns="http://www.w3.org/2000/svg">
<path fill-rule="evenodd" clip-rule="evenodd" d="M9.49453 14.5218C10.4852 15.5115 11.7761 16.0014 13.077 16.0014C14.3679 16.0014 15.6688 15.5115 16.6495 14.5218L19.5215 11.6526C21.4928 9.67314 21.4928 6.46404 19.5215 4.48459C17.5501 2.50514 14.3279 2.50514 12.3565 4.48459L10.6453 6.19411C10.4452 6.39406 10.4452 6.70397 10.6453 6.90391C10.8455 7.10386 11.1557 7.10386 11.3558 6.90391L13.077 5.19439C14.6581 3.61483 17.2399 3.61483 18.831 5.19439C20.4221 6.77395 20.4221 9.35323 18.831 10.9428L15.959 13.812C14.3779 15.3916 11.7961 15.3916 10.205 13.812C10.0049 13.612 9.69467 13.612 9.49453 13.812C9.29439 14.0119 9.29439 14.3218 9.49453 14.5218ZM10.9055 13.1022C11.4859 13.682 12.2564 14.0019 13.077 14.0019C13.8975 14.0019 14.6581 13.682 15.2485 13.1022L18.1205 10.233C19.3213 9.03332 19.3213 7.09385 18.1205 5.89419C16.9597 4.73451 14.9383 4.73451 13.7775 5.89419L13.0269 6.64398C12.8268 6.84392 12.8268 7.15384 13.0269 7.35378C13.2271 7.55373 13.5373 7.55373 13.7374 7.35378L14.488 6.60399C15.2685 5.82421 16.6294 5.82421 17.41 6.60399C18.2205 7.40377 18.2205 8.7134 17.41 9.52318L14.538 12.3924C13.7575 13.1722 12.3965 13.1722 11.616 12.3924C11.4158 12.1924 11.1056 12.1924 10.9055 12.3924C10.7053 12.5923 10.7053 12.9022 10.9055 13.1022ZM8.07352 21C6.77261 21 5.48172 20.5101 4.49103 19.5204C3.53037 18.5607 3 17.291 3 15.9414C3 14.5918 3.53037 13.3121 4.48103 12.3624L7.35302 9.4932C9.32438 7.51375 12.5466 7.51375 14.518 9.4932C14.7181 9.69315 14.7181 10.0031 14.518 10.203C14.3178 10.4029 14.0076 10.4029 13.8075 10.203C12.2164 8.62345 9.6346 8.62345 8.0535 10.203L5.18151 13.0722C4.42098 13.832 4.00069 14.8517 4.00069 15.9414C4.00069 17.0311 4.42098 18.0508 5.19152 18.8206C6.78262 20.4002 9.36441 20.4002 10.9455 18.8206L12.6567 17.1111C12.8568 16.9111 13.167 16.9111 13.3672 17.1111C13.5673 17.311 13.5673 17.6209 13.3672 17.8209L11.656 19.5304C10.6653 20.5101 9.36441 21 8.07352 21ZM5.90203 18.1008C6.48243 18.6806 7.25296 19.0006 8.07353 19.0006C8.8941 19.0006 9.65463 18.6806 10.235 18.1008L10.9856 17.361C11.1857 17.1611 11.1857 16.8511 10.9856 16.6512C10.7854 16.4513 10.4752 16.4513 10.2751 16.6512L9.52454 17.401C8.744 18.1808 7.38305 18.1808 6.60251 17.401C5.79195 16.6012 5.79195 15.2916 6.60251 14.4818L9.48451 11.6126C10.2651 10.8328 11.626 10.8328 12.4065 11.6126C12.6067 11.8126 12.9169 11.8126 13.117 11.6126C13.3172 11.4127 13.3172 11.1027 13.117 10.9028C11.9562 9.74313 9.93482 9.74313 8.77402 10.9028L5.90203 13.762C4.7012 14.9617 4.7012 16.9011 5.90203 18.1008Z" fill="#555555"/>
</svg>
