<svg width="24" height="24" viewBox="0 0 24 24" fill="none" xmlns="http://www.w3.org/2000/svg">
<path fill-rule="evenodd" clip-rule="evenodd" d="M3.5 5C2.67 5 2 4.33 2 3.5C2 2.67 2.67 2 3.5 2C4.33 2 5 2.67 5 3.5C5 4.33 4.33 5 3.5 5ZM3.5 3C3.22 3 3 3.22 3 3.5C3 3.78 3.22 4 3.5 4C3.78 4 4 3.78 4 3.5C4 3.22 3.78 3 3.5 3ZM17.5 4H6.5C6.22 4 6 3.78 6 3.5C6 3.22 6.22 3 6.5 3H17.5C17.78 3 18 3.22 18 3.5C18 3.78 17.78 4 17.5 4ZM6.5 9H17.5C17.78 9 18 8.78 18 8.5C18 8.22 17.78 8 17.5 8H6.5C6.22 8 6 8.22 6 8.5C6 8.78 6.22 9 6.5 9ZM3.5 10C2.67 10 2 9.33 2 8.5C2 7.67 2.67 7 3.5 7C4.33 7 5 7.67 5 8.5C5 9.33 4.33 10 3.5 10ZM3.5 8C3.22 8 3 8.22 3 8.5C3 8.78 3.22 9 3.5 9C3.78 9 4 8.78 4 8.5C4 8.22 3.78 8 3.5 8ZM6.5 14H9.45C9.72 14 9.95 13.78 9.95 13.5C9.95 13.22 9.73 13 9.45 13H6.5C6.22 13 6 13.22 6 13.5C6 13.78 6.22 14 6.5 14ZM3.5 15C2.67 15 2 14.33 2 13.5C2 12.67 2.67 12 3.5 12C4.33 12 5 12.67 5 13.5C5 14.33 4.33 15 3.5 15ZM3.5 13C3.22 13 3 13.22 3 13.5C3 13.78 3.22 14 3.5 14C3.78 14 4 13.78 4 13.5C4 13.22 3.78 13 3.5 13ZM9.04 17.7C10.21 20.31 12.74 22 15.5 22C18.26 22 20.79 20.31 21.96 17.7C22.02 17.57 22.02 17.42 21.96 17.29C20.79 14.68 18.26 12.99 15.5 12.99C12.74 12.99 10.2 14.68 9.04 17.29C8.98 17.42 8.98 17.57 9.04 17.7ZM15.5 21C13.21 21 11.09 19.63 10.05 17.5C11.09 15.37 13.21 14 15.5 14C17.79 14 19.91 15.37 20.95 17.5C19.91 19.63 17.79 21 15.5 21ZM15.5 20C14.12 20 13 18.88 13 17.5C13 17.22 13.22 17 13.5 17C13.78 17 14 17.22 14 17.5C14 18.33 14.67 19 15.5 19C16.33 19 17 18.33 17 17.5C17 16.67 16.33 16 15.5 16C15.22 16 15 15.78 15 15.5C15 15.22 15.22 15 15.5 15C16.88 15 18 16.12 18 17.5C18 18.88 16.88 20 15.5 20ZM16 17.5C16 17.7761 15.7761 18 15.5 18C15.2239 18 15 17.7761 15 17.5C15 17.2239 15.2239 17 15.5 17C15.7761 17 16 17.2239 16 17.5Z" fill="#555555"/>
</svg>
