<svg width="24" height="24" viewBox="0 0 24 24" fill="none" xmlns="http://www.w3.org/2000/svg">
<path fill-rule="evenodd" clip-rule="evenodd" d="M12 20C11.89 20 11.77 19.96 11.68 19.88C11.4 19.65 5 14.17 5 9C5 5.14 8.14 2 12 2C15.86 2 19 5.14 19 9C19 14.17 12.6 19.65 12.32 19.88C12.23 19.96 12.11 20 12 20ZM12 3C8.69 3 6 5.69 6 9C6 13.09 10.71 17.66 12 18.83C13.29 17.66 18 13.08 18 9C18 5.69 15.31 3 12 3ZM12 12C10.35 12 9 10.65 9 9C9 7.35 10.35 6 12 6C13.65 6 15 7.35 15 9C15 10.65 13.65 12 12 12ZM12 7C10.9 7 10 7.9 10 9C10 10.1 10.9 11 12 11C13.1 11 14 10.1 14 9C14 7.9 13.1 7 12 7ZM7 21.5C7 21.78 7.22 22 7.5 22H16.5C16.78 22 17 21.78 17 21.5C17 21.22 16.78 21 16.5 21H7.5C7.22 21 7 21.22 7 21.5Z" fill="#555555"/>
</svg>
