<svg width="24" height="24" viewBox="0 0 24 24" fill="none" xmlns="http://www.w3.org/2000/svg">
<path fill-rule="evenodd" clip-rule="evenodd" d="M19.85 6.15C19.9 6.19 19.93 6.25 19.96 6.31C19.99 6.37 20 6.43 20 6.5V21.5C20 21.78 19.78 22 19.5 22H4.5C4.22 22 4 21.78 4 21.5V2.5C4 2.22 4.22 2 4.5 2H15.5C15.57 2 15.63 2.01 15.69 2.04C15.75 2.07 15.8 2.1 15.85 2.15L19.85 6.15ZM18.29 6L16 3.71V6H18.29ZM5 3V21H19V7H15.5C15.22 7 15 6.78 15 6.5V3H5ZM6.47 12.38H7.49V15.86H9.28V16.65H6.47V12.38ZM12.51 12.5799C12.23 12.4099 11.9 12.3199 11.54 12.3199C11.17 12.3199 10.85 12.4099 10.56 12.5799C10.27 12.7499 10.05 12.9999 9.90001 13.3199C9.75001 13.6399 9.67001 14.0099 9.67001 14.4299V14.6699C9.68001 15.0699 9.76001 15.4299 9.92001 15.7399C10.08 16.0499 10.3 16.2899 10.58 16.4599C10.86 16.6299 11.18 16.7099 11.55 16.7099C11.91 16.7099 12.24 16.6199 12.52 16.4499C12.8 16.2799 13.02 16.0299 13.18 15.7099C13.34 15.3899 13.41 15.0199 13.41 14.6099V14.4099C13.41 13.9999 13.33 13.6399 13.17 13.3199C13.01 12.9999 12.8 12.7499 12.51 12.5799ZM12.37 14.6199C12.37 15.0299 12.3 15.3499 12.16 15.5699C12.02 15.7899 11.82 15.8999 11.56 15.8999C11.29 15.8999 11.08 15.7899 10.94 15.5599C10.8 15.3299 10.73 15.0099 10.73 14.5999V14.2899C10.76 13.5199 11.03 13.1299 11.55 13.1299C11.81 13.1299 12.02 13.2399 12.16 13.4599C12.3 13.6799 12.37 13.9999 12.37 14.4199V14.6199ZM16.55 15.0799H15.84H15.83V14.3699H17.57V16.1199C17.42 16.2899 17.18 16.4299 16.88 16.5399C16.58 16.6499 16.24 16.6999 15.88 16.6999C15.32 16.6999 14.87 16.5299 14.54 16.1899C14.2 15.8399 14.02 15.3699 14 14.7599V14.3899C14 13.9699 14.07 13.5999 14.22 13.2899C14.37 12.9799 14.58 12.7399 14.86 12.5699C15.14 12.3999 15.46 12.3199 15.82 12.3199C16.35 12.3199 16.77 12.4399 17.06 12.6799C17.35 12.9299 17.52 13.2899 17.57 13.7699H16.58C16.54 13.5299 16.47 13.3599 16.35 13.2599C16.23 13.1599 16.06 13.1099 15.85 13.1099C15.59 13.1099 15.39 13.2199 15.25 13.4399C15.11 13.6599 15.04 13.9699 15.04 14.3799V14.6399C15.04 15.0699 15.11 15.3899 15.26 15.5999C15.41 15.8099 15.64 15.9199 15.95 15.9199C16.22 15.9199 16.42 15.8599 16.55 15.7399V15.0799Z" fill="#555555"/>
</svg>
