<svg width="24" height="24" viewBox="0 0 24 24" fill="none" xmlns="http://www.w3.org/2000/svg">
<path fill-rule="evenodd" clip-rule="evenodd" d="M11.5 12.5C11.5 12.78 11.72 13 12 13C12.28 13 12.5 12.78 12.5 12.5V3.5C12.5 3.22 12.28 3 12 3C11.72 3 11.5 3.22 11.5 3.5V12.5ZM4 13C4 17.41 7.59 21 12 21C16.41 21 20 17.41 20 13C20 10.06 18.41 7.47 15.74 6.05C15.49 5.92 15.19 6.01 15.06 6.26C14.93 6.51 15.03 6.81 15.27 6.94C17.6 8.18 19 10.44 19 13C19 16.86 15.86 20 12 20C8.14 20 5 16.86 5 13C5 10.44 6.4 8.18 8.74 6.95C8.99 6.82 9.08 6.51 8.95 6.27C8.82 6.02 8.52 5.93 8.27 6.06C5.59 7.47 4 10.07 4 13Z" fill="#555555"/>
</svg>
