<svg width="24" height="24" viewBox="0 0 24 24" fill="none" xmlns="http://www.w3.org/2000/svg">
<path fill-rule="evenodd" clip-rule="evenodd" d="M7.5 8C7.78 8 8 7.78 8 7.5V4.5C8 4.22 7.78 4 7.5 4H4.5C4.22 4 4 4.22 4 4.5V7.5C4 7.78 4.22 8 4.5 8H7.5ZM7 5V7H5V5H7ZM10.5 8H13.5C13.78 8 14 7.78 14 7.5V4.5C14 4.22 13.78 4 13.5 4H10.5C10.22 4 10 4.22 10 4.5V7.5C10 7.78 10.22 8 10.5 8ZM13 7H11V5H13V7ZM19.5 8H16.5C16.22 8 16 7.78 16 7.5V4.5C16 4.22 16.22 4 16.5 4H19.5C19.78 4 20 4.22 20 4.5V7.5C20 7.78 19.78 8 19.5 8ZM17 7H19V5H17V7ZM7.5 14C7.78 14 8 13.78 8 13.5V10.5C8 10.22 7.78 10 7.5 10H4.5C4.22 10 4 10.22 4 10.5V13.5C4 13.78 4.22 14 4.5 14H7.5ZM5 13V11H7V13H5ZM13.5 14H10.5C10.22 14 10 13.78 10 13.5V10.5C10 10.22 10.22 10 10.5 10H13.5C13.78 10 14 10.22 14 10.5V13.5C14 13.78 13.78 14 13.5 14ZM11 13H13V11H11V13ZM7.5 20C7.78 20 8 19.78 8 19.5V16.5C8 16.22 7.78 16 7.5 16H4.5C4.22 16 4 16.22 4 16.5V19.5C4 19.78 4.22 20 4.5 20H7.5ZM5 19V17H7V19H5ZM14 19.5C14 19.78 13.78 20 13.5 20H10.5C10.22 20 10 19.78 10 19.5V16.5C10 16.22 10.22 16 10.5 16H13.5C13.78 16 14 16.22 14 16.5V19.5ZM11 19H13V17H11V19ZM19.5 20C19.78 20 20 19.78 20 19.5V16.5C20 16.22 19.78 16 19.5 16H16.5C16.22 16 16 16.22 16 16.5V19.5C16 19.78 16.22 20 16.5 20H19.5ZM6 6.5C6.27614 6.5 6.5 6.27614 6.5 6C6.5 5.72386 6.27614 5.5 6 5.5C5.72386 5.5 5.5 5.72386 5.5 6C5.5 6.27614 5.72386 6.5 6 6.5ZM16.5 14H19.5C19.78 14 20 13.78 20 13.5V10.5C20 10.22 19.78 10 19.5 10H16.5C16.22 10 16 10.22 16 10.5V13.5C16 13.78 16.22 14 16.5 14ZM19 13H17V11H19V13ZM18 12.5C18.2761 12.5 18.5 12.2761 18.5 12C18.5 11.7239 18.2761 11.5 18 11.5C17.7239 11.5 17.5 11.7239 17.5 12C17.5 12.2761 17.7239 12.5 18 12.5ZM17 19V17H19V19H17ZM12.5 18C12.5 18.2761 12.2761 18.5 12 18.5C11.7239 18.5 11.5 18.2761 11.5 18C11.5 17.7239 11.7239 17.5 12 17.5C12.2761 17.5 12.5 17.7239 12.5 18Z" fill="#555555"/>
</svg>
