<svg width="24" height="24" viewBox="0 0 24 24" fill="none" xmlns="http://www.w3.org/2000/svg">
<path fill-rule="evenodd" clip-rule="evenodd" d="M19.85 6.15L15.85 2.15C15.76 2.05 15.63 2 15.5 2H4.5C4.22 2 4 2.22 4 2.5V21.5C4 21.78 4.22 22 4.5 22H19.5C19.78 22 20 21.78 20 21.5V6.5C20 6.37 19.95 6.24 19.85 6.15ZM16 3.71L18.29 6H16V3.71ZM5 21V3H15V6.5C15 6.78 15.22 7 15.5 7H19V21H5ZM9.94999 15.35L8.99999 12.38H7.64999V16.65H8.67999V15.65L8.57999 13.61L9.60999 16.65H10.29L11.32 13.61L11.22 15.65V16.65H12.25V12.38H10.9L9.94999 15.35ZM14.49 12.38C14.87 12.38 15.21 12.47 15.51 12.64C15.81 12.81 16.04 13.04 16.21 13.35C16.38 13.66 16.47 14.01 16.47 14.4V14.6C16.47 14.99 16.39 15.34 16.22 15.65C16.05 15.96 15.82 16.21 15.52 16.38C15.22 16.56 14.89 16.65 14.52 16.65H13.12V12.38H14.49ZM15.18 15.55C15.34 15.34 15.42 15.02 15.42 14.61V14.42C15.42 14.01 15.34 13.7 15.18 13.49C15.02 13.28 14.79 13.18 14.49 13.18H14.14V15.86H14.5C14.8 15.86 15.02 15.76 15.18 15.55Z" fill="#555555"/>
</svg>
