<svg width="24" height="24" viewBox="0 0 24 24" fill="none" xmlns="http://www.w3.org/2000/svg">
<path fill-rule="evenodd" clip-rule="evenodd" d="M21.85 9.78994L14.77 2.72412C14.62 2.584 14.42 2.43388 14.19 2.30377C13.94 2.16366 13.66 2.06358 13.36 2.02354C12.72 1.93347 12.05 2.10361 11.52 2.50394C10.98 2.89426 10.64 3.48475 10.54 4.13528L9.18 14.1635L5.68 10.6607C5.48 10.4605 5.17 10.4605 4.97 10.6607L2.15 13.493C2.05 13.5831 2 13.7132 2 13.8433C2 13.9734 2.05 14.1035 2.15 14.1936L9.22 21.2694C9.69 21.7398 10.31 22 10.98 22H10.99C11.66 22 12.29 21.7398 12.75 21.2794C13.07 20.9591 13.28 20.5688 13.39 20.1385C13.3949 20.119 13.4003 20.099 13.4059 20.0784C13.4234 20.0141 13.4424 19.944 13.45 19.8682L14.81 9.82997L18.31 13.3229C18.41 13.4229 18.54 13.473 18.66 13.473C18.78 13.473 18.92 13.4229 19.01 13.3229L21.84 10.4905C21.95 10.4004 22 10.2703 22 10.1402C22 10.0101 21.95 9.88002 21.85 9.78994ZM11.53 4.2754C11.59 3.88508 11.8 3.53479 12.12 3.29459C12.44 3.05439 12.84 2.9443 13.23 3.00435C14.03 3.11444 14.62 3.89508 14.51 4.70575L12.74 17.7265L11.76 16.7457C11.83 16.6756 11.89 16.5755 11.9 16.4654C11.94 16.1952 11.75 15.935 11.47 15.905L10.82 15.7949L10.07 15.0443L10.12 14.684L11.11 14.8241H11.18C11.43 14.8241 11.64 14.6439 11.67 14.3937C11.71 14.1235 11.52 13.8633 11.24 13.8333L10.25 13.6932L10.38 12.7023L11.86 12.9125H11.93C12.18 12.9125 12.39 12.7324 12.42 12.4822C12.46 12.2119 12.27 11.9517 11.99 11.9217L10.52 11.7115L10.65 10.7207L11.64 10.8608H11.71C11.96 10.8608 12.17 10.6807 12.2 10.4305C12.24 10.1602 12.05 9.90003 11.77 9.87001L10.79 9.72989L10.92 8.73908L12.4 8.94925H12.47C12.72 8.94925 12.93 8.7691 12.96 8.51889C13 8.24867 12.81 7.98846 12.53 7.95843L11.06 7.74826L11.53 4.2754ZM10.99 20.9992C10.58 20.9992 10.21 20.8491 9.93 20.5688L8.87 19.5079L9.93 18.4471C10.13 18.2469 10.13 17.9367 9.93 17.7365C9.73 17.5363 9.42 17.5363 9.22 17.7365L8.16 18.7974L7.45 18.0868L8.16 17.3762C8.36 17.176 8.36 16.8658 8.16 16.6656C7.96 16.4654 7.65 16.4654 7.45 16.6656L6.74 17.3762L6.03 16.6656L7.09 15.6047C7.29 15.4046 7.29 15.0943 7.09 14.8941C6.89 14.694 6.58 14.694 6.38 14.8941L5.32 15.955L4.61 15.2444L5.32 14.5338C5.52 14.3337 5.52 14.0234 5.32 13.8233C5.12 13.6231 4.81 13.6231 4.61 13.8233L3.9 14.5338L3.19 13.8233L5.31 11.7015L12.03 18.4271C12.6 19.0075 12.6 19.9783 12.03 20.5488C11.77 20.8491 11.39 20.9992 10.99 20.9992ZM18.67 12.262L14.98 8.57894L15.38 5.64653L15.83 5.19616L16.54 5.90674L15.84 6.60732C15.64 6.80748 15.64 7.11774 15.84 7.3179C15.94 7.41799 16.07 7.46803 16.19 7.46803C16.31 7.46803 16.45 7.41799 16.54 7.3179L17.24 6.61733L17.95 7.32791L16.9 8.36877C16.7 8.56894 16.7 8.87919 16.9 9.07936C17 9.17944 17.13 9.22948 17.25 9.22948C17.37 9.22948 17.51 9.17944 17.6 9.07936L18.66 8.01848L19.37 8.72907L18.66 9.43965C18.46 9.63982 18.46 9.95007 18.66 10.1502C18.76 10.2503 18.89 10.3004 19.01 10.3004C19.13 10.3004 19.27 10.2503 19.36 10.1502L20.07 9.43965L20.78 10.1502L18.67 12.262ZM13.32 4.8859C13.54 4.71576 13.58 4.40551 13.42 4.18533C13.25 3.96515 12.94 3.92511 12.72 4.08524C12.5 4.25538 12.46 4.56564 12.62 4.78582C12.79 5.006 13.1 5.05604 13.32 4.8859ZM10.49 19.508C10.49 19.2277 10.71 19.0075 10.99 19.0075C11.26 19.0075 11.49 19.2277 11.49 19.508C11.49 19.7882 11.27 20.0084 10.99 20.0084C10.71 20.0084 10.49 19.7882 10.49 19.508Z" fill="#555555"/>
</svg>
