<svg width="24" height="24" viewBox="0 0 24 24" fill="none" xmlns="http://www.w3.org/2000/svg">
<path fill-rule="evenodd" clip-rule="evenodd" d="M16.51 5H3.49C3.22 5 3 4.78 3 4.5C3 4.22 3.22 4 3.49 4H16.52C16.78 4 17 4.22 17 4.5C17 4.78 16.78 5 16.51 5ZM18.51 20H3.48C3.22 20 3 19.78 3 19.5C3 19.22 3.22 19 3.48 19H18.51C18.78 19 19 19.22 19 19.5C19 19.78 18.78 20 18.51 20ZM3.48 12.5H20.51C20.78 12.5 21 12.28 21 12C21 11.72 20.78 11.5 20.51 11.5H3.48C3.22 11.5 3 11.72 3 12C3 12.28 3.22 12.5 3.48 12.5Z" fill="#555555"/>
</svg>
