<svg width="24" height="24" viewBox="0 0 24 24" fill="none" xmlns="http://www.w3.org/2000/svg">
<path fill-rule="evenodd" clip-rule="evenodd" d="M2 12C2 17.51 6.49 22 12 22C17.51 22 22 17.51 22 12C22 6.49 17.51 2 12 2C6.49 2 2 6.49 2 12ZM3 12C3 7.04 7.04 3 12 3C16.96 3 21 7.04 21 12C21 16.96 16.96 21 12 21C7.04 21 3 16.96 3 12ZM5 12C5 13.1 5.9 14 7 14C8.1 14 9 13.1 9 12C9 10.9 8.1 10 7 10C5.9 10 5 10.9 5 12ZM6 12C6 11.45 6.45 11 7 11C7.55 11 8 11.45 8 12C8 12.55 7.55 13 7 13C6.45 13 6 12.55 6 12ZM15 12C15 13.1 15.9 14 17 14C18.1 14 19 13.1 19 12C19 10.9 18.1 10 17 10C15.9 10 15 10.9 15 12ZM16 12C16 11.45 16.45 11 17 11C17.55 11 18 11.45 18 12C18 12.55 17.55 13 17 13C16.45 13 16 12.55 16 12ZM12 14C10.9 14 10 13.1 10 12C10 10.9 10.9 10 12 10C13.1 10 14 10.9 14 12C14 13.1 13.1 14 12 14ZM12 11C11.45 11 11 11.45 11 12C11 12.55 11.45 13 12 13C12.55 13 13 12.55 13 12C13 11.45 12.55 11 12 11Z" fill="#555555"/>
</svg>
