<svg width="24" height="24" viewBox="0 0 24 24" fill="none" xmlns="http://www.w3.org/2000/svg">
<path fill-rule="evenodd" clip-rule="evenodd" d="M10.5 21H13.5C13.78 21 14 20.78 14 20.5V3.5C14 3.22 13.78 3 13.5 3H10.5C10.22 3 10 3.22 10 3.5V20.5C10 20.78 10.22 21 10.5 21ZM13 20H11V4H13V20ZM8.89 11.69L6.89 9.19001C6.72 8.97001 6.4 8.94001 6.19 9.11001C5.97 9.28001 5.94 9.60001 6.11 9.81001L7.46 11.5H2.5C2.22 11.5 2 11.72 2 12C2 12.28 2.22 12.5 2.5 12.5H7.46L6.11 14.19C5.94 14.41 5.97 14.72 6.19 14.89C6.28 14.96 6.39 15 6.5 15C6.65 15 6.79 14.94 6.89 14.81L8.89 12.31C9.04 12.13 9.04 11.87 8.89 11.69ZM21.5 11.5H16.54L17.89 9.81001C18.06 9.59001 18.03 9.28001 17.81 9.11001C17.6 8.94001 17.28 8.97001 17.11 9.19001L15.11 11.69C14.96 11.87 14.96 12.13 15.11 12.31L17.11 14.81C17.21 14.93 17.35 15 17.5 15C17.61 15 17.72 14.96 17.81 14.89C18.03 14.72 18.06 14.4 17.89 14.19L16.54 12.5H21.5C21.78 12.5 22 12.28 22 12C22 11.72 21.78 11.5 21.5 11.5Z" fill="#555555"/>
</svg>
