<svg width="24" height="24" viewBox="0 0 24 24" fill="none" xmlns="http://www.w3.org/2000/svg">
<path d="M21.87 11.6565L14.87 4.15647C14.68 3.95647 14.36 3.94647 14.16 4.13647C13.96 4.32647 13.95 4.63647 14.14 4.84647L20.35 11.5065H2.5C2.22 11.4965 2 11.7165 2 11.9965C2 12.2765 2.22 12.4965 2.5 12.4965H20.35L14.14 19.1565C13.95 19.3565 13.96 19.6765 14.16 19.8665C14.26 19.9565 14.38 19.9965 14.5 19.9965C14.63 19.9965 14.77 19.9465 14.87 19.8365L21.87 12.3365C22.04 12.1465 22.04 11.8465 21.87 11.6565Z" fill="#555555"/>
</svg>
