<svg width="81" height="80" viewBox="0 0 81 80" fill="none" xmlns="http://www.w3.org/2000/svg">
<path fill-rule="evenodd" clip-rule="evenodd" d="M73.5325 29.8893L62.2625 41.0893C72.1925 41.9893 80.0025 50.3393 80.0025 60.4993C80.0025 71.2493 71.2525 79.9993 60.5025 79.9993C50.3025 79.9993 41.9225 72.1293 41.0825 62.1493L35.8425 67.3493C30.9125 72.2493 24.5925 75.0193 18.4125 75.0193H18.412C18.1821 75.0193 17.9623 75.0193 17.7425 75.0093C12.6125 74.8493 8.00248 72.7293 4.75248 69.0493C-2.79752 60.4893 -1.17752 45.8193 8.37248 36.3293L32.6325 12.2193C33.3425 11.5093 34.2725 11.1193 35.1825 11.1493C35.9425 11.1693 36.6225 11.4893 37.1025 12.0293C38.1825 13.2493 37.9725 15.3293 36.6325 16.6593L12.3725 40.7693C5.50248 47.5993 4.30248 58.1293 9.69248 64.2293C12.2825 67.1593 16.0025 68.6393 20.1725 68.4093C24.3725 68.1693 28.5125 66.2193 31.8425 62.9093L43.1225 51.6893C45.0125 47.9693 48.0625 44.9393 51.7925 43.0693L69.5425 25.4393C74.2325 20.7693 75.0625 13.5993 71.3925 9.43933C69.6325 7.44933 67.1025 6.43933 64.2725 6.59933C61.4025 6.75933 58.5725 8.09933 56.3025 10.3593L25.1725 41.2793C22.4025 44.0393 21.9025 48.2693 24.0625 50.7193C25.0925 51.8893 26.5625 52.4793 28.2225 52.3793C29.9125 52.2893 31.5925 51.4993 32.9325 50.1593L50.6125 32.5993C51.3225 31.8893 52.2625 31.5093 53.1625 31.5293C53.9125 31.5493 54.5925 31.8693 55.0725 32.4093C56.1625 33.6293 55.9525 35.7093 54.6125 37.0393L36.9325 54.6093C34.1125 57.4093 30.5025 58.9893 26.9725 58.9893C26.9075 58.9893 26.845 58.9868 26.7825 58.9843C26.72 58.9818 26.6575 58.9793 26.5925 58.9793C23.6525 58.8793 21.0025 57.6693 19.1325 55.5493C14.8025 50.6593 15.7225 42.2693 21.1725 36.8493L52.2925 5.91933C56.2325 1.99933 61.3125 -0.16067 66.2625 0.00933044C70.2325 0.13933 73.7925 1.77933 76.3125 4.62933C82.1425 11.2293 80.9025 22.5693 73.5325 29.8893ZM72.1325 8.77933C76.1525 13.3293 75.3025 21.1193 70.2425 26.1493L54.2425 42.0493C56.2025 41.3793 58.3025 40.9993 60.4925 40.9993C60.5625 40.9993 60.6325 41.0043 60.7025 41.0093C60.7725 41.0143 60.8425 41.0193 60.9125 41.0193L72.8225 29.1793C79.8125 22.2193 81.0425 11.5093 75.5525 5.28933C73.2225 2.64933 69.9125 1.12933 66.2225 1.00933C61.5625 0.85933 56.7425 2.90933 52.9925 6.62933L21.8825 37.5593C16.8025 42.6093 15.9025 50.3793 19.8825 54.8893C21.5725 56.7993 23.9625 57.8893 26.6325 57.9793C30.0025 58.0893 33.5125 56.5993 36.2325 53.8993L53.9125 36.3293C54.8825 35.3693 55.0725 33.8993 54.3325 33.0693C54.0325 32.7193 53.6125 32.5393 53.1325 32.5193C52.4925 32.4993 51.8325 32.7793 51.3125 33.2993L33.6425 50.8693C32.1225 52.3793 30.2225 53.2693 28.2825 53.3793C26.3125 53.4893 24.5425 52.7893 23.3125 51.3893C20.8125 48.5493 21.3325 43.6993 24.4725 40.5793L55.5825 9.64933C58.0325 7.20933 61.0925 5.77933 64.2025 5.59933C67.3525 5.42933 70.1625 6.54933 72.1325 8.77933ZM17.7825 74.0093C23.9025 74.1893 30.2325 71.5193 35.1425 66.6393L41.0125 60.8093C41.0025 60.7093 40.9925 60.6093 40.9925 60.5093C40.9925 58.2693 41.3925 56.1393 42.0825 54.1393L32.5425 63.6193C29.0425 67.0993 24.6625 69.1593 20.2225 69.4093C15.7425 69.6693 11.7425 68.0593 8.94248 64.8893C3.21248 58.3993 4.43248 47.2693 11.6725 40.0693L35.9425 15.9593C36.9125 14.9993 37.1025 13.5293 36.3625 12.6993C36.0625 12.3493 35.6425 12.1693 35.1625 12.1493C34.5225 12.1293 33.8625 12.4093 33.3425 12.9293L9.08248 37.0393C-0.0875178 46.1593 -1.69752 60.2193 5.51248 68.3793C8.57248 71.8493 12.9325 73.8493 17.7825 74.0093ZM42.0025 60.4993C42.0025 70.6993 50.3025 78.9993 60.5025 78.9993C70.7025 78.9993 79.0025 70.6993 79.0025 60.4993C79.0025 50.2993 70.7125 41.9993 60.5025 41.9993C50.2925 41.9993 42.0025 50.2993 42.0025 60.4993ZM71.2425 49.7593C71.9925 50.5093 72.4025 51.4993 72.4025 52.5593C72.4025 53.6093 71.9925 54.6093 71.2525 55.3493L66.1025 60.4993L71.2525 65.6493C72.0025 66.3993 72.4125 67.3893 72.4125 68.4493C72.4125 69.5093 72.0025 70.4993 71.2525 71.2493C70.4825 72.0193 69.4625 72.4093 68.4525 72.4093C67.4325 72.4093 66.4225 72.0193 65.6525 71.2493L60.5025 66.0993L55.3525 71.2493C53.8025 72.7893 51.2925 72.7893 49.7525 71.2493C49.0025 70.4993 48.5925 69.5093 48.5925 68.4493C48.5925 67.3893 49.0025 66.3993 49.7525 65.6493L54.9025 60.4993L49.7525 55.3493C49.0025 54.5993 48.5925 53.6093 48.5925 52.5493C48.5925 51.4893 49.0025 50.4993 49.7525 49.7493C51.3025 48.2093 53.8125 48.2093 55.3525 49.7493L60.5025 54.8993L65.6425 49.7593C67.1925 48.2193 69.7025 48.2193 71.2425 49.7593ZM65.0325 60.8593C64.8325 60.6593 64.8325 60.3493 65.0325 60.1493L70.5425 54.6493C71.1025 54.0893 71.4125 53.3493 71.4125 52.5593C71.4125 51.7693 71.1025 51.0293 70.5425 50.4693C69.3925 49.3193 67.5125 49.3193 66.3625 50.4693L60.8625 55.9693C60.6625 56.1693 60.3525 56.1693 60.1525 55.9693L54.6525 50.4693C53.5025 49.3193 51.6225 49.3193 50.4725 50.4693C49.9125 51.0293 49.6025 51.7693 49.6025 52.5593C49.6025 53.3493 49.9125 54.0893 50.4725 54.6493L55.9725 60.1493C56.1725 60.3493 56.1725 60.6593 55.9725 60.8593L50.4725 66.3593C49.9125 66.9193 49.6025 67.6593 49.6025 68.4493C49.6025 69.2393 49.9125 69.9793 50.4725 70.5393C51.6225 71.6893 53.5025 71.6893 54.6525 70.5393L60.1525 65.0393C60.2425 64.9393 60.3725 64.8893 60.5025 64.8893C60.6225 64.8893 60.7525 64.9393 60.8525 65.0393L66.3525 70.5393C67.5025 71.6893 69.3825 71.6893 70.5325 70.5393C71.0925 69.9793 71.4025 69.2393 71.4025 68.4493C71.4025 67.6593 71.0925 66.9193 70.5325 66.3593L65.0325 60.8593Z" fill="#555555"/>
</svg>
