<svg width="80" height="80" viewBox="0 0 80 80" fill="none" xmlns="http://www.w3.org/2000/svg">
<path fill-rule="evenodd" clip-rule="evenodd" d="M79.85 14.93L65.05 0.15C64.95 0.05 64.83 0 64.69 0H22.5C22.23 0 22 0.22 22 0.5V10H0.5C0.22 10 0 10.22 0 10.5V79.5C0 79.78 0.22 80 0.5 80H57.49C57.77 80 57.99 79.78 57.99 79.5V70H79.49C79.77 70 79.99 69.78 79.99 69.5V15.28C80 15.15 79.95 15.02 79.85 14.93ZM65.19 1.71L78.29 14.79H68.69C66.76 14.79 65.19 13.22 65.19 11.29V1.71ZM58 69V67.16C58 66.88 57.78 66.66 57.5 66.66C57.22 66.66 57 66.88 57 67.16V79H1V11H42.19V21.28C42.19 23.76 44.21 25.78 46.69 25.78H57V32.01C57 32.29 57.22 32.51 57.5 32.51C57.78 32.51 58 32.29 58 32.01V30H59.02C60.66 30 62 28.66 62 27.02C62 25.38 60.66 24.04 59.02 24.04H56.96L51.53 18.62C51.83 18.14 52 17.59 52 17.02C52 15.38 50.66 14.04 49.02 14.04H46.95L43.05 10.15C42.95 10.05 42.82 10 42.69 10H23V1H64.19V11.28C64.19 13.76 66.21 15.78 68.69 15.78H79V69H58ZM50.79 17.88L47.94 15.04H49.01C50.1 15.04 50.99 15.93 50.99 17.02C51 17.32 50.92 17.61 50.79 17.88ZM56.25 24.75C56.26 24.76 56.27 24.77 56.27 24.79H46.68C44.75 24.79 43.18 23.22 43.18 21.29V11.71L56.25 24.75ZM57.92 25.04H59.01C60.1 25.04 60.99 25.93 60.99 27.02C60.99 28.11 60.1 29 59.01 29H58V25.28C58 25.19 57.97 25.11 57.92 25.04ZM12.98 30H20.07C20.35 30 20.57 29.78 20.57 29.5C20.57 29.22 20.35 29 20.07 29H12.98C11.89 29 11 28.11 11 27.02C11 25.93 11.89 25.04 12.98 25.04H15.15C15.43 25.04 15.65 24.82 15.65 24.54C15.65 24.26 15.43 24.04 15.15 24.04H12.98C11.34 24.04 10 25.38 10 27.02C10 28.66 11.34 30 12.98 30ZM15.54 40H12.98C11.34 40 10 38.66 10 37.02C10 35.38 11.34 34.04 12.98 34.04H20.07C20.35 34.04 20.57 34.26 20.57 34.54C20.57 34.82 20.35 35.04 20.07 35.04H12.98C11.89 35.04 11 35.93 11 37.02C11 38.11 11.89 39 12.98 39H15.54C15.82 39 16.04 39.22 16.04 39.5C16.04 39.78 15.82 40 15.54 40ZM12.98 50H15.07C15.35 50 15.57 49.78 15.57 49.5C15.57 49.22 15.35 49 15.07 49H12.98C11.89 49 11 48.11 11 47.02C11 45.93 11.89 45.04 12.98 45.04C13.26 45.04 13.48 44.82 13.48 44.54C13.48 44.26 13.26 44.04 12.98 44.04C11.34 44.04 10 45.38 10 47.02C10 48.66 11.34 50 12.98 50ZM28.39 60H12.98C11.34 60 10 58.66 10 57.02C10 55.38 11.34 54.04 12.98 54.04H20.07C20.35 54.04 20.57 54.26 20.57 54.54C20.57 54.82 20.35 55.04 20.07 55.04H12.98C11.89 55.04 11 55.93 11 57.02C11 58.11 11.89 59 12.98 59H28.39C28.67 59 28.89 59.22 28.89 59.5C28.89 59.78 28.67 60 28.39 60ZM12.98 64.04H45.01C46.66 64.04 48 65.37 47.99 67.02C47.99 68.66 46.65 70 45.01 70H12.98C11.34 70 10 68.66 10 67.02C10 65.38 11.34 64.04 12.98 64.04ZM12.98 69H45.01C46.11 69 47 68.11 46.99 67.02C46.99 65.93 46.1 65.04 45.01 65.04H12.98C11.89 65.04 11 65.93 11 67.02C11 68.11 11.89 69 12.98 69ZM62.5 54.04H67.02C68.66 54.04 70 55.37 70 57.02C70 58.66 68.66 60 67.02 60H62.5C62.22 60 62 59.78 62 59.5C62 59.22 62.22 59 62.5 59H67.02C68.11 59 69 58.11 69 57.02C69 55.93 68.11 55.04 67.02 55.04H62.5C62.22 55.04 62 54.82 62 54.54C62 54.26 62.22 54.04 62.5 54.04ZM67.02 44.04C66.74 44.04 66.52 44.26 66.52 44.54C66.52 44.82 66.74 45.04 67.02 45.04C68.11 45.04 69 45.93 69 47.02C69 48.11 68.11 49 67.02 49H64.5C64.22 49 64 49.22 64 49.5C64 49.78 64.22 50 64.5 50H67.02C68.66 50 70 48.66 70 47.02C70 45.37 68.66 44.04 67.02 44.04ZM62.5 34.04H67.02C68.66 34.04 70 35.37 70 37.02C70 38.66 68.66 40 67.02 40H64.47C64.19 40 63.97 39.78 63.97 39.5C63.97 39.22 64.19 39 64.47 39H67.02C68.11 39 69 38.11 69 37.02C69 35.93 68.11 35.04 67.02 35.04H62.5C62.22 35.04 62 34.82 62 34.54C62 34.26 62.22 34.04 62.5 34.04ZM40 53.37C40.28 53.37 40.5 53.59 40.5 53.87C40.5 54.15 40.28 54.37 40 54.37C34.61 54.37 30.23 49.96 30.23 44.54C30.23 44.26 30.45 44.04 30.73 44.04C31.01 44.04 31.23 44.26 31.23 44.54C31.23 49.41 35.17 53.37 40 53.37ZM24.04 36.49C24.25 36.31 24.26 35.99 24.08 35.78C23.9 35.57 23.58 35.56 23.37 35.74C20.68 38.14 18.55 41.03 17.05 44.33C16.99 44.46 16.99 44.61 17.05 44.75C21.2 53.83 30.21 59.7 40 59.7C41.88 59.7 43.83 59.44 45.97 58.91C46.24 58.84 46.4 58.57 46.33 58.3C46.26 58.03 45.99 57.87 45.72 57.93C43.68 58.45 41.8 58.7 40 58.7C30.67 58.7 22.08 53.15 18.05 44.53C19.49 41.46 21.51 38.75 24.04 36.49ZM62.96 44.75C60.75 49.58 57 53.65 52.38 56.3L60.2 64.18C60.4 64.38 60.4 64.7 60.2 64.89C60.1 64.99 59.98 65.04 59.85 65.04C59.73 65.04 59.6 64.99 59.5 64.89L19.79 24.89C19.59 24.69 19.59 24.37 19.79 24.18C19.99 23.98 20.31 23.98 20.5 24.18L28.49 32.23C32.09 30.34 35.96 29.37 40 29.37C49.8 29.37 58.81 35.24 62.96 44.33C63.02 44.47 63.02 44.62 62.96 44.75ZM61.95 44.54C57.93 35.92 49.33 30.37 40 30.37C36.23 30.37 32.62 31.25 29.23 32.98L37.58 41.39C38.25 40.87 39.08 40.54 40 40.54C42.19 40.54 43.97 42.33 43.97 44.54C43.97 45.46 43.65 46.3 43.13 46.98L46.54 50.41C47.98 48.79 48.77 46.73 48.77 44.54C48.77 39.67 44.83 35.71 40 35.71C39.72 35.71 39.5 35.49 39.5 35.21C39.5 34.93 39.72 34.71 40 34.71C45.39 34.71 49.77 39.12 49.77 44.54C49.77 47 48.87 49.31 47.24 51.12L51.65 55.57C56.13 53.07 59.78 49.18 61.95 44.54Z" fill="#555555"/>
</svg>
