<svg width="24" height="24" viewBox="0 0 24 24" fill="none" xmlns="http://www.w3.org/2000/svg">
<path fill-rule="evenodd" clip-rule="evenodd" d="M5 12C5 8.14 8.14 5 12 5C15.86 5 19 8.14 19 12C19 15.86 15.86 19 12 19C8.14 19 5 15.86 5 12ZM12 6C8.69 6 6 8.69 6 12C6 14.22 7.22 16.16 9.01 17.2L10.11 15H8.93C7.87 15 7 14.08 7 12.96C7 12.05 7.55 11.27 8.36 11C8.37 10.995 8.38 10.9925 8.39 10.99C8.4 10.9875 8.41 10.985 8.42 10.98C8.43 9.96 9.21 9.14 10.17 9.14C10.34 9.14 10.52 9.17 10.68 9.23C11.35 8.3 12.5 7.84 13.58 8.07L14.37 6.49C13.64 6.18 12.84 6 12 6ZM8.93 14H10.61L13.1 9.02C12.39 8.98 11.67 9.39 11.32 10.1C11.26 10.24 11.14 10.33 10.99 10.37C10.85 10.4 10.69 10.37 10.58 10.28C10.11 9.93 9.42 10.36 9.42 11C9.42 11.07 9.43 11.14 9.46 11.24C9.49 11.38 9.47 11.53 9.38 11.65C9.29 11.77 9.16 11.84 9.02 11.86C8.92 11.87 8.82 11.9 8.72 11.94C8.28 12.08 8 12.5 8 12.96C8 13.53 8.42 14 8.93 14ZM9.92 17.62C10.57 17.86 11.27 18 12 18C15.31 18 18 15.31 18 12C18 9.89 16.9 8.03 15.25 6.96L9.92 17.62ZM15.43 9.41001C15.73 9.92001 15.9 10.51 15.9 11.11C16.55 11.42 17 12.14 17 12.96C17 14.08 16.13 15 15.07 15H12.9C12.62 15 12.4 14.78 12.4 14.5C12.4 14.22 12.62 14 12.9 14H15.07C15.58 14 16 13.53 15.99 12.95C15.99 12.49 15.72 12.08 15.32 11.95C15.1 11.88 14.85 11.62 14.88 11.38C14.89 11.29 14.9 11.2 14.9 11.11C14.9 10.69 14.79 10.28 14.57 9.93001C14.43 9.69001 14.5 9.39001 14.74 9.24001C14.97 9.10001 15.28 9.17001 15.43 9.41001Z" fill="#555555"/>
</svg>
