<svg width="24" height="24" viewBox="0 0 24 24" fill="none" xmlns="http://www.w3.org/2000/svg">
<path fill-rule="evenodd" clip-rule="evenodd" d="M18.5 11H16V6.5C16 6.22 15.78 6 15.5 6H14V4.5C14 4.22 13.78 4 13.5 4H10.5C10.22 4 10 4.22 10 4.5V6H8.5C8.22 6 8 6.22 8 6.5V8H5.5C5.22 8 5 8.22 5 8.5V19.5C5 19.78 5.22 20 5.5 20H18.5C18.78 20 19 19.78 19 19.5V11.5C19 11.22 18.78 11 18.5 11ZM11 5H13V6H11V5ZM6 9H8V11H7.5C7.22 11 7 11.22 7 11.5V16.5C7 16.78 7.22 17 7.5 17H8V19H6V9ZM9 7H15V19H14V16.5C14 16.22 13.78 16 13.5 16H10.5C10.22 16 10 16.22 10 16.5V19H9V7ZM11 19V17H13V19H11ZM16 19V17H16.5C16.78 17 17 16.78 17 16.5V14.5C17 14.22 16.78 14 16.5 14H16V12H18V19H16ZM10.5 11H13.5C13.78 11 14 10.78 14 10.5V8.5C14 8.22 13.78 8 13.5 8H10.5C10.22 8 10 8.22 10 8.5V10.5C10 10.78 10.22 11 10.5 11ZM11 9H13V10H11V9ZM13.5 15H10.5C10.22 15 10 14.78 10 14.5V12.5C10 12.22 10.22 12 10.5 12H13.5C13.78 12 14 12.22 14 12.5V14.5C14 14.78 13.78 15 13.5 15ZM13 13H11V14H13V13Z" fill="#555555"/>
</svg>
