<svg width="24" height="24" viewBox="0 0 24 24" fill="none" xmlns="http://www.w3.org/2000/svg">
<path fill-rule="evenodd" clip-rule="evenodd" d="M7 9C7 11.76 9.24 14 12 14C14.76 14 17 11.76 17 9C17 6.24 14.76 4 12 4C9.24 4 7 6.24 7 9ZM8 9C8 6.79 9.79 5 12 5C14.21 5 16 6.79 16 9C16 11.21 14.21 13 12 13C9.79 13 8 11.21 8 9ZM19.07 19.76C19.17 19.92 19.33 20 19.5 20C19.59 20 19.68 19.98 19.76 19.93C20 19.78 20.07 19.48 19.93 19.24C18.33 16.62 15.29 15 12 15C8.70997 15 5.66997 16.62 4.06997 19.24C3.92997 19.48 3.99997 19.78 4.23997 19.93C4.47997 20.07 4.77997 20 4.92997 19.76C6.33997 17.44 9.04997 16 12 16C14.95 16 17.66 17.44 19.07 19.76Z" fill="#555555"/>
</svg>
