<svg width="24" height="24" viewBox="0 0 24 24" fill="none" xmlns="http://www.w3.org/2000/svg">
<path fill-rule="evenodd" clip-rule="evenodd" d="M10.32 10.64L9.65999 12.61C9.17999 14.04 7.84999 15 6.33999 15H4.99999V15.5C4.99999 16.33 4.32999 17 3.49999 17H2.49999C2.21999 17 1.99999 16.78 1.99999 16.5V10.5C1.99999 10.22 2.21999 10 2.49999 10H3.49999C4.32999 10 4.99999 10.67 4.99999 11.5V12H6.33999C6.54999 12 6.73999 11.86 6.80999 11.66L7.46999 9.68002L2.33999 7.97002C2.09999 7.89002 1.95999 7.65002 2.00999 7.40002L3.00999 2.40002C3.03999 2.26002 3.11999 2.14002 3.24999 2.07002C3.36999 2.00002 3.51999 1.98002 3.65999 2.02002L14.66 5.69002C14.83 5.75002 14.95 5.88002 14.99 6.05002C15.03 6.22002 14.98 6.40002 14.86 6.52002L14.43 6.95002L16.16 7.53002C16.29 7.57002 16.39 7.67002 16.45 7.79002C16.51 7.92002 16.51 8.06002 16.46 8.19002L15.46 10.69C15.39 10.88 15.2 11 15 11C14.95 11 14.89 10.99 14.84 10.98L12.72 10.27L12.46 10.87C12.38 11.06 12.2 11.17 12 11.17C11.95 11.17 11.89 11.16 11.85 11.15L10.32 10.64ZM13.11 9.34002L14.71 9.88002L15.34 8.31002L13.78 7.79002L13.11 9.34002ZM13.57 6.38002L3.87999 3.15002L3.07999 7.17002L11.72 10.05L13.03 6.97002C13.06 6.91002 13.1 6.85002 13.14 6.81002L13.57 6.38002ZM3.49999 16C3.77999 16 3.99999 15.78 3.99999 15.5V11.5C3.99999 11.22 3.77999 11 3.49999 11H2.99999V16H3.49999ZM6.33999 13H4.99999V14H6.33999C7.41999 14 8.36999 13.31 8.70999 12.29L9.36999 10.32L8.41999 10L7.75999 11.97C7.55999 12.59 6.98999 13 6.33999 13ZM5.15999 4.52999L8.15999 5.52999C8.41999 5.60999 8.55999 5.89999 8.46999 6.15999C8.39999 6.36999 8.20999 6.49999 7.99999 6.49999C7.94999 6.49999 7.88999 6.48999 7.83999 6.46999L4.83999 5.46999C4.57999 5.38999 4.43999 5.09999 4.52999 4.83999C4.60999 4.57999 4.88999 4.43999 5.15999 4.52999ZM21.2 14.78C21.78 14.51 22 13.93 22 13.5C22 13.23 21.78 13.01 21.51 13C21.24 13 21.01 13.21 21 13.49C20.99 13.69 20.9 13.81 20.75 13.87L18.95 10.27C18.86 10.11 18.69 10 18.5 10H17.5C17.22 10 17 10.22 17 10.5C17 10.78 17.22 11 17.5 11H18.19L19.69 14H10.5C10.22 14 10 14.22 10 14.5C10 14.78 10.22 15 10.5 15H20.19L20.69 16H18.5C18.22 16 18 16.22 18 16.5V17C18 17.28 18.22 17.5 18.5 17.5H21V19H8V17.5H10.5C10.78 17.5 11 17.28 11 17V16.5C11 16.22 10.78 16 10.5 16H7.5C7.22 16 7 16.22 7 16.5V19.5V21.07C7 21.58 7.43 22 7.96 22H10.04C10.57 22 11 21.58 11 21.07V20H18V21.07C18 21.58 18.43 22 18.96 22H21.04C21.57 22 22 21.58 22 21.07V19.5V16.5C22 16.42 21.98 16.35 21.95 16.28L21.2 14.78ZM10.04 21L8 21.07V20H10.01L10.04 21ZM19 21.07V20H21.01L21.04 21L19 21.07ZM16 16.5C16 16.78 15.78 17 15.5 17H13.5C13.22 17 13 16.78 13 16.5C13 16.22 13.22 16 13.5 16H15.5C15.78 16 16 16.22 16 16.5Z" fill="#555555"/>
</svg>
