<svg width="24" height="24" viewBox="0 0 24 24" fill="none" xmlns="http://www.w3.org/2000/svg">
<path fill-rule="evenodd" clip-rule="evenodd" d="M19.85 6.15L15.85 2.15C15.76 2.05 15.63 2 15.5 2H4.5C4.22 2 4 2.22 4 2.5V21.5C4 21.78 4.22 22 4.5 22H19.5C19.78 22 20 21.78 20 21.5V6.5C20 6.37 19.95 6.24 19.85 6.15ZM16 3.71L18.29 6H16V3.71ZM5 21V3H15V6.5C15 6.78 15.22 7 15.5 7H19V21H5ZM9.23 13.56C8.98 13.44 8.69 13.38 8.36 13.38H6.66V17.65H7.69V16.2H8.35C8.87 16.2 9.28 16.08 9.58 15.83C9.88 15.58 10.03 15.25 10.03 14.83C10.03 14.55 9.96 14.3 9.82 14.08C9.68 13.86 9.48 13.68 9.23 13.56ZM8.82 15.26C8.72 15.36 8.56 15.41 8.36 15.41H7.69V14.18H8.38C8.57 14.18 8.71 14.24 8.82 14.36C8.93 14.48 8.98 14.64 8.98 14.84C8.97 15.02 8.92 15.16 8.82 15.26ZM12.02 13.38C12.4 13.38 12.74 13.47 13.04 13.64C13.35 13.81 13.57 14.04 13.74 14.35C13.91 14.66 14 15.01 14 15.4V15.6C14 15.99 13.92 16.34 13.75 16.65C13.58 16.96 13.35 17.21 13.05 17.38C12.75 17.56 12.42 17.65 12.05 17.65H10.65V13.38H12.02ZM12.72 16.55C12.88 16.34 12.96 16.02 12.96 15.61V15.42C12.96 15.01 12.88 14.7 12.72 14.49C12.56 14.28 12.33 14.18 12.03 14.18H11.68V16.86H12.04C12.34 16.86 12.56 16.76 12.72 16.55ZM14.71 17.65H15.73V15.95H17.39V15.16H15.73V14.18H17.56V13.38H14.71V17.65ZM15.84 9.81999C16.1 10.3 16.07 10.86 15.78 11.33C15.51 11.75 15.06 12 14.56 12H14.48C13.9 11.96 13.38 11.6 13.12 11.05C13.04 10.88 12.84 10.48 12.59 9.97999H11.42C11.3526 10.1148 11.2888 10.2416 11.2301 10.3585C11.0709 10.675 10.9484 10.9185 10.89 11.05C10.62 11.6 10.1 11.96 9.52 12C8.98 12.03 8.5 11.78 8.22 11.33C7.93 10.87 7.91 10.3 8.16 9.81999C8.42 9.32999 8.91 9.02999 9.48 8.99999C9.50772 8.99999 9.56924 8.99922 9.65819 8.99811C9.89012 8.99521 10.3085 8.98998 10.8 8.98998C11.01 8.58 11.23 8.14003 11.44 7.72005L11.44 7.71999C11.3642 7.57292 11.292 7.43231 11.2247 7.30148C10.9901 6.84514 10.8166 6.5077 10.77 6.42999C10.47 5.89999 10.47 5.24999 10.77 4.72999C11.3 3.81999 12.7 3.81999 13.23 4.72999C13.53 5.23999 13.53 5.89999 13.23 6.42999C13.17 6.51999 12.9 7.04999 12.56 7.71999C12.77 8.13999 12.99 8.57999 13.2 8.98998C13.6915 8.98998 14.1099 8.99521 14.3418 8.99811C14.4308 8.99922 14.4923 8.99999 14.52 8.99999C15.09 9.02999 15.58 9.32999 15.84 9.81999ZM9.46 11C9.63 10.99 9.86 10.88 9.99 10.62C10.04 10.51 10.15 10.28 10.3 9.98998C10.0099 9.98998 9.77484 9.99499 9.63739 9.99792C9.5806 9.99913 9.54047 9.99999 9.52 9.99999C9.31 10.01 9.14 10.11 9.04 10.28C8.96 10.45 8.97 10.64 9.07 10.8C9.1808 10.9754 9.33424 10.9889 9.43583 10.9978C9.44426 10.9985 9.45234 10.9992 9.46 11ZM11.92 8.98998H12H12.08C12.065 8.96499 12.0525 8.93749 12.04 8.90999C12.0275 8.88249 12.015 8.85499 12 8.82999C11.985 8.85498 11.9725 8.88248 11.96 8.90998C11.9475 8.93748 11.935 8.96498 11.92 8.98998ZM12.228 6.1726C12.291 6.05043 12.3347 5.96561 12.35 5.92999C12.51 5.66999 12.46 5.38999 12.36 5.22999C12.31 5.13999 12.2 4.99999 12 4.99999C11.8 4.99999 11.69 5.13999 11.63 5.22999C11.54 5.39999 11.49 5.66999 11.64 5.93999C11.69 6.00999 11.82 6.25999 12 6.61999C12.0884 6.44318 12.1672 6.2905 12.228 6.1726ZM14.54 11C14.63 11 14.81 10.99 14.93 10.8C15.03 10.64 15.04 10.45 14.95 10.28C14.86 10.11 14.68 10.01 14.47 9.99999C14.4 9.98998 14.11 9.98998 13.7 9.98998C13.85 10.29 13.96 10.51 14.02 10.62C14.14 10.89 14.37 10.99 14.54 11Z" fill="#555555"/>
</svg>
