<svg width="24" height="24" viewBox="0 0 24 24" fill="none" xmlns="http://www.w3.org/2000/svg">
<path fill-rule="evenodd" clip-rule="evenodd" d="M21.5 2H2.5C2.22 2 2 2.22 2 2.5V4.5C2 5.15 2.42 5.7 3 5.91V13C3 17.96 7.04 22 12 22C16.96 22 21 17.96 21 13V5.91C21.58 5.7 22 5.15 22 4.5V2.5C22 2.22 21.78 2 21.5 2ZM7 19.24V17.31C8.08 18.93 9.91 20 12 20C14.09 20 15.92 18.93 17 17.31V19.24C15.63 20.34 13.89 21 12 21C10.11 21 8.37 20.34 7 19.24ZM7 14C7 11.24 9.24 9 12 9C14.76 9 17 11.24 17 14C17 16.76 14.76 19 12 19C9.24 19 7 16.76 7 14ZM18 18.27V14C18 10.69 15.31 8 12 8C8.69 8 6 10.69 6 14V18.27C4.76 16.86 4 15.02 4 13V6H20V13C20 15.02 19.24 16.86 18 18.27ZM21 4.5C21 4.78 20.78 5 20.5 5H3.5C3.22 5 3 4.78 3 4.5V3H21V4.5ZM14 12C14 13.1 13.1 14 12 14C10.9 14 10 13.1 10 12C10 10.9 10.9 10 12 10C13.1 10 14 10.9 14 12ZM13 12C13 11.45 12.55 11 12 11C11.45 11 11 11.45 11 12C11 12.55 11.45 13 12 13C12.55 13 13 12.55 13 12ZM9.93999 16.74C9.80999 16.98 9.49999 17.07 9.25999 16.94C9.01999 16.81 8.92999 16.5 9.05999 16.26C9.64999 15.17 10.78 14.5 12 14.5C13.22 14.5 14.35 15.17 14.94 16.26C15.07 16.5 14.98 16.81 14.74 16.94C14.66 16.98 14.58 17 14.5 17C14.32 17 14.15 16.91 14.06 16.74C13.65 15.97 12.86 15.5 12 15.5C11.14 15.5 10.35 15.98 9.93999 16.74ZM17 7H18C18.55 7 19 7.45 19 8C19 8.55 18.55 9 18 9H17C16.45 9 16 8.55 16 8C16 7.45 16.45 7 17 7Z" fill="#555555"/>
</svg>
