<svg width="24" height="24" viewBox="0 0 24 24" fill="none" xmlns="http://www.w3.org/2000/svg">
<path d="M21.5 12.5C21.78 12.5 22 12.28 22 12C22 11.72 21.78 11.5 21.5 11.5H19V10H21.5C21.78 10 22 9.78 22 9.5C22 9.22 21.78 9 21.5 9H19V6.5C19 6.22 18.78 6 18.5 6H15V4.86L18.35 3.74C18.52 3.9 18.75 4 19 4C19.55 4 20 3.55 20 3C20 2.45 19.55 2 19 2C18.52 2 18.14 2.34 18.04 2.79L14.34 4.02C14.14 4.09 14 4.28 14 4.5V6H12.5V3.85C12.79 3.67 13 3.37 13 3C13 2.45 12.55 2 12 2C11.45 2 11 2.45 11 3C11 3.37 11.21 3.67 11.5 3.85V6H10V4.5C10 4.29 9.86 4.09 9.66 4.03L5.96 2.8C5.86 2.34 5.48 2 5 2C4.45 2 4 2.45 4 3C4 3.55 4.45 4 5 4C5.25 4 5.48 3.9 5.65 3.74L9 4.86V6H5.5C5.22 6 5 6.22 5 6.5V9H2.5C2.22 9 2 9.22 2 9.5C2 9.78 2.22 10 2.5 10H5V11.5H2.5C2.22 11.5 2 11.72 2 12C2 12.28 2.22 12.5 2.5 12.5H5V14H2.5C2.22 14 2 14.22 2 14.5C2 14.78 2.22 15 2.5 15H5V17.5C5 17.78 5.22 18 5.5 18H9V19.14L5.65 20.26C5.48 20.1 5.25 20 5 20C4.45 20 4 20.45 4 21C4 21.55 4.45 22 5 22C5.48 22 5.86 21.66 5.96 21.21L9.66 19.98C9.86 19.91 10 19.71 10 19.5V18H11.5V20.15C11.21 20.33 11 20.63 11 21C11 21.55 11.45 22 12 22C12.55 22 13 21.55 13 21C13 20.63 12.79 20.33 12.5 20.15V18H14V19.5C14 19.71 14.14 19.91 14.34 19.97L18.04 21.2C18.14 21.66 18.52 22 19 22C19.55 22 20 21.55 20 21C20 20.45 19.55 20 19 20C18.75 20 18.52 20.1 18.35 20.26L15 19.14V18H18.5C18.78 18 19 17.78 19 17.5V15H21.5C21.78 15 22 14.78 22 14.5C22 14.22 21.78 14 21.5 14H19V12.5H21.5ZM14 7V9H12.5V8.5C12.5 8.22 12.28 8 12 8C11.72 8 11.5 8.22 11.5 8.5V9H10V7H14ZM10 14V10H14V14H10ZM6 17V7H9V9H8.5C8.22 9 8 9.22 8 9.5C8 9.78 8.22 10 8.5 10H9V11.5H8.5C8.22 11.5 8 11.72 8 12C8 12.28 8.22 12.5 8.5 12.5H9V14H8.5C8.22 14 8 14.22 8 14.5C8 14.78 8.22 15 8.5 15H9V17H6ZM10 17V15H11.5V15.5C11.5 15.78 11.72 16 12 16C12.28 16 12.5 15.78 12.5 15.5V15H14V17H10ZM18 17H15V15H15.5C15.78 15 16 14.78 16 14.5C16 14.22 15.78 14 15.5 14H15V12.5H15.5C15.78 12.5 16 12.28 16 12C16 11.72 15.78 11.5 15.5 11.5H15V10H15.5C15.78 10 16 9.78 16 9.5C16 9.22 15.78 9 15.5 9H15V7H18V17Z" fill="#555555"/>
</svg>
