<svg width="24" height="24" viewBox="0 0 24 24" fill="none" xmlns="http://www.w3.org/2000/svg">
<path fill-rule="evenodd" clip-rule="evenodd" d="M16.5 14.5V4.54L18.19 5.89C18.41 6.06 18.72 6.03 18.89 5.81C19.06 5.59 19.03 5.28 18.81 5.11L16.31 3.11C16.13 2.96 15.87 2.96 15.68 3.11L13.18 5.11C12.96 5.28 12.93 5.6 13.1 5.81C13.21 5.94 13.35 6 13.5 6C13.61 6 13.72 5.96 13.81 5.89L15.5 4.54V14.5C15.5 14.78 15.72 15 16 15C16.28 15 16.5 14.78 16.5 14.5ZM21.89 18.19C21.72 17.98 21.4 17.94 21.19 18.11L19.5 19.46V9.5C19.5 9.22 19.28 9 19 9C18.72 9 18.5 9.22 18.5 9.5V19.46L16.81 18.11C16.59 17.94 16.28 17.97 16.11 18.19C15.94 18.41 15.97 18.72 16.19 18.89L18.69 20.89C18.78 20.96 18.89 21 19 21C19.11 21 19.22 20.96 19.31 20.89L21.81 18.89C22.03 18.72 22.06 18.4 21.89 18.19ZM11 18H13.5C13.78 18 14 18.22 14 18.5C14 18.78 13.78 19 13.5 19H2.5C2.22 19 2 18.78 2 18.5V5.5C2 5.22 2.22 5 2.5 5H10.5C10.78 5 11 5.22 11 5.5C11 5.78 10.78 6 10.5 6H3V8H12.5C12.78 8 13 8.22 13 8.5C13 8.78 12.78 9 12.5 9H11V18ZM6 18H10V9H6V18ZM5 9H3V18H5V9Z" fill="#555555"/>
</svg>
