<svg width="24" height="24" viewBox="0 0 24 24" fill="none" xmlns="http://www.w3.org/2000/svg">
<path fill-rule="evenodd" clip-rule="evenodd" d="M12 22C6.49 22 2 17.51 2 12C2 6.49 6.49 2 12 2C17.51 2 22 6.49 22 12C22 17.51 17.51 22 12 22ZM12 3C7.04 3 3 7.04 3 12C3 16.96 7.04 21 12 21C16.96 21 21 16.96 21 12C21 7.04 16.96 3 12 3ZM12 12C10.07 12 8.5 10.43 8.5 8.5C8.5 6.57 10.07 5 12 5C13.93 5 15.5 6.57 15.5 8.5C15.5 10.43 13.93 12 12 12ZM12 6C10.62 6 9.5 7.12 9.5 8.5C9.5 9.88 10.62 11 12 11C13.38 11 14.5 9.88 14.5 8.5C14.5 7.12 13.38 6 12 6ZM17.07 16.76C17.16 16.91 17.33 17 17.5 17C17.59 17 17.68 16.98 17.76 16.93C17.99 16.78 18.07 16.48 17.93 16.24C16.74 14.24 14.46 13 12 13C9.54 13 7.27 14.24 6.07 16.24C5.93 16.48 6 16.79 6.24 16.93C6.48 17.07 6.79 17 6.93 16.76C7.94 15.06 9.89 14 12 14C14.11 14 16.06 15.06 17.07 16.76Z" fill="#555555"/>
</svg>
