<svg width="24" height="24" viewBox="0 0 24 24" fill="none" xmlns="http://www.w3.org/2000/svg">
<path fill-rule="evenodd" clip-rule="evenodd" d="M4.42 6.88H5.19L6.23 9H7.75V8.94L6.52 6.52C6.87 6.35 7.13 6.12 7.3 5.85C7.47 5.57 7.55 5.23 7.55 4.81C7.55 4.23 7.35 3.78 6.96 3.47C6.57 3.16 6.02 3 5.32 3H3V9H4.42V6.88ZM5.32 5.76H4.42V4.11H5.32C5.59 4.11 5.79 4.19 5.92 4.32C6.06 4.47 6.13 4.67 6.13 4.93C6.13 5.19 6.07 5.4 5.93 5.54C5.79 5.69 5.59 5.76 5.32 5.76ZM19 20H20.5C20.78 20 21 20.22 21 20.5C21 20.78 20.78 21 20.5 21H3.5C3.22 21 3 20.78 3 20.5C3 20.22 3.22 20 3.5 20H5V11.5C5 11.23 5.22 11 5.5 11H8.5C8.78 11 9 11.23 9 11.5V20H10V17.5C10 17.22 10.22 17 10.5 17H13.5C13.78 17 14 17.22 14 17.5V20H15V14.5C15 14.22 15.22 14 15.5 14H18.5C18.78 14 19 14.22 19 14.5V20ZM6 12V20H8V12H6ZM11 18V20H13V18H11ZM18 15H16V20H18V15ZM12.12 7.88H10.17L9.83 9H8.31L10.47 3H11.81L13.99 9H12.46L12.12 7.88ZM10.51 6.76H11.78L11.14 4.68L10.51 6.76ZM19.59 3L18.91 6.76L18.09 3H16.88L16.07 6.76L15.39 3H13.98L15.24 9H16.71L17.49 5.58L18.28 9H19.75L21 3H19.59Z" fill="#555555"/>
</svg>
