<svg width="24" height="24" viewBox="0 0 24 24" fill="none" xmlns="http://www.w3.org/2000/svg">
<path fill-rule="evenodd" clip-rule="evenodd" d="M12.5 6H17.5C17.78 6 18 6.22 18 6.5V11.5C18 11.78 17.78 12 17.5 12C17.22 12 17 11.78 17 11.5V7.71L11.85 12.85C11.76 12.95 11.63 13 11.5 13C11.37 13 11.24 12.95 11.15 12.86C10.95 12.66 10.95 12.35 11.15 12.15L16.29 7H12.5C12.22 7 12 6.78 12 6.5C12 6.22 12.22 6 12.5 6ZM6 17.5C6 17.78 6.22 18 6.5 18H16.5C16.78 18 17 17.78 17 17.5V14.5C17 14.22 16.78 14 16.5 14C16.22 14 16 14.22 16 14.5V17H7V8H9.5C9.78 8 10 7.78 10 7.5C10 7.22 9.78 7 9.5 7H6.5C6.22 7 6 7.22 6 7.5V17.5Z" fill="#555555"/>
</svg>
