<svg width="24" height="24" viewBox="0 0 24 24" fill="none" xmlns="http://www.w3.org/2000/svg">
<path fill-rule="evenodd" clip-rule="evenodd" d="M15.94 14.51C16.03 14.61 16.16 14.66 16.29 14.66C16.42 14.66 16.55 14.61 16.64 14.52L19.51 11.65C21.49 9.67 21.49 6.46 19.51 4.48C17.54 2.51 14.32 2.51 12.35 4.48L10.64 6.19C10.44 6.39 10.44 6.7 10.64 6.9C10.84 7.1 11.15 7.1 11.35 6.9L13.06 5.18C14.65 3.6 17.23 3.6 18.81 5.18C20.39 6.76 20.39 9.34 18.81 10.93L15.94 13.8C15.74 14 15.74 14.31 15.94 14.51ZM16.63 11.5C16.5 11.5 16.37 11.45 16.28 11.35C16.08 11.15 16.08 10.84 16.28 10.64L17.4 9.52002C18.21 8.71002 18.21 7.40002 17.4 6.60002C16.62 5.82002 15.26 5.82002 14.48 6.60002L13.73 7.35002C13.53 7.55002 13.22 7.55002 13.02 7.35002C12.82 7.15002 12.82 6.84002 13.02 6.64002L13.77 5.89002C14.93 4.73002 16.95 4.73002 18.1 5.89002C19.3 7.09002 19.3 9.03002 18.1 10.23L16.98 11.35C16.88 11.45 16.76 11.5 16.63 11.5ZM13.07 14C12.25 14 11.48 13.68 10.9 13.1C10.7 12.9 10.7 12.59 10.9 12.39C11.1 12.19 11.41 12.19 11.61 12.39C12.39 13.17 13.75 13.17 14.53 12.39C14.73 12.19 15.04 12.19 15.24 12.39C15.44 12.59 15.44 12.9 15.24 13.1C14.65 13.68 13.88 14 13.07 14ZM4.49 19.52C5.45 20.47 6.72 21 8.07 21C9.42 21 10.69 20.47 11.65 19.52L12.36 18.81C12.56 18.61 12.56 18.3 12.36 18.1C12.16 17.9 11.85 17.9 11.65 18.1L10.94 18.81C10.18 19.58 9.16 20 8.07 20C6.98 20 5.96 19.58 5.19 18.81C4.42 18.04 4 17.01 4 15.93C4 14.85 4.42 13.83 5.18 13.06L8.05 10.19C9.64 8.61 12.21 8.61 13.8 10.19C14 10.39 14.31 10.39 14.51 10.19C14.71 9.99 14.71 9.68 14.51 9.48C12.54 7.51 9.32 7.51 7.35 9.48L4.48 12.35C3.53 13.3 3 14.58 3 15.93C3 17.29 3.53 18.56 4.49 19.52ZM8.07 19C7.25 19 6.48 18.68 5.9 18.1C4.7 16.9 4.7 14.96 5.9 13.76L8.77 10.9C9.93 9.74003 11.95 9.74003 13.11 10.9C13.31 11.1 13.31 11.41 13.11 11.61C12.91 11.81 12.6 11.81 12.4 11.61C11.62 10.83 10.26 10.83 9.48 11.61L6.6 14.47C5.79 15.28 5.79 16.59 6.6 17.39C7.38 18.17 8.74 18.17 9.52 17.39L10.27 16.64C10.47 16.44 10.78 16.44 10.98 16.64C11.18 16.84 11.18 17.15 10.98 17.35L10.23 18.1C9.65 18.68 8.88 19 8.07 19ZM12.5 17H20.5C20.78 17 21 16.78 21 16.5C21 16.22 20.78 16 20.5 16H12.5C12.22 16 12 16.22 12 16.5C12 16.78 12.22 17 12.5 17ZM11 15.51C10.92 15.51 10.85 15.49 10.77 15.46C10.29 15.22 9.86002 14.9 9.48002 14.52C9.29002 14.32 9.29002 14.01 9.48002 13.81C9.67002 13.61 9.99002 13.61 10.19 13.81C10.49 14.12 10.84 14.37 11.22 14.56C11.47 14.69 11.56 14.99 11.44 15.23C11.36 15.41 11.18 15.51 11 15.51Z" fill="#555555"/>
</svg>
