<svg width="24" height="24" viewBox="0 0 24 24" fill="none" xmlns="http://www.w3.org/2000/svg">
<path fill-rule="evenodd" clip-rule="evenodd" d="M9.49999 7H14.5C14.69 7 14.87 6.89 14.96 6.71C15.04 6.54 15.01 6.33 14.89 6.18L12.39 3.17C12.2 2.94 11.81 2.94 11.62 3.17L9.11999 6.18C8.98999 6.33 8.95999 6.54 9.04999 6.71C9.12999 6.89 9.30999 7 9.49999 7ZM13.44 6H10.57L12 4.28L13.44 6ZM18.5 10H5.5C5.22 10 5 9.78 5 9.5C5 9.22 5.22 9 5.5 9H18.5C18.78 9 19 9.22 19 9.5C19 9.78 18.78 10 18.5 10ZM18.5 15H5.5C5.22 15 5 14.78 5 14.5C5 14.22 5.22 14 5.5 14H18.5C18.78 14 19 14.22 19 14.5C19 14.78 18.78 15 18.5 15ZM5.5 12.5H18.5C18.78 12.5 19 12.28 19 12C19 11.72 18.78 11.5 18.5 11.5H5.5C5.22 11.5 5 11.72 5 12C5 12.28 5.22 12.5 5.5 12.5ZM12 21C11.85 21 11.71 20.93 11.62 20.82L9.11999 17.82C8.99999 17.67 8.96999 17.46 9.04999 17.29C9.12999 17.11 9.30999 17 9.49999 17H14.5C14.69 17 14.87 17.11 14.95 17.29C15.03 17.47 15.01 17.67 14.88 17.82L12.38 20.82C12.29 20.93 12.15 21 12 21ZM10.57 18L12 19.72L13.43 18H10.57Z" fill="#555555"/>
</svg>
