<svg width="24" height="24" viewBox="0 0 24 24" fill="none" xmlns="http://www.w3.org/2000/svg">
<path fill-rule="evenodd" clip-rule="evenodd" d="M12.1375 18.2454L6.1175 12.2254L13.4175 5.3954C13.7975 5.0054 14.1975 4.9854 15.2775 4.9954H18.4175C18.7375 4.9954 18.9875 5.2554 18.9875 5.5654L18.9975 8.8954C19.0075 9.9554 18.9975 10.1754 18.5875 10.5854L17.6275 11.6054C17.4375 11.8054 17.4475 12.1254 17.6475 12.3154C17.8475 12.5054 18.1675 12.4954 18.3575 12.2954L19.2975 11.2854C20.0031 10.5798 19.9976 9.98286 19.9877 8.90565L19.9875 8.8854L19.9775 5.5754C19.9775 4.7054 19.2675 4.0054 18.4075 4.0054H15.2775C14.1975 3.9854 13.4075 3.9854 12.7175 4.6754L4.4575 12.4054C3.8475 13.0154 3.8475 14.0154 4.4575 14.6254L9.3675 19.5354C9.6675 19.8354 10.0575 19.9954 10.4775 19.9954C10.8975 19.9954 11.2875 19.8354 11.5975 19.5254L12.1475 18.9454C12.3275 18.7554 12.3175 18.4554 12.1475 18.2654C12.1425 18.2604 12.1425 18.2579 12.1425 18.2554C12.1425 18.2529 12.1425 18.2504 12.1375 18.2454ZM10.0775 18.8254L5.1675 13.9254C4.9375 13.6954 4.9375 13.3354 5.1475 13.1254L5.3775 12.9054L11.0775 18.6054L10.8675 18.8254C10.6675 19.0454 10.2875 19.0454 10.0775 18.8254ZM19.4975 14.9954H12.4975C12.2175 14.9954 11.9975 15.2154 11.9975 15.4954C11.9975 15.7754 12.2175 15.9954 12.4975 15.9954H19.4975C19.7775 15.9954 19.9975 15.7754 19.9975 15.4954C19.9975 15.2154 19.7775 14.9954 19.4975 14.9954ZM8.9975 11.4654C8.7975 11.2654 8.7975 10.9554 8.9975 10.7554C9.1975 10.5654 9.5075 10.5654 9.7075 10.7554L11.5775 12.6354C11.7775 12.8354 11.7775 13.1454 11.5775 13.3454C11.4875 13.4454 11.3475 13.4954 11.2275 13.4954C11.1075 13.4954 10.9775 13.4454 10.8775 13.3454L8.9975 11.4654ZM13.7575 12.4953C13.8875 12.4953 14.0175 12.4453 14.1075 12.3453C14.3075 12.1453 14.3075 11.8353 14.1075 11.6353L11.4675 8.99534C11.2675 8.79534 10.9575 8.79534 10.7575 8.99534C10.5575 9.19534 10.5575 9.50534 10.7575 9.70534L13.4075 12.3553C13.5075 12.4453 13.6375 12.4953 13.7575 12.4953ZM16.6375 5.76538C17.5175 5.76538 18.2375 6.48538 18.2375 7.36538C18.2375 8.24538 17.5175 8.96538 16.6375 8.96538C15.7575 8.96538 15.0375 8.24538 15.0375 7.36538C15.0375 6.48538 15.7575 5.76538 16.6375 5.76538ZM16.0275 7.36538C16.0275 7.69538 16.2975 7.96538 16.6275 7.96538C16.9575 7.96538 17.2375 7.69538 17.2275 7.36538C17.2275 7.03538 16.9575 6.76538 16.6275 6.76538C16.2975 6.76538 16.0275 7.03538 16.0275 7.36538Z" fill="#555555"/>
</svg>
