<svg width="24" height="24" viewBox="0 0 24 24" fill="none" xmlns="http://www.w3.org/2000/svg">
<path fill-rule="evenodd" clip-rule="evenodd" d="M19.94 20.26L17 14.87V6.5C17 6.22 16.78 6 16.5 6H15V5.5C15 5.22 14.78 5 14.5 5H12.95C12.72 3.86 11.71 3 10.5 3C9.29 3 8.28 3.86 8.05 5H6.5C6.22 5 6 5.22 6 5.5V6H4.5C4.22 6 4 6.22 4 6.5V18.5C4 18.78 4.22 19 4.5 19H7.75L7.06 20.26C6.98 20.41 6.98 20.6 7.07 20.75C7.16 20.91 7.32 21 7.5 21H19.5C19.68 21 19.84 20.91 19.93 20.75C20.02 20.6 20.02 20.42 19.94 20.26ZM7 6H8.5C8.78 6 9 5.78 9 5.5C9 4.67 9.67 4 10.5 4C11.33 4 12 4.67 12 5.5C12 5.78 12.22 6 12.5 6H14V7H7V6ZM5 18V7H6V7.5C6 7.78 6.22 8 6.5 8H14.5C14.78 8 15 7.78 15 7.5V7H16V13.04L13.94 9.26C13.77 8.94 13.24 8.94 13.06 9.26L8.29 18H5ZM8.34 20L13.5 10.54L18.66 20H8.34ZM13 16V13C13 12.72 13.22 12.5 13.5 12.5C13.78 12.5 14 12.72 14 13V16C14 16.28 13.78 16.5 13.5 16.5C13.22 16.5 13 16.28 13 16ZM14.5 18C14.5 18.5523 14.0523 19 13.5 19C12.9477 19 12.5 18.5523 12.5 18C12.5 17.4477 12.9477 17 13.5 17C14.0523 17 14.5 17.4477 14.5 18ZM6 10.5C6 10.22 6.22 10 6.5 10H10.5C10.78 10 11 10.22 11 10.5C11 10.78 10.78 11 10.5 11H6.5C6.22 11 6 10.78 6 10.5ZM8.5 13H6.5C6.22 13 6 13.22 6 13.5C6 13.78 6.22 14 6.5 14H8.5C8.78 14 9 13.78 9 13.5C9 13.22 8.78 13 8.5 13ZM6 16.5C6 16.22 6.22 16 6.5 16H7.5C7.78 16 8 16.22 8 16.5C8 16.78 7.78 17 7.5 17H6.5C6.22 17 6 16.78 6 16.5Z" fill="#555555"/>
</svg>
