<svg width="24" height="24" viewBox="0 0 24 24" fill="none" xmlns="http://www.w3.org/2000/svg">
<path fill-rule="evenodd" clip-rule="evenodd" d="M16.31 3.11L18.81 5.11C19.03 5.28 19.06 5.6 18.89 5.81C18.79 5.94 18.65 6 18.5 6C18.39 6 18.28 5.96 18.19 5.89L16.5 4.54V13.5C16.5 13.78 16.28 14 16 14C15.72 14 15.5 13.78 15.5 13.5V4.54L13.81 5.89C13.6 6.06 13.28 6.02 13.11 5.81C12.94 5.6 12.97 5.28 13.19 5.11L15.69 3.11C15.87 2.96 16.13 2.96 16.31 3.11ZM21.19 18.11C21.4 17.94 21.72 17.98 21.89 18.19C22.06 18.4 22.03 18.72 21.81 18.89L19.31 20.89C19.22 20.96 19.11 21 19 21C18.89 21 18.78 20.96 18.69 20.89L16.19 18.89C15.97 18.72 15.94 18.41 16.11 18.19C16.28 17.97 16.6 17.94 16.81 18.11L18.5 19.46V10.5C18.5 10.22 18.72 10 19 10C19.28 10 19.5 10.22 19.5 10.5V19.46L21.19 18.11ZM13.42 19H2.5C2.22 19 2 18.78 2 18.5V13.5C2 13.22 2.22 13 2.5 13H13.5C13.78 13 14 13.22 14 13.5C14 13.78 13.78 14 13.5 14H3V18H13.42C13.7 18 13.92 18.22 13.92 18.5C13.92 18.78 13.7 19 13.42 19ZM2.5 11H13.42C13.7 11 13.92 10.78 13.92 10.5C13.92 10.22 13.7 10 13.42 10H3V6H10.5C10.78 6 11 5.78 11 5.5C11 5.22 10.78 5 10.5 5H2.5C2.22 5 2 5.22 2 5.5V10.5C2 10.78 2.22 11 2.5 11Z" fill="#555555"/>
</svg>
