<svg width="24" height="24" viewBox="0 0 24 24" fill="none" xmlns="http://www.w3.org/2000/svg">
<path fill-rule="evenodd" clip-rule="evenodd" d="M16.93 4.24L19.93 9.24C19.98 9.32 20 9.41 20 9.5V19.5C20 19.78 19.78 20 19.5 20H4.5C4.22 20 4 19.78 4 19.5V4.5C4 4.22 4.22 4 4.5 4H16.5C16.68 4 16.84 4.09 16.93 4.24ZM13 9V5H8V9H13ZM8 13V19H16V13H8ZM17 19H19V9.64L16.22 5H14V9.5C14 9.78 13.78 10 13.5 10H7.5C7.22 10 7 9.78 7 9.5V5H5V19H7V12.5C7 12.22 7.22 12 7.5 12H16.5C16.78 12 17 12.22 17 12.5V19ZM11.5 8C11.78 8 12 7.78 12 7.5V6.5C12 6.22 11.78 6 11.5 6C11.22 6 11 6.22 11 6.5V7.5C11 7.78 11.22 8 11.5 8ZM10.5 16C10.22 16 10 16.22 10 16.5C10 16.78 10.22 17 10.5 17H13.5C13.78 17 14 16.78 14 16.5C14 16.22 13.78 16 13.5 16H10.5Z" fill="#555555"/>
</svg>
