<svg width="24" height="24" viewBox="0 0 24 24" fill="none" xmlns="http://www.w3.org/2000/svg">
<path d="M21.85 21.1404L16.84 16.1329C18.18 14.6337 19 12.6647 19 10.4958C19 5.8081 15.19 2 10.5 2C5.81 2 2 5.8081 2 10.4958C2 15.1834 5.81 18.9915 10.5 18.9915C12.67 18.9915 14.64 18.1719 16.14 16.8426L21.15 21.8501C21.25 21.95 21.38 22 21.5 22C21.63 22 21.76 21.95 21.85 21.8501C22.05 21.6502 22.05 21.3303 21.85 21.1404ZM10.5 17.992C6.36 17.992 3 14.6337 3 10.4958C3 6.35782 6.36 2.9995 10.5 2.9995C14.64 2.9995 18 6.35782 18 10.4958C18 14.6337 14.64 17.992 10.5 17.992Z" fill="#555555"/>
</svg>
