<svg width="24" height="24" viewBox="0 0 24 24" fill="none" xmlns="http://www.w3.org/2000/svg">
<path fill-rule="evenodd" clip-rule="evenodd" d="M11.999 2C15.5704 2 19.0617 3.37 21.8328 5.85C22.0228 6.02 22.0528 6.31 21.9128 6.51L19.912 9.29C19.832 9.4 19.712 9.47 19.5819 9.49C19.5519 9.5 19.5319 9.5 19.5019 9.5C19.3918 9.5 19.2918 9.46 19.2018 9.4C16.6708 7.52 14.7701 6.5 11.999 6.5C9.0079 6.5 7.09718 7.56 4.80631 9.4C4.69627 9.48 4.56622 9.52 4.42617 9.5C4.29612 9.48 4.16607 9.4 4.09604 9.3L2.09529 6.52C1.94523 6.31 1.97524 6.02 2.16531 5.85C4.93636 3.37 8.43769 2 11.999 2ZM3.16569 6.3L4.59623 8.28C5.96675 7.23 7.27725 6.43 8.77781 5.96L7.97751 3.63C6.25686 4.17 4.63625 5.06 3.16569 6.3ZM8.94788 3.36L9.75819 5.72C10.4484 5.58 11.1887 5.5 11.999 5.5C12.8093 5.5 13.5396 5.58 14.2399 5.73L15.0502 3.36C14.0598 3.13 13.0394 3 11.999 3C10.9586 3 9.93825 3.13 8.94788 3.36ZM15.2002 6C16.6108 6.46 17.9113 7.23 19.3918 8.3L20.8224 6.31C19.3618 5.08 17.7312 4.19 16.0106 3.64L15.2002 6ZM9.49808 19.5C9.49808 20.88 10.6185 22 11.999 22C13.3795 22 14.5 20.88 14.5 19.5C14.5 18.68 14.1198 17.94 13.4696 17.48L12.4992 8.45C12.4692 8.19 12.2591 8 11.999 8C11.7489 8 11.5288 8.19 11.4988 8.45L10.5285 17.48C9.87822 17.94 9.49808 18.68 9.49808 19.5ZM11.4988 17.82L11.999 13.16L12.4992 17.82C12.5192 17.98 12.6093 18.12 12.7493 18.2C13.2195 18.47 13.4996 18.95 13.4996 19.5C13.4996 20.33 12.8293 21 11.999 21C11.1687 21 10.4985 20.33 10.4985 19.5C10.4985 18.95 10.7786 18.47 11.2487 18.2C11.3888 18.12 11.4788 17.98 11.4988 17.82Z" fill="#555555"/>
</svg>
