<svg width="24" height="24" viewBox="0 0 24 24" fill="none" xmlns="http://www.w3.org/2000/svg">
<path d="M21.85 8.06L15.94 2.15C15.74 1.95 15.43 1.95 15.23 2.15C15.03 2.35 15.03 2.66 15.23 2.86L15.69 3.32L9.99 8.1C8.88 7.31 7.25 7.4 6.27 8.38L5.42 9.22C5.33 9.32 5.28 9.45 5.28 9.58C5.28 9.71 5.33 9.84 5.43 9.93L8.5 13L3 18.65C2.95 18.7 2.91 18.77 2.89 18.84L2.03 21.34C1.97 21.52 2.01 21.72 2.15 21.86C2.24 21.95 2.37 22 2.5 22C2.55 22 2.61 21.99 2.66 21.97L5.16 21.11C5.23 21.09 5.3 21.05 5.35 21L11 15.51L14.07 18.58C14.16 18.67 14.29 18.73 14.42 18.73C14.55 18.73 14.68 18.68 14.77 18.58L15.61 17.74C16.62 16.73 16.72 15.14 15.9 14.02L20.68 8.32L21.14 8.78C21.24 8.88 21.37 8.93 21.49 8.93C21.61 8.93 21.75 8.88 21.84 8.78C22.05 8.57 22.05 8.25 21.85 8.06ZM4.73 20.2L3.31 20.69L3.8 19.27L9.21 13.71L10.29 14.79L4.73 20.2ZM14.91 17.02L14.42 17.51L6.48 9.58L6.97 9.09C7.68 8.38 8.93 8.38 9.64 9.09L14.9 14.36C15.65 15.09 15.65 16.29 14.91 17.02ZM15.23 13.26L10.74 8.77L16.4 4.03L19.98 7.6L15.23 13.26Z" fill="#555555"/>
</svg>
