<svg width="24" height="24" viewBox="0 0 24 24" fill="none" xmlns="http://www.w3.org/2000/svg">
<path fill-rule="evenodd" clip-rule="evenodd" d="M2 12C2 17.51 6.49 22 12 22C17.51 22 22 17.51 22 12C22 6.49 17.51 2 12 2C6.49 2 2 6.49 2 12ZM3 12C3 7.04 7.04 3 12 3C16.96 3 21 7.04 21 12C21 16.96 16.96 21 12 21C7.04 21 3 16.96 3 12ZM10.15 17.35C10.24 17.45 10.37 17.5 10.5 17.5C10.63 17.5 10.76 17.45 10.87 17.35L18.37 9.84999C18.57 9.64999 18.57 9.33999 18.37 9.13999L16.37 7.13999C16.17 6.93999 15.86 6.93999 15.66 7.13999L10.51 12.29L8.86 10.64C8.66 10.44 8.35 10.44 8.15 10.64L6.15 12.64C5.95 12.84 5.95 13.15 6.15 13.35L10.15 17.35ZM10.5 16.29L7.21 13L8.5 11.71L10.14 13.36C10.34 13.56 10.65 13.56 10.85 13.36L16 8.20999L17.29 9.49999L10.5 16.29Z" fill="#555555"/>
</svg>
