<svg width="24" height="24" viewBox="0 0 24 24" fill="none" xmlns="http://www.w3.org/2000/svg">
<path d="M12 19C8.14 19 5 15.86 5 12C5 8.14 8.14 5 12 5C14.46 5 16.69 6.25 17.98 8.36C18.1 8.56 18.07 8.82 17.9 8.98L12.35 14.36C12.15 14.55 11.84 14.55 11.65 14.35L9.15 11.85C8.95 11.65 8.95 11.34 9.15 11.14C9.35 10.94 9.66 10.94 9.86 11.14L12.01 13.3L16.91 8.55C15.78 6.94 13.98 6 12 6C8.69 6 6 8.69 6 12C6 15.31 8.69 18 12 18C15.31 18 18 15.31 18 12C18 11.72 18.22 11.5 18.5 11.5C18.78 11.5 19 11.72 19 12C19 15.86 15.86 19 12 19Z" fill="#555555"/>
</svg>
