<svg width="24" height="24" viewBox="0 0 24 24" fill="none" xmlns="http://www.w3.org/2000/svg">
<path fill-rule="evenodd" clip-rule="evenodd" d="M19.99 5.58003L20 8.89003L20.0002 8.90988C20.0101 9.97741 20.0156 10.5745 19.31 11.29L11.6 19.53L11.59 19.54C11.29 19.84 10.9 20 10.48 20C10.06 20 9.67 19.84 9.37 19.54L4.46 14.63C3.85 14.02 3.85 13.02 4.46 12.41L12.72 4.68003C13.41 3.99003 14.2 3.99003 15.29 4.01003H18.42C19.28 4.01003 19.99 4.71003 19.99 5.58003ZM5.17 13.93L10.08 18.83C10.29 19.05 10.66 19.05 10.87 18.83L11.08 18.61L5.38 12.91L5.15 13.13C4.94 13.34 4.94 13.7 5.17 13.93ZM11.77 17.88L18.59 10.59C19 10.18 19.01 9.96003 19 8.90003L18.99 5.57003C18.99 5.26003 18.74 5.00003 18.42 5.00003H15.28H14.95C14.11 5.00003 13.76 5.05003 13.42 5.40003L6.12 12.23L11.77 17.88ZM9.00001 10.76C9.20001 10.56 9.51001 10.56 9.71001 10.76L13.33 14.39C13.52 14.59 13.52 14.9 13.33 15.1C13.24 15.2 13.11 15.25 12.98 15.25C12.86 15.25 12.73 15.2 12.63 15.1L9.00001 11.47C8.80001 11.28 8.80001 10.96 9.00001 10.76ZM11.47 8.99998C11.27 8.79998 10.96 8.79998 10.76 8.99998C10.56 9.19998 10.56 9.50998 10.76 9.70998L14.41 13.36C14.51 13.46 14.64 13.51 14.76 13.51C14.88 13.51 15.02 13.46 15.11 13.36C15.31 13.16 15.31 12.85 15.11 12.65L11.47 8.99998ZM15.03 7.36001C15.03 6.48001 15.75 5.76001 16.63 5.76001C17.52 5.76001 18.23 6.48001 18.23 7.36001C18.23 8.24001 17.51 8.96001 16.63 8.96001C15.75 8.96001 15.03 8.24001 15.03 7.36001ZM16.03 7.37001C16.03 7.70001 16.3 7.97001 16.63 7.97001C16.97 7.97001 17.24 7.70001 17.23 7.37001C17.23 7.04001 16.96 6.77001 16.63 6.77001C16.3 6.77001 16.03 7.04001 16.03 7.37001Z" fill="#555555"/>
</svg>
