<svg width="24" height="24" viewBox="0 0 24 24" fill="none" xmlns="http://www.w3.org/2000/svg">
<path fill-rule="evenodd" clip-rule="evenodd" d="M6 17C6 19.7568 8.24316 22 11 22C13.7568 22 16 19.7568 16 17C16 15.4209 15.2568 13.9453 14 13.002V5C14 3.3457 12.6543 2 11 2C9.3457 2 8 3.3457 8 5V13.002C6.74268 13.9453 6 15.4209 6 17ZM9 5C9 3.89697 9.89697 3 11 3C12.103 3 13 3.89697 13 5V13.2598C13 13.4268 13.083 13.582 13.2217 13.6748C14.335 14.4219 15 15.6641 15 17C15 19.2061 13.206 21 11 21C8.79443 21 7 19.2061 7 17C7 15.6641 7.66455 14.4209 8.77832 13.6748C8.91699 13.582 9 13.4268 9 13.2598V5ZM11.5 5V15.071C12.3602 15.2946 13 16.071 13 17C13 18.1025 12.103 19 11 19C9.89697 19 9 18.1025 9 17C9 16.071 9.63977 15.2946 10.5 15.071V5C10.5 4.72363 10.7236 4.5 11 4.5C11.2764 4.5 11.5 4.72363 11.5 5ZM10 17C10 17.5518 10.4487 18 11 18C11.5513 18 12 17.5518 12 17C12 16.4482 11.5513 16 11 16C10.4487 16 10 16.4482 10 17ZM17.5 5.5H15.5C15.2236 5.5 15 5.27637 15 5C15 4.72363 15.2236 4.5 15.5 4.5H17.5C17.7764 4.5 18 4.72363 18 5C18 5.27637 17.7764 5.5 17.5 5.5ZM15.5 7.5H16.5C16.7764 7.5 17 7.27637 17 7C17 6.72363 16.7764 6.5 16.5 6.5H15.5C15.2236 6.5 15 6.72363 15 7C15 7.27637 15.2236 7.5 15.5 7.5ZM15.5 9.5C15.2236 9.5 15 9.27637 15 9C15 8.72363 15.2236 8.5 15.5 8.5H17.5C17.7764 8.5 18 8.72363 18 9C18 9.27637 17.7764 9.5 17.5 9.5H15.5ZM15.5 11.5H16.5C16.7764 11.5 17 11.2764 17 11C17 10.7236 16.7764 10.5 16.5 10.5H15.5C15.2236 10.5 15 10.7236 15 11C15 11.2764 15.2236 11.5 15.5 11.5Z" fill="#555555"/>
</svg>
