<svg width="24" height="24" viewBox="0 0 24 24" fill="none" xmlns="http://www.w3.org/2000/svg">
<path d="M18 17H15C14.07 17 13.29 17.64 13.07 18.5H8V13.5H13.07C13.29 14.36 14.07 15 15 15H18C19.1 15 20 14.1 20 13C20 11.9 19.1 11 18 11H15C14.07 11 13.29 11.64 13.07 12.5H8V10H11.5C12.33 10 13 9.33 13 8.5V5.5C13 4.67 12.33 4 11.5 4H8.91C8.71 3.42 8.15 3 7.5 3H5.5C4.67 3 4 3.67 4 4.5V8.5C4 9.33 4.67 10 5.5 10H7V19C7 19.28 7.22 19.5 7.5 19.5H13.07C13.29 20.36 14.07 21 15 21H18C19.1 21 20 20.1 20 19C20 17.9 19.1 17 18 17ZM15 12H18C18.55 12 19 12.45 19 13C19 13.55 18.55 14 18 14H15C14.45 14 14 13.55 14 13C14 12.45 14.45 12 15 12ZM5 8.5V4.5C5 4.22 5.22 4 5.5 4H7.5C7.78 4 8 4.22 8 4.5C8 4.78 8.22 5 8.5 5H11.5C11.78 5 12 5.22 12 5.5V8.5C12 8.78 11.78 9 11.5 9H5.5C5.22 9 5 8.78 5 8.5ZM18 20H15C14.45 20 14 19.55 14 19C14 18.45 14.45 18 15 18H18C18.55 18 19 18.45 19 19C19 19.55 18.55 20 18 20Z" fill="#555555"/>
</svg>
