<svg width="24" height="24" viewBox="0 0 24 24" fill="none" xmlns="http://www.w3.org/2000/svg">
<path fill-rule="evenodd" clip-rule="evenodd" d="M15.85 2.15L19.85 6.15C19.95 6.24 20 6.37 20 6.5V21.5C20 21.78 19.78 22 19.5 22H4.5C4.22 22 4 21.78 4 21.5V2.5C4 2.22 4.22 2 4.5 2H15.5C15.63 2 15.76 2.05 15.85 2.15ZM18.29 6L16 3.71V6H18.29ZM5 3V21H19V7H15.5C15.22 7 15 6.78 15 6.5V3H5ZM7.40001 13.18H6.14001V12.38H9.71001V13.18H8.43001V16.65H7.40001V13.18ZM13.87 12.38H12.7L12 13.8L11.3 12.38H10.13L11.32 14.5L10.1 16.65H11.28L12 15.2L12.72 16.65H13.9L12.68 14.5L13.87 12.38ZM15.54 13.18H14.29V12.38H17.85V13.18H16.57V16.65H15.54V13.18Z" fill="#555555"/>
</svg>
