<svg width="24" height="24" viewBox="0 0 24 24" fill="none" xmlns="http://www.w3.org/2000/svg">
<path fill-rule="evenodd" clip-rule="evenodd" d="M10.02 7.61997C10.07 7.84997 10.28 7.99997 10.5 7.99997C10.5332 7.99997 10.5663 7.99311 10.6051 7.98507C10.6132 7.9834 10.6214 7.98169 10.63 7.97997C10.89 7.90997 11.06 7.63997 10.99 7.36997L9.99002 3.36997C9.92002 3.10997 9.65002 2.94997 9.38002 3.00997C9.12002 3.07997 8.95002 3.34997 9.02002 3.61997L10.02 7.61997ZM18.13 12.33C18.22 12.43 18.35 12.48 18.48 12.48C18.61 12.48 18.73 12.43 18.82 12.33L19.51 11.64C21.48 9.67 21.48 6.46 19.51 4.48C17.54 2.51 14.32 2.51 12.35 4.48L11.64 5.19C11.44 5.39 11.44 5.7 11.64 5.9C11.84 6.1 12.15 6.1 12.35 5.9L13.07 5.18C14.66 3.6 17.23 3.6 18.82 5.18C20.4 6.77 20.4 9.34 18.82 10.93L18.13 11.62C17.93 11.82 17.93 12.13 18.13 12.33ZM16.65 10.98C16.74 11.08 16.87 11.13 17 11.13C17.13 11.13 17.26 11.08 17.35 10.97L18.1 10.22C19.3 9.03002 19.3 7.09002 18.1 5.89002C16.95 4.73002 14.93 4.73002 13.77 5.89002L13.02 6.64002C12.82 6.84002 12.82 7.15002 13.02 7.35002C13.22 7.55002 13.53 7.55002 13.73 7.35002L14.48 6.60002C15.26 5.82002 16.62 5.82002 17.4 6.60002C18.2 7.40002 18.2 8.72002 17.4 9.52002L16.65 10.27C16.45 10.47 16.45 10.78 16.65 10.98ZM8.07 21C6.77 21 5.48 20.51 4.49 19.52C3.53 18.56 3 17.29 3 15.93C3 14.58 3.53 13.3 4.48 12.35L5.21 11.62C5.41 11.42 5.72 11.42 5.92 11.62C6.12 11.82 6.12 12.13 5.92 12.33L5.19 13.06C4.42 13.83 4 14.85 4 15.93C4 17.01 4.42 18.04 5.19 18.81C6.77 20.39 9.35 20.39 10.94 18.81L11.65 18.1C11.85 17.9 12.16 17.9 12.36 18.1C12.56 18.3 12.56 18.61 12.36 18.81L11.65 19.52C10.66 20.5 9.36 21 8.07 21ZM5.90001 18.1C6.48001 18.68 7.25001 19 8.07001 19C8.88001 19 9.65001 18.68 10.23 18.1L10.98 17.35C11.17 17.15 11.17 16.84 10.98 16.64C10.78 16.44 10.47 16.44 10.27 16.64L9.52001 17.39C8.74001 18.17 7.38001 18.17 6.60001 17.39C5.79001 16.59 5.79001 15.27 6.60001 14.47L7.36001 13.73C7.56001 13.53 7.56001 13.22 7.36001 13.02C7.16001 12.82 6.85001 12.82 6.65001 13.02L5.90001 13.77C4.71001 14.96 4.71001 16.9 5.90001 18.1ZM19.5 20C19.37 20 19.24 19.95 19.15 19.85L14.182 14.882C14.1709 14.872 14.1602 14.8613 14.15 14.85L4.15 4.84999C3.95 4.64999 3.95 4.33999 4.15 4.13999C4.35 3.93999 4.66 3.93999 4.86 4.13999L14.8594 14.1394L14.86 14.14L19.86 19.14C20.06 19.34 20.06 19.65 19.86 19.85C19.76 19.95 19.63 20 19.5 20ZM20.38 14.99C20.42 15 20.46 15 20.5 15C20.72 15 20.93 14.85 20.99 14.63C21.06 14.36 20.9 14.09 20.63 14.02L16.63 13.02C16.35 12.95 16.09 13.11 16.02 13.38C15.95 13.65 16.11 13.92 16.38 13.99L20.38 14.99ZM14.5 21C14.28 21 14.07 20.85 14.01 20.62L13.01 16.62C12.94 16.35 13.11 16.08 13.37 16.01C13.63 15.95 13.91 16.11 13.98 16.37L14.98 20.37C15.05 20.64 14.88 20.91 14.62 20.98C14.58 21 14.54 21 14.5 21ZM7.50003 11C7.46003 11 7.42003 11 7.38003 10.99L3.38003 9.99003C3.11003 9.92003 2.95003 9.65003 3.02003 9.38003C3.09003 9.11003 3.36003 8.95003 3.63003 9.02003L7.63003 10.02C7.90003 10.09 8.06003 10.36 7.99003 10.63C7.93003 10.85 7.72003 11 7.50003 11Z" fill="#555555"/>
</svg>
