<svg width="24" height="24" viewBox="0 0 24 24" fill="none" xmlns="http://www.w3.org/2000/svg">
<path fill-rule="evenodd" clip-rule="evenodd" d="M14.5 14H17.12C18.71 14 20 12.74 20 11.18C20 10.01 19.24 8.95 18.17 8.56V8.42C18.17 5.98 16.15 4 13.66 4C12.16 4 10.78 4.72 9.96 5.91C9.65 5.78 9.31 5.71 8.96 5.71C7.53 5.71 6.37 6.85 6.37 8.25V8.38L6.36999 8.38C6.25999 8.41 6.15 8.44 6.06 8.48C4.85 8.84 4 9.94 4 11.18C4 12.74 5.29 14 6.88 14H8.5C8.78 14 9 13.78 9 13.5C9 13.22 8.78 13 8.5 13H6.88C5.84 13 5 12.19 5 11.18C5 10.39 5.55 9.68 6.38 9.43C6.57 9.36 6.78 9.31 6.99 9.28C7.13 9.27 7.27 9.19 7.35 9.07C7.44 8.95 7.46 8.8 7.42 8.66C7.38 8.51 7.36 8.38 7.36 8.26C7.36 7.41 8.08 6.72 8.95 6.72C9.27 6.72 9.58 6.81 9.85 6.99C9.96 7.07 10.1 7.09 10.24 7.06C10.38 7.03 10.5 6.94 10.56 6.81C11.18 5.7 12.36 5 13.66 5C15.59 5 17.17 6.54 17.17 8.42C17.17 8.56 17.16 8.7 17.14 8.84C17.11 9.08 17.25 9.31 17.48 9.38L17.66 9.44C18.45 9.67 19 10.38 19 11.18C19 12.19 18.16 13 17.12 13H14.5C14.22 13 14 13.22 14 13.5C14 13.78 14.22 14 14.5 14ZM12.33 8.12L15.83 11.12C16.04 11.3 16.06 11.62 15.88 11.83C15.78 11.94 15.64 12 15.5 12C15.38 12 15.27 11.96 15.17 11.88L12.5 9.59V19.5C12.5 19.78 12.28 20 12 20C11.72 20 11.5 19.78 11.5 19.5V9.59L8.81997 11.88C8.61997 12.06 8.29997 12.04 8.11997 11.83C7.93997 11.62 7.95997 11.3 8.17997 11.12L11.68 8.12C11.87 7.96 12.14 7.96 12.33 8.12Z" fill="#555555"/>
</svg>
