<svg width="80" height="80" viewBox="0 0 80 80" fill="none" xmlns="http://www.w3.org/2000/svg">
<path fill-rule="evenodd" clip-rule="evenodd" d="M59.25 54.02C59.25 55.66 60.58 57 62.22 57C72.02 57 80 49 80 39.15C80 30.35 73.54 22.83 64.91 21.51C63.09 9.22 52.45 0 40 0C27.55 0 16.91 9.22 15.09 21.51C6.46 22.83 0 30.34 0 39.15C0 49 7.98 57 17.77 57.01C19.41 57.01 20.74 55.67 20.74 54.03C20.74 52.39 19.41 51.05 17.77 51.05C11.24 51.05 5.93 45.72 5.93 39.16C5.93 32.63 11.22 27.3 17.8 27.27C19.4 27.27 20.7 26.02 20.77 24.42C21.22 14.07 29.67 5.96 40 5.96C50.33 5.96 58.78 14.07 59.23 24.41C59.3 26.01 60.6 27.26 62.27 27.26C68.77 27.29 74.06 32.62 74.06 39.15C74.06 45.71 68.75 51.04 62.22 51.04C60.58 51.04 59.25 52.38 59.25 54.02ZM60.23 24.38C59.75 13.49 50.87 4.96 40 4.96C29.13 4.96 20.25 13.49 19.77 24.37C19.73 25.43 18.87 26.26 17.73 26.26C10.68 26.29 4.94 32.07 4.94 39.15C4.94 46.26 10.7 52.04 17.78 52.04C18.87 52.04 19.75 52.93 19.75 54.02C19.75 55.11 18.87 56 17.78 56C8.53 56 1 48.44 1 39.15C1 30.72 7.28 23.54 15.6 22.45L15.98 22.4L16.03 22.02C17.62 10.04 27.92 1 40 1C52.08 1 62.38 10.04 63.97 22.02L64.02 22.4L64.4 22.45C72.72 23.54 79 30.72 79 39.15C79 48.44 71.47 56 62.22 56C61.13 56 60.26 55.12 60.26 54.03C60.26 52.94 61.14 52.05 62.23 52.05C69.31 52.05 75.07 46.27 75.07 39.16C75.07 32.08 69.33 26.3 62.2 26.27C61.14 26.27 60.28 25.44 60.23 24.38ZM40.0701 80H40.0901C41.1401 80 42.1501 79.59 42.8601 78.87C43.5301 78.2 43.8901 77.33 43.8901 76.41L43.8001 34.81L52.2501 43.26C53.6301 44.63 55.8601 44.74 57.2301 43.51C57.9601 42.86 58.3701 41.96 58.4001 40.98C58.4301 40 58.0601 39.08 57.3701 38.39L42.4601 23.48C41.1401 22.16 38.8301 22.16 37.5101 23.48L22.6201 38.37C21.9301 39.06 21.5601 39.98 21.5901 40.96C21.6101 41.93 22.0301 42.83 22.7601 43.49C24.1301 44.73 26.3701 44.62 27.7401 43.24L36.1201 34.86L36.2201 76.39C36.2201 77.3 36.6001 78.18 37.2701 78.85C38.0001 79.58 39.0201 80 40.0701 80ZM36.8101 33.19C36.7501 33.16 36.6801 33.15 36.6201 33.15C36.4901 33.15 36.3601 33.2 36.2601 33.29L27.0301 42.52C26.0301 43.53 24.4101 43.62 23.4301 42.74C22.9101 42.27 22.6101 41.62 22.5901 40.92C22.5701 40.22 22.8301 39.56 23.3301 39.06L38.2101 24.18C39.1601 23.24 40.8101 23.24 41.7501 24.18L56.6601 39.09C57.1501 39.59 57.4201 40.25 57.4001 40.95C57.3801 41.65 57.0801 42.3 56.5601 42.77C55.5801 43.65 53.9601 43.55 52.9601 42.55L43.6501 33.24C43.5101 33.1 43.3001 33.05 43.1101 33.13C42.9201 33.2 42.8001 33.39 42.8001 33.59L42.9001 76.41C42.9001 77.06 42.6401 77.68 42.1601 78.16C41.6301 78.7 40.8801 79 40.0901 79H40.0801C39.2901 79 38.5201 78.68 37.9801 78.14C37.4901 77.65 37.2201 77.03 37.2201 76.38L37.1201 33.65C37.1201 33.45 37.0001 33.27 36.8101 33.19Z" fill="#555555"/>
</svg>
