<svg width="24" height="24" viewBox="0 0 24 24" fill="none" xmlns="http://www.w3.org/2000/svg">
<path fill-rule="evenodd" clip-rule="evenodd" d="M12 19C8.17319 19 4.65612 16.32 3.03747 12.18C2.98751 12.06 2.98751 11.93 3.03747 11.82C4.65612 7.68 8.1632 5 12 5C15.8368 5 19.3439 7.68 20.9625 11.82C21.0125 11.94 21.0125 12.07 20.9625 12.18C19.3439 16.32 15.8268 19 12 19ZM4.04663 12C5.53539 15.65 8.6428 18 12 18C15.3572 18 18.4646 15.65 19.9534 12C18.4646 8.35 15.3572 6 12 6C8.6428 6 5.53539 8.35 4.04663 12ZM12 16C9.79185 16 8.00334 14.21 8.00334 12C8.00334 11.72 8.22315 11.5 8.50292 11.5C8.78269 11.5 9.00251 11.72 9.00251 12C9.00251 13.65 10.3514 15 12 15C13.6486 15 14.9975 13.65 14.9975 12C14.9975 10.35 13.6486 9 12 9C11.7202 9 11.5004 8.78 11.5004 8.5C11.5004 8.22 11.7202 8 12 8C14.2082 8 15.9967 9.79 15.9967 12C15.9967 14.21 14.2082 16 12 16ZM13.4988 12C13.4988 12.8284 12.8277 13.5 12 13.5C11.1723 13.5 10.5013 12.8284 10.5013 12C10.5013 11.1716 11.1723 10.5 12 10.5C12.8277 10.5 13.4988 11.1716 13.4988 12Z" fill="#555555"/>
</svg>
