<svg width="24" height="24" viewBox="0 0 24 24" fill="none" xmlns="http://www.w3.org/2000/svg">
<path fill-rule="evenodd" clip-rule="evenodd" d="M19.15 22H4.85001C3.87001 22 2.98001 21.48 2.45001 20.61C1.88001 19.66 1.84001 18.51 2.36001 17.53L9.78001 3.33C10.22 2.51 11.07 2 12 2C12.93 2 13.78 2.51 14.21 3.34L21.63 17.54C22.14 18.52 22.11 19.67 21.54 20.62C21.02 21.48 20.12 22 19.15 22ZM12 3C11.43 3 10.93 3.3 10.67 3.8L3.25001 18C2.90001 18.67 2.92001 19.45 3.31001 20.1C3.66001 20.67 4.22001 21 4.85001 21H19.14C19.77 21 20.33 20.67 20.68 20.1C21.07 19.46 21.09 18.67 20.74 18.01L13.33 3.8C13.07 3.3 12.57 3 12 3ZM12 16C12.55 16 13 16.45 13 17C13 17.55 12.55 18 12 18C11.45 18 11 17.55 11 17C11 16.45 11.45 16 12 16ZM12 15C10.9 15 10 15.9 10 17C10 18.1 10.9 19 12 19C13.1 19 14 18.1 14 17C14 15.9 13.1 15 12 15ZM13 8C13 7.45 12.55 7 12 7C11.45 7 11 7.45 11 8V12C11 12.55 11.45 13 12 13C12.55 13 13 12.55 13 12V8ZM10 8C10 6.9 10.9 6 12 6C13.1 6 14 6.9 14 8V12C14 13.1 13.1 14 12 14C10.9 14 10 13.1 10 12V8Z" fill="#555555"/>
</svg>
