<svg width="24" height="24" viewBox="0 0 24 24" fill="none" xmlns="http://www.w3.org/2000/svg">
<path fill-rule="evenodd" clip-rule="evenodd" d="M4.06701 18.7497C4.15636 18.9042 4.3214 19 4.50011 19H19.5C19.6787 19 19.8437 18.9042 19.9326 18.7497C20.0224 18.5952 20.0224 18.4045 19.9326 18.249L12.4332 5.23247C12.2544 4.92251 11.7457 4.92251 11.567 5.23247L4.06701 18.249C3.97766 18.4045 3.97766 18.5952 4.06701 18.7497ZM18.6348 17.9987H5.36582L12.0001 6.48504L18.6348 17.9987ZM12.0001 13.9937C11.7237 13.9937 11.5001 13.7698 11.5001 13.493V9.48794C11.5001 9.21122 11.7237 8.9873 12.0001 8.9873C12.2764 8.9873 12.5001 9.21122 12.5001 9.48794V13.493C12.5001 13.7698 12.2764 13.9937 12.0001 13.9937ZM12.0001 16.9969C12.5527 16.9969 13.0007 16.5489 13.0007 15.9962C13.0007 15.4436 12.5527 14.9956 12.0001 14.9956C11.4474 14.9956 10.9994 15.4436 10.9994 15.9962C10.9994 16.5489 11.4474 16.9969 12.0001 16.9969Z" fill="#555555"/>
</svg>
