<svg width="24" height="24" viewBox="0 0 24 24" fill="none" xmlns="http://www.w3.org/2000/svg">
<path fill-rule="evenodd" clip-rule="evenodd" d="M15 4C15.28 4 15.5 3.78 15.5 3.5V2.5C15.5 2.22 15.28 2 15 2C14.72 2 14.5 2.22 14.5 2.5V3.5C14.5 3.78 14.72 4 15 4ZM16.16 12.42V12.56C17.24 12.95 18 14.01 18 15.18C18 16.74 16.71 18 15.12 18H12.81L11.95 19.72C11.86 19.9 11.68 20 11.5 20C11.42 20 11.35 19.98 11.28 19.95C11.04 19.83 10.94 19.53 11.06 19.28L13.06 15.28C13.18 15.04 13.48 14.94 13.73 15.06C13.97 15.18 14.07 15.48 13.95 15.73L13.31 17.01H15.12C16.16 17.01 17 16.19 17 15.19C17 14.39 16.45 13.68 15.66 13.45L15.48 13.38C15.25 13.3 15.11 13.08 15.14 12.84C15.16 12.7 15.17 12.56 15.17 12.42C15.17 10.54 13.59 9 11.66 9C10.36 9 9.17 9.69 8.56 10.81C8.5 10.94 8.38 11.03 8.25 11.05C8.11 11.08 7.97 11.06 7.85 10.98C7.58 10.8 7.27 10.71 6.95 10.71C6.07 10.71 5.36 11.4 5.36 12.25C5.36 12.37 5.38 12.5 5.42 12.65C5.46 12.8 5.43 12.95 5.35 13.07C5.27 13.19 5.14 13.27 4.99 13.28C4.78 13.3 4.58 13.35 4.38 13.43C3.55 13.67 3 14.39 3 15.18C3 16.19 3.84 17 4.88 17H6.19L7.06 15.27C7.18 15.03 7.48 14.93 7.73 15.05C7.97 15.17 8.07 15.47 7.95 15.72L5.95 19.72C5.86 19.9 5.68 20 5.5 20C5.42 20 5.35 19.98 5.27 19.95C5.03 19.83 4.93 19.53 5.05 19.28L5.69 18H4.88C3.29 18 2 16.74 2 15.18C2 13.95 2.85 12.84 4.05 12.48C4.15 12.44 4.25 12.41 4.36 12.38V12.25C4.36 10.85 5.52 9.71 6.95 9.71C7.3 9.71 7.63 9.78 7.95 9.91C8.78 8.72 10.16 8 11.66 8C14.15 8 16.17 9.98 16.16 12.42ZM10.05 15.27C10.17 15.03 10.47 14.93 10.72 15.05C10.97 15.18 11.07 15.48 10.95 15.72L7.94999 21.72C7.85999 21.9 7.67999 22 7.49999 22C7.41999 22 7.34999 21.98 7.26999 21.94C7.02999 21.82 6.92999 21.52 7.04999 21.27L10.05 15.27ZM20.5 8.5H21.5C21.78 8.5 22 8.72 22 9C22 9.28 21.78 9.5 21.5 9.5H20.5C20.22 9.5 20 9.28 20 9C20 8.72 20.22 8.5 20.5 8.5ZM19 5.49999C19.13 5.49999 19.26 5.44999 19.35 5.34999L20.35 4.34999C20.55 4.14999 20.55 3.83999 20.35 3.63999C20.15 3.43999 19.84 3.43999 19.64 3.63999L18.64 4.63999C18.44 4.83999 18.44 5.14999 18.64 5.34999C18.74 5.44999 18.87 5.49999 19 5.49999ZM18.64 12.65C18.84 12.45 19.15 12.45 19.35 12.65L20.34 13.65C20.54 13.85 20.54 14.16 20.34 14.36C20.25 14.46 20.11 14.51 19.99 14.51C19.87 14.51 19.74 14.46 19.64 14.36L18.64 13.36C18.44 13.16 18.44 12.85 18.64 12.65ZM10.65 5.34999C10.74 5.44999 10.87 5.49999 11 5.49999C11.13 5.49999 11.26 5.44999 11.35 5.34999C11.55 5.14999 11.55 4.83999 11.35 4.63999L10.35 3.63999C10.15 3.43999 9.83999 3.43999 9.63999 3.63999C9.43999 3.83999 9.43999 4.14999 9.63999 4.34999L10.65 5.34999ZM15.11 6C14.32 6 13.58 6.33 13.02 6.93C12.83 7.13 12.51 7.14 12.31 6.96C12.11 6.77 12.1 6.45 12.29 6.25C13.04 5.44 14.04 5 15.11 5C17.26 5 19 6.74 19 8.89C19 9.89 18.6 10.85 17.89 11.59C17.79 11.69 17.66 11.74 17.53 11.74C17.4 11.74 17.28 11.69 17.18 11.6C16.98 11.4 16.98 11.09 17.17 10.89C17.7 10.34 18 9.63 18 8.89C18 7.3 16.7 6 15.11 6Z" fill="#555555"/>
</svg>
