<svg width="24" height="24" viewBox="0 0 24 24" fill="none" xmlns="http://www.w3.org/2000/svg">
<path fill-rule="evenodd" clip-rule="evenodd" d="M15.85 2.15L19.85 6.15C19.95 6.24 20 6.37 20 6.5V21.5C20 21.78 19.78 22 19.5 22H4.5C4.22 22 4 21.78 4 21.5V2.5C4 2.22 4.22 2 4.5 2H15.5C15.63 2 15.76 2.05 15.85 2.15ZM18.29 6L16 3.71V6H18.29ZM5 3V21H19V7H15.5C15.22 7 15 6.78 15 6.5V3H5ZM9.02 12.38L8.32 13.8L7.62 12.38H6.45L7.64 14.5L6.42 16.65H7.6L8.32 15.2L9.04 16.65H10.22L9 14.5L10.19 12.38H9.02ZM11.77 15.86H13.56V16.65H10.74V12.38H11.77V15.86ZM16.2 15.16C16.31 15.24 16.36 15.36 16.36 15.51C16.36 15.65 16.31 15.75 16.21 15.83C16.11 15.9 15.98 15.94 15.81 15.94C15.54 15.94 15.35 15.89 15.23 15.78C15.11 15.67 15.05 15.5 15.05 15.27H14.02C14.02 15.56 14.09 15.8 14.23 16.02C14.37 16.24 14.58 16.4 14.86 16.53C15.14 16.66 15.45 16.72 15.8 16.72C16.29 16.72 16.68 16.61 16.96 16.4C17.24 16.19 17.38 15.89 17.38 15.52C17.38 15.05 17.15 14.69 16.69 14.42C16.5 14.31 16.25 14.21 15.96 14.11C15.66 14.01 15.46 13.92 15.34 13.83C15.22 13.74 15.16 13.64 15.16 13.53C15.16 13.4 15.21 13.3 15.32 13.22C15.43 13.14 15.58 13.1 15.76 13.1C15.94 13.1 16.08 13.15 16.19 13.24C16.3 13.33 16.35 13.47 16.35 13.64H17.38C17.38 13.38 17.31 13.15 17.18 12.95C17.04 12.75 16.85 12.59 16.61 12.48C16.37 12.37 16.1 12.32 15.79 12.32C15.48 12.32 15.19 12.37 14.94 12.47C14.69 12.57 14.5 12.71 14.36 12.89C14.22 13.08 14.15 13.28 14.15 13.52C14.15 14 14.43 14.37 14.98 14.64C15.15 14.72 15.37 14.81 15.64 14.9C15.91 14.99 16.09 15.08 16.2 15.16Z" fill="#555555"/>
</svg>
