<svg width="24" height="24" viewBox="0 0 24 24" fill="none" xmlns="http://www.w3.org/2000/svg">
<path fill-rule="evenodd" clip-rule="evenodd" d="M15.85 2.15L19.85 6.15C19.95 6.24 20 6.37 20 6.5V21.5C20 21.78 19.78 22 19.5 22H4.5C4.22 22 4 21.78 4 21.5V2.5C4 2.22 4.22 2 4.5 2H15.5C15.63 2 15.76 2.05 15.85 2.15ZM18.29 6L16 3.71V6H18.29ZM12 9H11V10H12V9ZM5 3V21H19V7H15.5C15.22 7 15 6.78 15 6.5V3H12V4H12.5C12.78 4 13 4.22 13 4.5C13 4.78 12.78 5 12.5 5H12V6H12.5C12.78 6 13 6.22 13 6.5C13 6.78 12.78 7 12.5 7H12V8H12.5C12.78 8 13 8.22 13 8.5V10.5C13 10.78 12.78 11 12.5 11H10.5C10.22 11 10 10.78 10 10.5V8.5C10 8.22 10.22 8 10.5 8C10.22 8 10 7.78 10 7.5C10 7.22 10.22 7 10.5 7H11V6H10.5C10.22 6 10 5.78 10 5.5C10 5.22 10.22 5 10.5 5H11V4H10.5C10.22 4 10 3.78 10 3.5C10 3.22 10.22 3 10.5 3H5ZM10.63 12.38V12.91L8.62001 15.86H10.65V16.65H7.33001V16.11L9.37001 13.18H7.32001V12.38H10.63ZM12.38 12.38H11.35V16.65H12.38V12.38ZM14.98 12.38C15.31 12.38 15.6 12.44 15.85 12.56C16.1 12.68 16.3 12.86 16.44 13.08C16.58 13.3 16.65 13.55 16.65 13.83C16.65 14.25 16.5 14.58 16.2 14.83C15.9 15.08 15.49 15.2 14.97 15.2H14.31V16.65H13.28V12.38H14.98ZM14.98 14.41C15.18 14.41 15.34 14.36 15.44 14.26C15.54 14.16 15.59 14.02 15.6 13.84C15.6 13.64 15.55 13.48 15.44 13.36C15.33 13.24 15.19 13.18 15 13.18H14.31V14.41H14.98Z" fill="#555555"/>
</svg>
