<svg width="24" height="24" viewBox="0 0 24 24" fill="none" xmlns="http://www.w3.org/2000/svg">
<path d="M18.5 4H8.5C8.22 4 8 4.22 8 4.5V11H5.5C5.22 11 5 11.22 5 11.5V14.5C5 14.78 5.22 15 5.5 15C5.78 15 6 14.78 6 14.5V12H18V19H16.95C16.7 16.76 14.81 15 12.5 15C12.22 15 12 15.22 12 15.5V19H6V17.5C6 17.22 5.78 17 5.5 17C5.22 17 5 17.22 5 17.5V19.5C5 19.78 5.22 20 5.5 20H12.5C12.78 20 13 19.78 13 19.5V16.05C14.69 16.3 16 17.74 16 19.5C16 19.78 16.22 20 16.5 20H18.5C18.78 20 19 19.78 19 19.5V4.5C19 4.22 18.78 4 18.5 4ZM13.16 11L14.87 5H16.83L15.12 11H13.16ZM10.16 11L11.87 5H13.83L12.12 11H10.16ZM9 5H10.84L9.12 11H9V5ZM18 11H16.16L17.87 5H18V11Z" fill="#555555"/>
</svg>
