<svg width="24" height="24" viewBox="0 0 24 24" fill="none" xmlns="http://www.w3.org/2000/svg">
<path d="M20.5 2H7C6.72 2 6.5 2.22 6.5 2.5V11H3.5C3.22 11 3 11.22 3 11.5V14.5C3 14.78 3.22 15 3.5 15C3.78 15 4 14.78 4 14.5V12H20V21H17.97C17.72 18.2 15.36 16 12.5 16C12.22 16 12 16.22 12 16.5V21H4V18.5C4 18.22 3.78 18 3.5 18C3.22 18 3 18.22 3 18.5V21.5C3 21.78 3.22 22 3.5 22H12.5C12.78 22 13 21.78 13 21.5V17.05C15.24 17.3 17 19.19 17 21.5C17 21.78 17.22 22 17.5 22H20.5C20.78 22 21 21.78 21 21.5V2.5C21 2.22 20.78 2 20.5 2ZM13.16 11L15.38 3H18.34L16.12 11H13.16ZM9.16 11L11.38 3H14.34L12.12 11H9.16ZM7.5 3H10.34L8.12 11H7.5V3ZM20 11H17.16L19.38 3H20V11Z" fill="#555555"/>
</svg>
