<svg width="24" height="24" viewBox="0 0 24 24" fill="none" xmlns="http://www.w3.org/2000/svg">
<path fill-rule="evenodd" clip-rule="evenodd" d="M16.84 16.1329L21.85 21.1404C22.05 21.3303 22.05 21.6502 21.85 21.8501C21.76 21.95 21.62 22 21.5 22C21.38 22 21.25 21.95 21.15 21.8501L16.14 16.8426C14.64 18.1719 12.67 18.9915 10.5 18.9915C5.81 18.9915 2 15.1834 2 10.4958C2 5.8081 5.81 2 10.5 2C15.19 2 19 5.8081 19 10.4958C19 12.6647 18.18 14.6337 16.84 16.1329ZM3 10.4958C3 14.6337 6.36 17.992 10.5 17.992C14.64 17.992 18 14.6337 18 10.4958C18 6.35782 14.64 2.9995 10.5 2.9995C6.36 2.9995 3 6.35782 3 10.4958ZM11 9.996H15C15.28 9.996 15.5 10.2159 15.5 10.4958C15.5 10.7756 15.28 10.9955 15 10.9955H11V14.9935C11 15.2734 10.78 15.4933 10.5 15.4933C10.22 15.4933 10 15.2734 10 14.9935V10.9955H6C5.72 10.9955 5.5 10.7756 5.5 10.4958C5.5 10.2159 5.72 9.996 6 9.996H10V5.998C10 5.71814 10.22 5.49825 10.5 5.49825C10.78 5.49825 11 5.71814 11 5.998V9.996Z" fill="#555555"/>
</svg>
